<svg width="167" height="87" viewBox="0 0 167 87" fill="none" xmlns="http://www.w3.org/2000/svg">
<path d="M37.36 86.92C12.52 86.92 0.88 67.12 0.88 43.6C0.88 20.08 12.52 0.159998 37.36 0.159998C62.2 0.159998 73.72 20.08 73.72 43.6C73.72 67.12 62.2 86.92 37.36 86.92ZM37.36 70.48C49.48 70.48 53.32 60.04 53.32 43.6C53.32 27.16 49.48 16.6 37.36 16.6C25.24 16.6 21.28 27.16 21.28 43.6C21.28 60.04 25.24 70.48 37.36 70.48ZM97.1838 32.32H77.9838C77.9838 12.88 88.3038 0.159998 110.744 0.159998C128.624 0.159998 140.624 9.52 140.624 25.36C140.624 47.2 116.144 57.76 105.464 68.32V68.56H140.624V85H76.7838C76.7838 71.2 83.9838 62.68 91.3038 56.56C106.184 44.2 120.224 37.72 120.224 26.8C120.224 20.44 116.624 16.6 110.144 16.6C102.344 16.6 97.1838 20.92 97.1838 32.32ZM156.71 86.08C150.95 86.08 146.51 82.12 146.51 75.88C146.51 69.76 150.95 65.68 156.71 65.68C162.35 65.68 166.91 69.76 166.91 75.88C166.91 82.12 162.35 86.08 156.71 86.08Z" fill="#E6E6E6"/>
</svg>
