<svg width="500" height="500" viewBox="0 0 500 500" fill="none" xmlns="http://www.w3.org/2000/svg">
<g clip-path="url(#clip0_447_878)">
<path d="M472.692 82.1735C471.106 79.5068 469.439 76.8735 467.692 74.2735C444.522 39.9235 404.632 16.4335 365.392 5.8135C348.176 1.23378 330.489 -1.34658 312.682 -1.8765C196.062 -5.8265 149.612 86.1235 111.072 109.793C72.5322 133.463 13.1922 174.034 17.1922 259.023C21.1922 344.013 82.4122 424.023 201.002 429.023C319.592 434.023 327.502 380.613 393.712 360.814C437.532 347.734 468.712 303.553 483.912 262.723C504.692 207.083 503.712 134.813 472.692 82.1735Z" fill="#C5DEFF"/>
<path opacity="0.7" d="M472.692 82.1735C471.106 79.5068 469.439 76.8735 467.692 74.2735C444.522 39.9235 404.632 16.4335 365.392 5.8135C348.176 1.23378 330.489 -1.34658 312.682 -1.8765C196.062 -5.8265 149.612 86.1235 111.072 109.793C72.5322 133.463 13.1922 174.034 17.1922 259.023C21.1922 344.013 82.4122 424.023 201.002 429.023C319.592 434.023 327.502 380.613 393.712 360.814C437.532 347.734 468.712 303.553 483.912 262.723C504.692 207.083 503.712 134.813 472.692 82.1735Z" fill="white"/>
<path opacity="0.2" d="M462 263.05H420V280.05H462V263.05Z" fill="black"/>
<path opacity="0.2" d="M325.383 125.8H283.383V142.8H325.383V125.8Z" fill="black"/>
<path opacity="0.2" d="M299.508 151.48H257.508V168.48H299.508V151.48Z" fill="black"/>
<path opacity="0.2" d="M327.961 38.6401H285.961V55.6401H327.961V38.6401Z" fill="black"/>
<path opacity="0.2" d="M294 244.81H252V261.81H294V244.81Z" fill="black"/>
<path opacity="0.2" d="M211.203 93.0103H169.203V110.01H211.203V93.0103Z" fill="black"/>
<path opacity="0.2" d="M257.203 93.0103H215.203V110.01H257.203V93.0103Z" fill="black"/>
<path opacity="0.2" d="M222 370.52H180V387.52H222V370.52Z" fill="black"/>
<path opacity="0.2" d="M200 391.52H158V408.52H200V391.52Z" fill="black"/>
<path opacity="0.1" d="M276.508 174.98H234.508V191.98H276.508V174.98Z" fill="black"/>
<path opacity="0.1" d="M214.383 50.7202H172.383V67.7202H214.383V50.7202Z" fill="black"/>
<path opacity="0.1" d="M486 303.81H444V320.81H486V303.81Z" fill="black"/>
<path opacity="0.1" d="M240 329.81H198V346.81H240V329.81Z" fill="black"/>
<path opacity="0.1" d="M288 329.81H246V346.81H288V329.81Z" fill="black"/>
<path opacity="0.1" d="M292 305.81H250V322.81H292V305.81Z" fill="black"/>
<path opacity="0.1" d="M324.508 174.98H282.508V191.98H324.508V174.98Z" fill="black"/>
<path opacity="0.2" d="M346 389.81H304V406.81H346V389.81Z" fill="black"/>
<path opacity="0.1" d="M323 413.31H281V430.31H323V413.31Z" fill="black"/>
<path opacity="0.1" d="M371 413.31H329V430.31H371V413.31Z" fill="black"/>
<path opacity="0.2" d="M142.391 178.22H100.391V195.22H142.391V178.22Z" fill="black"/>
<path opacity="0.1" d="M119.391 201.72H77.3906V218.72H119.391V201.72Z" fill="black"/>
<path opacity="0.1" d="M167.391 201.72H125.391V218.72H167.391V201.72Z" fill="black"/>
<path opacity="0.2" d="M126 304.81H84V321.81H126V304.81Z" fill="black"/>
<path opacity="0.1" d="M312 223.52H270V240.52H312V223.52Z" fill="black"/>
<path opacity="0.1" d="M249 390.52H207V407.52H249V390.52Z" fill="black"/>
<path opacity="0.1" d="M235.203 72.0103H193.203V89.0103H235.203V72.0103Z" fill="black"/>
<path opacity="0.2" d="M102 248.52H60V265.52H102V248.52Z" fill="black"/>
<path opacity="0.1" d="M126 227.52H84V244.52H126V227.52Z" fill="black"/>
<path opacity="0.1" d="M233 125.31H191V142.31H233V125.31Z" fill="black"/>
<path opacity="0.1" d="M171.773 135.29H129.773V152.29H171.773V135.29Z" fill="black"/>
<path opacity="0.2" d="M379 263.05H337V280.05H379V263.05Z" fill="black"/>
<path opacity="0.2" d="M72.5312 357.08H30.5312V374.08H72.5312V357.08Z" fill="black"/>
<path opacity="0.1" d="M54.3906 118.22H12.3906V135.22H54.3906V118.22Z" fill="black"/>
<path opacity="0.1" d="M102.391 118.22H60.3906V135.22H102.391V118.22Z" fill="black"/>
<path opacity="0.1" d="M106.391 94.2202H64.3906V111.22H106.391V94.2202Z" fill="black"/>
<path opacity="0.1" d="M75 162.52H33V179.52H75V162.52Z" fill="black"/>
<path opacity="0.2" d="M129.531 374.58H87.5312V391.58H129.531V374.58Z" fill="black"/>
<g opacity="0.3">
<path d="M327.305 -11.5V228.33H478.305V-11.5H327.305ZM472.775 46.11H406.225V-2.77H472.775V46.11ZM406.225 111.26H472.775V163.63H406.225V111.26ZM406.225 104.87V52.5H472.775V104.87H406.225ZM332.795 -2.77H399.345V46.11H333.135V52.5H399.345V104.87H333.135V111.26H399.345V163.63H333.135V170H399.345V219.6H332.795V-2.77ZM406.225 219.6V170H472.775V219.6H406.225Z" stroke="black" stroke-linecap="round" stroke-linejoin="round"/>
<path d="M389.804 11.8398L356.234 39.6298" stroke="black" stroke-linecap="round" stroke-linejoin="round"/>
<path d="M456.369 66.25L422.789 94.04" stroke="black" stroke-linecap="round" stroke-linejoin="round"/>
<path d="M380.539 183.76L346.969 211.54" stroke="black" stroke-linecap="round" stroke-linejoin="round"/>
<path d="M372.193 19.95L356.812 32.68" stroke="black" stroke-linecap="round" stroke-linejoin="round"/>
<path d="M453.812 59.8901L438.422 72.6201" stroke="black" stroke-linecap="round" stroke-linejoin="round"/>
<path d="M378.562 192.44L363.172 205.18" stroke="black" stroke-linecap="round" stroke-linejoin="round"/>
<path d="M373.929 131.08L358.539 143.82" stroke="black" stroke-linecap="round" stroke-linejoin="round"/>
<path d="M452.648 184.92L437.258 197.65" stroke="black" stroke-linecap="round" stroke-linejoin="round"/>
<path d="M487.622 228.17H318.602V249.17H487.622V228.17Z" stroke="black" stroke-linecap="round" stroke-linejoin="round"/>
</g>
<g opacity="0.3">
<path d="M78.8397 80.7802L79.4597 74.7402H39.4297L40.0497 80.7802H78.8397Z" stroke="black" stroke-linecap="round" stroke-linejoin="round"/>
<path d="M77.2 96.6702H41.69L37.25 53.7002H81.63L77.2 96.6702Z" stroke="black" stroke-linecap="round" stroke-linejoin="round"/>
<path d="M44.5009 53.3902C40.4895 52.6008 36.7472 50.7968 33.6309 48.1502C28.3909 43.7202 19.1309 42.5102 15.9009 44.9302C13.6431 46.6794 11.4925 48.5628 9.46094 50.5702C9.46094 50.5702 11.8809 41.7102 18.3209 39.6902C24.7609 37.6702 28.7909 39.6902 32.4209 41.3002C36.0509 42.9102 37.6609 44.1202 41.6909 46.5402C43.937 47.878 46.0887 49.3682 48.1309 51.0002C48.1309 51.0002 46.9209 45.7702 44.5009 43.3502C42.0809 40.9302 27.5909 30.4302 27.5909 30.4302C32.1261 31.5703 36.5688 33.0511 40.8809 34.8602C46.1209 37.2802 50.1409 41.7102 50.5509 43.7202C51.0648 45.651 51.7337 47.5371 52.5509 49.3602L54.1609 53.3602C54.1609 53.3602 53.7609 47.3602 53.3609 42.8902C52.9609 38.4202 52.1509 35.6302 52.5509 31.2002C52.9509 26.7702 53.7609 23.9502 53.7609 21.5402C53.8489 19.8702 54.2705 18.2346 55.0009 16.7302C55.0009 16.7302 56.5909 28.0002 57.4009 31.6402C58.2109 35.2802 58.2009 40.1002 58.6009 42.5102C59.0009 44.9202 60.2209 52.1802 60.2209 52.1802C60.2209 52.1802 59.4109 46.1802 61.8309 42.9202C64.2509 39.6602 65.0509 37.2802 66.6609 34.8602C68.2709 32.4402 70.2909 28.4102 70.2909 28.4102C70.2909 28.4102 70.2909 34.8602 68.6709 38.8902C67.0509 42.9202 65.8509 44.8902 65.8509 46.5402V52.1802C65.8509 52.1802 69.8509 44.9302 72.3009 42.9202C74.7509 40.9102 76.3009 40.9202 77.1309 39.6902C77.9609 38.4602 82.7709 35.6902 82.7709 35.6902C82.7709 35.6902 80.0009 42.1102 79.1509 43.3202C77.6422 45.0317 76.0256 46.645 74.3109 48.1502C77.1787 46.7363 80.1428 45.5266 83.1809 44.5302C87.1809 43.3202 93.2509 42.1102 95.6609 42.1102C98.0709 42.1102 106.141 40.9002 106.141 40.9002C106.141 40.9002 98.8909 44.1202 94.4609 45.7402C90.0309 47.3602 87.2009 48.1502 85.5909 48.5602L84.0009 49.0002C87.8376 49.6014 91.6127 50.5451 95.2809 51.8202C100.921 53.8202 102.531 55.4402 103.341 56.6502C103.909 57.6543 104.317 58.7406 104.551 59.8702C104.551 59.8702 106.961 61.8702 106.961 63.5002C106.961 65.1302 96.0709 55.8102 92.0009 54.6002C87.9309 53.3902 81.5909 53.7002 81.5909 53.7002" stroke="black" stroke-linecap="round" stroke-linejoin="round"/>
</g>
<g opacity="0.3">
<path d="M104.037 111.2L103.617 107.11H130.747L130.317 111.2H104.037Z" stroke="black" stroke-linecap="round" stroke-linejoin="round"/>
<path d="M105.158 121.97H129.208L132.218 92.8501H102.148L105.158 121.97Z" stroke="black" stroke-linecap="round" stroke-linejoin="round"/>
<path d="M127.31 92.64C130.029 92.1137 132.565 90.8905 134.67 89.09C138.22 86.09 144.5 85.27 146.67 86.91C148.203 88.0934 149.662 89.3691 151.04 90.73C151.04 90.73 149.4 84.73 145.04 83.36C140.68 81.99 137.94 83.36 135.48 84.45C133.308 85.4832 131.213 86.6696 129.21 88C127.687 88.8991 126.226 89.9015 124.84 91C124.84 91 125.66 87.46 127.3 85.82C128.94 84.18 138.76 77.08 138.76 77.08C135.689 77.8538 132.681 78.8566 129.76 80.08C126.21 81.71 123.48 84.72 123.21 86.08C122.861 87.3881 122.406 88.6656 121.85 89.9L120.75 92.63C120.75 92.63 121.03 88.54 121.3 85.53C121.57 82.52 122.12 80.62 121.85 77.62C121.58 74.62 121.03 72.71 121.03 71.07C120.98 69.9327 120.701 68.8172 120.21 67.79C120.21 67.79 119.12 75.44 118.57 77.89C118.02 80.34 118.03 83.62 117.75 85.26C117.47 86.9 116.66 91.81 116.66 91.81C116.66 91.81 117.21 87.72 115.57 85.53C113.93 83.34 113.39 81.71 112.29 80.08C111.19 78.45 109.84 75.71 109.84 75.71C109.842 78.1183 110.209 80.5122 110.93 82.81C112.02 85.53 112.84 86.9 112.84 87.99V91.81C112.84 91.81 110.11 86.9 108.47 85.53C106.83 84.16 105.74 84.17 105.2 83.35C104.66 82.53 101.38 80.62 101.38 80.62C101.38 80.62 103.29 84.99 103.83 85.81C104.853 86.9688 105.948 88.061 107.11 89.08C105.17 88.1241 103.165 87.3055 101.11 86.63C98.3517 85.7909 95.5127 85.2446 92.64 85C91 85 85.55 84.18 85.55 84.18C85.55 84.18 90.46 86.36 93.46 87.46C96.46 88.56 98.37 89.09 99.46 89.37L100.55 89.64C97.9481 90.0468 95.3878 90.6861 92.9 91.55C89.08 92.91 87.99 94.01 87.45 94.82C87.0608 95.5012 86.7839 96.2407 86.63 97.01C86.63 97.01 85 98.37 85 99.46C85 100.55 92.37 94.28 95.1 93.46C97.4118 92.9403 99.7833 92.7351 102.15 92.85" stroke="black" stroke-linecap="round" stroke-linejoin="round"/>
</g>
<g opacity="0.3">
<path d="M156.271 42.3101L156.751 37.6101H125.641L126.121 42.3101H156.271Z" stroke="black" stroke-linecap="round" stroke-linejoin="round"/>
<path d="M154.993 54.6603H127.403L123.953 21.2603H158.443L154.993 54.6603Z" stroke="black" stroke-linecap="round" stroke-linejoin="round"/>
<path d="M124.002 21.2602C124.002 21.2602 120.162 17.4902 117.932 16.5302C115.702 15.5702 111.492 14.0002 111.492 14.0002C111.492 14.0002 116.602 14.0002 120.112 15.6002C122.519 16.7384 124.856 18.0173 127.112 19.4302C127.112 19.4302 123.912 14.9602 121.362 11.7702C118.812 8.58016 113.052 3.14016 112.742 1.55016C112.432 -0.0398444 120.402 6.98016 125.832 11.1302C131.262 15.2802 132.222 18.1302 132.222 18.1302C132.222 18.1302 128.072 10.4602 124.872 3.75016C122.95 -0.416339 120.605 -4.37388 117.872 -8.05984C116.872 -9.33984 127.132 2.48016 130.642 8.23016C134.152 13.9802 136.392 17.4902 136.392 17.4902C136.392 17.4902 132.562 -1.67984 131.922 -6.14984L130.642 -15.0898C130.642 -15.0898 136.712 2.48015 137.642 5.67015C138.572 8.86015 140.192 14.6102 140.192 14.6102C140.192 14.6102 142.112 5.35016 142.752 -0.389843C143.392 -6.12984 146.262 -14.3898 146.262 -14.3898C146.262 -14.3898 145.002 3.43016 144.712 7.91016L144.072 16.8502C144.072 16.8502 147.262 8.54016 150.142 4.71016C152.639 1.58236 155.31 -1.40236 158.142 -4.22984C158.142 -4.22984 152.692 6.00016 151.412 9.18016C150.132 12.3602 148.542 18.1802 148.542 18.1802C148.542 18.1802 154.932 8.28016 157.802 5.08016C160.229 2.53719 163.031 0.382056 166.112 -1.30984C168.662 -2.89985 158.112 9.87016 156.842 12.7502C156.007 14.6003 155.059 16.3971 154.002 18.1302C154.002 18.1302 155.922 15.5702 161.002 13.6502C165.985 11.9093 171.116 10.6273 176.332 9.82016C177.612 9.82016 168.332 13.6502 165.152 14.9302C161.972 16.2102 158.442 21.2602 158.442 21.2602" stroke="black" stroke-linecap="round" stroke-linejoin="round"/>
</g>
<path d="M386.47 141.618C390.112 126.834 377.267 110.957 357.78 106.156C338.292 101.355 319.542 109.448 315.9 124.232C312.257 139.017 325.102 154.894 344.59 159.695C364.077 164.496 382.827 156.403 386.47 141.618Z" fill="#D5D5D5" stroke="#263238" stroke-linecap="round" stroke-linejoin="round"/>
<path d="M330.64 144.86C330.64 144.86 323.43 146.86 320.15 142.86C316.87 138.86 321.79 127.45 327.2 122.2C332.61 116.95 347.86 114.66 355.73 115.48C363.6 116.3 372.94 122.2 374.26 128.48C375.58 134.76 372.94 140.78 372.78 142.74C372.62 144.7 368.02 144.74 367.37 143.74C366.72 142.74 356.88 128.33 354.91 127.67C352.94 127.01 351.63 128.33 349.5 129.47C347.37 130.61 331.14 137.47 331.14 137.47L330.64 144.86Z" fill="#263238" stroke="#263238" stroke-linecap="round" stroke-linejoin="round"/>
<path d="M354.52 309.41L351.28 288.36L343.84 313.94C341.873 317.15 340.228 320.546 338.93 324.08C337.08 329.94 346.41 348.4 347.02 346.45C347.63 344.5 351.15 319.45 351.15 319.45C351.52 316.908 351.641 314.335 351.51 311.77L354.52 309.41Z" fill="white" stroke="#263238" stroke-linecap="round" stroke-linejoin="round"/>
<path d="M350.201 324.3C350.201 324.3 343.461 326.6 343.461 340.91C343.461 344.81 349.021 385.8 349.021 392.66V421.1H386.261L390.851 394.1L394.301 420.53H431.651C431.651 420.53 435.381 378.88 435.651 373.71C435.921 368.54 438.521 357.33 437.651 341.82C436.781 326.31 433.341 320.27 433.341 320.27L351.001 318.82L350.201 324.3Z" fill="#263238" stroke="#263238" stroke-linecap="round" stroke-linejoin="round"/>
<path d="M357.111 180.16C357.111 180.16 339.561 195.16 335.761 199.21C331.961 203.26 333.451 226.87 338.491 243C343.531 259.13 348.891 284.08 349.141 289.12C349.391 294.16 350.201 324.3 350.201 324.3C350.201 324.3 381.521 336.66 400.681 333.63C412.158 331.832 423.241 328.081 433.451 322.54C433.451 322.54 430.451 270.86 430.451 259.54C430.451 248.22 427.931 210.64 425.451 197.54C422.971 184.44 414.111 176.62 407.551 175.86C400.991 175.1 376.411 174 376.411 174L357.111 180.16Z" fill="white" stroke="#263238" stroke-linecap="round" stroke-linejoin="round"/>
<path d="M348.25 176.62C348.25 176.62 356.17 198.84 357.49 199.06C358.81 199.28 362.33 195.76 362.33 195.76L376.41 174L370.81 153.89C370.81 153.89 367.61 164.53 361.45 171.35C355.29 178.17 348.25 176.62 348.25 176.62Z" fill="white" stroke="#263238" stroke-linecap="round" stroke-linejoin="round"/>
<path d="M363.55 172.27L353.16 188.35L348.25 176.62L363.55 172.27Z" fill="#263238" stroke="#263238" stroke-linecap="round" stroke-linejoin="round"/>
<path d="M354.419 121.57C354.419 121.57 345.419 128.79 338.189 131.41C330.959 134.03 327.359 135 327.359 135C327.359 135 329.659 149.59 330.359 153.69C331.059 157.79 332.489 164.69 335.439 167.63C338.389 170.57 345.599 177.63 348.879 179.43C352.159 181.23 357.739 179.76 359.379 178.94C361.019 178.12 370.519 163.69 371.019 161.72C371.519 159.75 370.849 153.85 370.849 153.85C370.849 153.85 375.109 151.56 375.769 149.26C376.429 146.96 374.949 138.44 373.639 137.26C372.329 136.08 370.199 137.43 369.869 138.74C369.524 139.867 369.086 140.965 368.559 142.02C368.455 140.078 367.951 138.178 367.079 136.44C365.769 134.31 365.769 133.44 362.649 131.03C359.529 128.62 354.419 121.57 354.419 121.57Z" fill="white" stroke="#263238" stroke-linecap="round" stroke-linejoin="round"/>
<path d="M343.43 153.87L343.92 158.3C343.92 158.3 349.33 158.14 351.79 155.51" stroke="#263238" stroke-linecap="round" stroke-linejoin="round"/>
<path d="M341 162.89C341 162.89 344.94 164.2 351 162.4C357.06 160.6 358.55 156.33 358.55 156.33" stroke="#263238" stroke-linecap="round" stroke-linejoin="round"/>
<path d="M339.821 142.89C339.821 142.89 332.771 140.59 330.641 144.89" stroke="#263238" stroke-linecap="round" stroke-linejoin="round"/>
<path d="M347 140.27C347 140.27 351.75 135.51 356.67 137.27" stroke="#263238" stroke-linecap="round" stroke-linejoin="round"/>
<path d="M339.085 149.19C339.555 150.46 339.415 151.69 338.775 151.92C338.135 152.15 337.245 151.31 336.775 150.03C336.305 148.75 336.455 147.53 337.095 147.3C337.735 147.07 338.625 147.91 339.085 149.19Z" fill="#263238"/>
<path d="M354.346 144.5C354.816 145.78 354.676 147 354.036 147.24C353.396 147.48 352.506 146.62 352.036 145.35C351.566 144.08 351.706 142.85 352.346 142.62C352.986 142.39 353.876 143.23 354.346 144.5Z" fill="#263238"/>
<path d="M391.597 203.56L405.997 255C405.596 256.294 405.51 257.666 405.747 259C406.048 259.909 406.298 260.833 406.497 261.77C406.497 261.77 402.497 281.94 398.937 294.29C395.377 306.64 382.807 333.61 383.307 336.64C383.807 339.67 380.787 362.35 382.307 363.36C383.827 364.37 387.357 365.88 388.357 365.88C389.357 365.88 393.907 366.38 395.417 366.38C396.927 366.38 402.477 366.13 403.487 364.11C404.497 362.09 404.247 360.84 402.727 361.34C401.417 361.704 400.079 361.959 398.727 362.1L397.727 360.1C397.727 360.1 398.987 351.28 397.727 344.72C396.467 338.16 395.967 335.9 395.967 335.9C395.967 335.9 427.477 284.73 428.737 275.15C429.997 265.57 432.007 254.98 432.007 250.15C432.007 245.32 427.007 202.26 425.457 197.47C423.907 192.68 423.187 187.89 419.157 183.86C415.127 179.83 412.347 179.86 410.327 179.86" fill="white"/>
<path d="M391.597 203.56L405.997 255C405.596 256.294 405.51 257.666 405.747 259C406.048 259.909 406.298 260.833 406.497 261.77C406.497 261.77 402.497 281.94 398.937 294.29C395.377 306.64 382.807 333.61 383.307 336.64C383.807 339.67 380.787 362.35 382.307 363.36C383.827 364.37 387.357 365.88 388.357 365.88C389.357 365.88 393.907 366.38 395.417 366.38C396.927 366.38 402.477 366.13 403.487 364.11C404.497 362.09 404.247 360.84 402.727 361.34C401.417 361.704 400.079 361.959 398.727 362.1L397.727 360.1C397.727 360.1 398.987 351.28 397.727 344.72C396.467 338.16 395.967 335.9 395.967 335.9C395.967 335.9 427.477 284.73 428.737 275.15C429.997 265.57 432.007 254.98 432.007 250.15C432.007 245.32 427.007 202.26 425.457 197.47C423.907 192.68 423.187 187.89 419.157 183.86C415.127 179.83 412.347 179.86 410.327 179.86" stroke="#263238" stroke-linecap="round" stroke-linejoin="round"/>
<path d="M408.5 260.41C408.5 260.41 415.9 257.33 422.22 260.11" stroke="#263238" stroke-linecap="round" stroke-linejoin="round"/>
<path d="M413.273 254.86C413.273 254.86 421.753 252.86 427.153 259.18" stroke="#263238" stroke-linecap="round" stroke-linejoin="round"/>
<path d="M401.286 285.21C400.506 288.42 399.696 291.56 398.906 294.31C395.376 306.66 382.776 333.63 383.276 336.66C383.776 339.69 380.756 362.37 382.276 363.38C383.796 364.39 387.326 365.9 388.326 365.9C389.326 365.9 393.876 366.4 395.386 366.4C396.896 366.4 402.446 366.15 403.456 364.13C404.466 362.11 404.216 360.86 402.696 361.36C401.386 361.725 400.048 361.979 398.696 362.12L397.696 360.12C397.696 360.12 398.956 351.3 397.696 344.74C396.436 338.18 395.936 335.92 395.936 335.92C395.936 335.92 410.996 311.31 420.736 293C414.456 286.5 406.536 285.21 401.286 285.21Z" fill="white" stroke="#263238" stroke-linecap="round" stroke-linejoin="round"/>
<path d="M392.508 361.73C392.508 361.73 395.008 363.85 395.878 364.52C396.748 365.19 397.028 365.87 398.658 366.06" fill="white"/>
<path d="M392.508 361.73C392.508 361.73 395.008 363.85 395.878 364.52C396.748 365.19 397.028 365.87 398.658 366.06" stroke="#263238" stroke-linecap="round" stroke-linejoin="round"/>
<path d="M387.609 363C387.609 363 391.359 365.79 393.659 366.37L387.609 363Z" fill="white"/>
<path d="M387.609 363C387.609 363 391.359 365.79 393.659 366.37" stroke="#263238" stroke-linecap="round" stroke-linejoin="round"/>
<path d="M383.477 362.4C384.46 363.701 385.703 364.784 387.127 365.58L383.477 362.4Z" fill="white"/>
<path d="M383.477 362.4C384.46 363.701 385.703 364.784 387.127 365.58" stroke="#263238" stroke-linecap="round" stroke-linejoin="round"/>
<path d="M350.098 318.09C350.098 318.09 351.018 324.86 351.378 325.96C351.738 327.06 351.198 329.07 351.568 333.27C351.938 337.47 353.028 341.87 350.288 341.14C347.548 340.41 346.288 333.27 346.438 331.44C346.588 329.61 343.328 324.13 343.328 324.13" fill="white"/>
<path d="M350.098 318.09C350.098 318.09 351.018 324.86 351.378 325.96C351.738 327.06 351.198 329.07 351.568 333.27C351.938 337.47 353.028 341.87 350.288 341.14C347.548 340.41 346.288 333.27 346.438 331.44C346.588 329.61 343.328 324.13 343.328 324.13" stroke="#263238" stroke-linecap="round" stroke-linejoin="round"/>
<path d="M296.823 281C294.263 276.1 275.253 208.71 275.253 208.71C271.673 218.52 269.383 266.89 269.383 266.89L271.463 292.54L271.093 297.35C276.093 293.94 288.233 287.22 296.323 296.17C296.443 295.7 296.543 295.3 296.593 294.99C297.643 288.5 299.383 285.87 296.823 281Z" fill="#92E3A9" stroke="#263238" stroke-linecap="round" stroke-linejoin="round"/>
<path d="M290.695 287.46C291.975 287.669 293.225 288.035 294.415 288.55" stroke="#263238" stroke-linecap="round" stroke-linejoin="round"/>
<path d="M272.859 289.83C277.079 288.278 281.509 287.374 285.999 287.15" stroke="#263238" stroke-linecap="round" stroke-linejoin="round"/>
<path d="M293.163 284.76C293.163 284.76 287.562 281.36 283.062 282.7" stroke="#263238" stroke-linecap="round" stroke-linejoin="round"/>
<path d="M179.609 420.43L180.799 369.05L184.449 340.86L269.439 337.96L277.009 358.17L281.679 421.1H238.659L230.539 379.42L228.209 383.43L227.319 420.21L179.609 420.43Z" fill="#263238" stroke="#263238" stroke-linecap="round" stroke-linejoin="round"/>
<path d="M206.381 199.1C206.381 199.1 169.381 208.9 167.111 210.02C164.841 211.14 169.831 244.79 173.331 257.02C176.831 269.25 185.331 314.3 185.331 314.3L184.761 346.84C184.761 346.84 221.071 347.74 235.601 345.95C245.829 344.572 255.977 342.649 266.001 340.19C266.001 340.19 271.151 311.43 269.381 292.49C267.611 273.55 272.771 226.49 272.841 223.39C272.911 220.29 275.211 208.68 275.211 208.68C275.211 208.68 247.551 200.21 240.441 199.32C229.117 198.229 217.718 198.156 206.381 199.1Z" fill="#6AABFF" stroke="#263238" stroke-linecap="round" stroke-linejoin="round"/>
<path d="M199.414 207.4C199.414 207.4 204.024 220.11 214.914 227.7" stroke="#263238" stroke-linecap="round" stroke-linejoin="round"/>
<path d="M237.59 205.15C236.119 208.686 234.394 212.112 232.43 215.4" stroke="#263238" stroke-linecap="round" stroke-linejoin="round"/>
<path d="M231.754 218.06L229.844 220.73" stroke="#263238" stroke-linecap="round" stroke-linejoin="round"/>
<path d="M218.422 343.25C227.022 342.74 242.792 341.36 253.032 337.78" stroke="#263238" stroke-linecap="round" stroke-linejoin="round"/>
<path d="M212.305 343.52C212.305 343.52 213.305 343.52 214.975 343.42" stroke="#263238" stroke-linecap="round" stroke-linejoin="round"/>
<path d="M247.724 334C236.434 335.47 219.314 336.8 205.984 333.92" stroke="#263238" stroke-linecap="round" stroke-linejoin="round"/>
<path d="M259.735 332C259.735 332 256.885 332.59 252.305 333.28" stroke="#263238" stroke-linecap="round" stroke-linejoin="round"/>
<path d="M258.794 316.37C251.964 320.37 238.914 327.05 225.984 329.17" stroke="#263238" stroke-linecap="round" stroke-linejoin="round"/>
<path d="M263.669 313.39C263.669 313.39 262.749 314.01 261.109 315" stroke="#263238" stroke-linecap="round" stroke-linejoin="round"/>
<path d="M201.148 186.29L202.698 204.18C202.698 204.18 208.168 217.18 220.898 216.31C233.368 215.49 235.218 199.61 235.218 199.61L232.698 180.72C232.698 180.72 221.698 189.87 215.588 189.07C209.478 188.27 201.148 186.29 201.148 186.29Z" fill="white" stroke="#263238" stroke-linecap="round" stroke-linejoin="round"/>
<path d="M188.475 165.1C188.475 165.1 186.205 162.21 184.475 164.82C182.745 167.43 184.795 174.45 187.925 175.97C191.055 177.49 191.875 177.48 191.875 177.48C191.875 177.48 195.425 184.48 197.295 186.56C199.165 188.64 212.845 198.4 216.135 199C219.425 199.6 224.135 198.58 225.965 196.66C227.795 194.74 233.625 181.52 234.525 178.36C235.425 175.2 235.585 174.5 235.625 172.58C235.665 170.66 235.575 169 235.575 169C235.575 169 238.855 164.18 239.225 160.33C239.595 156.48 238.705 153.59 236.655 153.04C234.605 152.49 232.295 156.61 232.295 156.61L225.385 135.42C225.385 135.42 223.005 129.59 221.005 128.9C219.005 128.21 204.195 130.01 197.935 132.62C191.675 135.23 185.565 137.99 185.075 140.88C184.585 143.77 188.475 165.1 188.475 165.1Z" fill="white" stroke="#263238" stroke-linecap="round" stroke-linejoin="round"/>
<path d="M199.789 135.44C199.789 135.44 187.969 137.79 187.279 139.71C186.589 141.63 185.649 145.27 186.869 148.05C188.089 150.83 189.449 165.15 189.449 165.15C189.449 165.15 191.259 169.64 189.989 168.99C188.719 168.34 187.789 162.99 187.379 162.37C186.969 161.75 181.659 151.47 180.039 147.62C178.419 143.77 181.929 140.14 182.809 139.28C183.45 138.617 184.039 137.905 184.569 137.15C184.569 137.15 183.649 130.95 186.499 128.15C189.349 125.35 209.969 121.15 211.689 120.45C213.409 119.75 215.209 116.18 216.689 115.32C218.169 114.46 222.689 116.61 225.289 121.95C227.889 127.29 227.689 128.79 226.809 129.86L225.999 131C225.999 131 228.999 131.43 230.169 135.49C231.339 139.55 232.969 143.39 232.889 146.6C232.809 149.81 232.339 155.97 232.319 156.6C232.299 157.23 231.579 156.6 230.989 154.5C230.399 152.4 224.989 136.76 224.189 135.05C223.516 133.655 222.764 132.3 221.939 130.99C221.499 130.31 203.999 131 199.789 135.44Z" fill="#263238" stroke="#263238" stroke-linecap="round" stroke-linejoin="round"/>
<path d="M216.135 199C219.425 199.55 224.135 198.58 225.965 196.66C227.795 194.74 233.625 181.52 234.525 178.36C235.425 175.2 235.585 174.5 235.625 172.58C235.665 170.66 235.575 169 235.575 169L232.675 156L232.425 156.39C232.755 160.39 233.355 168.15 233.235 169.26C233.038 170.111 232.601 170.888 231.975 171.498C231.349 172.108 230.561 172.525 229.705 172.7C228.045 172.98 220.235 171.7 216.785 172.02C213.335 172.34 212.215 173.53 209.565 174.91C206.915 176.29 201.465 179.58 200.085 180C198.705 180.42 196.085 179.45 195.035 178.07C193.985 176.69 189.455 165.19 189.455 165.19C189.326 165.945 189.069 166.672 188.695 167.34L191.885 177.52C191.885 177.52 195.435 184.52 197.305 186.6C199.175 188.68 212.845 198.4 216.135 199Z" fill="#263238" stroke="#263238" stroke-linecap="round" stroke-linejoin="round"/>
<path d="M214.504 152.57C214.504 152.57 212.244 155.19 212.634 156.01C213.024 156.83 218.164 172.01 217.984 173.63C217.804 175.25 215.584 176.1 213.814 175.55C212.044 175 210.914 170.05 210.914 170.05" fill="white"/>
<path d="M214.504 152.57C214.504 152.57 212.244 155.19 212.634 156.01C213.024 156.83 218.164 172.01 217.984 173.63C217.804 175.25 215.584 176.1 213.814 175.55C212.044 175 210.914 170.05 210.914 170.05" stroke="#263238" stroke-linecap="round" stroke-linejoin="round"/>
<path d="M216.883 151.2C216.883 151.2 221.773 147.76 226.123 150.1" stroke="#263238" stroke-width="3" stroke-linecap="round" stroke-linejoin="round"/>
<path d="M204.002 154.22C204.002 154.22 196.482 152.57 193.172 158.35" stroke="#263238" stroke-width="3" stroke-linecap="round" stroke-linejoin="round"/>
<path d="M203.242 161.25C203.512 162.39 203.162 163.47 202.462 163.65C201.762 163.83 200.972 163.06 200.702 161.92C200.432 160.78 200.772 159.71 201.472 159.52C202.172 159.33 203.002 160.11 203.242 161.25Z" fill="#263238" stroke="#263238" stroke-linecap="round" stroke-linejoin="round"/>
<path d="M221.32 156.51C221.59 157.65 221.24 158.72 220.54 158.9C219.84 159.08 219.05 158.31 218.78 157.17C218.51 156.03 218.85 154.96 219.55 154.78C220.25 154.6 221.05 155.37 221.32 156.51Z" fill="#263238" stroke="#263238" stroke-linecap="round" stroke-linejoin="round"/>
<path d="M208.562 182.16C208.562 182.16 218.143 183.95 223.803 177.62" stroke="#858585" stroke-linecap="round" stroke-linejoin="round"/>
<path d="M296.592 295C296.592 295.14 296.532 295.31 296.492 295.48C296.532 295.27 296.562 295.1 296.592 295Z" stroke="#263238" stroke-linecap="round" stroke-linejoin="round"/>
<path d="M296.321 296.14C288.231 287.19 276.051 293.91 271.091 297.32L268.511 321L267.291 325.46C267.291 325.46 258.131 335.26 256.971 337.27C255.815 339.079 254.341 340.665 252.621 341.95C251.261 343.07 248.341 343.95 248.081 345.29C247.821 346.63 252.271 347.29 253.621 346.63C254.971 345.97 258.411 342.4 258.411 342.4L256.261 348.19L273.681 355.77C273.681 355.77 274.681 350.64 275.221 347.52C275.761 344.4 276.591 337.05 276.851 335.71C277.111 334.37 294.581 303.58 296.471 295.52L296.321 296.14Z" fill="white" stroke="#263238" stroke-linecap="round" stroke-linejoin="round"/>
<path d="M167.112 210C167.112 210 162.552 214.23 161.562 218.47C160.572 222.71 145.442 275.71 141.902 283.74C138.362 291.77 137.762 298.23 139.692 301.35C141.622 304.47 176.482 329.25 176.482 329.25C176.482 329.25 180.192 341.73 181.222 344.85C182.252 347.97 184.142 353.32 184.142 353.32L198.142 346.85C199.491 348.363 200.945 349.78 202.492 351.09C204.242 352.43 206.492 353.09 206.932 351.76C207.372 350.43 204.832 346.63 204.832 346.63C204.106 345.079 203.62 343.427 203.392 341.73C203.222 339.5 199.972 335.49 198.682 333.48C197.392 331.47 186.682 324.12 186.682 324.12L164.772 289.76L173.382 257.03C173.382 257.03 165.552 219.16 167.112 210Z" fill="white" stroke="#263238" stroke-linecap="round" stroke-linejoin="round"/>
<path d="M164.722 289.78L174.642 262C174.642 262 165.552 219.15 167.112 210C167.112 210 162.552 214.23 161.562 218.47C160.572 222.71 145.442 275.71 141.902 283.74C138.362 291.77 137.762 298.23 139.692 301.35C142.207 304.728 145.46 307.488 149.202 309.42C151.202 305.54 156.502 296.52 167.942 295.73L164.722 289.78Z" fill="#92E3A9" stroke="#263238" stroke-linecap="round" stroke-linejoin="round"/>
<path d="M148.266 288.22C152.625 287.756 157.033 288.29 161.156 289.78" stroke="#263238" stroke-linecap="round" stroke-linejoin="round"/>
<path d="M157.234 286.21C157.234 286.21 162.764 287.77 164.724 289.78" stroke="#263238" stroke-linecap="round" stroke-linejoin="round"/>
<path d="M275.709 324.69C275.709 324.69 263.099 360 267.799 379C272.499 398 276.799 421.11 276.799 421.11H341.569C341.569 421.11 348.839 397.59 347.979 383.49C347.119 369.39 345.419 353.56 345.419 353.56L341.999 312.93H277.419L275.709 324.69Z" fill="#263238" stroke="#263238" stroke-linecap="round" stroke-linejoin="round"/>
<path d="M306.281 359.53C306.281 359.53 316.971 382.19 321.671 399.94C326.371 417.69 326.161 420.88 326.161 420.88" stroke="#858585" stroke-linecap="round" stroke-linejoin="round"/>
<path d="M318.25 378.56C318.25 378.56 329.58 368.73 333 357" stroke="#858585" stroke-linecap="round" stroke-linejoin="round"/>
<path d="M313.334 217.81L282.984 227.81C290.446 240.831 295.376 255.146 297.514 270C301.154 294.79 299.654 320 299.654 320C299.654 320 307.564 324.7 322.524 323C337.484 321.3 342.004 312.93 342.004 312.93C342.004 312.93 340.934 271.46 335.374 255C329.814 238.54 313.334 217.81 313.334 217.81Z" fill="#6AABFF" stroke="#263238" stroke-linecap="round" stroke-linejoin="round"/>
<path d="M268.172 144.15C268.172 144.15 260.842 143.58 257.762 151.86C254.682 160.14 246.012 189.05 247.762 195.41C249.512 201.77 253.352 203.89 254.892 210.83C256.432 217.77 252.942 222 252.942 222C252.942 222 255.642 225.86 262.192 226.05C268.742 226.24 278.572 221.05 285.122 219.5C291.672 217.95 306.122 216.61 315.182 215.26C324.242 213.91 326.182 207.17 326.182 207.17C326.182 207.17 320.012 207.74 319.632 203.89C319.252 200.04 324.252 185.58 322.132 175.56C320.012 165.54 305.562 155.56 299.202 150.51C292.842 145.46 286.872 141.51 280.122 141.26C273.372 141.01 269.322 141.65 268.172 144.15Z" fill="#263238" stroke="#263238" stroke-linecap="round" stroke-linejoin="round"/>
<path d="M264.893 180.38C264.893 180.38 259.113 190.38 259.893 199.26C260.673 208.14 267.413 208.71 268.753 207.55" stroke="#858585" stroke-linecap="round" stroke-linejoin="round"/>
<path d="M301.891 165.74C301.891 165.74 315.761 178.65 317.891 192.33" stroke="#858585" stroke-linecap="round" stroke-linejoin="round"/>
<path d="M281.203 202.49L287.693 220.27C287.693 220.27 301.283 236.09 307.173 233.86C313.063 231.63 307.383 215.79 307.173 213.56C306.963 211.33 305.173 200.36 305.173 200.36C305.173 200.36 301.113 206.86 298.473 206.86C295.833 206.86 281.203 202.49 281.203 202.49Z" fill="white" stroke="#263238" stroke-linecap="round" stroke-linejoin="round"/>
<path d="M276.123 155.76C276.123 155.76 265.523 175.14 265.523 177.76C265.523 180.38 273.673 196.76 275.923 199.99C278.173 203.22 293.663 210.39 297.133 210.59C300.603 210.79 304.063 206.92 304.873 203.86C305.683 200.8 309.153 192.43 308.923 187.78C308.833 186.04 302.553 166.48 300.713 165.46C298.873 164.44 276.123 155.76 276.123 155.76Z" fill="white" stroke="#263238" stroke-linecap="round" stroke-linejoin="round"/>
<path d="M283.061 182.85C283.061 182.85 279.171 181.24 276.891 184.72" stroke="#263238" stroke-linecap="round" stroke-linejoin="round"/>
<path d="M293.375 179.1C293.375 179.1 294.185 174.94 299.005 176.15" stroke="#263238" stroke-linecap="round" stroke-linejoin="round"/>
<path d="M280.641 177.35C280.641 177.35 274.481 176.95 272.641 181.24" stroke="#263238" stroke-linecap="round" stroke-linejoin="round"/>
<path d="M289 173.47C289 173.47 292.35 168.91 297 170.52" stroke="#263238" stroke-linecap="round" stroke-linejoin="round"/>
<path d="M294.586 187.94C294.586 187.94 292.586 190.89 289.586 190.08" stroke="#263238" stroke-linecap="round" stroke-linejoin="round"/>
<path d="M300.342 189.82C300.342 189.82 296.462 195.58 285.742 196.38C285.742 196.38 292.842 201.47 296.992 200.13C301.142 198.79 300.342 189.82 300.342 189.82Z" fill="white" stroke="#263238" stroke-linecap="round" stroke-linejoin="round"/>
<path d="M269.396 188.07C269.396 188.07 265.906 186.47 265.396 190.75C264.886 195.03 273.836 196.52 273.836 196.52L269.396 188.07Z" fill="white" stroke="#263238" stroke-linecap="round" stroke-linejoin="round"/>
<path d="M304.072 172.62C304.06 172.405 304.101 172.19 304.192 171.995C304.283 171.8 304.42 171.63 304.592 171.5C304.764 171.371 304.966 171.286 305.179 171.252C305.391 171.219 305.609 171.239 305.812 171.31C307.522 171.75 310.392 176.88 310.082 179.95C309.772 183.02 307.762 183.08 307.762 183.08L304.072 172.62Z" fill="white" stroke="#263238" stroke-linecap="round" stroke-linejoin="round"/>
<path d="M276.921 220.05C276.921 220.05 253.171 235.89 252.151 238.73C251.131 241.57 268.391 325.83 268.391 325.83C268.391 325.83 245.451 377.4 251.141 386.33C256.831 395.26 282.611 403.79 283.821 405.41C285.031 407.03 295.401 362.58 299.821 345.73C304.241 328.88 311.641 298.42 312.001 284C312.361 269.58 306.521 250.5 304.491 244.2C302.461 237.9 298.851 227 298.851 227L276.921 220.05Z" fill="#A3A3A3" stroke="#263238" stroke-linecap="round" stroke-linejoin="round"/>
<path d="M283 210C283 210 299.71 226.13 298.9 226.94C298.09 227.75 288.54 241.94 288.54 241.94L273.93 220.62L283 210Z" fill="#A3A3A3" stroke="#263238" stroke-linecap="round" stroke-linejoin="round"/>
<path d="M310.006 226.15C310.006 226.15 324.636 244 330.726 256.8C336.816 269.6 339.666 292.33 339.666 301.26V318.11C339.666 318.11 346.006 360.75 348.006 367.86C350.006 374.97 353.286 388.16 353.286 388.16C353.286 388.16 355.716 387.35 355.516 378.41C355.316 369.47 352.066 333.14 349.226 318.72C346.386 304.3 345.226 280.41 343.376 276.15L341.546 271.88L363.236 265.58C363.236 265.58 349.706 253.34 345.316 234.58C343.316 226.04 338.866 221.48 336.226 219.65C333.586 217.82 314.286 215.79 311.006 216C307.726 216.21 310.006 226.15 310.006 226.15Z" fill="#A3A3A3" stroke="#263238" stroke-linecap="round" stroke-linejoin="round"/>
<path d="M310.002 226.15C310.002 226.15 310.612 223.51 311.832 223.91C313.052 224.31 323.402 230.21 324.422 229.6C325.442 228.99 313.872 215 311.642 213C310.273 211.76 308.774 210.67 307.172 209.75V213.61L310.002 226.15Z" fill="#A3A3A3" stroke="#263238" stroke-linecap="round" stroke-linejoin="round"/>
<path d="M329.711 226.35C329.711 226.35 336.811 249.29 337.631 259.24L329.711 226.35Z" fill="white"/>
<path d="M329.711 226.35C329.711 226.35 336.811 249.29 337.631 259.24" stroke="#263238" stroke-linecap="round" stroke-linejoin="round"/>
<path d="M333.766 272.26C333.766 272.26 337.896 255.73 338.886 254.73C339.876 253.73 347.986 250.27 348.646 250.11C349.306 249.95 354.596 253.74 355.416 254.57C356.236 255.4 359.886 257.71 359.226 259.03C358.566 260.35 356.416 259.36 355.226 259.36C354.036 259.36 348.616 262.83 348.286 263.36C347.956 263.89 346.136 267.99 345.476 269.15C344.816 270.31 333.766 272.26 333.766 272.26Z" fill="white" stroke="#263238" stroke-linecap="round" stroke-linejoin="round"/>
<path d="M356.919 255.91C356.919 255.91 354.749 255.04 354.099 255.36C353.449 255.68 345.719 259.28 345.289 259.82C344.859 260.36 344.289 261.24 344.289 261.24" stroke="#263238" stroke-linecap="round" stroke-linejoin="round"/>
<path d="M342.242 258.74C342.973 257.773 343.854 256.929 344.852 256.24C346.162 255.47 350.732 253.73 351.272 253.52C352.139 253.407 353.016 253.407 353.882 253.52" stroke="#263238" stroke-linecap="round" stroke-linejoin="round"/>
<path d="M350.509 251.56C350.509 251.56 341.809 254.71 341.259 255.47L340.719 256.24" stroke="#263238" stroke-linecap="round" stroke-linejoin="round"/>
<path d="M342.094 269.59C342.094 269.59 350.424 263.7 354.094 262.08C357.764 260.46 365.264 263.5 366.684 265.33C368.104 267.16 369.934 275.89 369.684 282.38C369.434 288.87 369.284 291.72 364.814 293.14C361.135 294.146 357.407 294.96 353.644 295.58C353.044 295.78 352.434 283.4 348.574 276.7C344.714 270 342.094 269.59 342.094 269.59Z" fill="#A3A3A3" stroke="#263238" stroke-linecap="round" stroke-linejoin="round"/>
<path d="M331.531 273.65C331.531 273.65 333.531 296.8 335.191 299.65C336.851 302.5 340.871 301.88 345.141 300.87C349.411 299.86 355.691 298.43 355.901 297.01C356.111 295.59 355.901 282.01 353.661 276.3C351.421 270.59 347.571 266.56 344.531 267.37C341.491 268.18 331.531 270.2 331.531 273.65Z" fill="#A3A3A3" stroke="#263238" stroke-linecap="round" stroke-linejoin="round"/>
<path d="M312.763 311.77L337.562 290.44L327.152 283.5L307.312 292.26C307.312 292.26 312.603 306.31 312.763 311.77Z" fill="white" stroke="#263238" stroke-linecap="round" stroke-linejoin="round"/>
<path d="M300.698 323.51C300.698 323.51 303.338 323.51 306.978 320.51C310.618 317.51 313.918 315.51 312.928 307.12C311.938 298.73 307.798 285.79 305.818 284.12C303.838 282.45 291.108 284.45 290.818 285.28C290.528 286.11 300.898 301.15 301.728 309.91C302.558 318.67 300.698 323.51 300.698 323.51Z" fill="#A3A3A3" stroke="#263238" stroke-linecap="round" stroke-linejoin="round"/>
<path d="M257.049 239.19C257.049 239.19 255.189 235.63 252.149 238.73C249.109 241.83 247.459 250.6 249.609 261.18C251.759 271.76 257.709 316.07 260.029 321.52C262.349 326.97 264.489 332.1 268.619 332.27C272.749 332.44 286.309 330.61 295.569 326.98C304.829 323.35 304.329 312.43 301.189 302.98C298.049 293.53 292.259 285.78 288.789 283.47C285.319 281.16 283.499 278.18 279.869 271.4C276.239 264.62 267.999 247.46 265.649 245" fill="#A3A3A3"/>
<path d="M257.049 239.19C257.049 239.19 255.189 235.63 252.149 238.73C249.109 241.83 247.459 250.6 249.609 261.18C251.759 271.76 257.709 316.07 260.029 321.52C262.349 326.97 264.489 332.1 268.619 332.27C272.749 332.44 286.309 330.61 295.569 326.98C304.829 323.35 304.329 312.43 301.189 302.98C298.049 293.53 292.259 285.78 288.789 283.47C285.319 281.16 283.499 278.18 279.869 271.4C276.239 264.62 267.999 247.46 265.649 245" stroke="#263238" stroke-linecap="round" stroke-linejoin="round"/>
<path d="M273.203 300.94C272.4 301.673 271.54 302.342 270.633 302.94" stroke="#263238" stroke-linecap="round" stroke-linejoin="round"/>
<path d="M283.394 286.68C281.2 291.015 278.497 295.074 275.344 298.77" stroke="#263238" stroke-linecap="round" stroke-linejoin="round"/>
<path d="M336.069 276.23C336.069 276.23 311.769 278.54 305.489 278.37C299.209 278.2 290.279 274.9 290.279 274.9C290.279 274.9 279.539 270.44 277.219 269.28C274.899 268.12 269.449 268.12 267.959 268.79C266.469 269.46 263.169 272.09 263.669 273.79C264.169 275.49 266.139 274.28 267.139 273.45C267.953 272.847 268.84 272.35 269.779 271.97L275.069 273.12L276.069 274.45C276.069 274.45 268.799 275.77 267.809 276.27C266.819 276.77 264.009 283.04 263.509 284.37C263.009 285.7 263.509 285.52 264.509 285.52H265.509C265.509 285.52 265.019 288.17 266.009 288.52C266.794 288.667 267.606 288.551 268.319 288.19C268.319 288.19 269.479 289.35 269.979 289.35C272.189 288.375 274.339 287.27 276.419 286.04C277.249 285.54 284.359 287.04 286.179 287.04C287.999 287.04 294.939 286.88 294.939 286.88C294.939 286.88 328.329 296.46 332.799 297.13C337.269 297.8 340.239 297.62 341.889 292.66C343.539 287.7 339.879 276.89 336.069 276.23Z" fill="white" stroke="#263238" stroke-linecap="round" stroke-linejoin="round"/>
<path d="M268.289 288.131C268.289 288.131 272.759 283.131 273.909 282.511C275.036 281.94 276.199 281.443 277.389 281.021" stroke="#263238" stroke-linecap="round" stroke-linejoin="round"/>
<path d="M265.484 285.48L270.114 280.03L275.074 278.04" stroke="#263238" stroke-linecap="round" stroke-linejoin="round"/>
<path d="M147.148 143.06C148.28 143.696 149.46 144.241 150.678 144.69C152.848 145.5 158.278 147.4 160.678 150.12C163.078 152.84 162.308 159.35 162.308 159.35" stroke="#263238" stroke-linecap="round" stroke-linejoin="round"/>
<path d="M116.151 165.64L114.031 170.21" stroke="#263238" stroke-linecap="round" stroke-linejoin="round"/>
<path d="M99.002 151.31C99.002 151.31 97.522 158.31 96.002 159.91C94.482 161.51 92.132 163.41 92.922 166.91C93.712 170.41 98.3221 172.6 98.3021 173.18C98.2821 173.76 90.002 175.35 90.202 178C90.402 180.65 92.682 183.83 92.682 183.83C92.682 183.83 86.512 185.83 85.992 189.36C85.472 192.89 87.5721 196.36 87.5421 197.67C87.5121 198.98 83.7921 201.89 84.9021 204.23C86.0121 206.57 88.642 206.23 88.782 206.7C88.922 207.17 87.2621 209.03 87.2321 210.2C87.2718 210.994 87.5585 211.756 88.0521 212.38H137.302L123.302 139.53L104.762 146.67L99.002 151.31Z" fill="#263238" stroke="#263238" stroke-linecap="round" stroke-linejoin="round"/>
<path d="M165.733 316.65C165.733 316.65 175.883 339.76 177.223 345.44C178.563 351.12 179.223 376.37 177.073 386.21C173.223 404.12 162.183 421.1 162.183 421.1H106.243L94.7031 367.23L111.553 314.75L165.733 316.65Z" fill="white" stroke="#263238" stroke-linecap="round" stroke-linejoin="round"/>
<path d="M156.452 361.2L151.742 373.39L153.982 420.84" stroke="#263238" stroke-linecap="round" stroke-linejoin="round"/>
<path d="M164.844 301.3C164.844 301.3 174.724 309.71 175.914 312.86C177.104 316.01 177.854 336.86 178.394 340.39C178.934 343.92 176.544 347.33 176.544 347.33L168.004 326.1C168.004 326.1 167.184 316.65 167.004 316.02C166.824 315.39 165.254 310.34 165.254 310.34L164.844 301.3Z" fill="white" stroke="#263238" stroke-linecap="round" stroke-linejoin="round"/>
<path d="M173.003 320.64C173.003 320.64 173.123 324.42 173.483 327.15C173.843 329.88 174.973 334.93 172.633 336.15" fill="white"/>
<path d="M173.003 320.64C173.003 320.64 173.123 324.42 173.483 327.15C173.843 329.88 174.973 334.93 172.633 336.15" stroke="#263238" stroke-linecap="round" stroke-linejoin="round"/>
<path d="M129 211.77L142.44 212.19L152.05 212.51L163.22 221.86C163.22 221.86 172.6 268.52 173.37 271.46C174.14 274.4 165.37 296.46 164.72 298.57C164.07 300.68 165.72 316.65 165.72 316.65C165.72 316.65 161.42 320.65 147.5 322.53C133.58 324.41 117.5 318.53 117.5 318.53C117.5 318.53 128.05 290.79 130.31 275.86C130.31 275.86 132.31 247.07 131.62 238.86C130.93 230.65 129 211.77 129 211.77Z" fill="#6AABFF" stroke="#263238" stroke-linecap="round" stroke-linejoin="round"/>
<path d="M162.502 280.83L140.742 291.87" stroke="#263238" stroke-linecap="round" stroke-linejoin="round"/>
<path d="M161.231 284.62L151.141 289.66" stroke="#263238" stroke-linecap="round" stroke-linejoin="round"/>
<path d="M125.289 196.32C125.289 196.32 133.369 224.32 134.419 229.27C135.469 234.22 145.809 240.05 152.159 236.84C158.509 233.63 156.459 227.52 155.389 223.73C154.319 219.94 151.999 212.51 151.999 212.51L154.439 189.78C154.439 189.78 146.779 200 143.999 201.15C141.219 202.3 125.289 196.32 125.289 196.32Z" fill="white" stroke="#263238" stroke-linecap="round" stroke-linejoin="round"/>
<path d="M140.414 203.69L151.004 213.91L153.614 191.98L140.414 203.69Z" fill="#263238" stroke="#263238" stroke-linecap="round" stroke-linejoin="round"/>
<path d="M151.38 212.79L150.82 222.83" stroke="#263238" stroke-linecap="round" stroke-linejoin="round"/>
<path d="M152.094 210.2C152.094 210.2 167.094 252.97 168.724 262.63C170.354 272.29 170.724 274.4 170.874 277.77C171.024 281.14 168.304 288.48 168.304 288.48C168.304 288.48 178.914 275.48 178.984 264.11C179.054 252.74 171.344 218.48 167.744 216.4C153.444 208.14 152.094 210.2 152.094 210.2Z" fill="#263238" stroke="#263238" stroke-linecap="round" stroke-linejoin="round"/>
<path d="M166 231.31C166 231.31 172.57 250.48 171.51 264.87" stroke="#A3A3A3" stroke-linecap="round" stroke-linejoin="round"/>
<path d="M115.189 162.82L121.979 153.21L153.409 185.12C153.409 185.12 151.499 203.77 151.489 204.35C151.479 204.93 153.439 208.14 153.439 208.14C154.023 208.663 154.546 209.25 154.999 209.89C155.699 210.89 154.999 210.89 154.789 212.36C154.579 213.83 155.609 214.55 156.319 215.28C157.396 216.066 158.552 216.736 159.769 217.28C160.769 217.86 159.869 219.17 159.109 220.48C158.49 221.419 158.112 222.496 158.009 223.616C157.906 224.736 158.081 225.864 158.519 226.9C159.759 229.52 160.519 229.08 162.639 231.12C164.759 233.16 161.639 235.06 161.639 235.06C161.639 235.06 163.249 234.62 164.569 234.18C164.863 234.098 165.137 233.954 165.371 233.757C165.605 233.561 165.794 233.317 165.926 233.041C166.057 232.765 166.128 232.464 166.134 232.159C166.14 231.854 166.08 231.55 165.959 231.27C165.399 230.27 164.309 226.9 164.769 226.27C165.229 225.64 169.349 223.65 170.549 222.05C171.749 220.45 170.449 220.15 171.489 219.57C172.529 218.99 174.589 217.68 175.079 215.64C175.569 213.6 173.149 211.12 173.889 210.39C174.629 209.66 177.439 205.18 177.469 203.86C177.499 202.54 175.839 200.33 175.839 200.33C175.839 200.33 176.929 199.46 177.609 195.24C178.289 191.02 174.979 189.7 174.739 187.37C174.499 185.04 177.939 181.83 177.989 173.67C178.039 165.51 164.549 163.03 164.139 162.02C163.729 161.01 164.199 159.39 163.959 157.21C163.719 155.03 158.429 151.21 158.429 151.21C158.429 151.21 159.059 149.03 159.529 147.57C159.999 146.11 159.309 144.8 156.739 142.47C154.169 140.14 141.739 129.21 136.549 128.04C131.359 126.87 122.549 132.56 121.549 133.14C120.549 133.72 112.259 131.69 109.739 133.73C107.219 135.77 106.399 139.26 105.739 140.73C105.079 142.2 102.929 142.19 101.589 143.65C100.249 145.11 98.0391 157.78 98.0391 157.78" fill="#263238"/>
<path d="M115.189 162.82L121.979 153.21L153.409 185.12C153.409 185.12 151.499 203.77 151.489 204.35C151.479 204.93 153.439 208.14 153.439 208.14C154.023 208.663 154.546 209.25 154.999 209.89C155.699 210.89 154.999 210.89 154.789 212.36C154.579 213.83 155.609 214.55 156.319 215.28C157.396 216.066 158.552 216.736 159.769 217.28C160.769 217.86 159.869 219.17 159.109 220.48C158.49 221.419 158.112 222.496 158.009 223.616C157.906 224.736 158.081 225.864 158.519 226.9C159.759 229.52 160.519 229.08 162.639 231.12C164.759 233.16 161.639 235.06 161.639 235.06C161.639 235.06 163.249 234.62 164.569 234.18C164.863 234.098 165.137 233.954 165.371 233.757C165.605 233.561 165.794 233.317 165.926 233.041C166.057 232.765 166.128 232.464 166.134 232.159C166.14 231.854 166.08 231.55 165.959 231.27C165.399 230.27 164.309 226.9 164.769 226.27C165.229 225.64 169.349 223.65 170.549 222.05C171.749 220.45 170.449 220.15 171.489 219.57C172.529 218.99 174.589 217.68 175.079 215.64C175.569 213.6 173.149 211.12 173.889 210.39C174.629 209.66 177.439 205.18 177.469 203.86C177.499 202.54 175.839 200.33 175.839 200.33C175.839 200.33 176.929 199.46 177.609 195.24C178.289 191.02 174.979 189.7 174.739 187.37C174.499 185.04 177.939 181.83 177.989 173.67C178.039 165.51 164.549 163.03 164.139 162.02C163.729 161.01 164.199 159.39 163.959 157.21C163.719 155.03 158.429 151.21 158.429 151.21C158.429 151.21 159.059 149.03 159.529 147.57C159.999 146.11 159.309 144.8 156.739 142.47C154.169 140.14 141.739 129.21 136.549 128.04C131.359 126.87 122.549 132.56 121.549 133.14C120.549 133.72 112.259 131.69 109.739 133.73C107.219 135.77 106.399 139.26 105.739 140.73C105.079 142.2 102.929 142.19 101.589 143.65C100.249 145.11 98.0391 157.78 98.0391 157.78" stroke="#263238" stroke-linecap="round" stroke-linejoin="round"/>
<path d="M128.127 207.05C128.127 207.05 143.337 260.53 144.007 267.47C144.677 274.41 120.877 319.8 116.007 329.26C111.137 338.72 100.577 367.51 98.8673 377.38C97.1573 387.25 95.8673 399.03 95.8673 399.03C95.8673 399.03 83.1973 392.94 74.8673 387.68C66.5373 382.42 65.1873 379.49 65.8673 378.43C66.5473 377.37 69.9973 364.35 69.9973 364.35C69.9973 364.35 62.8373 356.35 63.2773 355.53C63.7173 354.71 79.9973 298.78 79.9973 298.78C79.9973 298.78 84.2873 208.83 85.9973 208.83C87.7073 208.83 128.127 207.05 128.127 207.05Z" fill="#263238" stroke="#263238" stroke-linecap="round" stroke-linejoin="round"/>
<path d="M126.594 232.59L144.014 267.47" stroke="#A3A3A3" stroke-linecap="round" stroke-linejoin="round"/>
<path d="M96.0011 209.46C96.0011 209.46 83.4511 206.94 81.2711 210.3C79.0911 213.66 59.8411 270.62 58.6611 275.87C57.4811 281.12 93.5611 320 93.5611 320L112.141 307.6L90.1411 276.7L102.141 232.57" fill="#263238"/>
<path d="M96.0011 209.46C96.0011 209.46 83.4511 206.94 81.2711 210.3C79.0911 213.66 59.8411 270.62 58.6611 275.87C57.4811 281.12 93.5611 320 93.5611 320L112.141 307.6L90.1411 276.7L102.141 232.57" stroke="#263238" stroke-linecap="round" stroke-linejoin="round"/>
<path d="M99.0381 246.3L90.0781 273.99L110.128 304.04" stroke="#A3A3A3" stroke-linecap="round" stroke-linejoin="round"/>
<path d="M101.493 237.61L100.203 241.7" stroke="#A3A3A3" stroke-linecap="round" stroke-linejoin="round"/>
<path d="M110.131 304.04L89.9609 320.85L96.7009 329.05L117.911 312.65L110.131 304.04Z" fill="white" stroke="#263238" stroke-linecap="round" stroke-linejoin="round"/>
<path d="M116.415 313.49C116.415 313.49 133.205 331.99 135.075 332.83C136.945 333.67 140.635 337.66 141.635 339.55C142.635 341.44 144.055 343.97 145.495 345.02C146.935 346.07 147.125 347.33 144.585 347.96C142.045 348.59 139.735 348.8 138.335 345.86C137.32 343.844 136.097 341.94 134.685 340.18L120.345 350.9C120.345 350.9 117.255 339.55 116.895 337.24C116.535 334.93 115.775 331.15 115.775 331.15L106.125 321.9L116.415 313.49Z" fill="white" stroke="#263238" stroke-linecap="round" stroke-linejoin="round"/>
<path d="M92.9016 194.15C92.9016 194.15 91.5016 203.47 92.3016 206.68C93.1416 210.08 99.9716 209.47 98.5716 213.98C98.1216 215.43 96.3616 216.98 96.9116 218.63C97.4616 220.28 99.7016 220.41 100.912 221.37C103.182 223.13 102.372 225.03 103.142 227.52C103.702 229.32 105.622 229.95 106.142 231.38C106.752 233.07 105.572 234.13 107.452 235.97C110.732 239.18 113.192 239.76 113.632 239.47C114.072 239.18 113.222 238.47 115.292 237.47C117.362 236.47 121.292 234.55 120.642 232.95L119.272 229.76C120.272 231.97 123.212 229.76 124.032 228.57C125.892 225.91 123.032 223.05 123.372 220.17C123.742 216.99 127.372 215.35 127.732 212.17C128.092 208.99 124.862 206.87 125.572 203.98C125.892 202.67 126.072 201.22 126.072 201.22C126.072 201.22 125.072 198.3 123.692 197.28C122.312 196.26 121.782 192.18 121.692 190.72" fill="#263238"/>
<path d="M92.9016 194.15C92.9016 194.15 91.5016 203.47 92.3016 206.68C93.1416 210.08 99.9716 209.47 98.5716 213.98C98.1216 215.43 96.3616 216.98 96.9116 218.63C97.4616 220.28 99.7016 220.41 100.912 221.37C103.182 223.13 102.372 225.03 103.142 227.52C103.702 229.32 105.622 229.95 106.142 231.38C106.752 233.07 105.572 234.13 107.452 235.97C110.732 239.18 113.192 239.76 113.632 239.47C114.072 239.18 113.222 238.47 115.292 237.47C117.362 236.47 121.292 234.55 120.642 232.95L119.272 229.76C120.272 231.97 123.212 229.76 124.032 228.57C125.892 225.91 123.032 223.05 123.372 220.17C123.742 216.99 127.372 215.35 127.732 212.17C128.092 208.99 124.862 206.87 125.572 203.98C125.892 202.67 126.072 201.22 126.072 201.22C126.072 201.22 125.072 198.3 123.692 197.28C122.312 196.26 121.782 192.18 121.692 190.72" stroke="#263238" stroke-linecap="round" stroke-linejoin="round"/>
<path d="M119.109 148C119.109 148 107.329 165.13 108.229 168.75C109.129 172.37 118.119 195.6 121.229 197.9C124.339 200.2 136.689 205.64 140.799 205.81C144.909 205.98 147.919 204.33 149.639 201.53C151.359 198.73 157.879 187.36 157.939 184.89C157.999 182.42 152.729 158.71 151.749 158.38C150.769 158.05 119.109 148 119.109 148Z" fill="white" stroke="black" stroke-linecap="round" stroke-linejoin="round"/>
<path d="M137.114 166.15C137.114 166.15 136.774 170.72 137.194 172.21C137.614 173.7 141.484 179.06 141.574 179.98C141.664 180.9 140.164 181.81 138.084 182.61" stroke="#263238" stroke-linecap="round" stroke-linejoin="round"/>
<path d="M110.531 175.78C110.531 175.78 107.951 173.48 106.531 176.28C105.111 179.08 106.211 182.87 110.531 186C114.851 189.13 115.891 189.12 115.891 189.12L110.531 175.78Z" fill="white" stroke="#263238" stroke-linecap="round" stroke-linejoin="round"/>
<path d="M153.633 164.26C153.633 164.26 155.963 163.1 157.043 166.07C158.123 169.04 156.463 176.61 156.463 176.61L153.633 164.26Z" fill="white" stroke="#263238" stroke-linecap="round" stroke-linejoin="round"/>
<path d="M131.289 188.59C131.289 188.59 138.899 188.02 140.759 187.1C142.619 186.18 145.879 182.42 145.879 182.42C145.879 182.42 145.879 190.67 141.879 192.08C138.999 193.07 131.289 188.59 131.289 188.59Z" fill="white" stroke="#263238" stroke-linecap="round" stroke-linejoin="round"/>
<path d="M118.828 170.61C118.828 170.61 119.388 166.26 126.948 165.46L118.828 170.61Z" fill="white"/>
<path d="M118.828 170.61C118.828 170.61 119.388 166.26 126.948 165.46" stroke="#263238" stroke-linecap="round" stroke-linejoin="round"/>
<path d="M137 162.41C137 162.41 141.64 158.41 146.66 163.29L137 162.41Z" fill="white"/>
<path d="M137 162.41C137 162.41 141.64 158.41 146.66 163.29" stroke="#263238" stroke-linecap="round" stroke-linejoin="round"/>
<path d="M128.21 172.81C128.61 174.15 128.21 175.48 127.21 175.81C126.21 176.14 125.21 175.25 124.81 173.91C124.41 172.57 124.81 171.25 125.81 170.91C126.81 170.57 127.81 171.47 128.21 172.81Z" fill="#263238"/>
<path d="M143.764 168.51C144.164 169.85 143.764 171.17 142.764 171.51C141.764 171.85 140.764 170.96 140.364 169.62C139.964 168.28 140.364 166.95 141.364 166.62C142.364 166.29 143.364 167.17 143.764 168.51Z" fill="#263238"/>
<path d="M464.791 421.1H17.0312" stroke="#263238" stroke-linecap="round" stroke-linejoin="round"/>
<path d="M488.572 421.1H471.922" stroke="#263238" stroke-linecap="round" stroke-linejoin="round"/>
</g>
<defs>
<clipPath id="clip0_447_878">
<rect width="500" height="500" fill="white"/>
</clipPath>
</defs>
</svg>
