<svg width="410" height="308" viewBox="0 0 410 308" fill="none" xmlns="http://www.w3.org/2000/svg">
<path d="M363.183 225.106H215.428C214.158 225.103 212.941 224.598 212.042 223.7C211.144 222.802 210.639 221.584 210.637 220.314V5.04756C210.641 3.7789 211.147 2.56356 212.045 1.66724C212.943 0.770926 214.159 0.266558 215.428 0.264404H363.183C364.451 0.266558 365.668 0.770926 366.565 1.66724C367.463 2.56356 367.97 3.7789 367.974 5.04756V220.314C367.972 221.584 367.466 222.802 366.568 223.7C365.67 224.598 364.453 225.103 363.183 225.106ZM215.428 0.468813C214.824 0.464502 214.224 0.579691 213.665 0.807764C213.105 1.03584 212.596 1.37229 212.166 1.79779C211.737 2.22329 211.396 2.72944 211.163 3.28715C210.93 3.84485 210.809 4.44312 210.808 5.04756V220.314C210.808 221.531 211.292 222.697 212.152 223.558C213.012 224.418 214.179 224.901 215.395 224.901H363.183C364.399 224.901 365.566 224.418 366.426 223.558C367.286 222.697 367.77 221.531 367.77 220.314V5.04756C367.77 3.83103 367.286 2.66433 366.426 1.80412C365.566 0.943902 364.399 0.460635 363.183 0.460635L215.428 0.468813Z" fill="#F0F0F0"/>
<path d="M192.766 225.105H44.9788C43.7088 225.103 42.4913 224.598 41.5932 223.7C40.6952 222.802 40.1897 221.584 40.1875 220.314V5.04744C40.1897 3.77736 40.6952 2.55992 41.5932 1.66184C42.4913 0.763761 43.7088 0.258265 44.9788 0.256104H192.766C194.036 0.258265 195.254 0.763761 196.152 1.66184C197.05 2.55992 197.555 3.77736 197.558 5.04744V220.314C197.555 221.584 197.05 222.802 196.152 223.7C195.254 224.598 194.036 225.103 192.766 225.105ZM44.9788 0.46869C43.7637 0.468688 42.5983 0.950831 41.7383 1.80928C40.8783 2.66773 40.3941 3.83233 40.3919 5.04744V220.314C40.3919 221.531 40.8752 222.697 41.7354 223.558C42.5956 224.418 43.7623 224.901 44.9788 224.901H192.766C193.983 224.901 195.149 224.418 196.01 223.558C196.87 222.697 197.353 221.531 197.353 220.314V5.04744C197.353 3.83091 196.87 2.66421 196.01 1.804C195.149 0.94378 193.983 0.460512 192.766 0.460512L44.9788 0.46869Z" fill="#F0F0F0"/>
<path d="M409.036 275.038H0.21875V275.243H409.036V275.038Z" fill="#E0E0E0"/>
<path d="M188.812 8.91504H108.766V88.9614H188.812V8.91504Z" fill="#E6E6E6"/>
<path d="M184.758 84.9138V12.9702L112.822 12.9702V84.9138H184.758Z" fill="#FAFAFA"/>
<path d="M143.965 68.5693C143.965 68.5693 157.178 41.4892 184.757 40.9414V84.9056H148.781L143.965 68.5693Z" fill="#F0F0F0"/>
<path d="M112.824 60.9655C112.824 60.9655 124.704 54.7433 136.773 59.3302C151.932 65.0537 160.729 84.9222 160.729 84.9222H112.824V60.9655Z" fill="#F5F5F5"/>
<path d="M139.513 48.305C146.432 47.1881 151.136 40.6739 150.019 33.7552C148.902 26.8364 142.388 22.1331 135.469 23.2499C128.55 24.3668 123.847 30.881 124.964 37.7997C126.081 44.7185 132.595 49.4218 139.513 48.305Z" fill="white"/>
<path d="M289.441 8.4978H219.215V144.446H289.441V8.4978Z" fill="#E6E6E6"/>
<path d="M285.383 140.399V12.5535L223.259 12.5535V140.399H285.383Z" fill="#FAFAFA"/>
<path d="M257.414 53.4211C258.103 46.4467 253.007 40.2345 246.033 39.5458C239.058 38.857 232.846 43.9525 232.157 50.9269C231.469 57.9013 236.564 64.1135 243.538 64.8023C250.513 65.491 256.725 60.3955 257.414 53.4211Z" fill="white"/>
<path d="M234.879 140.398C234.879 140.398 250.586 64.8 285.384 58.0137V140.398H234.879Z" fill="#F0F0F0"/>
<path d="M223.262 95.5353C223.262 95.5353 231.266 87.8168 243.948 92.4283C267.774 101.095 281.068 140.399 281.068 140.399H223.262V95.5353Z" fill="#F5F5F5"/>
<path d="M55.5391 233.274C55.5391 233.274 49.6276 234.958 43.111 226.512C38.3933 220.404 30.0289 207.371 18.582 207.142C18.582 207.142 32.2447 201.222 44.2966 207.257C56.3485 213.291 62.7833 228.891 55.58 233.274" fill="#D4D4D4"/>
<path d="M59.0634 257.753C59.0119 257.751 58.9612 257.739 58.9144 257.717C58.8676 257.696 58.8255 257.665 58.7906 257.627C58.7557 257.589 58.7286 257.544 58.7108 257.496C58.6931 257.448 58.6851 257.396 58.6873 257.345C58.8545 251.486 58.4409 245.625 57.4527 239.847C55.9891 231.336 52.4324 220.085 44.0925 214.934C44.005 214.878 43.9429 214.79 43.9199 214.689C43.8969 214.588 43.9149 214.482 43.9699 214.394C43.9966 214.351 44.0316 214.314 44.0728 214.284C44.114 214.255 44.1607 214.234 44.2101 214.222C44.2595 214.211 44.3107 214.209 44.3607 214.218C44.4106 214.226 44.4585 214.245 44.5014 214.272C48.3034 216.626 51.4594 220.371 53.8714 225.4C55.9567 229.951 57.4145 234.765 58.2049 239.708C59.1984 245.54 59.6174 251.455 59.4559 257.369C59.4517 257.471 59.4088 257.568 59.3359 257.639C59.2629 257.71 59.1655 257.751 59.0634 257.753Z" fill="#E0E0E0"/>
<path d="M60.0179 214.664C60.0179 214.664 66.003 213.266 67.5892 202.71C68.7421 195.082 69.6987 179.637 79.6493 173.856C79.6493 173.856 64.8338 175.32 57.2298 186.439C49.6258 197.559 51.5881 214.337 60.0179 214.664Z" fill="#D4D4D4"/>
<path d="M68.2551 258.44C68.1753 258.441 68.0973 258.416 68.0316 258.371C67.9658 258.326 67.9155 258.262 67.8872 258.187C65.1025 250.199 62.8088 242.048 61.0191 233.78C59.4448 226.728 58.4522 219.557 58.051 212.342C57.7076 204.395 58.4926 197.805 60.4058 192.719C60.4191 192.665 60.4438 192.614 60.4781 192.571C60.5124 192.527 60.5557 192.491 60.6049 192.465C60.6542 192.439 60.7084 192.424 60.7639 192.421C60.8194 192.418 60.875 192.426 60.9269 192.446C60.9789 192.466 61.026 192.497 61.0652 192.536C61.1044 192.576 61.1348 192.623 61.1543 192.675C61.1739 192.727 61.1821 192.783 61.1785 192.838C61.1749 192.894 61.1596 192.948 61.1335 192.997C56.89 204.248 59.1467 221.279 61.7876 233.592C63.5658 241.825 65.8486 249.94 68.623 257.893C68.6572 257.99 68.6515 258.097 68.6071 258.191C68.5627 258.284 68.4832 258.356 68.3859 258.391C68.3459 258.416 68.3015 258.432 68.2551 258.44Z" fill="#E0E0E0"/>
<path d="M70.4886 219.832C70.4886 219.832 76.58 220.649 81.8374 211.377C85.6394 204.665 92.0578 190.585 103.423 188.737C103.423 188.737 89.0653 184.813 77.9782 192.482C66.8911 200.151 62.7375 216.512 70.4886 219.832Z" fill="#F5F5F5"/>
<path d="M71.4224 258.44C71.3324 258.44 71.2451 258.409 71.1752 258.353C71.1052 258.296 71.0568 258.217 71.0381 258.129C69.7176 250.651 69.0257 243.075 68.9695 235.481C68.8589 228.996 69.487 222.52 70.8418 216.177C72.4771 209.161 75.0854 203.552 78.6911 199.497C78.7238 199.453 78.7652 199.417 78.8127 199.39C78.8603 199.363 78.9129 199.346 78.9672 199.341C79.0216 199.336 79.0764 199.342 79.1283 199.359C79.1802 199.376 79.2279 199.404 79.2685 199.44C79.309 199.477 79.3415 199.521 79.3638 199.571C79.3862 199.621 79.3979 199.675 79.3982 199.729C79.3985 199.784 79.3874 199.838 79.3656 199.888C79.3438 199.938 79.3118 199.983 79.2716 200.02C71.2997 209.014 69.689 224.247 69.7462 235.481C69.7968 243.023 70.4861 250.548 71.8066 257.974C71.8258 258.076 71.8039 258.181 71.7457 258.267C71.6875 258.353 71.5977 258.412 71.4959 258.432L71.4224 258.44Z" fill="#E0E0E0"/>
<path d="M80.941 234.042C80.941 234.042 86.7462 236.062 93.7533 228.008C98.8063 222.187 107.898 209.66 119.402 210.11C119.402 210.11 106.108 203.405 93.7206 208.72C81.3334 214.035 74.0074 229.243 80.941 234.067" fill="#F5F5F5"/>
<path d="M75.2944 258.44C75.1939 258.44 75.0974 258.401 75.0256 258.331C74.9537 258.26 74.9123 258.165 74.9102 258.064C74.9184 252.731 75.5746 247.418 76.8643 242.243C78.0121 237.392 79.8051 232.717 82.1953 228.343C84.8771 223.419 88.5656 219.115 93.0208 215.711C93.105 215.651 93.209 215.626 93.3111 215.642C93.4131 215.657 93.5054 215.711 93.5686 215.792C93.631 215.875 93.6584 215.979 93.6446 216.081C93.6308 216.184 93.577 216.277 93.495 216.34C83.896 223.544 79.5952 234.492 77.6247 242.406C76.3555 247.513 75.7049 252.753 75.6869 258.015C75.6891 258.118 75.651 258.217 75.5807 258.292C75.5103 258.367 75.4135 258.411 75.3108 258.416L75.2944 258.44Z" fill="#E0E0E0"/>
<path d="M89.2008 257.5L83.6655 274.957H53.6256L48.082 257.5H89.2008Z" fill="#E0E0E0"/>
<path d="M96.2994 135.926H97.5913V134.634H62.5311C61.4144 134.634 60.3433 135.078 59.5536 135.868C58.764 136.657 58.3203 137.728 58.3203 138.845C58.3203 139.962 58.764 141.033 59.5536 141.823C60.3433 142.612 61.4144 143.056 62.5311 143.056H97.5913V141.764H96.2994V135.926Z" fill="#F0F0F0"/>
<path d="M96.2989 135.926V141.764H64.1659C63.4018 141.753 62.6732 141.44 62.1398 140.893C61.6064 140.345 61.3118 139.609 61.3205 138.845C61.3124 138.078 61.606 137.338 62.1381 136.785C62.4001 136.511 62.715 136.294 63.0637 136.147C63.4123 135.999 63.7873 135.924 64.1659 135.926H96.2989Z" fill="white"/>
<path d="M96.2963 137.406V138.322H64.981C64.8631 138.322 64.7499 138.276 64.6658 138.193C64.5817 138.11 64.5334 137.998 64.5312 137.88C64.5334 137.762 64.5817 137.65 64.6658 137.568C64.7499 137.485 64.8631 137.439 64.981 137.439L96.2963 137.406Z" fill="#F0F0F0"/>
<path d="M96.2963 139.605V140.497H64.981C64.8617 140.497 64.7473 140.449 64.663 140.365C64.5786 140.281 64.5313 140.166 64.5312 140.047C64.5334 139.929 64.5817 139.817 64.6658 139.734C64.7499 139.652 64.8631 139.605 64.981 139.605H96.2963Z" fill="#F0F0F0"/>
<path d="M91.0143 127.505H92.3143V126.213H57.246C56.1292 126.213 55.0582 126.656 54.2685 127.446C53.4788 128.236 53.0352 129.307 53.0352 130.423C53.0352 131.54 53.4788 132.611 54.2685 133.401C55.0582 134.191 56.1292 134.634 57.246 134.634H92.3143V133.334H91.0143V127.505Z" fill="#E0E0E0"/>
<path d="M91.0078 127.504V133.334H58.8339C58.4557 133.331 58.0817 133.253 57.7337 133.105C57.3857 132.957 57.0704 132.741 56.8059 132.47C56.5415 132.2 56.3331 131.88 56.1929 131.528C56.0526 131.177 55.9832 130.802 55.9886 130.423C55.9844 129.654 56.2773 128.913 56.8062 128.355C57.0711 128.093 57.3852 127.886 57.7303 127.745C58.0755 127.605 58.445 127.534 58.8176 127.537L91.0078 127.504Z" fill="white"/>
<path d="M91.0119 128.976V129.875H59.672C59.5541 129.873 59.4419 129.825 59.3593 129.741C59.2767 129.657 59.2304 129.544 59.2305 129.426C59.2304 129.308 59.2767 129.195 59.3593 129.111C59.4419 129.027 59.5541 128.978 59.672 128.976H91.0119Z" fill="#F0F0F0"/>
<path d="M91.0119 131.176V132.067H59.672C59.5549 132.067 59.4426 132.02 59.3598 131.938C59.277 131.855 59.2305 131.743 59.2305 131.625C59.2304 131.508 59.2767 131.394 59.3593 131.31C59.4419 131.226 59.5541 131.178 59.672 131.176H91.0119Z" fill="#F0F0F0"/>
<path d="M134.637 143.072H48.7852V148.787H134.637V143.072Z" fill="#E6E6E6"/>
<path d="M64.8602 154.585V148.788H57.7305L60.3469 154.585H64.8602Z" fill="#E0E0E0"/>
<path d="M116.871 154.585V148.788H124.009L121.393 154.585H116.871Z" fill="#E0E0E0"/>
<path d="M68.975 12.9705H46.4492V21.4003H68.975V12.9705Z" fill="#F5F5F5"/>
<path d="M94.6079 12.9702H72.082V21.4H94.6079V12.9702Z" fill="#F5F5F5"/>
<path d="M81.7211 24.0083H59.1953V32.4381H81.7211V24.0083Z" fill="#F5F5F5"/>
<path d="M337.459 120.62H314.934V129.05H337.459V120.62Z" fill="#F5F5F5"/>
<path d="M363.096 120.62H340.57V129.05H363.096V120.62Z" fill="#F5F5F5"/>
<path d="M350.205 131.658H327.68V140.088H350.205V131.658Z" fill="#F5F5F5"/>
<path d="M357.721 8.91504H335.195V17.3448H357.721V8.91504Z" fill="#F5F5F5"/>
<path d="M344.838 19.9531H322.312V28.3829H344.838V19.9531Z" fill="#F5F5F5"/>
<path d="M379.447 302.936H42.0425C41.7562 302.937 41.4725 302.882 41.2077 302.773C40.9428 302.664 40.7021 302.504 40.4993 302.302C40.2965 302.1 40.1355 301.86 40.0257 301.595C39.9159 301.331 39.8594 301.047 39.8594 300.761C39.8583 300.474 39.914 300.19 40.0234 299.924C40.1327 299.659 40.2935 299.418 40.4964 299.215C40.6993 299.012 40.9404 298.851 41.2058 298.742C41.4711 298.633 41.7555 298.577 42.0425 298.578H379.447C380.026 298.578 380.582 298.808 380.991 299.217C381.4 299.627 381.63 300.182 381.63 300.761C381.628 301.339 381.397 301.892 380.988 302.299C380.579 302.707 380.025 302.936 379.447 302.936Z" fill="#263238"/>
<path opacity="0.9" d="M379.447 302.936H42.0425C41.7562 302.937 41.4725 302.882 41.2077 302.773C40.9428 302.664 40.7021 302.504 40.4993 302.302C40.2965 302.1 40.1355 301.86 40.0257 301.595C39.9159 301.331 39.8594 301.047 39.8594 300.761C39.8583 300.474 39.914 300.19 40.0234 299.924C40.1327 299.659 40.2935 299.418 40.4964 299.215C40.6993 299.012 40.9404 298.851 41.2058 298.742C41.4711 298.633 41.7555 298.577 42.0425 298.578H379.447C380.026 298.578 380.582 298.808 380.991 299.217C381.4 299.627 381.63 300.182 381.63 300.761C381.628 301.339 381.397 301.892 380.988 302.299C380.579 302.707 380.025 302.936 379.447 302.936Z" fill="white"/>
<path d="M376.571 302.961H44.9219C44.9812 304.174 45.5186 305.314 46.4165 306.133C47.3143 306.951 48.4996 307.38 49.7132 307.327H371.779C372.993 307.38 374.178 306.951 375.076 306.133C375.974 305.314 376.511 304.174 376.571 302.961Z" fill="#263238"/>
<path opacity="0.8" d="M376.571 302.961H44.9219C44.9812 304.174 45.5186 305.314 46.4165 306.133C47.3143 306.951 48.4996 307.38 49.7132 307.327H371.779C372.993 307.38 374.178 306.951 375.076 306.133C375.974 305.314 376.511 304.174 376.571 302.961Z" fill="white"/>
<path d="M326.282 70.4008V70.7442C326.238 70.7432 326.196 70.7334 326.156 70.7154C326.117 70.6973 326.081 70.6715 326.052 70.6393C326.023 70.6072 326.001 70.5695 325.987 70.5284C325.973 70.4874 325.968 70.444 325.971 70.4008C325.979 70.3068 326.022 70.2193 326.092 70.1557C326.162 70.0921 326.253 70.057 326.347 70.0574C327.877 70.0566 329.399 69.8391 330.868 69.4114C330.911 69.3977 330.957 69.3927 331.002 69.3969C331.046 69.401 331.09 69.4141 331.13 69.4355C331.169 69.4569 331.204 69.486 331.233 69.5212C331.261 69.5564 331.281 69.597 331.294 69.6404C331.307 69.6833 331.312 69.7286 331.308 69.7735C331.304 69.8184 331.291 69.862 331.27 69.9016C331.248 69.9413 331.219 69.9763 331.184 70.0045C331.149 70.0326 331.108 70.0534 331.065 70.0656C329.533 70.5161 327.944 70.7447 326.347 70.7442L326.282 70.4008ZM321.572 70.0492C320.042 69.5924 318.585 68.9178 317.247 68.046C317.209 68.0219 317.176 67.9904 317.15 67.9535C317.124 67.9166 317.105 67.875 317.095 67.8309C317.085 67.7869 317.084 67.7413 317.092 67.6968C317.1 67.6524 317.116 67.6099 317.14 67.5718C317.192 67.4955 317.271 67.4425 317.362 67.4242C317.452 67.4058 317.546 67.4236 317.623 67.4737C318.907 68.3068 320.303 68.9537 321.768 69.3951C321.855 69.4216 321.927 69.4811 321.97 69.5606C322.013 69.6402 322.023 69.7335 321.997 69.8203C321.975 69.8901 321.932 69.9513 321.873 69.9953C321.814 70.0393 321.743 70.0639 321.67 70.0656L321.572 70.0492ZM334.924 68.0051C334.899 67.9674 334.881 67.9248 334.873 67.8802C334.865 67.8355 334.865 67.7895 334.875 67.7452C334.885 67.7008 334.904 67.659 334.931 67.6221C334.957 67.5853 334.991 67.5542 335.03 67.5309C336.315 66.7005 337.477 65.693 338.481 64.5383C338.512 64.5059 338.549 64.4802 338.591 64.4626C338.632 64.445 338.677 64.4359 338.722 64.4359C338.767 64.4359 338.811 64.445 338.853 64.4626C338.894 64.4802 338.932 64.5059 338.963 64.5383C338.995 64.5696 339.021 64.6071 339.039 64.6485C339.056 64.69 339.065 64.7345 339.065 64.7795C339.065 64.8246 339.056 64.8691 339.039 64.9106C339.021 64.952 338.995 64.9895 338.963 65.0208C337.918 66.2274 336.707 67.2791 335.365 68.1441C335.308 68.1767 335.243 68.1936 335.177 68.1932C335.123 68.1858 335.071 68.1646 335.026 68.1317C334.982 68.0989 334.947 68.0553 334.924 68.0051ZM313.665 64.939C312.624 63.7292 311.759 62.3775 311.098 60.9244C311.079 60.8831 311.068 60.8384 311.067 60.793C311.065 60.7475 311.072 60.7022 311.088 60.6596C311.104 60.617 311.128 60.578 311.16 60.5448C311.191 60.5117 311.228 60.4851 311.27 60.4665C311.352 60.4305 311.446 60.4283 311.53 60.4604C311.614 60.4925 311.682 60.5564 311.719 60.6382C312.351 62.0314 313.177 63.328 314.172 64.4893C314.214 64.5393 314.241 64.6002 314.25 64.6649C314.258 64.7295 314.248 64.7953 314.221 64.8545C314.193 64.9137 314.15 64.9639 314.095 64.9991C314.04 65.0343 313.976 65.0532 313.911 65.0535C313.861 65.0496 313.813 65.0352 313.769 65.0112C313.725 64.9872 313.687 64.9543 313.657 64.9145L313.665 64.939ZM341.138 61.1533C341.096 61.1348 341.059 61.1082 341.028 61.0751C340.997 61.0419 340.972 61.0029 340.956 60.9603C340.94 60.9177 340.933 60.8724 340.935 60.8269C340.936 60.7814 340.947 60.7368 340.966 60.6955C341.603 59.3064 342.038 57.8334 342.258 56.3211C342.272 56.2306 342.321 56.1492 342.395 56.0942C342.468 56.0392 342.56 56.015 342.651 56.0268C342.695 56.0328 342.737 56.0475 342.776 56.0702C342.814 56.0928 342.848 56.123 342.874 56.1588C342.901 56.1945 342.92 56.2353 342.931 56.2786C342.942 56.3219 342.944 56.367 342.937 56.4111C342.711 57.992 342.257 59.5317 341.588 60.9816C341.562 61.0426 341.519 61.0945 341.463 61.1309C341.408 61.1673 341.343 61.1865 341.277 61.1861C341.223 61.1821 341.172 61.1621 341.13 61.1288L341.138 61.1533ZM309.765 56.3457C309.537 54.7677 309.537 53.165 309.765 51.587C309.769 51.5404 309.783 51.4952 309.805 51.454C309.827 51.4128 309.857 51.3766 309.894 51.3476C309.931 51.3185 309.973 51.2973 310.018 51.2851C310.063 51.2729 310.11 51.2701 310.157 51.2768C310.203 51.2835 310.247 51.2996 310.287 51.324C310.327 51.3485 310.361 51.3808 310.388 51.419C310.415 51.4573 310.434 51.5006 310.444 51.5463C310.453 51.5921 310.453 51.6393 310.444 51.6851C310.33 52.4566 310.272 53.2355 310.272 54.0154C310.275 54.7648 310.327 55.5131 310.428 56.2557C310.436 56.2999 310.435 56.3454 310.424 56.3891C310.414 56.4329 310.395 56.4742 310.368 56.5102C310.341 56.5463 310.307 56.5764 310.268 56.5987C310.229 56.6211 310.186 56.6351 310.141 56.64H310.092C310.007 56.6382 309.925 56.6045 309.863 56.5455C309.801 56.4865 309.763 56.4065 309.757 56.3211L309.765 56.3457ZM342.266 51.7505C342.049 50.2334 341.617 48.755 340.983 47.3599C340.963 47.3197 340.952 47.276 340.95 47.2315C340.948 47.187 340.955 47.1426 340.97 47.1007C340.985 47.0588 341.009 47.0204 341.039 46.9877C341.069 46.955 341.106 46.9286 341.146 46.9102C341.187 46.8908 341.231 46.8796 341.276 46.8774C341.321 46.8751 341.366 46.8818 341.409 46.8969C341.452 46.9121 341.491 46.9356 341.524 46.9659C341.558 46.9962 341.585 47.0328 341.604 47.0737C342.277 48.5269 342.74 50.0687 342.978 51.6524C342.989 51.7424 342.965 51.8333 342.91 51.9053C342.855 51.9773 342.773 52.0245 342.683 52.0367H342.634C342.589 52.0412 342.544 52.0367 342.5 52.0235C342.457 52.0103 342.416 51.9887 342.381 51.9598C342.346 51.9309 342.318 51.8954 342.296 51.8552C342.275 51.8151 342.262 51.7712 342.258 51.726L342.266 51.7505ZM311.311 47.4743C311.269 47.4558 311.232 47.4292 311.2 47.396C311.169 47.3629 311.145 47.3239 311.129 47.2813C311.113 47.2387 311.106 47.1933 311.107 47.1479C311.109 47.1024 311.12 47.0577 311.139 47.0164C311.807 45.5666 312.68 44.2201 313.731 43.0182C313.795 42.9548 313.882 42.9192 313.972 42.9192C314.062 42.9192 314.149 42.9548 314.213 43.0182C314.246 43.0495 314.271 43.087 314.289 43.1284C314.307 43.1698 314.316 43.2144 314.316 43.2594C314.316 43.3044 314.307 43.349 314.289 43.3904C314.271 43.4319 314.246 43.4694 314.213 43.5006C313.221 44.6586 312.396 45.9493 311.76 47.3353C311.735 47.3963 311.691 47.4482 311.636 47.4846C311.581 47.5209 311.516 47.5401 311.45 47.5397C311.394 47.5213 311.344 47.4905 311.302 47.4498L311.311 47.4743ZM338.505 43.4761C337.501 42.3192 336.34 41.3091 335.055 40.4754C335.01 40.4547 334.971 40.4248 334.939 40.3876C334.907 40.3503 334.883 40.3067 334.87 40.2596C334.856 40.2125 334.852 40.163 334.86 40.1145C334.867 40.0659 334.884 40.0195 334.911 39.9782C334.937 39.9369 334.972 39.9018 335.013 39.8753C335.055 39.8487 335.101 39.8313 335.149 39.8241C335.198 39.817 335.248 39.8204 335.295 39.834C335.342 39.8476 335.385 39.8711 335.423 39.903C336.764 40.7681 337.975 41.8198 339.02 43.0264C339.084 43.0907 339.119 43.1773 339.119 43.2676C339.119 43.3579 339.084 43.4445 339.02 43.5088C338.957 43.5654 338.876 43.5973 338.791 43.5987C338.737 43.6037 338.683 43.5951 338.633 43.5737C338.583 43.5522 338.539 43.5187 338.505 43.4761ZM317.247 40.3364C317.2 40.2589 317.185 40.1663 317.205 40.0779C317.224 39.9896 317.278 39.9123 317.353 39.8622C318.696 39.002 320.155 38.3384 321.686 37.8917C321.731 37.873 321.779 37.8638 321.827 37.8649C321.875 37.8659 321.922 37.877 321.966 37.8976C322.01 37.9181 322.048 37.9476 322.08 37.9841C322.111 38.0207 322.135 38.0634 322.149 38.1095C322.162 38.1557 322.166 38.2042 322.16 38.252C322.154 38.2998 322.138 38.3458 322.113 38.3869C322.088 38.428 322.054 38.4634 322.015 38.4908C321.975 38.5182 321.93 38.5369 321.883 38.5458C320.413 38.98 319.012 39.6185 317.721 40.4427C317.667 40.4774 317.605 40.4972 317.541 40.4999C317.48 40.5063 317.417 40.4961 317.361 40.4702C317.305 40.4443 317.257 40.4037 317.222 40.3527L317.247 40.3364ZM330.901 38.5703C329.433 38.1373 327.911 37.9143 326.38 37.908C326.289 37.908 326.201 37.8718 326.137 37.8074C326.072 37.743 326.036 37.6557 326.036 37.5646C326.036 37.4735 326.072 37.3862 326.137 37.3218C326.201 37.2574 326.289 37.2212 326.38 37.2212C327.977 37.2264 329.565 37.4576 331.097 37.908C331.175 37.9328 331.241 37.9842 331.284 38.0533C331.327 38.1223 331.344 38.2043 331.333 38.2848C331.321 38.3653 331.281 38.4391 331.22 38.4928C331.159 38.5466 331.081 38.5769 330.999 38.5785L330.901 38.5703Z" fill="#BEBEBE"/>
<path d="M326.346 67.6537C333.892 67.6537 340.009 61.5367 340.009 53.991C340.009 46.4454 333.892 40.3284 326.346 40.3284C318.801 40.3284 312.684 46.4454 312.684 53.991C312.684 61.5367 318.801 67.6537 326.346 67.6537Z" fill="#BEBEBE"/>
<path d="M323.351 59.9188C323.229 59.9151 323.108 59.8863 322.997 59.8343C322.886 59.7823 322.787 59.7081 322.705 59.6163L318.617 55.0539C318.468 54.8719 318.395 54.6397 318.413 54.4052C318.43 54.1708 318.538 53.9521 318.712 53.7944C318.886 53.6368 319.115 53.5523 319.35 53.5585C319.585 53.5646 319.809 53.6609 319.975 53.8274L323.466 57.6948L332.206 49.1996C332.382 49.0316 332.617 48.9402 332.86 48.9455C333.103 48.9509 333.334 49.0526 333.502 49.2282C333.67 49.4039 333.762 49.6391 333.756 49.8821C333.751 50.1252 333.649 50.3561 333.474 50.5242L323.981 59.6653C323.811 59.8266 323.586 59.9172 323.351 59.9188Z" fill="white"/>
<path d="M326.77 91.7657V90.0159C326.784 89.9102 326.836 89.8133 326.917 89.7431C326.997 89.673 327.1 89.6343 327.207 89.6343C327.314 89.6343 327.417 89.673 327.497 89.7431C327.578 89.8133 327.63 89.9102 327.645 90.0159V91.7657C327.653 91.8281 327.648 91.8917 327.63 91.9521C327.612 92.0125 327.581 92.0683 327.54 92.1158C327.498 92.1634 327.447 92.2014 327.39 92.2275C327.332 92.2536 327.27 92.2671 327.207 92.2671C327.144 92.2671 327.082 92.2536 327.024 92.2275C326.967 92.2014 326.916 92.1634 326.874 92.1158C326.833 92.0683 326.802 92.0125 326.784 91.9521C326.766 91.8917 326.761 91.8281 326.77 91.7657ZM326.77 86.5246V84.7749C326.784 84.6692 326.836 84.5723 326.917 84.5021C326.997 84.432 327.1 84.3933 327.207 84.3933C327.314 84.3933 327.417 84.432 327.497 84.5021C327.578 84.5723 327.63 84.6692 327.645 84.7749V86.5246C327.63 86.6304 327.578 86.7273 327.497 86.7974C327.417 86.8676 327.314 86.9062 327.207 86.9062C327.1 86.9062 326.997 86.8676 326.917 86.7974C326.836 86.7273 326.784 86.6304 326.77 86.5246ZM326.77 81.2754V79.5339C326.761 79.4714 326.766 79.4078 326.784 79.3474C326.802 79.287 326.833 79.2312 326.874 79.1837C326.916 79.1362 326.967 79.0981 327.024 79.072C327.082 79.0459 327.144 79.0324 327.207 79.0324C327.27 79.0324 327.332 79.0459 327.39 79.072C327.447 79.0981 327.498 79.1362 327.54 79.1837C327.581 79.2312 327.612 79.287 327.63 79.3474C327.648 79.4078 327.653 79.4714 327.645 79.5339V81.2754C327.653 81.3379 327.648 81.4015 327.63 81.4619C327.612 81.5223 327.581 81.5781 327.54 81.6256C327.498 81.6731 327.447 81.7112 327.39 81.7373C327.332 81.7634 327.27 81.7769 327.207 81.7769C327.144 81.7769 327.082 81.7634 327.024 81.7373C326.967 81.7112 326.916 81.6731 326.874 81.6256C326.833 81.5781 326.802 81.5223 326.784 81.4619C326.766 81.4015 326.761 81.3379 326.77 81.2754ZM326.77 76.0344V74.2846C326.784 74.1789 326.836 74.082 326.917 74.0119C326.997 73.9417 327.1 73.9031 327.207 73.9031C327.314 73.9031 327.417 73.9417 327.497 74.0119C327.578 74.082 327.63 74.1789 327.645 74.2846V76.0344C327.653 76.0969 327.648 76.1604 327.63 76.2208C327.612 76.2812 327.581 76.3371 327.54 76.3846C327.498 76.4321 327.447 76.4702 327.39 76.4963C327.332 76.5224 327.27 76.5359 327.207 76.5359C327.144 76.5359 327.082 76.5224 327.024 76.4963C326.967 76.4702 326.916 76.4321 326.874 76.3846C326.833 76.3371 326.802 76.2812 326.784 76.2208C326.766 76.1604 326.761 76.0969 326.77 76.0344Z" fill="#BEBEBE"/>
<path d="M326.33 96.5731H327.204C327.319 96.5731 327.43 96.5274 327.511 96.4462C327.592 96.3649 327.638 96.2547 327.638 96.1398V95.2649C327.646 95.2024 327.641 95.1389 327.623 95.0785C327.605 95.0181 327.575 94.9622 327.533 94.9147C327.492 94.8672 327.441 94.8291 327.383 94.803C327.326 94.7769 327.263 94.7634 327.2 94.7634C327.137 94.7634 327.075 94.7769 327.018 94.803C326.96 94.8291 326.909 94.8672 326.868 94.9147C326.826 94.9622 326.795 95.0181 326.777 95.0785C326.759 95.1389 326.754 95.2024 326.763 95.2649V95.6982H326.33C326.267 95.6897 326.204 95.6946 326.143 95.7127C326.083 95.7307 326.027 95.7615 325.979 95.8029C325.932 95.8444 325.894 95.8955 325.868 95.9529C325.842 96.0103 325.828 96.0726 325.828 96.1357C325.828 96.1987 325.842 96.261 325.868 96.3184C325.894 96.3758 325.932 96.427 325.979 96.4684C326.027 96.5098 326.083 96.5406 326.143 96.5587C326.204 96.5768 326.267 96.5817 326.33 96.5731Z" fill="#BEBEBE"/>
<path d="M306.012 96.14C306.012 96.0229 306.058 95.9106 306.141 95.8278C306.224 95.7449 306.336 95.6984 306.453 95.6984H308.088C308.194 95.7129 308.291 95.7652 308.361 95.8456C308.431 95.926 308.47 96.0291 308.47 96.1359C308.47 96.2426 308.431 96.3457 308.361 96.4261C308.291 96.5065 308.194 96.5588 308.088 96.5733H306.453C306.338 96.5733 306.226 96.5279 306.144 96.4469C306.061 96.3658 306.014 96.2556 306.012 96.14ZM310.983 96.14C310.983 96.0229 311.029 95.9106 311.112 95.8278C311.195 95.7449 311.307 95.6984 311.424 95.6984H313.06C313.122 95.6899 313.186 95.6948 313.246 95.7128C313.307 95.7309 313.362 95.7617 313.41 95.8031C313.457 95.8446 313.495 95.8957 313.522 95.9531C313.548 96.0105 313.561 96.0728 313.561 96.1359C313.561 96.1989 313.548 96.2612 313.522 96.3186C313.495 96.376 313.457 96.4271 313.41 96.4686C313.362 96.51 313.307 96.5408 313.246 96.5589C313.186 96.5769 313.122 96.5819 313.06 96.5733H311.424C311.309 96.5733 311.198 96.5279 311.115 96.4469C311.033 96.3658 310.985 96.2556 310.983 96.14ZM315.954 96.14C315.954 96.0243 316 95.9132 316.081 95.8306C316.162 95.748 316.272 95.7006 316.387 95.6984H318.023C318.128 95.7129 318.225 95.7652 318.296 95.8456C318.366 95.926 318.404 96.0291 318.404 96.1359C318.404 96.2426 318.366 96.3457 318.296 96.4261C318.225 96.5065 318.128 96.5588 318.023 96.5733H316.387C316.28 96.5631 316.18 96.513 316.107 96.4328C316.035 96.3526 315.995 96.2481 315.995 96.14H315.954ZM320.925 96.14C320.925 96.0243 320.971 95.9132 321.052 95.8306C321.133 95.748 321.243 95.7006 321.359 95.6984H322.994C323.1 95.7129 323.197 95.7652 323.267 95.8456C323.337 95.926 323.376 96.0291 323.376 96.1359C323.376 96.2426 323.337 96.3457 323.267 96.4261C323.197 96.5065 323.1 96.5588 322.994 96.5733H321.359C321.3 96.5766 321.241 96.5679 321.185 96.5476C321.13 96.5273 321.079 96.496 321.036 96.4554C320.993 96.4148 320.959 96.3659 320.936 96.3116C320.913 96.2574 320.901 96.199 320.901 96.14H320.925Z" fill="#BEBEBE"/>
<path d="M79.0074 70.7443C77.4104 70.7459 75.8215 70.5173 74.2897 70.0657C74.2029 70.0391 74.1298 69.98 74.0856 69.9008C74.0414 69.8215 74.0296 69.7283 74.0526 69.6405C74.079 69.5541 74.1385 69.4816 74.2181 69.4387C74.2977 69.3958 74.391 69.3861 74.4777 69.4116C75.9495 69.8399 77.4746 70.0574 79.0074 70.0575C79.1018 70.0571 79.1928 70.0922 79.2624 70.1559C79.3321 70.2195 79.3753 70.3069 79.3835 70.4009C79.3869 70.4441 79.3814 70.4875 79.3674 70.5286C79.3534 70.5696 79.3311 70.6073 79.3021 70.6395C79.273 70.6716 79.2377 70.6975 79.1982 70.7155C79.1588 70.7335 79.1162 70.7433 79.0728 70.7443V70.4009L79.0074 70.7443ZM83.6843 70.0657C83.6029 70.0642 83.5248 70.0338 83.4637 69.98C83.4027 69.9263 83.3627 69.8526 83.3509 69.7721C83.3391 69.6916 83.3563 69.6095 83.3994 69.5405C83.4425 69.4715 83.5087 69.42 83.5862 69.3952C85.0518 68.9538 86.4475 68.3069 87.7316 67.4738C87.8075 67.4242 87.9001 67.4066 87.9889 67.425C88.0778 67.4434 88.1558 67.4962 88.2058 67.5719C88.2315 67.6092 88.2493 67.6512 88.2583 67.6956C88.2673 67.7399 88.2672 67.7856 88.258 67.8299C88.2488 67.8743 88.2308 67.9163 88.205 67.9534C88.1791 67.9906 88.146 68.0221 88.1077 68.0461C86.772 68.9172 85.3181 69.5918 83.7906 70.0493L83.6843 70.0657ZM70.1443 68.1361C70.0784 68.1365 70.0135 68.1196 69.9562 68.087C68.6148 67.222 67.4035 66.1703 66.3586 64.9636C66.3262 64.9324 66.3005 64.8949 66.2829 64.8535C66.2653 64.812 66.2562 64.7675 66.2562 64.7224C66.2562 64.6774 66.2653 64.6329 66.2829 64.5914C66.3005 64.55 66.3262 64.5125 66.3586 64.4812C66.3899 64.4488 66.4274 64.4231 66.4688 64.4055C66.5102 64.3879 66.5548 64.3788 66.5998 64.3788C66.6448 64.3788 66.6894 64.3879 66.7308 64.4055C66.7723 64.4231 66.8098 64.4488 66.841 64.4812C67.8448 65.6359 69.0064 66.6434 70.2914 67.4738C70.3296 67.4979 70.3626 67.5293 70.3886 67.5662C70.4146 67.6031 70.433 67.6448 70.4429 67.6889C70.4528 67.7329 70.4539 67.7785 70.4461 67.8229C70.4384 67.8674 70.4219 67.9099 70.3977 67.948C70.3742 67.9977 70.3387 68.0409 70.2945 68.0737C70.2503 68.1065 70.1987 68.1279 70.1443 68.1361ZM91.4028 65.029C91.3214 65.0309 91.2425 65.0017 91.182 64.9473C91.1496 64.916 91.1238 64.8785 91.1062 64.8371C91.0886 64.7957 91.0796 64.7511 91.0796 64.7061C91.0796 64.6611 91.0886 64.6165 91.1062 64.5751C91.1238 64.5336 91.1496 64.4961 91.182 64.4649C92.1775 63.3036 93.0034 62.007 93.6349 60.6138C93.6724 60.532 93.7405 60.4681 93.8246 60.436C93.9087 60.4039 94.0021 60.4061 94.0846 60.4421C94.1261 60.4607 94.1636 60.4873 94.1948 60.5204C94.2259 60.5535 94.2502 60.5926 94.2662 60.6352C94.2822 60.6778 94.2895 60.7231 94.2878 60.7686C94.2861 60.814 94.2754 60.8587 94.2563 60.9C93.595 62.353 92.7306 63.7048 91.6889 64.9146C91.6567 64.9499 91.6176 64.9783 91.574 64.9979C91.5304 65.0176 91.4833 65.0282 91.4355 65.029H91.4028ZM64.0856 61.1616C64.0183 61.1626 63.9521 61.1437 63.8954 61.1074C63.8387 61.071 63.794 61.0188 63.7667 60.9572C63.1001 59.507 62.6483 57.9672 62.4258 56.3867C62.4189 56.3426 62.4208 56.2975 62.4315 56.2542C62.4422 56.2109 62.4614 56.1701 62.4881 56.1343C62.5147 56.0986 62.5483 56.0684 62.5867 56.0458C62.6252 56.0231 62.6678 56.0084 62.712 56.0024C62.8028 55.9906 62.8947 56.0148 62.968 56.0698C63.0413 56.1248 63.0903 56.2062 63.1044 56.2967C63.3229 57.8014 63.7581 59.2665 64.3963 60.6465C64.4327 60.7302 64.4351 60.8248 64.4031 60.9102C64.3711 60.9957 64.307 61.0653 64.2246 61.1044C64.1836 61.1346 64.1359 61.1542 64.0856 61.1616ZM95.2375 56.6156C95.1476 56.6034 95.0662 56.5561 95.0111 56.4841C94.9559 56.4121 94.9315 56.3213 94.9431 56.2313C95.0477 55.4891 95.0996 54.7405 95.0985 53.991C95.0972 53.2114 95.0426 52.4328 94.9349 51.6607C94.9268 51.616 94.9278 51.5702 94.938 51.5259C94.9481 51.4816 94.9671 51.4398 94.9939 51.4031C95.0206 51.3664 95.0546 51.3356 95.0936 51.3124C95.1327 51.2892 95.1761 51.2742 95.2211 51.2683C95.312 51.2565 95.4039 51.2807 95.4772 51.3357C95.5505 51.3907 95.5994 51.4721 95.6136 51.5626C95.8315 53.1413 95.8315 54.7425 95.6136 56.3213C95.6013 56.4095 95.5552 56.4896 95.4851 56.5445C95.4149 56.5994 95.3261 56.6249 95.2375 56.6156ZM62.7447 52.0205H62.6956C62.6058 52.0083 62.5244 51.961 62.4692 51.889C62.4141 51.817 62.3896 51.7261 62.4013 51.6362C62.625 50.0532 63.0766 48.511 63.7422 47.0575C63.7848 46.983 63.8538 46.9272 63.9356 46.901C64.0173 46.8749 64.1059 46.8802 64.1839 46.9162C64.2618 46.9521 64.3235 47.0159 64.3568 47.095C64.39 47.1741 64.3925 47.2628 64.3636 47.3436C63.7256 48.7374 63.2932 50.2164 63.0799 51.7343C63.0671 51.8111 63.0285 51.8812 62.9706 51.9332C62.9126 51.9852 62.8387 52.016 62.761 52.0205H62.7447ZM93.8965 47.4826C93.8304 47.483 93.7655 47.4638 93.7102 47.4275C93.6549 47.3911 93.6117 47.3391 93.5858 47.2782C92.9504 45.8922 92.1248 44.6015 91.1329 43.4435C91.1005 43.4122 91.0748 43.3748 91.0572 43.3333C91.0396 43.2919 91.0305 43.2473 91.0305 43.2023C91.0305 43.1573 91.0396 43.1127 91.0572 43.0713C91.0748 43.0298 91.1005 42.9924 91.1329 42.9611C91.1972 42.8977 91.2839 42.8621 91.3741 42.8621C91.4644 42.8621 91.5511 42.8977 91.6153 42.9611C92.6633 44.1651 93.5359 45.5111 94.2072 46.9593C94.2263 47.0006 94.2371 47.0453 94.2388 47.0908C94.2405 47.1362 94.2331 47.1816 94.2171 47.2242C94.2012 47.2668 94.1769 47.3058 94.1457 47.3389C94.1145 47.3721 94.0771 47.3987 94.0355 47.4172C93.999 47.4463 93.9574 47.4684 93.9129 47.4826H93.8965ZM66.6203 43.6152C66.5356 43.6138 66.4543 43.5818 66.3913 43.5253C66.3279 43.461 66.2924 43.3744 66.2924 43.2841C66.2924 43.1938 66.3279 43.1071 66.3913 43.0429C67.4076 41.8447 68.5853 40.7936 69.8908 39.9195C69.9282 39.8906 69.9712 39.8698 70.0171 39.8583C70.063 39.8469 70.1107 39.845 70.1573 39.8528C70.2039 39.8606 70.2484 39.878 70.288 39.9038C70.3276 39.9297 70.3615 39.9634 70.3874 40.0029C70.4134 40.0424 70.4309 40.0868 70.4389 40.1334C70.4469 40.18 70.4452 40.2278 70.4339 40.2737C70.4226 40.3196 70.4019 40.3626 70.3732 40.4002C70.3444 40.4377 70.3083 40.4689 70.2669 40.4918C68.9945 41.323 67.8442 42.3274 66.8492 43.4762C66.823 43.5142 66.7891 43.5463 66.7496 43.5702C66.7102 43.5942 66.6661 43.6095 66.6203 43.6152ZM87.8787 40.5164C87.8122 40.5136 87.7475 40.4939 87.6907 40.4591C86.402 39.6351 85.0038 38.9966 83.5371 38.5622C83.4936 38.55 83.4529 38.5292 83.4174 38.5012C83.3819 38.4732 83.3522 38.4384 83.3302 38.3989C83.3082 38.3594 83.2942 38.3159 83.289 38.271C83.2838 38.2261 83.2875 38.1806 83.3 38.1371C83.3265 38.0506 83.386 37.9781 83.4656 37.9352C83.5451 37.8924 83.6384 37.8826 83.7252 37.9081C85.2588 38.3548 86.7208 39.0184 88.0668 39.8786C88.1425 39.9287 88.1953 40.0066 88.2137 40.0955C88.2321 40.1844 88.2145 40.2769 88.1649 40.3529C88.1353 40.4024 88.0935 40.4436 88.0433 40.4722C87.9932 40.5009 87.9365 40.5161 87.8787 40.5164ZM74.3551 38.5704C74.2804 38.5704 74.2076 38.5467 74.1474 38.5026C74.0871 38.4585 74.0424 38.3963 74.0199 38.3251C74.0074 38.2816 74.0036 38.2361 74.0088 38.1912C74.014 38.1462 74.028 38.1028 74.0501 38.0633C74.0721 38.0238 74.1017 37.989 74.1372 37.961C74.1727 37.9329 74.2134 37.9122 74.257 37.9C75.7866 37.4501 77.3721 37.2189 78.9665 37.2131C79.0576 37.2131 79.145 37.2493 79.2094 37.3137C79.2738 37.3781 79.3099 37.4655 79.3099 37.5565C79.3099 37.6476 79.2738 37.735 79.2094 37.7994C79.145 37.8638 79.0576 37.9 78.9665 37.9C77.4383 37.9056 75.9186 38.1286 74.4532 38.5622L74.3551 38.5704Z" fill="#BEBEBE"/>
<path d="M79.0064 67.6535C86.5521 67.6535 92.6691 61.5365 92.6691 53.9908C92.6691 46.4451 86.5521 40.3281 79.0064 40.3281C71.4607 40.3281 65.3438 46.4451 65.3438 53.9908C65.3438 61.5365 71.4607 67.6535 79.0064 67.6535Z" fill="#BEBEBE"/>
<path d="M76.6253 59.9188C76.5027 59.9151 76.3822 59.8863 76.2711 59.8343C76.16 59.7823 76.0607 59.7081 75.9794 59.6163L71.8912 55.0539C71.7286 54.8728 71.6445 54.6346 71.6576 54.3915C71.6706 54.1485 71.7796 53.9206 71.9607 53.7579C72.1418 53.5953 72.38 53.5112 72.6231 53.5243C72.8661 53.5373 73.094 53.6464 73.2567 53.8274L76.7398 57.6948L85.4885 49.1996C85.6641 49.0316 85.8993 48.9402 86.1424 48.9455C86.3854 48.9509 86.6164 49.0526 86.7844 49.2282C86.9525 49.4039 87.0439 49.6391 87.0385 49.8821C87.0331 50.1252 86.9314 50.3561 86.7558 50.5242L77.2467 59.6653C77.0787 59.8247 76.8569 59.9152 76.6253 59.9188Z" fill="white"/>
<path d="M78.1525 92.2073C78.0354 92.2073 77.9231 92.1608 77.8403 92.078C77.7575 91.9952 77.7109 91.8829 77.7109 91.7658V90.0161C77.7109 89.899 77.7575 89.7867 77.8403 89.7039C77.9231 89.6211 78.0354 89.5745 78.1525 89.5745C78.2696 89.5745 78.3819 89.6211 78.4647 89.7039C78.5475 89.7867 78.594 89.899 78.594 90.0161V91.7658C78.594 91.8829 78.5475 91.9952 78.4647 92.078C78.3819 92.1608 78.2696 92.2073 78.1525 92.2073ZM78.1525 86.9581C78.0368 86.9581 77.9257 86.9127 77.8431 86.8317C77.7605 86.7507 77.7131 86.6404 77.7109 86.5248V84.775C77.7109 84.6579 77.7575 84.5456 77.8403 84.4628C77.9231 84.38 78.0354 84.3335 78.1525 84.3335C78.2696 84.3335 78.3819 84.38 78.4647 84.4628C78.5475 84.5456 78.594 84.6579 78.594 84.775V86.5248C78.5918 86.6404 78.5444 86.7507 78.4618 86.8317C78.3792 86.9127 78.2682 86.9581 78.1525 86.9581ZM78.1525 81.7171C78.0354 81.7171 77.9231 81.6706 77.8403 81.5878C77.7575 81.505 77.7109 81.3927 77.7109 81.2756V79.534C77.7109 79.4169 77.7575 79.3046 77.8403 79.2218C77.9231 79.139 78.0354 79.0925 78.1525 79.0925C78.2696 79.0925 78.3819 79.139 78.4647 79.2218C78.5475 79.3046 78.594 79.4169 78.594 79.534V81.2756C78.594 81.3335 78.5826 81.3909 78.5604 81.4445C78.5382 81.4981 78.5057 81.5468 78.4647 81.5878C78.4237 81.6288 78.375 81.6613 78.3214 81.6835C78.2679 81.7057 78.2104 81.7171 78.1525 81.7171ZM78.1525 76.476C78.0354 76.476 77.9231 76.4295 77.8403 76.3467C77.7575 76.2639 77.7109 76.1516 77.7109 76.0345V74.2848C77.7109 74.1677 77.7575 74.0554 77.8403 73.9726C77.9231 73.8898 78.0354 73.8433 78.1525 73.8433C78.2696 73.8433 78.3819 73.8898 78.4647 73.9726C78.5475 74.0554 78.594 74.1677 78.594 74.2848V76.0345C78.594 76.1516 78.5475 76.2639 78.4647 76.3467C78.3819 76.4295 78.2696 76.476 78.1525 76.476Z" fill="#BEBEBE"/>
<path d="M79.0273 96.5735H78.1525C78.0368 96.5735 77.9257 96.5281 77.8431 96.447C77.7605 96.366 77.7131 96.2558 77.7109 96.1401V95.2652C77.7109 95.1481 77.7575 95.0358 77.8403 94.953C77.9231 94.8702 78.0354 94.8237 78.1525 94.8237C78.2696 94.8237 78.3819 94.8702 78.4647 94.953C78.5475 95.0358 78.594 95.1481 78.594 95.2652V95.6986H79.0273C79.0898 95.69 79.1534 95.695 79.2138 95.713C79.2742 95.7311 79.33 95.7619 79.3775 95.8033C79.425 95.8447 79.4631 95.8959 79.4892 95.9533C79.5153 96.0107 79.5288 96.073 79.5288 96.136C79.5288 96.1991 79.5153 96.2614 79.4892 96.3188C79.4631 96.3762 79.425 96.4273 79.3775 96.4688C79.33 96.5102 79.2742 96.541 79.2138 96.559C79.1534 96.5771 79.0898 96.582 79.0273 96.5735Z" fill="#BEBEBE"/>
<path d="M98.8989 96.5735H97.2636C97.1579 96.5591 97.061 96.5068 96.9908 96.4263C96.9207 96.3459 96.882 96.2428 96.882 96.1361C96.882 96.0294 96.9207 95.9263 96.9908 95.8459C97.061 95.7655 97.1579 95.7132 97.2636 95.6987H98.8989C99.0046 95.7132 99.1015 95.7655 99.1717 95.8459C99.2418 95.9263 99.2805 96.0294 99.2805 96.1361C99.2805 96.2428 99.2418 96.3459 99.1717 96.4263C99.1015 96.5068 99.0046 96.5591 98.8989 96.5735ZM93.9277 96.5735H92.2924C92.2299 96.5821 92.1664 96.5772 92.106 96.5591C92.0456 96.5411 91.9897 96.5103 91.9422 96.4688C91.8947 96.4274 91.8566 96.3762 91.8305 96.3189C91.8044 96.2615 91.7909 96.1991 91.7909 96.1361C91.7909 96.0731 91.8044 96.0107 91.8305 95.9534C91.8566 95.896 91.8947 95.8448 91.9422 95.8034C91.9897 95.7619 92.0456 95.7312 92.106 95.7131C92.1664 95.695 92.2299 95.6901 92.2924 95.6987H93.9277C93.9901 95.6901 94.0537 95.695 94.1141 95.7131C94.1745 95.7312 94.2303 95.7619 94.2778 95.8034C94.3253 95.8448 94.3634 95.896 94.3895 95.9534C94.4156 96.0107 94.4291 96.0731 94.4291 96.1361C94.4291 96.1991 94.4156 96.2615 94.3895 96.3189C94.3634 96.3762 94.3253 96.4274 94.2778 96.4688C94.2303 96.5103 94.1745 96.5411 94.1141 96.5591C94.0537 96.5772 93.9901 96.5821 93.9277 96.5735ZM88.9564 96.5735H87.3212C87.2587 96.5821 87.1951 96.5772 87.1347 96.5591C87.0743 96.5411 87.0185 96.5103 86.971 96.4688C86.9235 96.4274 86.8854 96.3762 86.8593 96.3189C86.8332 96.2615 86.8197 96.1991 86.8197 96.1361C86.8197 96.0731 86.8332 96.0107 86.8593 95.9534C86.8854 95.896 86.9235 95.8448 86.971 95.8034C87.0185 95.7619 87.0743 95.7312 87.1347 95.7131C87.1951 95.695 87.2587 95.6901 87.3212 95.6987H88.9564C89.0189 95.6901 89.0825 95.695 89.1429 95.7131C89.2033 95.7312 89.2591 95.7619 89.3066 95.8034C89.3541 95.8448 89.3922 95.896 89.4183 95.9534C89.4444 96.0107 89.4579 96.0731 89.4579 96.1361C89.4579 96.1991 89.4444 96.2615 89.4183 96.3189C89.3922 96.3762 89.3541 96.4274 89.3066 96.4688C89.2591 96.5103 89.2033 96.5411 89.1429 96.5591C89.0825 96.5772 89.0189 96.5821 88.9564 96.5735ZM83.9934 96.5735H82.3581C82.2524 96.5591 82.1555 96.5068 82.0854 96.4263C82.0152 96.3459 81.9766 96.2428 81.9766 96.1361C81.9766 96.0294 82.0152 95.9263 82.0854 95.8459C82.1555 95.7655 82.2524 95.7132 82.3581 95.6987H83.9934C84.0991 95.7132 84.196 95.7655 84.2662 95.8459C84.3363 95.9263 84.375 96.0294 84.375 96.1361C84.375 96.2428 84.3363 96.3459 84.2662 96.4263C84.196 96.5068 84.0991 96.5591 83.9934 96.5735Z" fill="#BEBEBE"/>
<path d="M241.073 253.976L236.102 298.554H284.317L285.724 292.781L288.692 298.554L333.008 298.922L331.356 256.462L241.073 253.976Z" fill="#263238"/>
<path d="M315.417 121.266C297.184 119.018 271.33 119.222 254.16 122.215C249.913 122.974 246.037 125.12 243.141 128.317C240.244 131.515 238.489 135.582 238.151 139.884C236.025 166.048 234.57 209.685 239.565 255.759C279.956 269.307 333.839 258.727 333.839 258.727C333.454 245.514 330.126 217.845 330.347 201.231C330.642 179.367 332.588 165.729 332.383 143.416C332.277 132.468 326.275 122.607 315.417 121.266Z" fill="#CED9FF"/>
<path d="M268.174 156.375C266.735 152.778 270.627 149.303 274.127 151.02C275.201 151.545 276.206 152.201 277.119 152.974C275.059 151.404 271.813 148.886 272.688 147.806C274.323 145.811 285.042 152.418 289.67 155.868C286.555 151.985 287.07 145.354 288.893 147.88C291.003 150.848 294.003 154.315 298.361 159.728C304.428 167.225 298.991 174.518 298.991 174.518C293.725 179.13 285.009 176.154 280.594 172.883C276.179 169.613 267.177 162.851 268.166 160.12C268.567 159.049 271.339 160.938 273.121 162.238C271.112 160.685 269.443 158.737 268.215 156.514L268.174 156.375Z" fill="#CE7A63"/>
<path d="M286.809 166.77C286.76 166.819 286.695 166.86 286.646 166.9L286.817 166.778C288.641 165.535 291.314 163.9 291.658 164.946C291.664 164.968 291.664 164.99 291.658 165.012C291.729 165.366 291.692 165.734 291.551 166.066C290.685 168.462 286.008 172.109 282.067 174.954C280.873 175.829 279.753 176.589 278.796 177.276C274.283 180.473 264.692 182.844 261.291 178.176C261.291 178.176 254.823 173.27 261.127 165.911C263.858 162.722 266.401 157.907 268.208 155.789C269.377 154.415 270.383 153.213 271.241 152.077C271.609 151.594 271.928 151.464 272.157 151.594C272.234 151.637 272.302 151.694 272.357 151.763C272.412 151.831 272.452 151.91 272.476 151.995C272.668 152.619 272.724 153.277 272.639 153.925C272.534 155.221 272.211 156.489 271.683 157.678C271.314 158.53 270.82 159.324 270.219 160.032L270.971 159.517L271.626 159.084C274.346 157.303 277.169 155.684 280.08 154.235C281.22 153.665 282.391 153.157 283.588 152.715C285.501 152.044 286.956 151.84 287.439 152.494C287.782 152.952 287.439 153.63 286.768 154.358C285.919 155.23 284.988 156.018 283.988 156.713C284.601 156.32 285.24 155.97 285.901 155.666C286.89 155.204 288.019 155.146 289.049 155.503C289.279 155.72 289.429 156.008 289.475 156.32C289.533 157.028 289.329 157.732 288.902 158.299C290.112 157.727 291.093 157.686 291.69 158.209C291.761 158.266 291.824 158.332 291.878 158.405C292.161 159.34 292.094 160.345 291.69 161.234C291.69 161.292 291.649 161.341 291.633 161.398C291.5 161.681 291.347 161.954 291.175 162.215C290.938 162.567 290.66 162.935 290.358 163.311L289.998 163.736C289.957 163.802 289.9 163.851 289.851 163.916C288.925 164.957 287.907 165.912 286.809 166.77Z" fill="#CE7A63"/>
<g opacity="0.2">
<path d="M270.897 159.867C270.864 159.868 270.831 159.861 270.801 159.847C270.771 159.833 270.745 159.812 270.726 159.785C270.677 159.744 270.595 159.622 270.726 159.433C271.192 158.689 272.835 153.522 272.361 152.279C272.304 152.132 272.246 152.116 272.222 152.107C271.404 151.903 269.336 154.323 268.207 155.909C268.191 155.933 268.17 155.953 268.146 155.968C268.122 155.984 268.095 155.994 268.066 155.998C268.038 156.003 268.009 156.002 267.982 155.995C267.954 155.988 267.928 155.976 267.905 155.959C267.881 155.941 267.861 155.92 267.845 155.895C267.83 155.87 267.82 155.842 267.815 155.813C267.811 155.784 267.812 155.755 267.819 155.727C267.826 155.698 267.838 155.671 267.856 155.648C268.371 154.928 271.012 151.339 272.336 151.682C272.438 151.715 272.53 151.771 272.605 151.847C272.681 151.922 272.737 152.014 272.77 152.116C273.277 153.407 271.952 157.782 271.306 159.262C271.928 158.943 273.138 158.223 274.405 157.471C276.776 156.065 280.03 154.135 282.982 152.655C283.008 152.641 283.036 152.633 283.065 152.63C283.094 152.628 283.123 152.631 283.15 152.641C283.178 152.65 283.203 152.664 283.225 152.684C283.247 152.703 283.264 152.727 283.276 152.753C283.3 152.806 283.303 152.865 283.285 152.92C283.267 152.974 283.228 153.02 283.178 153.048C280.235 154.519 276.997 156.441 274.626 157.847C271.846 159.466 271.167 159.867 270.897 159.867Z" fill="black"/>
</g>
<g opacity="0.2">
<path d="M291.835 165.214C292.187 166.776 288.238 170.758 282.024 175.124C281.984 175.136 281.941 175.136 281.901 175.124C281.865 175.123 281.83 175.115 281.797 175.1C281.765 175.084 281.736 175.062 281.713 175.034C281.681 174.986 281.67 174.927 281.68 174.871C281.691 174.814 281.723 174.764 281.77 174.731C287.698 170.586 290.429 167.651 291.198 166.146C291.372 165.892 291.456 165.587 291.435 165.279C291.411 165.205 291.365 165.14 291.304 165.091C291.24 165.067 291.175 165.048 291.108 165.034C289.472 164.781 286.774 166.874 286.742 166.89C286.7 166.927 286.646 166.947 286.59 166.947C286.535 166.947 286.481 166.927 286.439 166.89C286.402 166.852 286.381 166.801 286.381 166.747C286.381 166.694 286.402 166.642 286.439 166.604C286.439 166.604 290.167 162.974 291.001 161.15C291.533 159.989 291.557 159.041 291.075 158.616C290.593 158.191 289.293 158.379 287.886 159.278L282.907 162.802C282.867 162.813 282.824 162.813 282.784 162.802C282.748 162.804 282.711 162.797 282.678 162.782C282.645 162.766 282.617 162.742 282.596 162.712C282.564 162.665 282.55 162.607 282.56 162.551C282.569 162.494 282.599 162.444 282.645 162.409L287.649 158.877C287.845 158.648 288.892 157.397 288.712 156.424C288.667 156.24 288.579 156.069 288.453 155.927C288.328 155.784 288.17 155.674 287.993 155.607C286.954 155.108 284.812 156.204 283.128 157.291C282.482 157.782 281.828 158.256 281.231 158.665C281.183 158.695 281.126 158.707 281.07 158.698C281.014 158.689 280.964 158.66 280.928 158.616C280.891 158.574 280.871 158.52 280.871 158.464C280.871 158.409 280.891 158.355 280.928 158.313C281.01 158.248 281.803 157.618 282.858 156.931C284.534 155.68 286.128 154.429 286.128 154.413C286.167 154.377 286.218 154.358 286.271 154.358C286.324 154.358 286.375 154.377 286.415 154.413C286.455 154.454 286.478 154.51 286.478 154.568C286.478 154.627 286.455 154.682 286.415 154.724C286.415 154.724 286.022 155.043 285.442 155.484C285.852 155.257 286.303 155.114 286.769 155.062C287.234 155.01 287.706 155.051 288.156 155.182C288.356 155.272 288.541 155.394 288.704 155.541C288.933 155.758 289.083 156.046 289.129 156.359C289.187 157.066 288.984 157.771 288.557 158.338C289.767 157.765 290.748 157.724 291.345 158.248C291.416 158.305 291.479 158.371 291.533 158.444C291.999 159.049 291.942 160.079 291.394 161.281C291.235 161.614 291.046 161.931 290.83 162.23C290.593 162.581 290.315 162.949 290.012 163.325L289.652 163.75C289.611 163.816 289.554 163.865 289.505 163.93C289.055 164.454 288.581 164.977 288.148 165.418C289.044 164.852 290.089 164.567 291.149 164.601C291.314 164.614 291.471 164.681 291.595 164.792C291.719 164.902 291.804 165.051 291.835 165.214Z" fill="black"/>
</g>
<path d="M270.38 50.459C270.38 50.459 251.966 42.8305 244.73 47.3765C239.007 50.9578 243.259 57.5561 243.259 57.5561C243.259 57.5561 232.278 58.4146 232.629 65.3645C232.907 71.2596 238.843 71.3087 238.843 71.3087C238.843 71.3087 235.27 78.2095 239.661 79.5422C244.052 80.875 248.614 71.7829 248.614 71.7829L270.38 50.459Z" fill="#263238"/>
<path d="M291.013 84.3579C291.013 84.3579 296.066 90.9889 295.208 92.9349C293.916 95.8457 289.967 92.7877 289.967 92.7877C289.967 92.7877 293.597 97.3011 290.294 99.7049C286.991 102.109 284.219 90.8254 284.219 90.8254L291.013 84.3579Z" fill="#263238"/>
<path d="M262.238 51.6527C265.868 50.5352 269.688 50.1762 273.462 50.5982C277.236 51.0202 280.883 52.2141 284.175 54.1056C288.484 56.6484 292.139 60.385 291.763 65.6833C290.88 78.0377 286.326 98.544 286.326 98.544L245.591 76.2553C245.591 76.2553 243.351 65.994 248.093 59.2648C250.587 55.7817 256.809 53.2879 262.238 51.6527Z" fill="#263238"/>
<path d="M267.258 112.975C267.283 113.023 267.305 113.072 267.323 113.122L269.588 120.105C270.002 122.668 269.988 125.282 269.547 127.84C268.108 130.064 267.634 134.945 273.169 134.667C280.16 134.324 292.416 123.416 292.711 120.309C288.958 110.939 285.638 99.9176 285.663 90.7683L278.165 99.8277L267.258 112.975Z" fill="#CE7A63"/>
<g opacity="0.2">
<path d="M267.32 113.131L269.585 120.113C273.845 117.873 278.187 113.327 278.98 108.617C279.528 105.216 277.843 102.158 276.478 102.076L267.32 113.131Z" fill="black"/>
</g>
<path d="M248.832 99.2554C249.331 100.776 249.879 102.264 250.467 103.736C255.602 116.712 271.971 117.014 281.578 106.72C282.452 105.785 283.251 104.782 283.966 103.72C289.951 94.8892 287.972 88.4626 286.19 73.7207C285.813 70.2938 284.567 67.02 282.57 64.21C280.572 61.4001 277.89 59.1473 274.777 57.6654C271.664 56.1836 268.224 55.5219 264.784 55.7431C261.344 55.9644 258.017 57.0613 255.12 58.9297C243.117 66.5582 243.828 84.0801 248.832 99.2554Z" fill="#CE7A63"/>
<path d="M264.929 80.0736C263.594 80.2244 262.248 79.9096 261.118 79.1824C261.007 79.1262 260.909 79.0451 260.834 78.9454C260.758 78.8456 260.707 78.7299 260.683 78.607C260.659 78.4842 260.664 78.3575 260.697 78.2368C260.73 78.1161 260.79 78.0046 260.873 77.9108C260.955 77.817 261.059 77.7435 261.174 77.6958C261.29 77.6482 261.415 77.6278 261.54 77.6361C261.665 77.6444 261.786 77.6812 261.894 77.7438C262.003 77.8063 262.095 77.8929 262.165 77.9968C262.803 78.561 265.664 78.8145 267.218 77.8251C267.389 77.7672 267.575 77.7679 267.747 77.827C267.918 77.8862 268.065 78.0005 268.164 78.1521C268.263 78.3037 268.309 78.4839 268.295 78.6644C268.28 78.845 268.206 79.0157 268.085 79.1497C267.128 79.7214 266.042 80.0394 264.929 80.0736Z" fill="#263238"/>
<path d="M249.885 82.7227C251.151 82.2681 252.216 81.3823 252.894 80.2207C252.97 80.1205 253.021 80.0042 253.045 79.8807C253.069 79.7572 253.064 79.6299 253.03 79.5087C252.997 79.3875 252.936 79.2757 252.852 79.1819C252.768 79.0881 252.664 79.0149 252.547 78.968C252.431 78.9211 252.305 78.9017 252.179 78.9114C252.054 78.921 251.933 78.9595 251.824 79.0237C251.716 79.0879 251.625 79.1762 251.556 79.2818C251.488 79.3873 251.445 79.5071 251.43 79.632C251.103 80.4497 248.675 81.9623 246.835 81.7415C246.627 81.7226 246.419 81.784 246.255 81.9133C246.091 82.0425 245.982 82.2297 245.952 82.4365C245.935 82.6433 245.998 82.8487 246.127 83.0112C246.256 83.1736 246.442 83.2809 246.647 83.3114C247.759 83.3976 248.874 83.1948 249.885 82.7227Z" fill="#263238"/>
<path d="M258.666 101.234C258.421 101.234 258.274 101.234 258.265 101.234C258.208 101.232 258.151 101.218 258.099 101.194C258.046 101.17 257.999 101.135 257.961 101.093C257.922 101.05 257.892 101 257.873 100.946C257.853 100.891 257.845 100.834 257.848 100.776C257.85 100.717 257.864 100.66 257.889 100.606C257.914 100.553 257.949 100.505 257.992 100.466C258.035 100.426 258.086 100.395 258.142 100.376C258.197 100.356 258.256 100.348 258.314 100.351C258.552 100.351 264.381 100.572 264.945 93.9407C264.944 93.8787 264.956 93.8171 264.979 93.76C265.003 93.7028 265.039 93.6513 265.084 93.6088C265.129 93.5663 265.183 93.5338 265.241 93.5134C265.3 93.493 265.362 93.4851 265.424 93.4903C265.486 93.4955 265.546 93.5137 265.6 93.5436C265.654 93.5735 265.702 93.6144 265.739 93.6639C265.776 93.7133 265.803 93.77 265.817 93.8304C265.831 93.8908 265.832 93.9534 265.82 94.0142C265.305 100.449 260.154 101.16 258.666 101.234Z" fill="#263238"/>
<path d="M286.433 75.0616C286.433 75.0616 281.985 75.5112 282.001 79.3378C282.018 83.1643 282.435 83.6549 282.435 83.6549L277.218 85.0285C277.218 85.0285 277.921 70.3847 274.095 70.769C270.268 71.1533 274.095 64.3914 271.724 63.5656C266.164 61.6115 251.283 62.2492 246.066 71.4885C246.066 71.4885 247.113 62.5926 253.908 57.4742C260.702 52.3558 274.814 50.6143 280.889 57.2698C286.964 63.9254 286.433 75.0616 286.433 75.0616Z" fill="#263238"/>
<path d="M294.24 82.2651C293.848 85.9696 292.005 89.368 289.114 91.7169C285.254 94.8076 281.395 91.8232 280.847 87.1709C280.365 82.9764 281.779 76.3209 286.432 75.0454C291.084 73.7698 294.673 77.6945 294.24 82.2487" fill="#CE7A63"/>
<path d="M265.909 84.7586C266.122 85.9114 265.68 86.9498 264.928 87.0888C264.176 87.2278 263.399 86.4102 263.186 85.2655C262.974 84.1208 263.415 83.0661 264.167 82.9352C264.92 82.8044 265.696 83.6139 265.909 84.7586Z" fill="#263238"/>
<path d="M253.288 86.9256C253.5 88.0785 253.059 89.1169 252.315 89.2559C251.571 89.3949 250.778 88.5773 250.565 87.4244C250.353 86.2715 250.794 85.2331 251.546 85.0941C252.299 84.9551 253.075 85.7809 253.288 86.9256Z" fill="#263238"/>
<path d="M256.966 84.5051C256.966 84.5051 254.014 92.5179 253.835 94.5211C253.712 95.8948 258.045 95.6577 258.045 95.6577L256.966 84.5051Z" fill="#BA4D3C"/>
<path d="M335.333 143.277C337.565 148.559 339.486 153.743 341.391 159.041C342.313 161.69 343.22 164.35 344.114 167.021C344.989 169.695 345.823 172.385 346.649 175.091C348.284 180.512 349.756 186.015 351.064 191.697C351.685 194.559 352.258 197.461 352.699 200.503C352.928 202.024 353.133 203.594 353.28 205.245C353.345 206.063 353.435 206.881 353.452 207.821V209.17C353.452 209.652 353.452 210.176 353.411 210.666V211.418V211.835C353.411 212.154 353.353 212.473 353.304 212.792C353.168 213.681 352.921 214.549 352.568 215.376C352.339 215.913 352.066 216.43 351.751 216.921C350.695 218.579 349.193 219.905 347.417 220.748C345.887 221.475 344.205 221.828 342.512 221.778C342.258 221.778 342.021 221.778 341.776 221.737H341.424L341.13 221.696L340.557 221.606L340.091 221.5C339.584 221.386 339.085 221.241 338.595 221.067C337.926 220.838 337.273 220.565 336.641 220.249C335.74 219.795 334.864 219.293 334.016 218.744C333.264 218.262 332.577 217.796 331.923 217.322C329.323 215.449 327.083 213.602 324.892 211.705C320.534 207.919 316.429 204.092 312.431 200.16C304.426 192.319 296.781 184.306 289.406 175.892L296.855 167.969L322.97 187.92C327.328 191.19 331.662 194.461 335.995 197.421C338.162 198.892 340.32 200.364 342.324 201.509C342.814 201.795 343.297 202.057 343.73 202.277C344.056 202.451 344.395 202.598 344.744 202.719C344.825 202.719 344.866 202.719 344.744 202.662C344.583 202.592 344.416 202.54 344.245 202.506L344.032 202.457L343.713 202.4L343.321 202.351C343.163 202.342 343.005 202.342 342.847 202.351C341.511 202.31 340.185 202.591 338.979 203.169C338.491 203.401 338.023 203.675 337.581 203.986C337.106 204.333 336.662 204.721 336.257 205.147C335.87 205.562 335.523 206.01 335.218 206.488C334.951 206.904 334.719 207.342 334.523 207.796C334.238 208.466 334.037 209.17 333.926 209.889C333.887 210.12 333.86 210.352 333.845 210.584V210.764V210.478L333.796 209.906L333.706 209.203C333.665 208.761 333.55 208.181 333.477 207.666C333.289 206.586 333.06 205.425 332.782 204.24C332.234 201.869 331.555 199.407 330.819 196.922C329.389 191.934 327.663 186.881 325.914 181.812C324.164 176.743 322.341 171.665 320.476 166.588L314.916 151.404L335.333 143.277Z" fill="#CE7A63"/>
<path d="M319.727 122.329C319.727 122.329 330.054 122.501 336.644 136.556C342.163 148.42 348.704 171.093 348.704 171.093L318.451 175.712C318.451 175.712 309.457 152.14 308.411 139.99C307.364 127.84 312.058 123.605 319.727 122.329Z" fill="#C0CEFF"/>
<path d="M269.394 177.511C263.31 184.87 256.998 191.967 250.482 198.949C247.211 202.449 243.941 205.891 240.457 209.301C239.182 210.56 237.89 211.827 236.549 213.086C236.083 213.528 235.609 213.953 235.126 214.394C234.194 215.212 233.238 216.087 232.199 216.962C231.676 217.387 231.136 217.837 230.564 218.295C229.847 218.843 229.102 219.353 228.332 219.824C227.591 220.271 226.808 220.644 225.994 220.936L225.748 221.017L225.421 221.124C225.179 221.197 224.934 221.257 224.685 221.303C223.825 221.501 222.942 221.578 222.061 221.532C221.704 221.515 221.35 221.476 220.998 221.418C220.769 221.389 220.542 221.345 220.319 221.287C220.066 221.23 219.82 221.164 219.567 221.091C218.372 220.698 217.262 220.082 216.296 219.276C215.743 218.813 215.244 218.289 214.808 217.714C214.563 217.387 214.408 217.134 214.318 217.003L213.999 216.455C213.687 215.89 213.437 215.292 213.255 214.672C213.157 214.386 213.124 214.239 213.075 214.059L212.977 213.544C212.911 213.201 212.895 213.013 212.854 212.727C212.813 212.44 212.813 212.326 212.797 212.121V211.623C212.797 211.018 212.797 210.65 212.797 210.274C212.797 209.57 212.895 209.072 212.952 208.638C213.189 206.848 213.484 205.58 213.77 204.256C214.342 201.68 214.964 199.309 215.61 196.897C216.901 192.171 218.316 187.592 219.763 182.997C222.707 173.889 225.846 164.952 229.444 156.097L236.982 158.943C236.533 168.264 236.23 178.721 236.222 190.013C243.417 184.191 254.823 175.778 262.149 170.046L269.394 177.511Z" fill="#CE7A63"/>
<path d="M249.114 123.842C246.047 125.328 243.422 127.591 241.499 130.405C239.575 133.218 238.421 136.486 238.15 139.884C237.332 150.104 236.588 163.006 236.302 177.658L218.461 169.858C218.461 169.858 223.8 158.673 232.23 141.413C239.139 127.251 248.73 123.882 249.114 123.842Z" fill="#C0CEFF"/>
<path d="M109.136 240.886C109.136 240.886 109.652 253.796 107.035 260.558C108.605 263.297 162.97 272.479 186.975 252.259L184.244 236.323L109.136 240.886Z" fill="#263238"/>
<path d="M203.472 298.578L187.005 250.697C187.005 250.697 164.724 267.05 108.357 255.521C108.357 255.521 97.3923 273.027 95.2747 289.044C94.8413 292.364 94.596 295.585 94.457 298.611L203.472 298.578Z" fill="#263238"/>
<path d="M140.445 53.0916C140.445 53.0916 166.135 43.1328 174.859 64.195C182.299 82.183 167.664 93.867 170.272 111.193C172.88 128.518 175.284 135.648 161.376 146.351C152.014 153.579 137.125 125.092 137.125 125.092L140.445 53.0916Z" fill="#263238"/>
<path d="M146.631 51.4316C146.631 51.4316 123.361 44.2282 115.847 68.9453C109.993 88.1842 114.76 99.0261 102.062 104.66C89.3642 110.293 84.8918 134.863 114.253 132.034C143.614 129.205 142.404 119.647 157.326 128.673C172.248 137.7 156.557 50.1888 146.631 51.4316Z" fill="#263238"/>
<path d="M179.843 202.915L179.769 202.988C179.9 205.4 180.063 207.894 180.26 210.412C180.978 219.389 182.371 228.3 184.43 237.067C185.754 242.791 154.381 250.059 131.529 250.55C118.839 250.828 108.79 249.013 108.365 243.731C107.807 238.256 106.678 232.855 104.996 227.615C103.893 223.911 102.543 220.052 101.121 216.111C100.892 215.49 100.663 214.868 100.426 214.239C99.7172 212.347 98.9813 210.44 98.2182 208.515C96.6565 204.525 94.9477 200.511 93.3124 196.553C92.691 195.065 92.0859 193.61 91.4972 192.155C83.002 171.468 76.7798 153.946 83.8605 142.336C85.2423 140.071 87.6625 137.782 90.6306 135.558C102.576 126.621 123.589 118.845 123.589 118.845L144.186 118.952C144.186 118.952 152.542 122.386 159.721 125.836C168.273 129.924 174.136 134.92 176.515 140.971C177.203 142.766 177.723 144.622 178.068 146.514C178.068 146.514 185.378 166.873 188.632 177.167C190.84 184.15 188.632 190.626 185.591 195.621C183.959 198.264 182.031 200.711 179.843 202.915Z" fill="#CED9FF"/>
<path opacity="0.2" d="M185.65 195.621C184.005 198.29 182.057 200.759 179.845 202.98L166.918 179.375L185.65 195.621Z" fill="black"/>
<path opacity="0.2" d="M137.632 182.531C128.049 199.464 117.641 215.187 105 227.648C103.896 223.944 102.547 220.085 101.125 216.144C100.896 215.523 100.667 214.901 100.43 214.272L137.632 182.531Z" fill="black"/>
<path d="M200.427 190.806C200.206 190.707 199.969 190.585 199.707 190.446H199.846C200.124 190.52 200.398 190.613 200.664 190.724C200.95 190.863 201.007 190.92 201.007 190.945C201.007 190.969 200.713 190.928 200.427 190.806Z" fill="#407BFF"/>
<path d="M208.459 199.857C208.459 200.118 208.459 200.543 208.385 200.879C208.263 201.87 208.01 202.84 207.633 203.765C207.527 204.01 207.363 204.37 207.191 204.681C207.02 204.991 206.832 205.31 206.635 205.613C206.165 206.294 205.616 206.917 205 207.469C204.403 208.021 203.741 208.499 203.03 208.892C202.41 209.229 201.758 209.502 201.084 209.709L200.618 209.848L200.225 209.938C199.964 209.995 199.702 210.044 199.408 210.085C198.979 210.143 198.548 210.179 198.116 210.192C197.106 210.21 196.099 210.089 195.123 209.832C194.605 209.698 194.097 209.528 193.602 209.325C193.012 209.091 192.439 208.818 191.885 208.507C191.171 208.089 190.48 207.63 189.817 207.134C189.252 206.708 188.746 206.316 188.271 205.907C187.323 205.09 186.481 204.354 185.655 203.585C184.02 202.072 182.54 200.519 181.068 198.99C179.596 197.461 178.182 195.916 176.808 194.346C174.028 191.222 166.056 180.217 163.456 176.898L167.724 172.76L167.373 172.278L163.857 167.421L160.382 162.515C158.101 159.245 155.77 155.933 153.645 152.63L174.911 137.504C177.487 140.774 179.817 144.143 182.123 147.544C183.259 149.253 184.412 150.954 185.532 152.679L188.803 157.896C193.12 164.919 197.273 172.057 201.067 179.637C203.105 183.596 204.925 187.662 206.521 191.819C206.734 192.433 206.946 192.98 207.167 193.643L207.494 194.657L207.657 195.188C207.756 195.49 207.862 195.834 207.968 196.243C208.109 196.767 208.215 197.299 208.287 197.837C208.348 198.235 208.386 198.637 208.401 199.039C208.459 199.301 208.467 199.579 208.459 199.857Z" fill="#C0CEFF"/>
<path opacity="0.2" d="M173.863 166.285L196.618 186.562C196.618 186.562 187.215 173.202 173.863 166.285Z" fill="black"/>
<path d="M136.791 131.993C137.102 132.083 137.412 132.148 137.715 132.214C142.727 133.17 146.635 128.232 145.016 123.392C144.395 121.372 144.395 119.213 145.016 117.194C145.61 115.111 146.453 113.107 147.526 111.225L145.213 107.914L132.923 92.7793C132.359 102.019 129.776 115.207 122.09 119.5C122.09 119.5 123.725 125.117 132.948 130.513C134.18 131.126 135.466 131.621 136.791 131.993Z" fill="#FF8B7B"/>
<g opacity="0.2">
<path d="M145.037 117.194C145.631 115.111 146.474 113.107 147.547 111.225L145.233 107.914L137.629 106.197C137.629 106.197 139.747 114.307 145.037 117.194Z" fill="black"/>
</g>
<path d="M130.441 76.3694C129.492 91.5528 129.386 95.4611 135.894 104.12C145.706 117.137 163.58 117.415 168.96 102.803C173.808 89.6559 174.544 67.032 160.783 59.2563C147.251 51.5869 131.348 61.1859 130.408 76.3694" fill="#FF8B7B"/>
<path d="M159.83 58.0872C159.83 58.0872 163.755 70.5561 148.048 71.8317C132.341 73.1072 137.051 83.9245 131.155 82.6408C125.26 81.3571 126.25 67.7762 135.244 60.8345C141.523 56.0268 148.988 52.2902 159.83 58.0872Z" fill="#263238"/>
<path d="M160.157 99.2878C159.017 99.2984 157.902 98.9525 156.968 98.2985C155.406 97.1836 154.34 95.5024 154 93.6134C154 93.5093 154.041 93.4095 154.115 93.3359C154.189 93.2623 154.288 93.2209 154.392 93.2209C154.496 93.223 154.595 93.2651 154.668 93.3382C154.741 93.4114 154.783 93.51 154.785 93.6134C155.133 95.2369 156.067 96.6751 157.41 97.6525C158.149 98.1428 159.001 98.4361 159.885 98.5048C160.769 98.5735 161.657 98.4152 162.463 98.045C162.56 98.0081 162.668 98.0115 162.763 98.0545C162.858 98.0974 162.933 98.1763 162.969 98.2739C163.006 98.3715 163.003 98.4797 162.96 98.5748C162.917 98.6699 162.838 98.744 162.741 98.7809C161.917 99.1038 161.041 99.2755 160.157 99.2878Z" fill="#263238"/>
<path d="M152.642 82.281C152.495 83.5075 153.018 84.5786 153.819 84.6849C154.621 84.7911 155.397 83.8672 155.545 82.6408C155.692 81.4143 155.168 80.3351 154.367 80.2369C153.566 80.1388 152.789 81.0546 152.642 82.281Z" fill="#263238"/>
<path d="M165.396 84.178C165.249 85.4044 165.772 86.4837 166.581 86.5818C167.391 86.68 168.151 85.7642 168.307 84.5378C168.462 83.3113 167.931 82.232 167.121 82.1339C166.312 82.0358 165.551 82.9515 165.396 84.178Z" fill="#263238"/>
<path d="M166.766 82.1582L169.815 81.6758C169.815 81.6758 168.025 83.7935 166.766 82.1582Z" fill="#263238"/>
<path d="M163.411 84.3577C163.411 84.3577 165.128 87.8653 167.074 90.9723C167.226 91.2065 167.323 91.4721 167.357 91.7492C167.392 92.0262 167.363 92.3075 167.274 92.5718C167.184 92.8362 167.035 93.0769 166.839 93.2756C166.643 93.4744 166.405 93.6262 166.142 93.7196C164.851 94.1382 163.519 94.4124 162.168 94.5372L163.411 84.3577Z" fill="#FF5652"/>
<path d="M149.092 75.5435C149.171 75.4854 149.261 75.4445 149.357 75.4234C149.453 75.4023 149.552 75.4014 149.648 75.4209C150.539 75.6152 151.464 75.5957 152.346 75.3641C153.229 75.1324 154.044 74.6952 154.725 74.0881C154.789 74.0111 154.868 73.948 154.957 73.9029C155.047 73.8578 155.144 73.8315 155.244 73.8259C155.344 73.8202 155.444 73.8352 155.538 73.8699C155.632 73.9047 155.718 73.9584 155.79 74.0277C155.862 74.097 155.919 74.1805 155.957 74.2729C155.996 74.3653 156.015 74.4646 156.013 74.5647C156.011 74.6647 155.989 74.7634 155.948 74.8544C155.906 74.9454 155.846 75.0269 155.772 75.0938C154.924 75.8755 153.9 76.4424 152.788 76.7469C151.675 77.0513 150.506 77.0845 149.378 76.8435C149.195 76.8077 149.034 76.7025 148.927 76.5501C148.82 76.3976 148.777 76.2097 148.806 76.0259C148.838 75.8443 148.941 75.6827 149.092 75.5762" fill="#263238"/>
<path d="M172.74 78.111C172.847 78.2635 172.899 78.4482 172.887 78.6343C172.876 78.7304 172.846 78.8234 172.799 78.9079C172.752 78.9925 172.689 79.0669 172.613 79.1269C172.537 79.1869 172.45 79.2313 172.356 79.2576C172.263 79.2839 172.166 79.2916 172.07 79.2802C170.92 79.1835 169.811 78.8123 168.835 78.1976C167.859 77.5829 167.045 76.7428 166.461 75.748C166.409 75.6626 166.375 75.5674 166.362 75.4684C166.349 75.3694 166.356 75.2687 166.383 75.1725C166.41 75.0764 166.457 74.9869 166.52 74.9097C166.584 74.8324 166.662 74.769 166.751 74.7234C166.84 74.6779 166.937 74.6511 167.037 74.6448C167.137 74.6384 167.237 74.6527 167.331 74.6867C167.425 74.7207 167.511 74.7737 167.583 74.8423C167.656 74.911 167.713 74.9938 167.753 75.0857C168.225 75.8672 168.877 76.5244 169.655 77.0023C170.433 77.4802 171.314 77.765 172.225 77.833C172.322 77.8442 172.417 77.8745 172.502 77.9222C172.588 77.9699 172.663 78.0341 172.724 78.111" fill="#263238"/>
<path d="M154.004 80.2696L157.054 79.7791C157.054 79.7791 155.255 81.8967 154.004 80.2696Z" fill="#263238"/>
<path d="M122.43 83.442C122.834 84.7661 123.514 85.9897 124.424 87.0325C125.334 88.0753 126.455 88.9137 127.712 89.4925C130.983 90.8416 133.068 87.3667 132.618 83.5238C132.185 80.0652 129.977 75.1921 126.527 75.511C123.076 75.8299 121.327 79.9507 122.439 83.442" fill="#FF8B7B"/>
<path d="M141.021 156.498C139.598 152.941 143.474 149.507 146.916 151.208C147.977 151.724 148.969 152.372 149.868 153.137C147.832 151.584 144.627 149.114 145.493 148.027C147.063 146.048 157.701 152.581 162.279 155.999C159.205 152.156 159.704 145.599 161.519 148.101C163.604 151.036 166.572 154.462 170.873 159.809C175.64 165.696 172.385 171.542 170.873 173.709C170.514 174.222 170.082 174.68 169.589 175.066C162.369 180.659 157.594 176.006 153.343 172.793C149.091 169.58 140.072 162.981 141.078 160.21C141.471 159.155 144.218 161.027 145.984 162.303C144.002 160.775 142.357 158.854 141.152 156.661C141.104 156.61 141.06 156.556 141.021 156.498Z" fill="#FF8B7B"/>
<path d="M159.049 166.89C158.999 166.939 158.934 166.98 158.885 167.02L159.057 166.898C160.856 165.671 163.496 164.052 163.848 165.083C163.851 165.107 163.851 165.132 163.848 165.156C163.92 165.505 163.883 165.867 163.742 166.195C162.924 168.558 158.255 172.163 154.364 174.984C153.186 175.851 152.074 176.619 151.15 177.282C146.686 180.446 139.703 184.305 134.209 177.502C134.209 177.502 127.766 171.01 133.996 163.774C136.694 160.618 138.902 158.149 140.684 156.056C141.837 154.707 142.827 153.513 143.677 152.393C144.037 151.911 144.356 151.78 144.576 151.911C144.728 151.998 144.84 152.142 144.887 152.311C145.082 152.926 145.141 153.576 145.059 154.216C144.953 155.501 144.632 156.758 144.11 157.936C143.743 158.777 143.256 159.559 142.663 160.259L143.407 159.752L144.053 159.326C146.76 157.551 149.569 155.938 152.467 154.494C153.594 153.93 154.751 153.427 155.933 152.99C157.822 152.319 159.269 152.123 159.744 152.777C160.079 153.227 159.744 153.897 159.073 154.617C158.23 155.476 157.311 156.256 156.326 156.947C156.934 156.558 157.568 156.211 158.223 155.909C159.199 155.455 160.312 155.397 161.33 155.745C161.553 155.949 161.701 156.223 161.747 156.522C161.808 157.223 161.607 157.923 161.183 158.484C162.384 157.92 163.357 157.871 163.946 158.386C164.015 158.448 164.078 158.517 164.134 158.591C164.412 159.515 164.346 160.508 163.946 161.387C163.946 161.436 163.946 161.485 163.889 161.542C163.753 161.822 163.603 162.095 163.439 162.36C163.202 162.703 162.924 163.071 162.622 163.431L162.262 163.856C162.218 163.92 162.169 163.98 162.115 164.036C161.182 165.079 160.155 166.034 159.049 166.89Z" fill="#FF8B7B"/>
<g opacity="0.2">
<path d="M143.695 159.956C143.661 159.955 143.629 159.947 143.599 159.931C143.569 159.915 143.543 159.893 143.523 159.866C143.482 159.819 143.459 159.758 143.459 159.694C143.459 159.631 143.482 159.57 143.523 159.523C143.998 158.787 145.616 153.677 145.159 152.45C145.101 152.303 145.036 152.287 145.02 152.278C144.202 152.074 142.166 154.47 141.054 156.031C141.041 156.061 141.021 156.086 140.997 156.107C140.972 156.128 140.943 156.143 140.912 156.152C140.882 156.16 140.849 156.162 140.817 156.157C140.786 156.152 140.756 156.139 140.729 156.121C140.703 156.103 140.68 156.08 140.664 156.052C140.648 156.025 140.637 155.994 140.634 155.962C140.631 155.93 140.634 155.898 140.645 155.867C140.655 155.837 140.672 155.809 140.694 155.786C141.209 155.067 143.826 151.518 145.126 151.861C145.228 151.889 145.322 151.943 145.398 152.018C145.474 152.092 145.529 152.185 145.559 152.287C146.058 153.562 144.742 157.887 144.112 159.351C144.725 159.04 145.919 158.329 147.17 157.585C149.525 156.187 152.738 154.314 155.657 152.818C155.682 152.806 155.71 152.798 155.738 152.796C155.766 152.794 155.794 152.798 155.821 152.807C155.847 152.816 155.872 152.831 155.893 152.85C155.914 152.868 155.931 152.891 155.943 152.916C155.957 152.941 155.966 152.968 155.969 152.996C155.972 153.024 155.969 153.052 155.961 153.079C155.952 153.106 155.938 153.131 155.92 153.152C155.901 153.173 155.879 153.19 155.853 153.202C152.942 154.658 149.737 156.571 147.391 157.961C144.668 159.58 143.965 159.956 143.695 159.956Z" fill="black"/>
</g>
<g opacity="0.2">
<path d="M164.418 165.246C164.753 166.726 161.147 170.381 155.497 174.469L155.129 174.2C160.509 170.357 163.036 167.658 163.764 166.195C163.927 165.954 164.01 165.668 164.001 165.377C163.975 165.306 163.93 165.244 163.87 165.197L163.674 165.132C162.087 164.887 159.389 166.955 159.356 166.972C159.316 167.008 159.264 167.028 159.209 167.028C159.155 167.028 159.103 167.008 159.062 166.972C159.027 166.933 159.007 166.881 159.007 166.829C159.007 166.776 159.027 166.725 159.062 166.685C159.062 166.685 162.758 163.096 163.584 161.289C164.099 160.144 164.131 159.204 163.649 158.787C163.167 158.37 161.891 158.558 160.501 159.441L155.595 162.924C155.559 162.95 155.517 162.964 155.473 162.965C155.438 162.965 155.404 162.957 155.372 162.941C155.341 162.925 155.314 162.903 155.293 162.875C155.276 162.852 155.263 162.826 155.256 162.799C155.25 162.771 155.248 162.742 155.253 162.714C155.258 162.685 155.268 162.658 155.283 162.634C155.298 162.61 155.318 162.589 155.342 162.573L160.289 159.081C160.477 158.853 161.523 157.618 161.335 156.678C161.293 156.493 161.206 156.322 161.082 156.179C160.958 156.037 160.801 155.927 160.624 155.86C159.602 155.369 157.484 156.457 155.816 157.495C155.178 157.978 154.524 158.444 153.936 158.853C153.889 158.883 153.833 158.894 153.779 158.885C153.724 158.876 153.675 158.847 153.641 158.803C153.603 158.764 153.582 158.711 153.582 158.656C153.582 158.601 153.603 158.549 153.641 158.509C154.252 158.021 154.888 157.566 155.546 157.144C157.182 155.901 158.76 154.691 158.817 154.691C158.835 154.672 158.857 154.658 158.881 154.648C158.904 154.638 158.93 154.633 158.956 154.633C158.982 154.633 159.007 154.638 159.031 154.648C159.055 154.658 159.077 154.672 159.095 154.691C159.116 154.71 159.133 154.733 159.144 154.759C159.156 154.785 159.162 154.814 159.162 154.842C159.162 154.871 159.156 154.899 159.144 154.925C159.133 154.951 159.116 154.974 159.095 154.993C159.095 154.993 158.711 155.312 158.138 155.754C158.544 155.527 158.991 155.384 159.453 155.332C159.915 155.28 160.382 155.32 160.828 155.451C161.024 155.538 161.203 155.657 161.36 155.803C161.583 156.006 161.73 156.281 161.777 156.58C161.838 157.281 161.637 157.98 161.213 158.542C162.414 157.978 163.387 157.929 163.976 158.444C164.045 158.506 164.108 158.574 164.164 158.648C164.622 159.245 164.573 160.243 164.025 161.453C163.864 161.78 163.678 162.094 163.469 162.393C163.232 162.736 162.954 163.104 162.652 163.464L162.292 163.889C162.248 163.953 162.198 164.013 162.145 164.069C161.703 164.584 161.237 165.099 160.812 165.541C161.694 164.977 162.725 164.692 163.772 164.723C163.918 164.739 164.057 164.797 164.172 164.89C164.286 164.983 164.371 165.106 164.418 165.246Z" fill="black"/>
</g>
<path d="M139.518 182.359C131.922 191.648 123.983 200.413 115.463 208.957C111.22 213.241 106.821 217.387 102.046 221.475C99.5343 223.639 96.8999 225.657 94.1558 227.517C92.4405 228.684 90.6267 229.699 88.7349 230.551C88.1298 230.812 87.4757 231.066 86.699 231.319C85.7344 231.629 84.7438 231.851 83.7391 231.982C81.9717 232.218 80.1753 232.109 78.449 231.663C77.8088 231.497 77.1826 231.281 76.5767 231.017C75.8722 230.708 75.1987 230.333 74.5653 229.897L74.0747 229.561L73.8376 229.381C73.6659 229.251 73.3879 229.014 73.1753 228.825C72.7277 228.422 72.3122 227.985 71.9325 227.517C71.6689 227.196 71.4233 226.86 71.1966 226.512C70.6182 225.625 70.154 224.669 69.8148 223.666L69.6677 223.184L69.5532 222.791L69.4551 222.391L69.3815 222.088L69.267 221.508L69.1934 221.025L69.0953 220.208L69.0381 219.553C68.9808 218.736 68.9727 218.123 68.9727 217.558C68.9727 216.438 69.0299 215.498 69.0871 214.607C69.2016 212.824 69.3569 211.214 69.5286 209.627C69.8802 206.463 70.289 203.446 70.7306 200.437C71.6872 194.46 72.6684 188.573 73.8294 182.735C76.0861 171.027 78.6126 159.58 81.6623 148.043L106.15 153.963C103.698 165.312 100.983 176.709 98.3094 188.001C97.3282 192.285 96.2816 196.553 95.3168 200.789C97.9414 198.892 100.574 196.921 103.207 194.951C112.405 187.993 121.563 180.667 130.745 173.48L139.518 182.359Z" fill="#C0CEFF"/>
<path opacity="0.2" d="M104.23 159.866L96.7891 199.709L127.859 175.998C127.859 175.998 104.679 192.351 101.499 191.893C99.4709 191.607 104.23 159.866 104.23 159.866Z" fill="black"/>
</svg>
