<svg width="444" height="444" viewBox="0 0 444 444" fill="none" xmlns="http://www.w3.org/2000/svg">
<path d="M97.68 99.8726C109.633 85.5936 125.785 74.5912 145.037 74.7777C177.893 75.1862 195.653 104.268 214.496 126.699C224.264 138.332 235.356 149.556 249.865 155.026C271.63 163.223 295.873 158.436 317.078 150.826C326.58 147.416 337.831 142.621 348.531 145.072C381.059 152.513 377.675 192.207 372.303 217.346C365.048 251.303 353.255 287.409 329.359 313.463C272.145 375.881 169.182 337.617 117.571 287.809C113.779 284.141 110.148 280.323 106.729 276.265C97.8471 265.91 90.3296 254.459 84.36 242.192C67.7367 207.605 65.4456 165.567 79.92 129.825C84.2665 118.988 90.2567 108.885 97.68 99.8726Z" fill="#FFA34A"/>
<path opacity="0.7" d="M97.68 99.8726C109.633 85.5936 125.785 74.5912 145.037 74.7777C177.893 75.1862 195.653 104.268 214.496 126.699C224.264 138.332 235.356 149.556 249.865 155.026C271.63 163.223 295.873 158.436 317.078 150.826C326.58 147.416 337.831 142.621 348.531 145.072C381.059 152.513 377.675 192.207 372.303 217.346C365.048 251.303 353.255 287.409 329.359 313.463C272.145 375.881 169.182 337.617 117.571 287.809C113.779 284.141 110.148 280.323 106.729 276.265C97.8471 265.91 90.3296 254.459 84.36 242.192C67.7367 207.605 65.4456 165.567 79.92 129.825C84.2665 118.988 90.2567 108.885 97.68 99.8726Z" fill="white"/>
<path d="M47.9964 393.766H396.004" stroke="#263238" stroke-linecap="round" stroke-linejoin="round"/>
<path d="M259.269 213.83V83.1699H267.359" stroke="#263238" stroke-linecap="round" stroke-linejoin="round"/>
<path d="M259.269 229.379V225.916" stroke="#263238" stroke-linecap="round" stroke-linejoin="round"/>
<path d="M288.165 83.1699H371.646V241.562H259.269" stroke="#263238" stroke-linecap="round" stroke-linejoin="round"/>
<path d="M277.935 83.1699H285.27" stroke="#263238" stroke-linecap="round" stroke-linejoin="round"/>
<path d="M367.419 87.3887H263.496V237.345H367.419V87.3887Z" stroke="#263238" stroke-linecap="round" stroke-linejoin="round"/>
<path d="M362.588 95.416V157.691H268.327V153.624" stroke="#263238" stroke-linecap="round" stroke-linejoin="round"/>
<path d="M268.327 144.105V91.8105H362.588" stroke="#263238" stroke-linecap="round" stroke-linejoin="round"/>
<path d="M268.327 150.506V146.555" stroke="#263238" stroke-linecap="round" stroke-linejoin="round"/>
<path d="M346.666 162.361H367.419" stroke="#263238" stroke-linecap="round" stroke-linejoin="round"/>
<path d="M339.287 162.361H342.226" stroke="#263238" stroke-linecap="round" stroke-linejoin="round"/>
<path d="M263.496 162.361H335.788" stroke="#263238" stroke-linecap="round" stroke-linejoin="round"/>
<path d="M310.232 157.69V155.541H318.925V156.758H315.462V157.69" stroke="#263238" stroke-linecap="round" stroke-linejoin="round"/>
<path d="M263.674 218.449C263.674 218.449 265.121 219.541 266.134 226.148C266.134 226.148 267.91 215.598 269.988 215.438C272.065 215.278 271.675 222.294 271.675 222.294C271.675 222.294 272.03 218.839 273.682 218.999C275.333 219.159 273.682 226.103 273.682 226.103C273.682 226.103 275.671 220.651 277.553 220.775C279.436 220.899 276.31 230.65 276.31 230.65C276.31 230.65 281.141 227.151 283.094 228.874C285.048 230.596 282.011 234.894 282.011 234.894C282.011 234.894 288.937 233.394 290.003 237.461" stroke="#263238" stroke-linecap="round" stroke-linejoin="round"/>
<path d="M290.012 233.544C290.012 233.544 293.031 231.563 295.411 232.487C295.411 232.487 293.901 230.187 295.411 228.784C296.921 227.381 298.856 232.487 298.856 232.487C298.856 232.487 299.078 223.918 302.098 224.353C305.117 224.788 302.098 232.487 302.098 232.487C302.098 232.487 307.488 227.71 308.784 229.37C310.081 231.031 307.896 233.544 307.896 233.544C308.871 233.267 309.9 233.248 310.884 233.49C311.868 233.731 312.772 234.224 313.508 234.92C313.508 234.92 317.123 231.235 321.136 230.702C321.136 230.702 318.472 222.95 319.76 221.387C321.048 219.824 323.41 228.154 323.41 228.154C323.41 228.154 324.44 222.737 327.85 222.311C327.85 222.311 325.035 220.783 325.869 218.465C326.704 216.148 330.585 219.016 330.585 219.016C330.585 219.016 328.986 214.94 331.517 213.821C334.048 212.702 335.069 217.231 335.069 217.231C335.069 217.231 335.779 212.489 338.745 212.791C341.711 213.093 340.752 218.51 340.752 218.51C340.752 218.51 343.549 214.176 345.05 214.612C348.043 215.5 347.137 222.355 347.137 222.355C347.137 222.355 351.311 219.451 352.394 220.792C353.477 222.133 348.043 225.951 348.043 225.951C348.043 225.951 352.19 226.404 354.774 228.828" stroke="#263238" stroke-linecap="round" stroke-linejoin="round"/>
<path d="M367.419 220.047C367.419 220.047 366.939 215.696 362.588 215.465C358.237 215.234 363.787 225.011 363.787 225.011C363.787 225.011 360.191 222.036 358.903 222.951C357.615 223.865 362.588 228.909 362.588 228.909C362.588 228.909 360.199 226.698 357.686 227.382C355.173 228.066 359.116 235.072 359.116 235.072C355.398 234.327 351.54 234.781 348.096 236.368" stroke="#263238" stroke-linecap="round" stroke-linejoin="round"/>
<path d="M219.061 354.891V393.536" stroke="#263238" stroke-linecap="round" stroke-linejoin="round"/>
<path d="M219.061 342.244V350.52" stroke="#263238" stroke-linecap="round" stroke-linejoin="round"/>
<path d="M56.3792 393.767V321.75H219.061V337.556" stroke="#263238" stroke-linecap="round" stroke-linejoin="round"/>
<path d="M80.0799 329.627H65.9607V387.16" stroke="#263238" stroke-linecap="round" stroke-linejoin="round"/>
<path d="M209.479 393.536V329.627H88.2761" stroke="#263238" stroke-linecap="round" stroke-linejoin="round"/>
<path d="M202.713 314.291H198.228" stroke="#263238" stroke-linecap="round" stroke-linejoin="round"/>
<path d="M191.79 314.291H52.3387V321.697H223.101V314.291H205.572" stroke="#263238" stroke-linecap="round" stroke-linejoin="round"/>
<path d="M61.9558 266.836C61.9558 266.836 75.2758 267.893 75.8797 277.749C75.8797 277.749 62.3377 283.983 61.9558 266.836Z" stroke="#263238" stroke-linecap="round" stroke-linejoin="round"/>
<path d="M88.3915 269.287C88.3915 269.287 95.8596 259.19 107.928 264.367C107.928 264.367 100.557 276.569 88.3915 269.287Z" stroke="#263238" stroke-linecap="round" stroke-linejoin="round"/>
<path d="M106.906 237.408C106.906 237.408 109.055 256.829 91.3752 251.483C91.3752 251.483 96.9874 237.204 106.906 237.408Z" stroke="#263238" stroke-linecap="round" stroke-linejoin="round"/>
<path d="M85.1947 226.592C85.1947 226.592 99.1807 234.14 88.8977 245.577C88.8977 245.577 79.0942 237.408 85.1947 226.592Z" stroke="#263238" stroke-linecap="round" stroke-linejoin="round"/>
<path d="M67.9942 243.953C67.9942 243.953 83.1968 242.426 83.1968 256.491C83.1968 256.491 67.9942 257.095 67.9942 243.953Z" stroke="#263238" stroke-linecap="round" stroke-linejoin="round"/>
<path d="M79.3872 285.696C79.1652 280.972 79.1652 274.898 82.0512 268.478C88.7023 253.666 90.9312 241.19 87.4769 232.398" stroke="#263238" stroke-linecap="round" stroke-linejoin="round"/>
<path d="M72.9847 247.752C72.9847 247.752 82.0956 251.375 85.1947 260.761" stroke="#263238" stroke-linecap="round" stroke-linejoin="round"/>
<path d="M102.12 245.178C102.12 245.178 96.8542 252.353 87.912 251.58" stroke="#263238" stroke-linecap="round" stroke-linejoin="round"/>
<path d="M102.12 266.4C102.12 266.4 87.5302 270.601 81.696 269.224" stroke="#263238" stroke-linecap="round" stroke-linejoin="round"/>
<path d="M66.307 271.275C66.307 271.275 72.8338 278.433 79.3872 278.317" stroke="#263238" stroke-linecap="round" stroke-linejoin="round"/>
<path d="M96.7299 285.697H65.0371C64.8322 285.697 64.6357 285.779 64.4909 285.924C64.346 286.068 64.2646 286.265 64.2646 286.47V288.876C64.2646 288.977 64.2846 289.077 64.3236 289.171C64.3625 289.264 64.4195 289.348 64.4914 289.419C64.5632 289.49 64.6485 289.547 64.7422 289.584C64.8359 289.622 64.9361 289.641 65.0371 289.64H65.9251L68.749 314.291H92.9736L95.7975 289.64H96.7299C96.8305 289.641 96.9303 289.622 97.0235 289.584C97.1167 289.546 97.2014 289.49 97.2725 289.419C97.3437 289.348 97.3999 289.263 97.4378 289.17C97.4758 289.077 97.4947 288.977 97.4935 288.876V286.47C97.4947 286.369 97.4758 286.269 97.438 286.175C97.4001 286.081 97.3441 285.996 97.273 285.924C97.202 285.852 97.1174 285.795 97.0242 285.756C96.9309 285.717 96.8309 285.697 96.7299 285.697Z" stroke="#263238" stroke-miterlimit="10"/>
<path d="M67.9942 289.641H86.4291" stroke="#263238" stroke-linecap="round" stroke-linejoin="round"/>
<path d="M89.9011 289.641H92.6717" stroke="#263238" stroke-linecap="round" stroke-linejoin="round"/>
<path d="M291.894 187.449L288.342 206.754L259.376 224.354L263.381 231.707C263.381 231.707 296.867 221.495 297.684 219.106C298.501 216.718 306.218 191.419 306.218 191.419L291.894 187.449Z" fill="#263238"/>
<path d="M304.584 154.805L302.648 178.212L301.627 190.493C296.041 193.211 290.58 189.126 290.243 188.859C291.761 184.402 293.528 159.245 304.584 154.805Z" fill="#999999" stroke="#263238" stroke-linecap="round" stroke-linejoin="round"/>
<path d="M302.613 178.213L301.591 190.494C296.006 193.212 290.545 189.127 290.207 188.86C290.447 188.967 293.386 190.21 295.296 188.86C294.628 188.139 294.033 187.354 293.52 186.516C293.404 186.054 295.296 185.93 295.296 185.93C295.296 185.93 294.052 175.976 297.365 171.722C298.661 170.106 300.686 173.48 302.613 178.213Z" fill="#263238"/>
<path d="M324.644 371.574L325.532 374.185C324.186 376.406 322.678 378.526 321.021 380.525C321.021 380.525 320.133 380.241 318.677 381.529C317.779 382.423 317.226 383.606 317.114 384.868C317.114 384.868 310.329 393.002 301.725 393.117C293.12 393.233 295.713 388.899 295.713 388.899L324.644 371.574Z" fill="#FFA34A" stroke="#263238" stroke-linecap="round" stroke-linejoin="round"/>
<path d="M316.554 350.876C316.554 350.876 305.01 346.622 302.755 355.129C302.755 355.129 304.815 364.498 303.581 369.622C302.346 374.745 296.13 384.531 295.748 386.387C294.994 390.028 295.562 390.276 295.562 390.276C295.562 390.276 300.082 392.887 306.156 390.09C312.23 387.293 322.744 375.251 324.386 372.774C326.029 370.296 319.236 360.528 319.236 360.528L316.554 350.876Z" fill="white"/>
<mask id="mask0_1663_13065" style="mask-type:luminance" maskUnits="userSpaceOnUse" x="295" y="349" width="30" height="43">
<path d="M316.554 350.876C316.554 350.876 305.01 346.622 302.755 355.129C302.755 355.129 304.815 364.498 303.581 369.622C302.346 374.745 296.13 384.531 295.748 386.387C294.994 390.028 295.562 390.276 295.562 390.276C295.562 390.276 300.082 392.887 306.156 390.09C312.23 387.293 322.744 375.251 324.386 372.774C326.029 370.296 319.236 360.528 319.236 360.528L316.554 350.876Z" fill="white"/>
</mask>
<g mask="url(#mask0_1663_13065)">
<path opacity="0.4" d="M316.554 350.876C316.554 350.876 305.01 346.622 302.755 355.129C302.755 355.129 304.815 364.498 303.581 369.622C302.346 374.745 296.13 384.531 295.748 386.387C294.994 390.028 295.562 390.276 295.562 390.276C295.562 390.276 300.082 392.887 306.156 390.09C312.23 387.293 322.744 375.251 324.386 372.774C326.029 370.296 319.236 360.528 319.236 360.528L316.554 350.876Z" fill="#FFA34A"/>
</g>
<path d="M316.554 350.876C316.554 350.876 305.01 346.622 302.755 355.129C302.755 355.129 304.815 364.498 303.581 369.622C302.346 374.745 296.13 384.531 295.748 386.387C294.994 390.028 295.562 390.276 295.562 390.276C295.562 390.276 300.082 392.887 306.156 390.09C312.23 387.293 322.744 375.251 324.386 372.774C326.029 370.296 319.236 360.528 319.236 360.528L316.554 350.876Z" stroke="#263238" stroke-linecap="round" stroke-linejoin="round"/>
<path d="M310.649 362.908C311.654 368.639 310.633 374.541 307.763 379.603" stroke="#263238" stroke-linecap="round" stroke-linejoin="round"/>
<path d="M307.763 381.841C307.333 382.922 306.667 383.893 305.812 384.683C304.958 385.473 303.937 386.062 302.826 386.405C300.499 387.028 298.049 387.028 295.722 386.405L298.492 380.793C301.433 381.965 304.635 382.327 307.763 381.841Z" fill="#FFA34A" stroke="#263238" stroke-linecap="round" stroke-linejoin="round"/>
<path d="M309.397 378.439C309.397 378.439 303.359 378.803 300.206 377.551" stroke="#263238" stroke-linecap="round" stroke-linejoin="round"/>
<path d="M310.516 375.109C310.516 375.109 304.868 375.997 301.716 374.221" stroke="#263238" stroke-linecap="round" stroke-linejoin="round"/>
<path d="M311.475 371.406C311.475 371.406 306.529 372.125 303.296 370.598" stroke="#263238" stroke-linecap="round" stroke-linejoin="round"/>
<path d="M312.025 367.215C312.025 367.215 306.52 368.938 303.918 367.215" stroke="#263238" stroke-linecap="round" stroke-linejoin="round"/>
<path d="M312.851 356.862L313.81 362.909C313.81 362.909 306.529 367.704 301.716 361.71V355.396C301.716 355.396 303.527 359.641 312.851 356.862Z" fill="#FFA34A" stroke="#263238" stroke-linecap="round" stroke-linejoin="round"/>
<path d="M306.529 221.113C299.149 244.494 276.248 281.995 278.566 291.594C279.835 296.833 287.392 326.519 293.306 339.546C295.553 344.528 300.41 347.858 300.41 347.858L303.918 355.379C312.469 359.1 315.533 351.534 315.533 351.534L313.81 343.009C318.392 334.68 316.474 334.68 310.516 291.505C309.814 286.417 321.616 270.69 321.616 270.69L327.672 310.26L328.658 342.672L331.801 352.688C331.801 352.688 332.583 362.092 332.512 362.66H346.569L348.096 352.324C348.096 352.324 354.623 346.17 354.623 339.066C354.623 331.962 353.22 295.776 354.623 285.236C356.026 274.695 351.337 225.553 351.337 225.553L306.529 221.113Z" fill="#263238"/>
<path d="M210.967 200.279L230.503 202.037C230.946 202.077 231.355 202.291 231.64 202.633C231.925 202.974 232.063 203.414 232.023 203.857L230.768 217.799L207.893 215.74L209.148 201.798C209.188 201.356 209.402 200.947 209.743 200.662C210.084 200.377 210.525 200.239 210.967 200.279Z" fill="#FFA34A"/>
<mask id="mask1_1663_13065" style="mask-type:luminance" maskUnits="userSpaceOnUse" x="207" y="200" width="26" height="18">
<path d="M210.967 200.279L230.503 202.037C230.946 202.077 231.355 202.291 231.64 202.633C231.925 202.974 232.063 203.414 232.023 203.857L230.768 217.799L207.893 215.74L209.148 201.798C209.188 201.356 209.402 200.947 209.743 200.662C210.084 200.377 210.525 200.239 210.967 200.279Z" fill="white"/>
</mask>
<g mask="url(#mask1_1663_13065)">
<path opacity="0.3" d="M210.967 200.279L230.503 202.037C230.946 202.077 231.355 202.291 231.64 202.633C231.925 202.974 232.063 203.414 232.023 203.857L230.768 217.799L207.893 215.74L209.148 201.798C209.188 201.356 209.402 200.947 209.743 200.662C210.084 200.377 210.525 200.239 210.967 200.279Z" fill="black" fill-opacity="0.7"/>
<path opacity="0.3" d="M230.81 201.796L225.21 201.314L224.248 212.515L229.848 212.996L230.81 201.796Z" fill="white" fill-opacity="0.7"/>
</g>
<path d="M210.967 200.279L230.503 202.037C230.946 202.077 231.355 202.291 231.64 202.633C231.925 202.974 232.063 203.414 232.023 203.857L230.768 217.799L207.893 215.74L209.148 201.798C209.188 201.356 209.402 200.947 209.743 200.662C210.084 200.377 210.525 200.239 210.967 200.279Z" stroke="#263238" stroke-width="1.00404" stroke-linecap="round" stroke-linejoin="round"/>
<path d="M244.688 201.514L264.152 203.186C264.593 203.224 265.001 203.436 265.286 203.774C265.571 204.113 265.71 204.551 265.672 204.992L264.479 218.883L241.688 216.925L242.881 203.034C242.919 202.593 243.131 202.185 243.47 201.9C243.808 201.615 244.246 201.476 244.688 201.514Z" fill="#FFA34A"/>
<mask id="mask2_1663_13065" style="mask-type:luminance" maskUnits="userSpaceOnUse" x="241" y="201" width="25" height="18">
<path d="M244.688 201.514L264.152 203.186C264.593 203.224 265.001 203.436 265.286 203.774C265.571 204.113 265.71 204.551 265.672 204.992L264.479 218.883L241.688 216.925L242.881 203.034C242.919 202.593 243.131 202.185 243.47 201.9C243.808 201.615 244.246 201.476 244.688 201.514Z" fill="white"/>
</mask>
<g mask="url(#mask2_1663_13065)">
<path opacity="0.3" d="M244.688 201.514L264.152 203.186C264.593 203.224 265.001 203.436 265.286 203.774C265.571 204.113 265.71 204.551 265.672 204.992L264.479 218.883L241.688 216.925L242.881 203.034C242.919 202.593 243.131 202.185 243.47 201.9C243.808 201.615 244.246 201.476 244.688 201.514Z" fill="black" fill-opacity="0.7"/>
<path opacity="0.3" d="M264.046 204.658L260.666 204.367L259.704 215.568L263.084 215.858L264.046 204.658Z" fill="white" fill-opacity="0.7"/>
</g>
<path d="M244.688 201.514L264.152 203.186C264.593 203.224 265.001 203.436 265.286 203.774C265.571 204.113 265.71 204.551 265.672 204.992L264.479 218.883L241.688 216.925L242.881 203.034C242.919 202.593 243.131 202.185 243.47 201.9C243.808 201.615 244.246 201.476 244.688 201.514Z" stroke="#263238" stroke-linecap="round" stroke-linejoin="round"/>
<path d="M237.618 200.901L257.082 202.573C257.523 202.611 257.931 202.822 258.216 203.161C258.501 203.5 258.64 203.938 258.602 204.379L257.409 218.269L234.618 216.312L235.811 202.421C235.849 201.98 236.061 201.572 236.4 201.287C236.738 201.002 237.176 200.863 237.618 200.901Z" fill="#FFA34A" stroke="#263238" stroke-linecap="round" stroke-linejoin="round"/>
<path d="M271.23 203.795L290.695 205.467C291.136 205.505 291.544 205.717 291.829 206.056C292.114 206.394 292.253 206.832 292.215 207.274L291.022 221.155L268.231 219.197L269.425 205.307C269.465 204.867 269.677 204.462 270.016 204.179C270.354 203.895 270.791 203.757 271.23 203.795Z" fill="#FFA34A" stroke="#263238" stroke-linecap="round" stroke-linejoin="round"/>
<path opacity="0.3" d="M257.353 204.077L251.753 203.596L250.79 214.797L256.391 215.278L257.353 204.077Z" fill="white" fill-opacity="0.7"/>
<path opacity="0.3" d="M290.597 206.93L284.997 206.449L284.034 217.65L289.635 218.131L290.597 206.93Z" fill="white" fill-opacity="0.7"/>
<path d="M301.201 218.795L295.704 282.669L192.794 273.789L198.29 209.924C198.335 209.396 198.484 208.881 198.728 208.41C198.972 207.939 199.306 207.521 199.712 207.179C200.118 206.838 200.587 206.58 201.093 206.42C201.599 206.26 202.131 206.202 202.659 206.248L297.516 214.4C298.047 214.443 298.565 214.592 299.039 214.837C299.513 215.082 299.934 215.419 300.276 215.828C300.619 216.237 300.877 216.709 301.036 217.219C301.195 217.728 301.251 218.264 301.201 218.795Z" fill="#FFA34A"/>
<mask id="mask3_1663_13065" style="mask-type:luminance" maskUnits="userSpaceOnUse" x="192" y="206" width="110" height="77">
<path d="M301.201 218.795L295.704 282.669L192.794 273.789L198.29 209.924C198.335 209.396 198.484 208.881 198.728 208.41C198.972 207.939 199.306 207.521 199.712 207.179C200.118 206.838 200.587 206.58 201.093 206.42C201.599 206.26 202.131 206.202 202.659 206.248L297.516 214.4C298.047 214.443 298.565 214.592 299.039 214.837C299.513 215.082 299.934 215.419 300.276 215.828C300.619 216.237 300.877 216.709 301.036 217.219C301.195 217.728 301.251 218.264 301.201 218.795Z" fill="white"/>
</mask>
<g mask="url(#mask3_1663_13065)">
<path opacity="0.3" d="M301.201 218.795L295.704 282.669L192.794 273.789L198.29 209.924C198.335 209.396 198.484 208.881 198.728 208.41C198.972 207.939 199.306 207.521 199.712 207.179C200.118 206.838 200.587 206.58 201.093 206.42C201.599 206.26 202.131 206.202 202.659 206.248L297.516 214.4C298.047 214.443 298.565 214.592 299.039 214.837C299.513 215.082 299.934 215.419 300.276 215.828C300.619 216.237 300.877 216.709 301.036 217.219C301.195 217.728 301.251 218.264 301.201 218.795Z" fill="black" fill-opacity="0.7"/>
</g>
<path d="M301.201 218.795L295.704 282.669L192.794 273.789L198.29 209.924C198.335 209.396 198.484 208.881 198.728 208.41C198.972 207.939 199.306 207.521 199.712 207.179C200.118 206.838 200.587 206.58 201.093 206.42C201.599 206.26 202.131 206.202 202.659 206.248L297.516 214.4C298.047 214.443 298.565 214.592 299.039 214.837C299.513 215.082 299.934 215.419 300.276 215.828C300.619 216.237 300.877 216.709 301.036 217.219C301.195 217.728 301.251 218.264 301.201 218.795Z" stroke="#263238" stroke-linecap="round" stroke-linejoin="round"/>
<path d="M301.201 218.795L295.704 282.669L219.336 276.098L224.842 212.233C224.886 211.704 225.035 211.19 225.279 210.719C225.523 210.248 225.857 209.829 226.263 209.488C226.669 209.146 227.138 208.888 227.644 208.728C228.15 208.569 228.682 208.51 229.211 208.556L297.524 214.426C298.053 214.471 298.567 214.619 299.038 214.863C299.51 215.107 299.928 215.442 300.269 215.848C300.611 216.253 300.869 216.723 301.029 217.228C301.189 217.734 301.247 218.267 301.201 218.795Z" fill="#FFA34A" stroke="#263238" stroke-linecap="round" stroke-linejoin="round"/>
<path opacity="0.3" d="M295.837 220.623L230.56 215.011C230.125 214.973 229.722 214.765 229.439 214.433C229.155 214.101 229.012 213.671 229.042 213.235C229.08 212.8 229.288 212.397 229.62 212.113C229.952 211.83 230.382 211.687 230.818 211.717L296.095 217.329C296.53 217.367 296.933 217.575 297.216 217.907C297.5 218.239 297.643 218.669 297.613 219.105C297.575 219.54 297.367 219.943 297.035 220.227C296.703 220.511 296.273 220.653 295.837 220.623Z" fill="white" fill-opacity="0.7"/>
<path d="M347.03 363.024C347.03 363.024 342.111 359.516 331.934 360.218C331.934 360.218 331.189 372.428 329.803 375.98C328.418 379.532 321.119 385.686 319.76 386.742C318.401 387.799 318.401 391.484 318.401 391.484H349.321C348.925 386.199 348.102 380.955 346.862 375.802L347.03 363.024Z" fill="white"/>
<mask id="mask4_1663_13065" style="mask-type:luminance" maskUnits="userSpaceOnUse" x="318" y="360" width="32" height="32">
<path d="M347.03 363.024C347.03 363.024 342.111 359.516 331.934 360.218C331.934 360.218 331.189 372.428 329.803 375.98C328.418 379.532 321.119 385.686 319.76 386.742C318.401 387.799 318.401 391.484 318.401 391.484H349.321C348.925 386.199 348.102 380.955 346.862 375.802L347.03 363.024Z" fill="white"/>
</mask>
<g mask="url(#mask4_1663_13065)">
<path opacity="0.4" d="M347.03 363.024C347.03 363.024 342.111 359.516 331.934 360.218C331.934 360.218 331.189 372.428 329.803 375.98C328.418 379.532 321.119 385.686 319.76 386.742C318.401 387.799 318.401 391.484 318.401 391.484H349.321C348.925 386.199 348.102 380.955 346.862 375.802L347.03 363.024Z" fill="#FFA34A"/>
</g>
<path d="M347.03 363.024C347.03 363.024 342.111 359.516 331.934 360.218C331.934 360.218 331.189 372.428 329.803 375.98C328.418 379.532 321.119 385.686 319.76 386.742C318.401 387.799 318.401 391.484 318.401 391.484H349.321C348.925 386.199 348.102 380.955 346.862 375.802L347.03 363.024Z" stroke="#263238" stroke-linecap="round" stroke-linejoin="round"/>
<path d="M340.646 364.604C340.646 364.604 339.918 375.846 338.168 378.812C337.234 380.441 336.081 381.935 334.74 383.252" stroke="#263238" stroke-linecap="round" stroke-linejoin="round"/>
<path d="M333.888 384.806C333.888 384.806 332.334 386.742 330.611 386.999C328.889 387.257 319.787 386.742 319.787 386.742L323.498 383.527C323.498 383.527 331.046 382.257 333.888 384.806Z" fill="#FFA34A" stroke="#263238" stroke-linecap="round" stroke-linejoin="round"/>
<path d="M337.103 382.168C337.103 382.168 330.514 378.385 325.816 381.28" stroke="#263238" stroke-linecap="round" stroke-linejoin="round"/>
<path d="M338.692 379.602C338.692 379.602 334.092 376.006 328.667 377.977" stroke="#263238" stroke-linecap="round" stroke-linejoin="round"/>
<path d="M340.646 375.687C340.646 375.687 335.691 371.833 330.469 374.284" stroke="#263238" stroke-linecap="round" stroke-linejoin="round"/>
<path d="M341.321 370.793C341.321 370.793 335.309 367.561 330.94 370.012" stroke="#263238" stroke-linecap="round" stroke-linejoin="round"/>
<path d="M349.313 391.484V393.767H345.761C345.761 393.767 342.715 391.991 339.82 393.767H323.143C321.381 393.761 319.641 393.37 318.046 392.621L318.392 391.484H349.313Z" fill="#FFA34A" stroke="#263238" stroke-linecap="round" stroke-linejoin="round"/>
<path d="M344.881 362.305L344.091 367.287C344.091 367.287 334.812 364.276 329.688 366.23V360.103C329.688 360.103 339.216 356.764 344.881 362.305Z" fill="#FFA34A" stroke="#263238" stroke-linecap="round" stroke-linejoin="round"/>
<path d="M354.916 238.188C354.916 238.188 335.193 242.051 315.844 235.781C311.438 234.377 307.224 232.433 303.296 229.992C303.296 229.992 303.35 228.748 303.385 226.715C303.545 218.776 303.501 198.805 299.318 193.859C296.654 190.742 294.567 171.472 299.709 161.731L315.435 149.086C337.209 153.339 341.809 159.103 345.405 171.535C346.071 173.808 346.693 176.303 347.386 179.056C348.14 182.057 348.851 185.725 349.526 189.712C352.794 209.568 354.916 238.188 354.916 238.188Z" fill="#999999"/>
<mask id="mask5_1663_13065" style="mask-type:luminance" maskUnits="userSpaceOnUse" x="296" y="149" width="59" height="91">
<path d="M354.916 238.188C354.916 238.188 335.193 242.051 315.844 235.781C311.438 234.377 307.224 232.433 303.296 229.992C303.296 229.992 303.35 228.748 303.385 226.715C303.545 218.776 303.501 198.805 299.318 193.859C296.654 190.742 294.567 171.472 299.709 161.731L315.435 149.086C337.209 153.339 341.809 159.103 345.405 171.535C346.071 173.808 346.693 176.303 347.386 179.056C348.14 182.057 348.851 185.725 349.526 189.712C352.794 209.568 354.916 238.188 354.916 238.188Z" fill="white"/>
</mask>
<g mask="url(#mask5_1663_13065)">
<path opacity="0.2" d="M349.526 189.712L340.646 229.379C340.646 229.379 327.814 232.931 315.853 235.781C311.444 234.378 307.226 232.433 303.296 229.991C303.296 229.991 303.35 228.748 303.385 226.715C314.13 221.218 329.812 213.137 329.688 212.755C329.484 212.16 329.688 191.443 329.688 191.443C329.688 191.443 343.896 188.149 345.405 171.508C346.071 173.781 346.693 176.276 347.386 179.029C348.14 182.039 348.851 185.68 349.526 189.712Z" fill="black"/>
</g>
<path d="M354.916 238.188C354.916 238.188 335.193 242.051 315.844 235.781C311.438 234.377 307.224 232.433 303.296 229.992C303.296 229.992 303.35 228.748 303.385 226.715C303.545 218.776 303.501 198.805 299.318 193.859C296.654 190.742 294.567 171.472 299.709 161.731L315.435 149.086C337.209 153.339 341.809 159.103 345.405 171.535C346.071 173.808 346.693 176.303 347.386 179.056C348.14 182.057 348.851 185.725 349.526 189.712C352.794 209.568 354.916 238.188 354.916 238.188Z" stroke="#263238" stroke-linecap="round" stroke-linejoin="round"/>
<path d="M316.128 132.49C316.128 132.49 309.184 142.436 318.419 150.197C318.419 150.197 307.212 162.771 303.527 161.039C301.973 160.311 303.527 155.774 303.527 155.774L297.027 143.75L316.128 132.49Z" fill="white" stroke="#263238" stroke-linecap="round" stroke-linejoin="round"/>
<path d="M313.864 137.64C316.03 128.165 314.991 114.054 301.716 115.306C292.41 116.194 285.776 121.345 288.396 133.83C289.488 139.096 290.385 146.555 295.216 153.286C296.557 155.151 310.587 148.553 309.734 143.216" fill="white"/>
<path d="M313.864 137.64C316.03 128.165 314.991 114.054 301.716 115.306C292.41 116.194 285.776 121.345 288.396 133.83C289.488 139.096 290.385 146.555 295.216 153.286C296.557 155.151 310.587 148.553 309.734 143.216" stroke="#263238" stroke-linecap="round" stroke-linejoin="round"/>
<path d="M294.869 131.717C295.805 131.354 296.814 131.216 297.813 131.313C298.812 131.411 299.775 131.74 300.624 132.276" stroke="#263238" stroke-linecap="round" stroke-linejoin="round"/>
<path d="M288.192 132.88C288.362 132.517 288.658 132.227 289.025 132.064C289.392 131.901 289.805 131.875 290.19 131.992" stroke="#263238" stroke-linecap="round" stroke-linejoin="round"/>
<path d="M291.513 134.852C291.513 134.852 288.778 139.833 288.769 140.544C288.76 141.254 292.134 141.494 292.134 141.494" fill="white"/>
<path d="M291.513 134.852C291.513 134.852 288.778 139.833 288.769 140.544C288.76 141.254 292.134 141.494 292.134 141.494" stroke="#263238" stroke-linecap="round" stroke-linejoin="round"/>
<path d="M297.391 135.863C297.391 136.405 297.151 136.849 296.814 136.867C296.477 136.885 296.192 136.441 296.175 135.899C296.157 135.357 296.414 134.913 296.752 134.904C297.089 134.896 297.373 135.34 297.391 135.863Z" fill="#263238"/>
<path d="M293.528 145.118C293.528 145.118 298.776 144.132 299.744 142.285" stroke="#263238" stroke-linecap="round" stroke-linejoin="round"/>
<path d="M288.156 125.208L292.241 124.019C292.241 124.019 297.968 121.355 299.185 121.727C300.402 122.1 302.87 125.892 302.79 128.059C302.79 128.059 306.644 131.451 307.133 136.371L308.305 135.838C308.305 135.838 308.243 131.398 310.764 131.513C313.286 131.629 314.423 134.648 314.254 135.598C314.086 136.548 311.324 140.491 311.324 140.491C311.324 140.491 317.646 139.55 317.851 127.171C318.055 114.792 304.486 112.776 297.888 113.283C294.548 113.603 291.191 113.727 287.836 113.656L288.209 117.208L285.545 117.909L287.552 120.369L285.35 121.372L288.156 125.208Z" fill="#263238"/>
<path d="M311.031 260.184C311.031 260.184 327.104 264.437 331.455 276.407" stroke="white" stroke-linecap="round" stroke-linejoin="round"/>
<path d="M318.392 266.623C318.392 266.623 309.708 281.089 296.414 288.601" stroke="white" stroke-linecap="round" stroke-linejoin="round"/>
<path d="M306.182 347.971C306.182 347.971 311.12 346.861 312.469 344.943" stroke="white" stroke-linecap="round" stroke-linejoin="round"/>
<path d="M333.675 349.81C333.675 349.81 338.506 347.306 343.319 349.81" stroke="white" stroke-linecap="round" stroke-linejoin="round"/>
<path d="M349.313 282.465C349.313 282.465 341.205 303.466 337.103 305.411" stroke="white" stroke-linecap="round" stroke-linejoin="round"/>
<path d="M313.81 249.572C314.032 251.854 323.578 262.431 331.455 266.622" stroke="white" stroke-linecap="round" stroke-linejoin="round"/>
<path d="M321.953 240.648C323.102 243.48 323.341 246.599 322.637 249.573C321.871 252.139 321.871 254.874 322.637 257.441" stroke="white" stroke-linecap="round" stroke-linejoin="round"/>
<path d="M304.584 196.977C304.584 196.977 319.529 216.317 335.593 222.666" stroke="#263238" stroke-linecap="round" stroke-linejoin="round"/>
<path d="M320.053 165.711C320.053 165.711 320 178.862 329.484 184.794" stroke="#263238" stroke-linecap="round" stroke-linejoin="round"/>
<path d="M325.39 184.9C323.383 186.871 325.567 211.611 325.567 211.611C325.567 211.611 313.908 216.175 310.258 219.114C306.609 222.053 289.319 228.802 289.319 228.802C289.319 228.802 286.655 237.878 289.976 238.188C293.298 238.499 327.69 226.778 335.557 222.666C335.557 222.666 340.681 192.474 340.646 184.793" fill="white"/>
<path d="M325.39 184.9C323.383 186.871 325.567 211.611 325.567 211.611C325.567 211.611 313.908 216.175 310.258 219.114C306.609 222.053 289.319 228.802 289.319 228.802C289.319 228.802 286.655 237.878 289.976 238.188C293.298 238.499 327.69 226.778 335.557 222.666C335.557 222.666 340.681 192.474 340.646 184.793" stroke="#263238" stroke-linecap="round" stroke-linejoin="round"/>
<path d="M290.687 228.26C289.088 227.958 286.247 226.911 284.755 227.257C283.263 227.603 280.537 229.246 277.731 229.921C274.925 230.596 276.088 231.697 277.731 232.025C278.933 232.226 280.16 232.226 281.363 232.025L279.081 234.254C277.774 234.962 276.424 235.587 275.04 236.128C274.214 236.128 271.293 236.918 271.488 238.162C271.684 239.405 273.362 239.263 275.236 239.334C275.236 239.334 272.252 239.929 272.572 241.625C272.767 242.788 276.124 241.74 277.837 241.74C277.837 241.74 276.434 243.268 277.482 243.738C278.53 244.209 280.857 243.037 280.857 243.037C280.857 243.037 280.768 244.298 281.816 244.422C282.863 244.546 285.501 243.534 287.295 242.451C289.061 241.312 290.752 240.06 292.356 238.703C293.035 238.082 293.812 237.578 294.656 237.211" fill="white"/>
<path d="M290.687 228.26C289.088 227.958 286.247 226.911 284.755 227.257C283.263 227.603 280.537 229.246 277.731 229.921C274.925 230.596 276.088 231.697 277.731 232.025C278.933 232.226 280.16 232.226 281.363 232.025L279.081 234.254C277.774 234.962 276.424 235.587 275.04 236.128C274.214 236.128 271.293 236.918 271.488 238.162C271.684 239.405 273.362 239.263 275.236 239.334C275.236 239.334 272.252 239.929 272.572 241.625C272.767 242.788 276.124 241.74 277.837 241.74C277.837 241.74 276.434 243.268 277.482 243.738C278.53 244.209 280.857 243.037 280.857 243.037C280.857 243.037 280.768 244.298 281.816 244.422C282.863 244.546 285.501 243.534 287.295 242.451C289.061 241.312 290.752 240.06 292.356 238.703C293.035 238.082 293.812 237.578 294.656 237.211" stroke="#263238" stroke-linecap="round" stroke-linejoin="round"/>
<path d="M275.28 239.37C276.105 239.326 276.926 239.231 277.74 239.086C278.441 238.909 279.143 238.678 279.143 238.678" stroke="#263238" stroke-linecap="round" stroke-linejoin="round"/>
<path d="M277.846 241.776C278.919 241.626 279.953 241.27 280.892 240.729" stroke="#263238" stroke-linecap="round" stroke-linejoin="round"/>
<path d="M280.866 243.072C281.659 242.972 282.419 242.689 283.086 242.246" stroke="#263238" stroke-linecap="round" stroke-linejoin="round"/>
<path d="M279.365 234.93C279.365 234.93 278.725 236.395 279.365 237.212C280.004 238.029 280.777 238.1 280.892 238.988C281.008 239.876 282.535 239.876 283.086 240.453C283.636 241.03 284.053 242.14 285.812 242.229" stroke="#263238" stroke-linecap="round" stroke-linejoin="round"/>
<path d="M324.644 159.246C318.597 172.93 324.644 191.916 324.644 191.916C324.644 191.916 339.278 196.888 340.628 194.748C341.978 192.608 344.446 182.112 344.864 177.264" fill="#999999"/>
<path d="M324.644 159.246C318.597 172.93 324.644 191.916 324.644 191.916C324.644 191.916 339.278 196.888 340.628 194.748C341.978 192.608 344.446 182.112 344.864 177.264" stroke="#263238" stroke-linecap="round" stroke-linejoin="round"/>
<path d="M340.646 178.781C340.646 178.781 334.43 187.333 329.484 187.448" stroke="#263238" stroke-linecap="round" stroke-linejoin="round"/>
<path d="M118.468 393.766C118.468 393.766 116.95 387.967 118.726 385.818C121.905 381.964 118.335 378.714 121.532 377.391L122.873 378.945C123.13 377.373 122.384 372.569 128.316 371.947C135.491 371.193 135.624 376.387 136.015 378.163L135.891 375.757C138.954 375.757 137.365 378.812 142 383.802C143.215 385.15 144.14 386.733 144.718 388.453C145.295 390.173 145.513 391.993 145.357 393.801L118.468 393.766Z" fill="#263238"/>
<path d="M173.16 393.766C170.274 392.478 172.92 381.591 172.92 381.591C172.92 381.591 169.04 378.989 172.92 376.263C174.421 377.535 176.241 378.372 178.183 378.685C180.125 378.998 182.116 378.775 183.94 378.039C183.94 378.039 184.695 370.757 189.268 371.69C189.268 371.69 190.44 376.307 193.113 378.945C200.351 386.049 209.701 386.937 211.264 390.347C211.735 391.377 211.166 393.73 211.166 393.73L173.16 393.766Z" fill="#263238"/>
<path d="M160.826 220.144L164.378 227.675C164.378 227.675 179.065 258.026 188.061 292.783C188.274 293.609 192.927 310.072 189.197 351.071L191.328 358.264L189.002 370.145C189.002 370.145 192.501 375.198 192.376 376.85C192.376 376.85 183.745 378.457 180.832 380.002C178.595 381.21 171.872 387.843 171.872 387.843C169.963 387.452 169.794 379.745 169.794 379.745C169.794 379.745 165.807 311.306 164.662 308.358C163.516 305.41 156.519 292.694 145.596 263.594C145.596 263.594 145.348 304.238 142.435 314.521C139.833 323.667 142.915 349.268 142.915 349.268L141.139 377.764C141.139 377.764 147.284 384.149 142.302 385.863C142.302 385.863 138.972 379.46 129.488 378.004C124.666 377.258 118.663 385.819 118.663 385.819C116.55 385.144 119.551 374.39 119.551 374.39C112.829 323.667 117.775 332.849 116.443 308.056C115.555 292.143 111.071 224.069 116.363 218.537L160.826 220.144Z" fill="#BFBFBF"/>
<mask id="mask6_1663_13065" style="mask-type:luminance" maskUnits="userSpaceOnUse" x="113" y="218" width="80" height="170">
<path d="M160.826 220.144L164.378 227.675C164.378 227.675 179.065 258.026 188.061 292.783C188.274 293.609 192.927 310.072 189.197 351.071L191.328 358.264L189.002 370.145C189.002 370.145 192.501 375.198 192.376 376.85C192.376 376.85 183.745 378.457 180.832 380.002C178.595 381.21 171.872 387.843 171.872 387.843C169.963 387.452 169.794 379.745 169.794 379.745C169.794 379.745 165.807 311.306 164.662 308.358C163.516 305.41 156.519 292.694 145.596 263.594C145.596 263.594 145.348 304.238 142.435 314.521C139.833 323.667 142.915 349.268 142.915 349.268L141.139 377.764C141.139 377.764 147.284 384.149 142.302 385.863C142.302 385.863 138.972 379.46 129.488 378.004C124.666 377.258 118.663 385.819 118.663 385.819C116.55 385.144 119.551 374.39 119.551 374.39C112.829 323.667 117.775 332.849 116.443 308.056C115.555 292.143 111.071 224.069 116.363 218.537L160.826 220.144Z" fill="white"/>
</mask>
<g mask="url(#mask6_1663_13065)">
<path opacity="0.2" d="M113.895 243.588C137.64 245.452 158.197 237.682 167.122 233.624C165.426 229.824 164.387 227.675 164.387 227.675L160.835 220.153L116.435 218.537C114.552 220.535 113.886 230.685 113.895 243.588Z" fill="black"/>
<path opacity="0.2" d="M145.836 264.118C156.643 292.845 163.596 305.419 164.715 308.35C165.363 310.055 166.953 333.294 168.196 352.794C169.617 335.034 171.082 316.324 171.206 312.656C171.473 305.339 166.189 295.314 165.399 292.721C164.609 290.128 166.393 287.322 166.393 287.322L156.892 275.334C157.212 271.267 152.177 253.516 152.177 253.516C149.184 256.348 146.52 262.378 145.836 264.118Z" fill="black"/>
</g>
<path d="M160.826 220.144L164.378 227.675C164.378 227.675 179.065 258.026 188.061 292.783C188.274 293.609 192.927 310.072 189.197 351.071L191.328 358.264L189.002 370.145C189.002 370.145 192.501 375.198 192.376 376.85C192.376 376.85 183.745 378.457 180.832 380.002C178.595 381.21 171.872 387.843 171.872 387.843C169.963 387.452 169.794 379.745 169.794 379.745C169.794 379.745 165.807 311.306 164.662 308.358C163.516 305.41 156.519 292.694 145.596 263.594C145.596 263.594 145.348 304.238 142.435 314.521C139.833 323.667 142.915 349.268 142.915 349.268L141.139 377.764C141.139 377.764 147.284 384.149 142.302 385.863C142.302 385.863 138.972 379.46 129.488 378.004C124.666 377.258 118.663 385.819 118.663 385.819C116.55 385.144 119.551 374.39 119.551 374.39C112.829 323.667 117.775 332.849 116.443 308.056C115.555 292.143 111.071 224.069 116.363 218.537L160.826 220.144Z" stroke="#263238" stroke-linecap="round" stroke-linejoin="round"/>
<path d="M145.632 263.594C145.632 263.594 151.058 253.125 155.684 250.203" stroke="#263238" stroke-linecap="round" stroke-linejoin="round"/>
<path d="M157.727 246.811C157.727 246.811 141.245 251.828 135.527 252.796" stroke="#263238" stroke-linecap="round" stroke-linejoin="round"/>
<path d="M149.291 229.992C150.001 243.712 154.841 246.047 150.179 249.04C150.179 249.04 150.312 255.46 147.985 259.527" stroke="#263238" stroke-linecap="round" stroke-linejoin="round"/>
<path d="M120.413 224.744C120.413 224.744 122.357 245.834 115.866 249.804" stroke="#263238" stroke-linecap="round" stroke-linejoin="round"/>
<path d="M115.866 231.547C115.866 231.547 115.378 245.586 115.866 256.899C115.866 256.899 117.491 304.718 119.116 310.721C120.741 316.724 116.612 325.817 116.967 351.764" stroke="#263238" stroke-linecap="round" stroke-linejoin="round"/>
<path d="M131.424 372.072C129.887 371.738 128.282 371.951 126.886 372.676" stroke="#263238" stroke-linecap="round" stroke-linejoin="round"/>
<path d="M141.192 377.765C139.156 375.783 136.795 374.164 134.212 372.979" stroke="#263238" stroke-linecap="round" stroke-linejoin="round"/>
<path d="M138.528 266.906C134.887 270.991 129.115 278.69 123.201 279.338" stroke="#263238" stroke-linecap="round" stroke-linejoin="round"/>
<path d="M144.096 260.264C142.977 261.676 141.822 263.061 140.65 264.437" stroke="#263238" stroke-linecap="round" stroke-linejoin="round"/>
<path d="M138.91 308.057C138.91 308.057 130.634 319.325 126.096 319.974" stroke="#263238" stroke-linecap="round" stroke-linejoin="round"/>
<path d="M148.642 261.561C148.642 261.561 163.383 302.613 168.507 306.662C168.507 306.662 169.084 336.854 169.253 347.395C169.422 357.935 171.846 371.948 171.846 371.948" stroke="#263238" stroke-linecap="round" stroke-linejoin="round"/>
<path d="M187.581 371.646C187.581 371.646 181.907 373.609 179.145 374.861C177.449 375.689 176.121 377.116 175.416 378.866" stroke="#263238" stroke-linecap="round" stroke-linejoin="round"/>
<path d="M173.222 291.859C165.31 286.895 154.876 280.688 150.667 271.941" stroke="#263238" stroke-linecap="round" stroke-linejoin="round"/>
<path d="M180.122 295.952C178.621 295.126 177.147 294.265 175.682 293.377" stroke="#263238" stroke-linecap="round" stroke-linejoin="round"/>
<path d="M155.187 235.542C150.933 235.48 146.307 234.92 142.639 232.514" stroke="#263238" stroke-linecap="round" stroke-linejoin="round"/>
<path d="M161.945 235.143C160.728 235.311 159.503 235.418 158.277 235.48" stroke="#263238" stroke-linecap="round" stroke-linejoin="round"/>
<path d="M169.839 140.872C166.589 135.952 150.028 134.7 139.398 134.7C128.769 134.7 115.866 132.924 110.041 144.912C105.601 154.067 115.831 202.481 115.831 202.481L113.327 223.385C132.578 229.423 165.559 228.091 165.559 228.091L161.119 209.195C161.119 209.195 173.089 145.782 169.839 140.872Z" fill="#263238"/>
<path d="M133.085 122.543C133.085 122.543 134.514 133.936 130.181 136.396C130.181 136.396 132.348 144.752 139.949 145.276C147.55 145.8 150.907 137.639 150.907 137.639L133.085 122.543Z" fill="white" stroke="#263238" stroke-linecap="round" stroke-linejoin="round"/>
<path d="M173.368 93.2913L192.821 91.497C193.262 91.4563 193.701 91.5924 194.041 91.8754C194.382 92.1584 194.596 92.5651 194.637 93.006L195.917 106.889L173.174 108.986L171.894 95.1038C171.854 94.669 171.985 94.2357 172.261 93.8969C172.536 93.5581 172.934 93.3407 173.368 93.2913Z" fill="#FFA34A"/>
<mask id="mask7_1663_13065" style="mask-type:luminance" maskUnits="userSpaceOnUse" x="171" y="91" width="25" height="18">
<path d="M173.368 93.2913L192.821 91.497C193.262 91.4563 193.701 91.5924 194.041 91.8754C194.382 92.1584 194.596 92.5651 194.637 93.006L195.917 106.889L173.174 108.986L171.894 95.1038C171.854 94.669 171.985 94.2357 172.261 93.8969C172.536 93.5581 172.934 93.3407 173.368 93.2913Z" fill="white"/>
</mask>
<g mask="url(#mask7_1663_13065)">
<path opacity="0.3" d="M173.368 93.2913L192.821 91.497C193.262 91.4563 193.701 91.5924 194.041 91.8754C194.382 92.1584 194.596 92.5651 194.637 93.006L195.917 106.889L173.174 108.986L171.894 95.1038C171.854 94.669 171.985 94.2357 172.261 93.8969C172.536 93.5581 172.934 93.3407 173.368 93.2913Z" fill="black" fill-opacity="0.7"/>
<path opacity="0.3" d="M193.388 92.9017L187.791 93.418L188.823 104.613L194.42 104.096L193.388 92.9017Z" fill="white" fill-opacity="0.7"/>
</g>
<path d="M173.368 93.2913L192.821 91.497C193.262 91.4563 193.701 91.5924 194.041 91.8754C194.382 92.1584 194.596 92.5651 194.637 93.006L195.917 106.889L173.174 108.986L171.894 95.1038C171.854 94.669 171.985 94.2357 172.261 93.8969C172.536 93.5581 172.934 93.3407 173.368 93.2913Z" stroke="#263238" stroke-linecap="round" stroke-linejoin="round"/>
<path d="M207.003 90.1709L226.456 88.3765C226.897 88.3358 227.336 88.472 227.677 88.755C228.017 89.038 228.231 89.4447 228.272 89.8856L229.553 103.768L206.774 105.869L205.494 91.9866C205.453 91.5457 205.589 91.1067 205.872 90.7662C206.155 90.4257 206.562 90.2115 207.003 90.1709Z" fill="#FFA34A"/>
<mask id="mask8_1663_13065" style="mask-type:luminance" maskUnits="userSpaceOnUse" x="205" y="88" width="25" height="18">
<path d="M207.003 90.1709L226.456 88.3765C226.897 88.3358 227.336 88.472 227.677 88.755C228.017 89.038 228.231 89.4447 228.272 89.8856L229.553 103.768L206.774 105.869L205.494 91.9866C205.453 91.5457 205.589 91.1067 205.872 90.7662C206.155 90.4257 206.562 90.2115 207.003 90.1709Z" fill="white"/>
</mask>
<g mask="url(#mask8_1663_13065)">
<path opacity="0.3" d="M207.003 90.1709L226.456 88.3765C226.897 88.3358 227.336 88.472 227.677 88.755C228.017 89.038 228.231 89.4447 228.272 89.8856L229.553 103.768L206.774 105.869L205.494 91.9866C205.453 91.5457 205.589 91.1067 205.872 90.7662C206.155 90.4257 206.562 90.2115 207.003 90.1709Z" fill="black" fill-opacity="0.7"/>
<path opacity="0.3" d="M226.621 89.8447L223.243 90.1562L224.276 101.351L227.654 101.039L226.621 89.8447Z" fill="white" fill-opacity="0.7"/>
</g>
<path d="M207.003 90.1709L226.456 88.3765C226.897 88.3358 227.336 88.472 227.677 88.755C228.017 89.038 228.231 89.4447 228.272 89.8856L229.553 103.768L206.774 105.869L205.494 91.9866C205.453 91.5457 205.589 91.1067 205.872 90.7662C206.155 90.4257 206.562 90.2115 207.003 90.1709Z" stroke="#263238" stroke-linecap="round" stroke-linejoin="round"/>
<path d="M199.935 90.8164L219.388 89.0221C219.829 88.9814 220.268 89.1175 220.609 89.4005C220.949 89.6835 221.163 90.0902 221.204 90.5311L222.485 104.414L199.671 106.518L198.391 92.6354C198.37 92.4141 198.394 92.1909 198.461 91.979C198.528 91.7671 198.636 91.5706 198.78 91.4012C198.924 91.2318 199.1 91.0928 199.299 90.9924C199.497 90.8919 199.713 90.8321 199.935 90.8164Z" fill="#FFA34A" stroke="#263238" stroke-linecap="round" stroke-linejoin="round"/>
<path d="M233.536 87.7178L252.99 85.9234C253.431 85.8827 253.87 86.0189 254.21 86.3019C254.551 86.5849 254.765 86.9915 254.806 87.4324L256.086 101.315L233.308 103.416L232.027 89.5335C231.987 89.0926 232.123 88.6536 232.406 88.3131C232.689 87.9726 233.096 87.7584 233.536 87.7178Z" fill="#FFA34A" stroke="#263238" stroke-linecap="round" stroke-linejoin="round"/>
<path opacity="0.3" d="M219.922 90.4564L214.325 90.9727L215.358 102.167L220.955 101.651L219.922 90.4564Z" fill="white" fill-opacity="0.7"/>
<path opacity="0.3" d="M253.155 87.3822L247.557 87.8984L248.59 99.093L254.187 98.5767L253.155 87.3822Z" fill="white" fill-opacity="0.7"/>
<path d="M265.698 97.1639L271.595 160.993L168.72 170.495L162.859 106.648C162.76 105.581 163.089 104.519 163.774 103.694C164.458 102.87 165.442 102.351 166.509 102.252L261.312 93.5054C261.84 93.4566 262.373 93.5125 262.88 93.6701C263.387 93.8277 263.857 94.0838 264.265 94.4237C264.672 94.7636 265.009 95.1807 265.255 95.6509C265.501 96.1211 265.652 96.6353 265.698 97.1639Z" fill="#FFA34A"/>
<mask id="mask9_1663_13065" style="mask-type:luminance" maskUnits="userSpaceOnUse" x="162" y="93" width="110" height="78">
<path d="M265.698 97.1639L271.595 160.993L168.72 170.495L162.859 106.648C162.76 105.581 163.089 104.519 163.774 103.694C164.458 102.87 165.442 102.351 166.509 102.252L261.312 93.5054C261.84 93.4566 262.373 93.5125 262.88 93.6701C263.387 93.8277 263.857 94.0838 264.265 94.4237C264.672 94.7636 265.009 95.1807 265.255 95.6509C265.501 96.1211 265.652 96.6353 265.698 97.1639Z" fill="white"/>
</mask>
<g mask="url(#mask9_1663_13065)">
<path opacity="0.3" d="M265.698 97.1639L271.595 160.993L168.72 170.495L162.859 106.648C162.76 105.581 163.089 104.519 163.774 103.694C164.458 102.87 165.442 102.351 166.509 102.252L261.312 93.5054C261.84 93.4566 262.373 93.5125 262.88 93.6701C263.387 93.8277 263.857 94.0838 264.265 94.4237C264.672 94.7636 265.009 95.1807 265.255 95.6509C265.501 96.1211 265.652 96.6353 265.698 97.1639Z" fill="black" fill-opacity="0.7"/>
</g>
<path d="M265.698 97.1639L271.595 160.993L168.72 170.495L162.859 106.648C162.76 105.581 163.089 104.519 163.774 103.694C164.458 102.87 165.442 102.351 166.509 102.252L261.312 93.5054C261.84 93.4566 262.373 93.5125 262.88 93.6701C263.387 93.8277 263.857 94.0838 264.265 94.4237C264.672 94.7636 265.009 95.1807 265.255 95.6509C265.501 96.1211 265.652 96.6353 265.698 97.1639Z" stroke="#263238" stroke-linecap="round" stroke-linejoin="round"/>
<path d="M265.698 97.1643L271.595 160.994L195.227 168.036L189.339 104.206C189.241 103.139 189.57 102.077 190.254 101.253C190.938 100.428 191.922 99.9096 192.989 99.8106L261.267 93.5058C261.799 93.4507 262.337 93.5021 262.849 93.6568C263.361 93.8116 263.837 94.0666 264.249 94.4071C264.661 94.7476 265.002 95.1667 265.251 95.6401C265.5 96.1135 265.652 96.6316 265.698 97.1643Z" fill="#FFA34A" stroke="#263238" stroke-linecap="round" stroke-linejoin="round"/>
<path opacity="0.3" d="M260.752 99.9086L195.511 105.929C195.077 105.959 194.648 105.818 194.316 105.536C193.984 105.254 193.776 104.853 193.735 104.42C193.703 103.986 193.842 103.557 194.123 103.225C194.403 102.893 194.803 102.684 195.236 102.644L260.477 96.623C260.911 96.5933 261.34 96.7346 261.672 97.0166C262.004 97.2986 262.212 97.6991 262.253 98.1326C262.281 98.5652 262.14 98.9916 261.86 99.3226C261.58 99.6537 261.183 99.8637 260.752 99.9086Z" fill="white" fill-opacity="0.7"/>
<path d="M146.111 99.9529C146.111 99.9529 131.06 96.9337 129.373 106.622C127.685 116.31 133.2 120.43 133.2 120.43L146.111 99.9529Z" fill="#263238"/>
<path d="M133.2 125.75C131.48 120.934 131.211 115.719 132.427 110.752C133.902 104.536 141.307 95.9844 152.541 103.754C158.322 107.759 158.677 116.453 156.874 124.409C156.448 126.31 156.768 128.166 156.137 129.915C153.917 136.042 149.859 140.757 147.639 140.864C143.936 141.05 136.53 136.566 136.832 132.659" fill="white"/>
<path d="M133.2 125.75C131.48 120.934 131.211 115.719 132.427 110.752C133.902 104.536 141.307 95.9844 152.541 103.754C158.322 107.759 158.677 116.453 156.874 124.409C156.448 126.31 156.768 128.166 156.137 129.915C153.917 136.042 149.859 140.757 147.639 140.864C143.936 141.05 136.53 136.566 136.832 132.659" stroke="#263238" stroke-linecap="round" stroke-linejoin="round"/>
<path d="M148.198 122.934C148.198 122.934 145.206 120.767 142.329 122.543" stroke="#263238" stroke-linecap="round" stroke-linejoin="round"/>
<path d="M153.846 122.544C153.846 122.544 156.11 120.466 157.584 120.768" stroke="#263238" stroke-linecap="round" stroke-linejoin="round"/>
<path d="M143.971 126.256C143.971 126.807 144.247 127.26 144.593 127.26C144.939 127.26 145.224 126.807 145.224 126.256C145.224 125.706 144.939 125.262 144.593 125.262C144.247 125.262 143.971 125.706 143.971 126.256Z" fill="#263238"/>
<path d="M153.846 126.7C154.194 126.7 154.476 126.255 154.476 125.705C154.476 125.156 154.194 124.711 153.846 124.711C153.498 124.711 153.216 125.156 153.216 125.705C153.216 126.255 153.498 126.7 153.846 126.7Z" fill="#263238"/>
<path d="M152.576 124.639C151.475 126.077 153.02 131.556 152.576 131.947C152.132 132.338 149.308 131.228 149.308 131.228C149.308 131.228 148.651 130.393 150.028 129.949" stroke="#263238" stroke-linecap="round" stroke-linejoin="round"/>
<path d="M150.072 134.7C150.072 134.7 146.28 134.7 145.268 133.314" stroke="#263238" stroke-linecap="round" stroke-linejoin="round"/>
<path d="M140.997 114.179L140.704 118.761C140.704 118.761 137.453 120.439 136.637 122.144C136.15 123.261 135.973 124.488 136.121 125.696C136.121 125.696 134.15 122.251 133.085 122.535C132.703 122.633 132.703 124.08 132.703 124.08C132.703 124.08 128.263 114.17 132.276 108.931C136.29 103.692 140.997 114.179 140.997 114.179Z" fill="#757575" stroke="#263238" stroke-linecap="round" stroke-linejoin="round"/>
<path d="M134.736 124.71C134.736 124.71 133.848 121.38 130.856 120.501C127.863 119.622 129.914 127.605 132.463 128.644C135.011 129.683 135.651 130.42 135.802 129.47" fill="white"/>
<path d="M134.736 124.71C134.736 124.71 133.848 121.38 130.856 120.501C127.863 119.622 129.914 127.605 132.463 128.644C135.011 129.683 135.651 130.42 135.802 129.47" stroke="#263238" stroke-linecap="round" stroke-linejoin="round"/>
<path d="M130.66 113.602C130.412 113.265 129.311 104.722 134.949 100.886C140.588 97.0502 150.116 97.4587 156.181 102.769C162.246 108.079 160.524 117.288 156.181 120.431V116.586C156.181 116.586 154.183 120.44 148.189 120.76L150.019 117.936C150.019 117.936 147.071 119.712 141.876 119.561C141.876 119.561 144.318 117.616 143.963 115.885C143.971 115.885 135.722 120.529 130.66 113.602Z" fill="#263238"/>
<path d="M131.717 144.398C127.561 144.896 121.647 150.321 125.501 159.956C127.961 166.066 148.172 162.434 148.172 162.434C155.666 159.343 166.615 148.226 174.652 143.066C174.652 143.066 172.956 132.41 171.002 133.92C161.918 140.873 154.45 141.352 141.778 147.444C141.805 147.409 134.328 144.088 131.717 144.398Z" fill="white" stroke="#263238" stroke-linecap="round" stroke-linejoin="round"/>
<path d="M140.997 156.227C140.872 160.205 142.506 160.906 145.259 161.848L140.997 156.227Z" fill="white"/>
<path d="M140.997 156.227C140.872 160.205 142.506 160.906 145.259 161.848" stroke="#263238" stroke-linecap="round" stroke-linejoin="round"/>
<path d="M170.398 134.701C170.585 134.124 173.95 128.21 174.9 126.709C175.851 125.208 180.095 123.85 181.738 122.944C183.381 122.038 183.514 120.662 184.402 121.647C185.29 122.633 184.402 124.88 179.483 127.268C181.231 127.365 182.983 127.365 184.731 127.268C186.045 127.073 187.217 125.883 187.803 126.709C188.389 127.535 188.505 129.018 185.574 129.924C184.181 130.429 182.721 130.728 181.241 130.812C182.674 131.118 184.084 131.527 185.459 132.037C185.929 132.383 186.631 133.191 187.332 133.316C188.034 133.44 188.798 134.204 187.51 135.092C187.053 135.344 186.542 135.481 186.02 135.49C185.499 135.5 184.983 135.381 184.518 135.145C184.518 135.145 187.919 136.788 186.862 137.809C185.805 138.83 182.422 138.626 182.422 138.626C182.422 138.626 177.405 144.744 173.16 143.466" fill="white"/>
<path d="M170.398 134.701C170.585 134.124 173.95 128.21 174.9 126.709C175.851 125.208 180.095 123.85 181.738 122.944C183.381 122.038 183.514 120.662 184.402 121.647C185.29 122.633 184.402 124.88 179.483 127.268C181.231 127.365 182.983 127.365 184.731 127.268C186.045 127.073 187.217 125.883 187.803 126.709C188.389 127.535 188.505 129.018 185.574 129.924C184.181 130.429 182.721 130.728 181.241 130.812C182.674 131.118 184.084 131.527 185.459 132.037C185.929 132.383 186.631 133.191 187.332 133.316C188.034 133.44 188.798 134.204 187.51 135.092C187.053 135.344 186.542 135.481 186.02 135.49C185.499 135.5 184.983 135.381 184.518 135.145C184.518 135.145 187.919 136.788 186.862 137.809C185.805 138.83 182.422 138.626 182.422 138.626C182.422 138.626 177.405 144.744 173.16 143.466" stroke="#263238" stroke-linecap="round" stroke-linejoin="round"/>
<path d="M176.41 126.699C176.697 126.766 176.96 126.911 177.17 127.118C177.38 127.324 177.529 127.585 177.6 127.871C177.893 128.919 178.754 128.981 179.278 130.154C179.802 131.326 179.651 133.137 180.166 133.759C180.681 134.38 180.166 137 180.166 137" stroke="#263238" stroke-linecap="round" stroke-linejoin="round"/>
<path d="M132.587 143.642C130.412 140.872 125.528 142.124 125.528 142.124" stroke="white" stroke-linecap="round" stroke-linejoin="round"/>
<path d="M122.864 137.018C122.864 137.018 127.89 137.755 129.373 141.937" stroke="white" stroke-linecap="round" stroke-linejoin="round"/>
<path d="M131.717 163.499C131.717 163.499 126.815 167.291 119.356 161.848" stroke="white" stroke-linecap="round" stroke-linejoin="round"/>
<path d="M125.528 164.645C125.528 164.645 123.041 168.081 116.985 168.037" stroke="white" stroke-linecap="round" stroke-linejoin="round"/>
<path d="M156.679 207.881C156.679 207.881 143.856 218.102 130.829 216.761" stroke="white" stroke-linecap="round" stroke-linejoin="round"/>
<path d="M122.02 185.424C122.02 185.424 141.92 200.023 156.652 200.955" stroke="white" stroke-linecap="round" stroke-linejoin="round"/>
<path d="M122.544 293.493C125.967 291.594 129.992 291.091 133.777 292.09C140.268 293.724 157.132 317.842 159.476 320.195C161.82 322.548 166.207 323.747 170.247 328.001C176.641 334.67 185.938 340.566 186.88 340.566C187.821 340.566 188.576 339.98 189.748 339.749C190.92 339.518 199.995 338.692 199.995 338.692C199.995 338.692 203.041 339.367 199.995 340.673C196.95 341.978 197.18 343.141 197.18 343.141C197.18 343.141 196.568 344.127 197.793 345.068C199.019 346.009 199.738 345.494 201.487 347.972C203.237 350.449 199.019 349.046 199.019 349.046C199.019 349.046 199.951 351.71 198.077 351.444C196.204 351.178 197.846 354.046 194.801 353.655C191.755 353.264 185.237 349.153 183.603 344.846C183.603 344.846 157.016 332.139 153.038 328.862C149.06 325.585 132.312 308.012 131.166 307.781" fill="#263238"/>
<path d="M192.101 317.291H211.637C212.08 317.291 212.504 317.467 212.817 317.78C213.131 318.093 213.306 318.518 213.306 318.96V332.902H190.432V318.96C190.432 318.518 190.607 318.093 190.921 317.78C191.234 317.467 191.658 317.291 192.101 317.291Z" fill="#FFA34A"/>
<mask id="mask10_1663_13065" style="mask-type:luminance" maskUnits="userSpaceOnUse" x="190" y="317" width="24" height="16">
<path d="M192.101 317.291H211.637C212.08 317.291 212.504 317.467 212.817 317.78C213.131 318.093 213.306 318.518 213.306 318.96V332.902H190.432V318.96C190.432 318.518 190.607 318.093 190.921 317.78C191.234 317.467 191.658 317.291 192.101 317.291Z" fill="white"/>
</mask>
<g mask="url(#mask10_1663_13065)">
<path opacity="0.3" d="M192.101 317.291H211.637C212.08 317.291 212.504 317.467 212.817 317.78C213.131 318.093 213.306 318.518 213.306 318.96V332.902H190.432V318.96C190.432 318.518 190.607 318.093 190.921 317.78C191.234 317.467 191.658 317.291 192.101 317.291Z" fill="black" fill-opacity="0.7"/>
<path opacity="0.3" d="M212.037 318.766H206.416V330.008H212.037V318.766Z" fill="white" fill-opacity="0.7"/>
</g>
<path d="M192.101 317.291H211.637C212.08 317.291 212.504 317.467 212.817 317.78C213.131 318.093 213.306 318.518 213.306 318.96V332.902H190.432V318.96C190.432 318.518 190.607 318.093 190.921 317.78C191.234 317.467 191.658 317.291 192.101 317.291Z" stroke="#263238" stroke-linecap="round" stroke-linejoin="round"/>
<path d="M225.845 317.291H245.381C245.824 317.291 246.248 317.467 246.562 317.78C246.875 318.093 247.05 318.518 247.05 318.96V332.902H224.176V318.96C224.176 318.741 224.219 318.524 224.303 318.322C224.387 318.119 224.51 317.935 224.665 317.78C224.82 317.625 225.004 317.502 225.206 317.418C225.409 317.334 225.626 317.291 225.845 317.291Z" fill="#FFA34A"/>
<mask id="mask11_1663_13065" style="mask-type:luminance" maskUnits="userSpaceOnUse" x="224" y="317" width="24" height="16">
<path d="M225.845 317.291H245.381C245.824 317.291 246.248 317.467 246.562 317.78C246.875 318.093 247.05 318.518 247.05 318.96V332.902H224.176V318.96C224.176 318.741 224.219 318.524 224.303 318.322C224.387 318.119 224.51 317.935 224.665 317.78C224.82 317.625 225.004 317.502 225.206 317.418C225.409 317.334 225.626 317.291 225.845 317.291Z" fill="white"/>
</mask>
<g mask="url(#mask11_1663_13065)">
<path opacity="0.3" d="M225.845 317.291H245.381C245.824 317.291 246.248 317.467 246.562 317.78C246.875 318.093 247.05 318.518 247.05 318.96V332.902H224.176V318.96C224.176 318.741 224.219 318.524 224.303 318.322C224.387 318.119 224.51 317.935 224.665 317.78C224.82 317.625 225.004 317.502 225.206 317.418C225.409 317.334 225.626 317.291 225.845 317.291Z" fill="black" fill-opacity="0.7"/>
<path opacity="0.3" d="M245.408 318.766H242.016V330.008H245.408V318.766Z" fill="white" fill-opacity="0.7"/>
</g>
<path d="M225.845 317.291H245.381C245.824 317.291 246.248 317.467 246.562 317.78C246.875 318.093 247.05 318.518 247.05 318.96V332.902H224.176V318.96C224.176 318.741 224.219 318.524 224.303 318.322C224.387 318.119 224.51 317.935 224.665 317.78C224.82 317.625 225.004 317.502 225.206 317.418C225.409 317.334 225.626 317.291 225.845 317.291Z" stroke="#263238" stroke-linecap="round" stroke-linejoin="round"/>
<path d="M218.741 317.291H238.277C238.72 317.291 239.144 317.467 239.458 317.78C239.771 318.093 239.946 318.518 239.946 318.96V332.902H217.072V318.96C217.072 318.741 217.115 318.524 217.199 318.322C217.283 318.119 217.406 317.935 217.561 317.78C217.716 317.625 217.9 317.502 218.102 317.418C218.305 317.334 218.522 317.291 218.741 317.291Z" fill="#FFA34A" stroke="#263238" stroke-linecap="round" stroke-linejoin="round"/>
<path d="M252.485 317.291H272.021C272.464 317.291 272.888 317.467 273.202 317.78C273.515 318.093 273.69 318.518 273.69 318.96V332.902H250.816V318.96C250.816 318.518 250.991 318.093 251.305 317.78C251.618 317.467 252.042 317.291 252.485 317.291Z" fill="#FFA34A" stroke="#263238" stroke-linecap="round" stroke-linejoin="round"/>
<path opacity="0.3" d="M238.677 318.766H233.056V330.008H238.677V318.766Z" fill="white" fill-opacity="0.7"/>
<path opacity="0.3" d="M272.048 318.766H266.427V330.008H272.048V318.766Z" fill="white" fill-opacity="0.7"/>
<path d="M283.645 329.654V393.758H180.362V329.654C180.362 328.582 180.787 327.554 181.545 326.797C182.303 326.039 183.331 325.613 184.402 325.613H279.605C280.676 325.613 281.704 326.039 282.462 326.797C283.219 327.554 283.645 328.582 283.645 329.654Z" fill="#FFA34A"/>
<mask id="mask12_1663_13065" style="mask-type:luminance" maskUnits="userSpaceOnUse" x="180" y="325" width="104" height="69">
<path d="M283.645 329.654V393.758H180.362V329.654C180.362 328.582 180.787 327.554 181.545 326.797C182.303 326.039 183.331 325.613 184.402 325.613H279.605C280.676 325.613 281.704 326.039 282.462 326.797C283.219 327.554 283.645 328.582 283.645 329.654Z" fill="white"/>
</mask>
<g mask="url(#mask12_1663_13065)">
<path opacity="0.3" d="M283.645 329.654V393.758H180.362V329.654C180.362 328.582 180.787 327.554 181.545 326.797C182.303 326.039 183.331 325.613 184.402 325.613H279.605C280.676 325.613 281.704 326.039 282.462 326.797C283.219 327.554 283.645 328.582 283.645 329.654Z" fill="black" fill-opacity="0.7"/>
</g>
<path d="M283.645 329.654V393.758H180.362V329.654C180.362 328.582 180.787 327.554 181.545 326.797C182.303 326.039 183.331 325.613 184.402 325.613H279.605C280.676 325.613 281.704 326.039 282.462 326.797C283.219 327.554 283.645 328.582 283.645 329.654Z" stroke="#263238" stroke-linecap="round" stroke-linejoin="round"/>
<path d="M283.645 329.654V393.758H207.002V329.654C207.002 328.582 207.427 327.554 208.185 326.797C208.943 326.039 209.97 325.613 211.042 325.613H279.605C280.676 325.613 281.704 326.039 282.462 326.797C283.219 327.554 283.645 328.582 283.645 329.654Z" fill="#FFA34A" stroke="#263238" stroke-linecap="round" stroke-linejoin="round"/>
<path opacity="0.3" d="M278.459 331.935H212.942C212.5 331.935 212.075 331.759 211.762 331.446C211.449 331.133 211.273 330.708 211.273 330.266C211.268 330.043 211.308 329.822 211.39 329.616C211.471 329.409 211.594 329.221 211.749 329.062C211.905 328.903 212.09 328.777 212.295 328.691C212.5 328.605 212.72 328.56 212.942 328.561H278.459C278.902 328.561 279.326 328.736 279.64 329.05C279.953 329.363 280.128 329.787 280.128 330.23C280.133 330.452 280.094 330.673 280.012 330.88C279.93 331.086 279.808 331.275 279.652 331.433C279.497 331.592 279.311 331.718 279.106 331.805C278.901 331.891 278.681 331.935 278.459 331.935Z" fill="white" fill-opacity="0.7"/>
<path d="M157.176 393.758C151.848 393.758 144.362 390.33 135.74 386.707C126.798 382.942 116.612 378.964 106.276 378.369C102.422 378.147 104.757 393.758 104.757 393.758H96.3213C96.3213 393.758 87.9919 382.64 87.024 372.685C87.024 372.685 93.8261 368.485 95.46 368.245C96.0234 368.186 96.5897 368.16 97.1561 368.165C98.9854 368.165 101.427 368.245 101.427 368.245C101.037 368.014 94.8117 364.267 91.3752 360.458C88.5425 357.314 87.246 352.35 87.1483 349.384C87.2581 347.42 87.4745 345.464 87.7965 343.523L132.125 344.26C132.125 344.26 132.605 344.598 133.458 345.228C138.599 348.976 157.389 362.935 166.784 373.458C169.821 376.859 171.872 379.896 172.174 382.116C173.586 392.355 165.212 393.758 157.176 393.758Z" fill="#757575" stroke="#263238" stroke-linecap="round" stroke-linejoin="round"/>
<path d="M166.793 373.441L145.232 378.369C141.536 380.484 138.302 383.319 135.722 386.708C126.78 382.942 116.594 378.964 106.258 378.369C102.404 378.147 104.74 393.758 104.74 393.758H96.3036C96.3036 393.758 87.9919 382.641 87.024 372.686C87.024 372.686 94.8739 383.875 96.792 389.558C96.792 389.558 99.8378 379.044 104.784 374.826C102.55 372.31 100.012 370.082 97.2271 368.193C99.0564 368.193 101.498 368.273 101.498 368.273C101.108 368.042 94.8828 364.294 91.4462 360.485C88.6135 357.341 87.468 352.369 87.2193 349.412C87.095 347.955 87.2726 343.551 87.2726 343.551C87.2726 343.551 120.333 348.266 133.529 345.256C138.608 348.985 157.398 362.918 166.793 373.441Z" fill="#263238"/>
<path d="M132.134 372.686C132.134 372.686 149.699 381.486 154.388 384.931C159.076 388.377 160.47 387.444 160.47 387.444" stroke="#263238" stroke-linecap="round" stroke-linejoin="round"/>
<path d="M91.3841 371.754C91.3841 371.754 95.6021 378.192 95.8241 380.119" stroke="#263238" stroke-linecap="round" stroke-linejoin="round"/>
<path d="M162.033 248.18C162.033 248.18 171.384 244.113 170.496 261.411C169.608 278.709 172.778 279.597 172.778 279.597C172.778 279.597 149.246 289.259 143.27 281C137.294 272.742 142.968 250.142 162.033 248.18Z" fill="#263238"/>
<path d="M160.728 279.595C160.728 279.595 151.049 284.16 150.17 288.378C149.291 292.596 137.169 286.247 137.169 286.247L145.952 273.619L160.728 279.595Z" fill="white" stroke="#263238" stroke-linecap="round" stroke-linejoin="round"/>
<path d="M97.2626 325.897C75.0626 354.171 93.0802 367.811 118.246 365.555L113.202 373.547L125.865 375.741C125.865 375.741 135.571 369.4 148.802 362.625C171.322 351.081 180.424 351.774 178.106 340.221C175.788 328.668 148.189 321.173 120.519 333.348C120.493 333.339 105.468 315.49 97.2626 325.897Z" fill="#757575" stroke="#263238" stroke-linecap="round" stroke-linejoin="round"/>
<path d="M105.006 387.444C105.006 387.444 110.787 371.46 113.202 370.572C115.618 369.684 124.746 373.147 125.865 375.722C125.865 375.722 128.946 370.998 130.207 373.005C131.468 375.012 129.648 378.333 130.207 380.873C130.767 383.412 137.01 386.964 139.505 387.435C142 387.906 143.421 389.309 143.421 390.712V393.757H105.006C104.58 392.76 104.36 391.686 104.36 390.601C104.36 389.515 104.58 388.442 105.006 387.444Z" fill="white" stroke="#263238" stroke-linecap="round" stroke-linejoin="round"/>
<path d="M130.207 378.369C130.207 378.369 125.119 380.882 123.263 380.145C121.407 379.408 124.213 384.363 124.915 384.834C125.616 385.304 130.243 383.191 130.243 383.191" stroke="#263238" stroke-linecap="round" stroke-linejoin="round"/>
<path d="M109.81 375.73C109.81 375.73 116.719 375.864 118.823 378.394" stroke="#263238" stroke-linecap="round" stroke-linejoin="round"/>
<path d="M105.006 387.443C105.006 387.443 116.017 390.019 116.95 390.019C118.464 389.718 119.949 389.287 121.39 388.731C121.39 388.731 124.409 390.249 126.416 391.191C128.423 392.132 141.512 391.191 141.512 391.191" stroke="#263238" stroke-linecap="round" stroke-linejoin="round"/>
<path d="M118.246 365.573C128.76 364.437 149.184 351.481 156.288 346.979C163.392 342.476 165.168 343.657 165.168 343.657" stroke="#263238" stroke-linecap="round" stroke-linejoin="round"/>
<path d="M87.2104 343.506L88.8888 330.763L92.9381 327.708C99.5004 311.786 129.231 282.047 137.338 282.145C149.513 282.287 151.661 295.065 153.162 309.051C154.663 323.037 135.695 320.933 135.695 320.933V324.44L124.906 330.026L131.442 329.821C131.442 329.821 112.643 348.097 87.2104 343.506Z" fill="#FFA34A" stroke="#263238" stroke-linecap="round" stroke-linejoin="round"/>
<path d="M139.904 257.52C142.453 249.528 154.112 247.397 158.304 248.702C161.744 250.046 164.564 252.618 166.216 255.922C167.281 258.222 165.053 262.289 166.642 264.66C168.915 268.061 168.72 275.236 167.903 279.756C167.459 282.153 157.487 283.574 149.335 277.98C140.579 271.924 137.436 265.21 139.904 257.52Z" fill="white" stroke="#263238" stroke-linecap="round" stroke-linejoin="round"/>
<path d="M151.688 246.314C151.688 246.314 161.953 244.645 162.024 247.282C162.477 264.802 151.972 268.479 151.972 268.479C151.972 268.479 147.683 265.06 146.724 267.404C145.765 269.748 148.234 276.231 151.271 276.364C150.571 277.451 150.188 278.712 150.167 280.005C150.145 281.298 150.484 282.571 151.146 283.681C151.146 283.681 133.759 286.585 132.321 278.531C132.993 275.731 133.474 272.889 133.759 270.024C134.887 258.737 132.25 251.145 151.688 246.314Z" fill="#263238"/>
<path d="M165.399 264.172C167.539 266.099 169.075 266.099 169.049 266.791C168.969 268.949 166.385 270.024 166.385 270.024" fill="white"/>
<path d="M165.399 264.172C167.539 266.099 169.075 266.099 169.049 266.791C168.969 268.949 166.385 270.024 166.385 270.024" stroke="#263238" stroke-linecap="round" stroke-linejoin="round"/>
<path d="M166.331 273.619C164.819 274.131 163.187 274.171 161.651 273.735" stroke="#263238" stroke-linecap="round" stroke-linejoin="round"/>
<path d="M160.639 253.418C160.639 253.418 167.468 251.438 166.216 262.52C166.216 262.52 169.057 258.658 169.049 254.315C169.049 246.794 158.987 248.304 158.987 248.304L160.302 253.632" fill="#263238"/>
<path d="M166.846 258.843C166.588 258.671 166.297 258.554 165.992 258.497C165.687 258.441 165.373 258.447 165.07 258.515" stroke="#263238" stroke-linecap="round" stroke-linejoin="round"/>
<path d="M162.246 258.719C162.246 258.719 158.579 258.932 156.99 261.383" stroke="#263238" stroke-linecap="round" stroke-linejoin="round"/>
<path d="M161.367 264.554C161.421 265.14 161.172 265.646 160.808 265.682C160.444 265.717 160.106 265.265 160.044 264.679C159.982 264.092 160.24 263.586 160.604 263.551C160.968 263.515 161.314 263.968 161.367 264.554Z" fill="#263238"/>
<path d="M118.823 368.236C118.823 368.236 126.993 369.124 128.769 372.676" stroke="#263238" stroke-linecap="round" stroke-linejoin="round"/>
<path d="M139.505 288.14C142.928 286.241 146.953 285.738 150.738 286.737C157.238 288.379 174.092 312.489 176.437 314.842C178.781 317.195 183.168 318.394 187.208 322.647C193.602 329.316 202.899 335.212 203.84 335.212C204.782 335.212 205.536 334.626 206.709 334.395C207.881 334.165 216.956 333.339 216.956 333.339C216.956 333.339 220.002 334.023 216.956 335.319C213.91 336.615 214.141 337.797 214.141 337.797C214.141 337.797 213.537 338.773 214.754 339.715C215.97 340.656 216.699 340.141 218.448 342.618C220.197 345.096 215.979 343.693 215.979 343.693C215.979 343.693 216.912 346.357 215.038 346.09C213.164 345.824 214.807 348.692 211.761 348.302C208.715 347.911 202.198 343.799 200.564 339.493C200.564 339.493 173.977 326.785 169.999 323.509C166.02 320.232 149.291 302.658 148.109 302.427" fill="white"/>
<path d="M139.505 288.14C142.928 286.241 146.953 285.738 150.738 286.737C157.238 288.379 174.092 312.489 176.437 314.842C178.781 317.195 183.168 318.394 187.208 322.647C193.602 329.316 202.899 335.212 203.84 335.212C204.782 335.212 205.536 334.626 206.709 334.395C207.881 334.165 216.956 333.339 216.956 333.339C216.956 333.339 220.002 334.023 216.956 335.319C213.91 336.615 214.141 337.797 214.141 337.797C214.141 337.797 213.537 338.773 214.754 339.715C215.97 340.656 216.699 340.141 218.448 342.618C220.197 345.096 215.979 343.693 215.979 343.693C215.979 343.693 216.912 346.357 215.038 346.09C213.164 345.824 214.807 348.692 211.761 348.302C208.715 347.911 202.198 343.799 200.564 339.493C200.564 339.493 173.977 326.785 169.999 323.509C166.02 320.232 149.291 302.658 148.109 302.427" stroke="#263238" stroke-linecap="round" stroke-linejoin="round"/>
<path d="M135.686 285.564C135.686 285.564 148.793 282.057 153.366 284.632C157.94 287.207 166.607 299.151 166.607 299.151C166.607 299.151 156.039 308.608 152.772 307.747C149.504 306.885 139.505 305.473 139.505 305.473" fill="#FFA34A"/>
<path d="M135.686 285.564C135.686 285.564 148.793 282.057 153.366 284.632C157.94 287.207 166.607 299.151 166.607 299.151C166.607 299.151 156.039 308.608 152.772 307.747C149.504 306.885 139.505 305.473 139.505 305.473" stroke="#263238" stroke-linecap="round" stroke-linejoin="round"/>
<path d="M147.053 306.627C147.053 306.627 142.302 309.238 140.553 309.238" stroke="#263238" stroke-linecap="round" stroke-linejoin="round"/>
<path d="M139.505 293.529C139.904 294.231 139.771 301.912 148.109 304.301" stroke="#263238" stroke-linecap="round" stroke-linejoin="round"/>
<path d="M94.9361 327.958C94.9361 327.958 112.696 331.003 118.823 325.613" stroke="#263238" stroke-linecap="round" stroke-linejoin="round"/>
<path d="M124.897 330.026C124.897 330.026 120.457 329.244 118.823 331.526C117.189 333.808 108.292 335.966 108.292 335.966" stroke="#263238" stroke-linecap="round" stroke-linejoin="round"/>
<path d="M89.1996 346.979C89.1996 346.979 86.6333 358.043 97.5823 362.963" stroke="#263238" stroke-linecap="round" stroke-linejoin="round"/>
<path d="M94.9361 347.741C94.9361 347.741 94.9983 353.193 96.7121 356.177L102.156 357.953L108.247 354.56C108.247 354.56 106.951 347.59 106.835 346.178" stroke="#263238" stroke-linecap="round" stroke-linejoin="round"/>
</svg>
