<svg width="171" height="87" viewBox="0 0 171 87" fill="none" xmlns="http://www.w3.org/2000/svg">
<path d="M37.36 86.92C12.52 86.92 0.88 67.12 0.88 43.6C0.88 20.08 12.52 0.159998 37.36 0.159998C62.2 0.159998 73.72 20.08 73.72 43.6C73.72 67.12 62.2 86.92 37.36 86.92ZM37.36 70.48C49.48 70.48 53.32 60.04 53.32 43.6C53.32 27.16 49.48 16.6 37.36 16.6C25.24 16.6 21.28 27.16 21.28 43.6C21.28 60.04 25.24 70.48 37.36 70.48ZM98.5956 27.52H79.3956C79.3956 11.68 91.1556 0.159998 112.396 0.159998C127.876 0.159998 142.036 8.31999 142.036 22.96C142.036 31.96 136.756 37.6 130.036 41.08V41.32C140.236 44.56 144.436 51.52 144.436 61.72C144.436 78.04 131.116 86.92 112.756 86.92C89.3556 86.92 76.9956 75.64 76.9956 55.72H96.1956C96.1956 65.32 100.636 70.48 111.316 70.48C119.956 70.48 124.036 66.76 124.036 60.52C124.036 52.48 118.396 49.48 108.796 49.48H104.596V35.44H108.316C117.196 35.44 121.636 32.56 121.636 26.32C121.636 19.24 117.556 16.6 110.836 16.6C104.476 16.6 98.5956 19.6 98.5956 27.52ZM159.874 86.08C154.114 86.08 149.674 82.12 149.674 75.88C149.674 69.76 154.114 65.68 159.874 65.68C165.514 65.68 170.074 69.76 170.074 75.88C170.074 82.12 165.514 86.08 159.874 86.08Z" fill="#E6E6E6"/>
</svg>
