<svg width="355" height="364" viewBox="0 0 355 364" fill="none" xmlns="http://www.w3.org/2000/svg">
<rect width="355" height="364" rx="177.5" fill="white"/>
<path d="M250.746 277.957C250.746 280.746 249.231 283.028 247.21 284.042C239.632 288.352 223.719 293.929 211.594 297.985C211.342 298.239 210.836 298.239 210.584 298.492C209.573 298.746 208.563 298.999 207.553 298.999C201.238 298.999 195.933 293.676 195.933 287.338V181.873C195.933 180.352 195.175 178.83 193.66 178.07C178.757 169.704 168.148 164.126 152.739 155.253C152.234 154.999 151.982 154.746 151.476 154.492C149.708 153.225 148.445 151.197 148.445 148.661C148.445 146.38 149.708 144.098 151.476 142.83C151.729 142.577 151.982 142.577 151.982 142.323C168.653 132.183 240.643 91.1122 248.978 86.2953C250.494 85.5347 250.746 85.5347 250.746 87.3094C250.746 92.1263 250.746 96.9432 250.746 101.76C250.746 138.774 250.746 240.436 250.746 277.957Z" fill="#F37802"/>
<path d="M251 68.0423C250.747 67.5352 250.747 67.0282 250.242 66.5211C249.484 65.507 248.474 65 247.211 65C246.706 65 246.201 65 245.696 65.2535L245.19 65.507C245.19 65.507 109.042 142.831 107.021 144.606C105.505 145.873 105 147.648 105 149.169V149.93C105 149.93 105 151.704 105 152.718C105 153.479 105 153.986 105 154.493C105 164.887 105.253 236.887 105 256.408C105 257.676 105 258.69 105.505 259.704C106.01 261.732 107.273 263.761 109.042 265.028C130.765 277.197 156.277 290.634 170.17 297.732L170.422 297.986C171.433 298.493 172.443 298.746 173.453 298.746C177.242 298.746 180.273 295.704 180.526 292.155C180.526 292.155 180.273 228.268 180.526 194.803C180.526 193.535 180.273 192.521 179.01 192.014C174.211 189.225 169.159 186.437 164.36 183.648C157.035 179.592 144.405 172.239 132.785 165.648C128.491 163.113 124.197 160.831 120.661 158.549C119.651 158.042 118.64 157.535 117.882 156.775C116.114 155.761 115.104 153.986 114.851 151.958C114.851 151.704 114.851 151.704 114.851 151.451C114.851 151.197 114.851 150.944 114.851 150.69C114.851 150.437 114.851 150.437 114.851 150.183C114.851 149.93 114.851 149.93 114.851 149.676C115.356 148.155 116.114 147.141 117.63 146.127C118.64 145.62 119.651 145.113 120.661 144.352C122.176 143.592 123.692 142.577 125.208 141.817C159.813 122.296 237.36 78.4366 248.474 72.0986C249.232 71.5915 249.737 71.338 249.737 71.338C250.495 70.5775 251 69.5634 251 68.5493C251 68.5493 251 68.2958 251 68.0423Z" fill="#0027B3"/>
</svg>
