<svg width="594" height="594" viewBox="0 0 594 594" fill="none" xmlns="http://www.w3.org/2000/svg">
<path d="M481.142 217.785C481.142 217.785 452.107 161.343 387.991 152.991C323.874 144.639 279.182 185.388 231.935 206.285C207.225 217.238 179.01 212.985 152.779 218.284C68.9058 235.224 37.305 341.36 72.2441 401.723C102.491 453.995 155.725 481.14 236.782 487.413C317.839 493.686 374.697 501.004 447.284 449.789C519.871 398.574 515.035 291.987 481.142 217.785Z" fill="#92E3A9"/>
<path opacity="0.8" d="M481.142 217.785C481.142 217.785 452.107 161.343 387.991 152.991C323.874 144.639 279.182 185.388 231.935 206.285C207.225 217.238 179.01 212.985 152.779 218.284C68.9058 235.224 37.305 341.36 72.2441 401.723C102.491 453.995 155.725 481.14 236.782 487.413C317.839 493.686 374.697 501.004 447.284 449.789C519.871 398.574 515.035 291.987 481.142 217.785Z" fill="white"/>
<path d="M276.042 523.325C374.695 523.325 454.669 518.086 454.669 511.624C454.669 505.161 374.695 499.922 276.042 499.922C177.388 499.922 97.4141 505.161 97.4141 511.624C97.4141 518.086 177.388 523.325 276.042 523.325Z" fill="#92E3A9"/>
<path opacity="0.5" d="M276.042 523.325C374.695 523.325 454.669 518.086 454.669 511.624C454.669 505.161 374.695 499.922 276.042 499.922C177.388 499.922 97.4141 505.161 97.4141 511.624C97.4141 518.086 177.388 523.325 276.042 523.325Z" fill="white"/>
<path d="M400.142 353.478C396.804 361.711 393.382 355.093 393.929 320.594C394.178 304.437 395.319 271.399 413.198 278.669C430.377 285.655 407.734 334.505 407.734 334.505L400.142 353.478ZM424.686 358.372C424.686 358.372 461.954 319.537 447.983 307.288C433.43 294.624 421.633 325.512 416.145 340.742C404.431 373.187 405.453 380.552 411.333 373.852L424.686 358.372ZM432.551 393.228C432.551 393.228 466.67 368.934 457.748 357.588C448.47 345.791 434.962 367.674 428.571 378.509C414.909 401.615 414.671 407.401 420.101 403.124L432.551 393.228ZM441.782 427.977C441.782 427.977 475.913 403.683 466.991 392.337C457.701 380.54 444.205 402.423 437.802 413.258C424.152 436.364 423.902 442.162 429.331 437.885L441.782 427.977ZM382.192 358.111C382.192 358.111 334.446 333.258 326.688 350.092C318.598 367.615 351.541 370.288 367.686 371.262C402.138 373.389 408.874 370.276 400.807 366.569L382.192 358.111ZM388.916 385.435C388.916 385.435 337.19 370.573 332.925 388.619C328.482 407.401 361.295 403.457 377.309 401.223C411.476 396.471 417.487 392.064 408.85 390.032L388.916 385.435ZM400.796 415.266C400.796 415.266 356.709 403.896 353.513 419.257C350.199 435.236 377.855 431.137 391.351 428.88C420.124 424.057 425.114 420.208 417.76 418.687L400.796 415.266ZM407.698 439.893C407.698 439.893 365.061 423.902 360.261 438.836C355.271 454.375 383.201 453.234 396.851 452.426C425.981 450.692 431.303 447.377 424.175 445.096L407.698 439.893ZM379.186 315.153C379.186 315.153 359.726 254.66 337.606 265.649C314.606 277.077 341.17 304.366 354.475 317.422C382.833 345.281 391.6 347.241 387.87 337.511L379.186 315.153Z" fill="#92E3A9"/>
<path opacity="0.65" d="M400.142 353.478C396.804 361.711 393.382 355.093 393.929 320.594C394.178 304.437 395.319 271.399 413.198 278.669C430.377 285.655 407.734 334.505 407.734 334.505L400.142 353.478ZM424.686 358.372C424.686 358.372 461.954 319.537 447.983 307.288C433.43 294.624 421.633 325.512 416.145 340.742C404.431 373.187 405.453 380.552 411.333 373.852L424.686 358.372ZM432.551 393.228C432.551 393.228 466.67 368.934 457.748 357.588C448.47 345.791 434.962 367.674 428.571 378.509C414.909 401.615 414.671 407.401 420.101 403.124L432.551 393.228ZM441.782 427.977C441.782 427.977 475.913 403.683 466.991 392.337C457.701 380.54 444.205 402.423 437.802 413.258C424.152 436.364 423.902 442.162 429.331 437.885L441.782 427.977ZM382.192 358.111C382.192 358.111 334.446 333.258 326.688 350.092C318.598 367.615 351.541 370.288 367.686 371.262C402.138 373.389 408.874 370.276 400.807 366.569L382.192 358.111ZM388.916 385.435C388.916 385.435 337.19 370.573 332.925 388.619C328.482 407.401 361.295 403.457 377.309 401.223C411.476 396.471 417.487 392.064 408.85 390.032L388.916 385.435ZM400.796 415.266C400.796 415.266 356.709 403.896 353.513 419.257C350.199 435.236 377.855 431.137 391.351 428.88C420.124 424.057 425.114 420.208 417.76 418.687L400.796 415.266ZM407.698 439.893C407.698 439.893 365.061 423.902 360.261 438.836C355.271 454.375 383.201 453.234 396.851 452.426C425.981 450.692 431.303 447.377 424.175 445.096L407.698 439.893ZM379.186 315.153C379.186 315.153 359.726 254.66 337.606 265.649C314.606 277.077 341.17 304.366 354.475 317.422C382.833 345.281 391.6 347.241 387.87 337.511L379.186 315.153Z" fill="white"/>
<path d="M346.801 287.223C346.801 287.223 395.687 346.86 407.389 376.727C420.837 411.024 429.771 450.537 431.588 482.542" stroke="#CCCCCC" stroke-width="1.25197" stroke-linecap="round" stroke-linejoin="round"/>
<path d="M397.648 357.244L404.456 300.374" stroke="#CCCCCC" stroke-width="1.25197" stroke-linecap="round" stroke-linejoin="round"/>
<path d="M407.375 376.727L431.967 328.922" stroke="#CCCCCC" stroke-width="1.25197" stroke-linecap="round" stroke-linejoin="round"/>
<path d="M403.789 369.635L352.289 359.145" stroke="#CCCCCC" stroke-width="1.25197" stroke-linecap="round" stroke-linejoin="round"/>
<path d="M417.059 403.849L447.341 369.35" stroke="#CCCCCC" stroke-width="1.25197" stroke-linecap="round" stroke-linejoin="round"/>
<path d="M412.829 392.48L373.945 392.147" stroke="#CCCCCC" stroke-width="1.25197" stroke-linecap="round" stroke-linejoin="round"/>
<path d="M420.315 420.707L390.496 421.895" stroke="#CCCCCC" stroke-width="1.25197" stroke-linecap="round" stroke-linejoin="round"/>
<path d="M426.445 438.728L442.412 417.439" stroke="#CCCCCC" stroke-width="1.25197" stroke-linecap="round" stroke-linejoin="round"/>
<path d="M427.61 446.641L392.73 444.906" stroke="#CCCCCC" stroke-width="1.25197" stroke-linecap="round" stroke-linejoin="round"/>
<path d="M494.208 400.582C488.185 402.851 490.027 397.79 508.643 381.122C517.363 373.305 535.491 357.683 540.41 370.763C545.162 383.332 508.037 395.295 508.037 395.295L494.208 400.582ZM503.712 416.026C503.712 416.026 542.691 416.762 542.299 403.338C541.895 389.367 519.667 398.265 508.88 402.815C485.869 412.533 482.483 416.727 488.91 416.537L503.712 416.026ZM489.029 437.339C489.029 437.339 518.729 443.552 520.368 433.228C522.091 422.536 503.807 426.1 494.897 427.989C475.889 432.076 472.694 434.796 477.636 435.58L489.029 437.339ZM475.082 459.329C475.082 459.329 504.782 465.542 506.433 455.218C508.144 444.526 489.801 448.09 480.962 449.979C461.954 454.078 458.759 456.798 463.701 457.582L475.082 459.329ZM482.958 393.288C482.958 393.288 472.718 355.676 459.935 359.822C446.641 364.146 461.42 382.964 468.833 392.04C484.621 411.393 489.599 413.424 487.615 407.354L482.958 393.288ZM471.636 410.335C471.636 410.335 454.113 375.515 442.412 382.12C430.247 388.987 448.47 404.502 457.535 411.927C476.852 427.751 482.15 428.797 478.978 423.201L471.636 410.335ZM461.586 431.304C461.586 431.304 445.964 402.257 436.222 408.114C426.089 414.208 441.865 426.896 449.694 432.967C466.409 445.904 470.912 446.688 468.072 442.007L461.586 431.304ZM451.88 447.08C451.88 447.08 439.43 416.537 429.13 421.324C418.438 426.302 432.694 440.606 439.822 447.46C455.123 462.132 459.519 463.32 457.226 458.414L451.88 447.08ZM504.152 370.573C504.152 370.573 526.724 330.49 510.092 324.134C492.712 317.529 491.262 345.067 490.846 358.586C489.955 387.359 493.222 393.038 496.573 386.219L504.152 370.573Z" fill="#92E3A9"/>
<path opacity="0.65" d="M494.208 400.582C488.185 402.851 490.027 397.79 508.643 381.122C517.363 373.305 535.491 357.683 540.41 370.763C545.162 383.332 508.037 395.295 508.037 395.295L494.208 400.582ZM503.712 416.026C503.712 416.026 542.691 416.762 542.299 403.338C541.895 389.367 519.667 398.265 508.88 402.815C485.869 412.533 482.483 416.727 488.91 416.537L503.712 416.026ZM489.029 437.339C489.029 437.339 518.729 443.552 520.368 433.228C522.091 422.536 503.807 426.1 494.897 427.989C475.889 432.076 472.694 434.796 477.636 435.58L489.029 437.339ZM475.082 459.329C475.082 459.329 504.782 465.542 506.433 455.218C508.144 444.526 489.801 448.09 480.962 449.979C461.954 454.078 458.759 456.798 463.701 457.582L475.082 459.329ZM482.958 393.288C482.958 393.288 472.718 355.676 459.935 359.822C446.641 364.146 461.42 382.964 468.833 392.04C484.621 411.393 489.599 413.424 487.615 407.354L482.958 393.288ZM471.636 410.335C471.636 410.335 454.113 375.515 442.412 382.12C430.247 388.987 448.47 404.502 457.535 411.927C476.852 427.751 482.15 428.797 478.978 423.201L471.636 410.335ZM461.586 431.304C461.586 431.304 445.964 402.257 436.222 408.114C426.089 414.208 441.865 426.896 449.694 432.967C466.409 445.904 470.912 446.688 468.072 442.007L461.586 431.304ZM451.88 447.08C451.88 447.08 439.43 416.537 429.13 421.324C418.438 426.302 432.694 440.606 439.822 447.46C455.123 462.132 459.519 463.32 457.226 458.414L451.88 447.08ZM504.152 370.573C504.152 370.573 526.724 330.49 510.092 324.134C492.712 317.529 491.262 345.067 490.846 358.586C489.955 387.359 493.222 393.038 496.573 386.219L504.152 370.573Z" fill="#E5E5E5"/>
<path d="M503.188 339.649C503.188 339.649 495.49 394.963 485.368 415.86C473.726 439.869 457.106 464.057 440.973 480.748" stroke="#CCCCCC" stroke-width="1.25197" stroke-linecap="round" stroke-linejoin="round"/>
<path d="M490.93 401.117L524.526 376.774" stroke="#CCCCCC" stroke-width="1.25197" stroke-linecap="round" stroke-linejoin="round"/>
<path d="M485.355 415.86L522.873 405.453" stroke="#CCCCCC" stroke-width="1.25197" stroke-linecap="round" stroke-linejoin="round"/>
<path d="M487.354 410.478L467.621 377.915" stroke="#CCCCCC" stroke-width="1.25197" stroke-linecap="round" stroke-linejoin="round"/>
<path d="M475.688 434.345L508.916 433.489" stroke="#CCCCCC" stroke-width="1.25197" stroke-linecap="round" stroke-linejoin="round"/>
<path d="M479.644 426.505L460.719 405.667" stroke="#CCCCCC" stroke-width="1.25197" stroke-linecap="round" stroke-linejoin="round"/>
<path d="M468.309 444.36L453.031 429.082" stroke="#CCCCCC" stroke-width="1.25197" stroke-linecap="round" stroke-linejoin="round"/>
<path d="M461.738 456.477L480.913 454.505" stroke="#CCCCCC" stroke-width="1.25197" stroke-linecap="round" stroke-linejoin="round"/>
<path d="M458.103 460.992L441.887 441.58" stroke="#CCCCCC" stroke-width="1.25197" stroke-linecap="round" stroke-linejoin="round"/>
<path d="M148.108 131.155C145.221 138.283 142.274 132.545 142.738 102.75C142.952 88.7795 143.926 60.2437 159.37 66.5282C174.208 72.5633 154.618 114.749 154.618 114.749L148.108 131.155ZM169.313 135.432C169.313 135.432 201.52 101.871 189.438 91.3456C176.869 80.3922 166.676 107.063 161.924 120.202C151.814 148.227 152.741 154.654 157.778 148.809L169.313 135.432ZM176.109 165.536C176.109 165.536 205.583 144.556 197.873 134.755C189.854 124.562 178.2 143.463 172.663 152.825C160.867 172.795 160.665 177.773 165.345 174.102L176.109 165.536ZM184.14 195.509C184.14 195.509 213.626 174.529 205.916 164.728C197.897 154.535 186.23 173.448 180.706 182.798C168.909 202.768 168.696 207.746 173.388 204.075L184.14 195.509ZM132.664 135.147C132.664 135.147 91.3568 113.68 84.6446 128.233C77.6591 143.368 106.124 145.661 120.059 146.516C149.759 148.358 155.699 145.673 148.69 142.465L132.664 135.147ZM138.473 158.788C138.473 158.788 93.7209 145.946 90.0381 161.568C86.2008 177.796 114.547 174.387 128.387 172.462C157.897 168.34 163.088 164.55 155.628 162.792L138.473 158.788ZM148.702 184.556C148.702 184.556 110.614 174.731 107.858 188.001C104.983 201.818 128.886 198.266 140.54 196.317C165.405 192.159 169.705 188.821 163.35 187.514L148.702 184.556ZM154.642 205.833C154.642 205.833 117.814 192.017 113.656 204.918C109.343 218.343 133.471 217.357 145.268 216.656C170.442 215.159 175.075 212.308 168.898 210.324L154.642 205.833ZM129.943 98.0578C129.943 98.0578 113.121 45.7858 94.0417 55.2898C74.1664 65.1739 97.1304 88.7438 108.607 100.018C133.103 124.099 140.683 125.786 137.463 117.375L129.943 98.0578Z" fill="#92E3A9"/>
<path opacity="0.65" d="M148.108 131.155C145.221 138.283 142.274 132.545 142.738 102.75C142.952 88.7795 143.926 60.2437 159.37 66.5282C174.208 72.5633 154.618 114.749 154.618 114.749L148.108 131.155ZM169.313 135.432C169.313 135.432 201.52 101.871 189.438 91.3456C176.869 80.3922 166.676 107.063 161.924 120.202C151.814 148.227 152.741 154.654 157.778 148.809L169.313 135.432ZM176.109 165.536C176.109 165.536 205.583 144.556 197.873 134.755C189.854 124.562 178.2 143.463 172.663 152.825C160.867 172.795 160.665 177.773 165.345 174.102L176.109 165.536ZM184.14 195.509C184.14 195.509 213.626 174.529 205.916 164.728C197.897 154.535 186.23 173.448 180.706 182.798C168.909 202.768 168.696 207.746 173.388 204.075L184.14 195.509ZM132.664 135.147C132.664 135.147 91.3568 113.68 84.6446 128.233C77.6591 143.368 106.124 145.661 120.059 146.516C149.759 148.358 155.699 145.673 148.69 142.465L132.664 135.147ZM138.473 158.788C138.473 158.788 93.7209 145.946 90.0381 161.568C86.2008 177.796 114.547 174.387 128.387 172.462C157.897 168.34 163.088 164.55 155.628 162.792L138.473 158.788ZM148.702 184.556C148.702 184.556 110.614 174.731 107.858 188.001C104.983 201.818 128.886 198.266 140.54 196.317C165.405 192.159 169.705 188.821 163.35 187.514L148.702 184.556ZM154.642 205.833C154.642 205.833 117.814 192.017 113.656 204.918C109.343 218.343 133.471 217.357 145.268 216.656C170.442 215.159 175.075 212.308 168.898 210.324L154.642 205.833ZM129.943 98.0578C129.943 98.0578 113.121 45.7858 94.0417 55.2898C74.1664 65.1739 97.1304 88.7438 108.607 100.018C133.103 124.099 140.683 125.786 137.463 117.375L129.943 98.0578Z" fill="#E5E5E5"/>
<path d="M102.023 73.918C102.023 73.918 144.257 125.442 154.367 151.233C165.973 180.933 173.695 215.005 175.264 242.709" stroke="#CCCCCC" stroke-width="1.25197" stroke-linecap="round" stroke-linejoin="round"/>
<path d="M145.957 134.41L151.826 85.2744" stroke="#CCCCCC" stroke-width="1.25197" stroke-linecap="round" stroke-linejoin="round"/>
<path d="M154.367 151.232L175.609 109.938" stroke="#CCCCCC" stroke-width="1.25197" stroke-linecap="round" stroke-linejoin="round"/>
<path d="M151.256 145.114L106.766 136.05" stroke="#CCCCCC" stroke-width="1.25197" stroke-linecap="round" stroke-linejoin="round"/>
<path d="M162.719 174.672L188.879 144.865" stroke="#CCCCCC" stroke-width="1.25197" stroke-linecap="round" stroke-linejoin="round"/>
<path d="M159.061 164.859L125.477 164.562" stroke="#CCCCCC" stroke-width="1.25197" stroke-linecap="round" stroke-linejoin="round"/>
<path d="M165.537 189.236L139.77 190.258" stroke="#CCCCCC" stroke-width="1.25197" stroke-linecap="round" stroke-linejoin="round"/>
<path d="M170.82 204.799L184.625 186.421" stroke="#CCCCCC" stroke-width="1.25197" stroke-linecap="round" stroke-linejoin="round"/>
<path d="M171.831 211.642L141.703 210.146" stroke="#CCCCCC" stroke-width="1.25197" stroke-linecap="round" stroke-linejoin="round"/>
<path d="M292.426 178.498C287.234 180.458 288.862 176.122 304.9 161.676C312.432 154.928 328.101 141.48 332.343 152.73C336.429 163.588 304.377 173.924 304.377 173.924L292.426 178.498ZM300.564 191.851C300.564 191.851 334.232 192.492 333.899 180.897C333.543 168.815 314.344 176.502 305.031 180.446C285.143 188.833 282.221 192.469 287.769 192.326L300.564 191.851ZM287.923 210.277C287.923 210.277 313.584 215.646 314.998 206.713C316.483 197.434 300.742 200.535 292.996 202.186C276.578 205.75 273.81 208.126 278.087 208.756L287.923 210.277ZM275.877 229.285C275.877 229.285 301.526 234.643 302.951 225.721C304.436 216.442 288.696 219.531 280.95 221.194C264.532 224.758 261.764 227.075 266.04 227.752L275.877 229.285ZM282.744 172.261C282.744 172.261 273.881 139.769 262.845 143.345C251.369 147.075 264.14 163.339 270.531 171.18C284.169 187.907 288.482 189.689 286.759 184.414L282.744 172.261ZM273.026 186.968C273.026 186.968 257.796 156.817 247.721 162.543C237.208 168.483 252.96 181.883 260.789 188.287C277.493 201.973 282.066 202.864 279.322 198.028L273.026 186.968ZM264.341 205.073C264.341 205.073 250.786 179.935 242.352 184.996C233.596 190.259 247.222 201.224 253.994 206.463C268.428 217.654 272.313 218.343 269.889 214.28L264.341 205.073ZM255.954 218.711C255.954 218.711 245.203 192.326 236.305 196.46C227.038 200.761 239.417 213.092 245.595 219.032C258.758 231.684 262.559 232.742 260.576 228.536L255.954 218.711ZM301.098 152.611C301.098 152.611 320.641 117.981 306.207 112.492C291.178 106.778 289.931 130.574 289.575 142.192C288.814 167.057 291.642 171.892 294.517 166.071L301.098 152.611Z" fill="#92E3A9"/>
<path opacity="0.65" d="M292.426 178.498C287.234 180.458 288.862 176.122 304.9 161.676C312.432 154.928 328.101 141.48 332.343 152.73C336.429 163.588 304.377 173.924 304.377 173.924L292.426 178.498ZM300.564 191.851C300.564 191.851 334.232 192.492 333.899 180.897C333.543 168.815 314.344 176.502 305.031 180.446C285.143 188.833 282.221 192.469 287.769 192.326L300.564 191.851ZM287.923 210.277C287.923 210.277 313.584 215.646 314.998 206.713C316.483 197.434 300.742 200.535 292.996 202.186C276.578 205.75 273.81 208.126 278.087 208.756L287.923 210.277ZM275.877 229.285C275.877 229.285 301.526 234.643 302.951 225.721C304.436 216.442 288.696 219.531 280.95 221.194C264.532 224.758 261.764 227.075 266.04 227.752L275.877 229.285ZM282.744 172.261C282.744 172.261 273.881 139.769 262.845 143.345C251.369 147.075 264.14 163.339 270.531 171.18C284.169 187.907 288.482 189.689 286.759 184.414L282.744 172.261ZM273.026 186.968C273.026 186.968 257.796 156.817 247.721 162.543C237.208 168.483 252.96 181.883 260.789 188.287C277.493 201.973 282.066 202.864 279.322 198.028L273.026 186.968ZM264.341 205.073C264.341 205.073 250.786 179.935 242.352 184.996C233.596 190.259 247.222 201.224 253.994 206.463C268.428 217.654 272.313 218.343 269.889 214.28L264.341 205.073ZM255.954 218.711C255.954 218.711 245.203 192.326 236.305 196.46C227.038 200.761 239.417 213.092 245.595 219.032C258.758 231.684 262.559 232.742 260.576 228.536L255.954 218.711ZM301.098 152.611C301.098 152.611 320.641 117.981 306.207 112.492C291.178 106.778 289.931 130.574 289.575 142.192C288.814 167.057 291.642 171.892 294.517 166.071L301.098 152.611Z" fill="white"/>
<path d="M300.219 125.845C300.219 125.845 293.578 173.638 284.775 191.696C274.712 212.438 260.349 233.276 246.414 247.745" stroke="#CCCCCC" stroke-width="1.25197" stroke-linecap="round" stroke-linejoin="round"/>
<path d="M289.633 178.949L318.668 157.921" stroke="#CCCCCC" stroke-width="1.25197" stroke-linecap="round" stroke-linejoin="round"/>
<path d="M284.824 191.695L317.233 182.69" stroke="#CCCCCC" stroke-width="1.25197" stroke-linecap="round" stroke-linejoin="round"/>
<path d="M286.556 187.039L269.496 158.907" stroke="#CCCCCC" stroke-width="1.25197" stroke-linecap="round" stroke-linejoin="round"/>
<path d="M276.461 207.662L305.175 206.926" stroke="#CCCCCC" stroke-width="1.25197" stroke-linecap="round" stroke-linejoin="round"/>
<path d="M279.894 200.891L263.535 182.881" stroke="#CCCCCC" stroke-width="1.25197" stroke-linecap="round" stroke-linejoin="round"/>
<path d="M270.093 216.323L256.895 203.112" stroke="#CCCCCC" stroke-width="1.25197" stroke-linecap="round" stroke-linejoin="round"/>
<path d="M264.426 226.778L280.987 225.079" stroke="#CCCCCC" stroke-width="1.25197" stroke-linecap="round" stroke-linejoin="round"/>
<path d="M261.276 230.674L247.27 213.911" stroke="#CCCCCC" stroke-width="1.25197" stroke-linecap="round" stroke-linejoin="round"/>
<path d="M313.084 352.705H119.69C118.43 352.705 117.221 353.206 116.33 354.097C115.439 354.988 114.938 356.197 114.938 357.457V450.311C114.93 450.941 115.047 451.565 115.282 452.148C115.518 452.732 115.866 453.263 116.309 453.71C116.751 454.158 117.277 454.513 117.858 454.756C118.438 454.998 119.061 455.123 119.69 455.123H293.364L317.896 483.35V357.422C317.891 356.796 317.763 356.177 317.518 355.6C317.274 355.024 316.918 354.502 316.47 354.064C316.023 353.625 315.494 353.28 314.913 353.047C314.332 352.814 313.71 352.698 313.084 352.705Z" fill="#263238"/>
<path d="M247.102 405.809C247.099 403.727 247.715 401.691 248.87 399.958C250.025 398.226 251.668 396.875 253.591 396.076C255.514 395.278 257.631 395.067 259.673 395.472C261.716 395.877 263.593 396.879 265.066 398.35C266.539 399.822 267.543 401.697 267.95 403.739C268.357 405.781 268.149 407.898 267.353 409.822C266.557 411.746 265.207 413.391 263.476 414.548C261.745 415.705 259.71 416.323 257.627 416.323C254.838 416.323 252.162 415.216 250.189 413.244C248.215 411.273 247.105 408.599 247.102 405.809Z" fill="white"/>
<path d="M202.031 405.809C202.029 403.726 202.645 401.69 203.8 399.957C204.956 398.224 206.6 396.873 208.523 396.075C210.447 395.277 212.565 395.067 214.607 395.473C216.65 395.879 218.527 396.882 220 398.354C221.472 399.827 222.475 401.704 222.881 403.747C223.287 405.789 223.077 407.907 222.279 409.831C221.481 411.754 220.13 413.398 218.397 414.554C216.665 415.71 214.628 416.325 212.545 416.323C209.757 416.323 207.082 415.215 205.111 413.243C203.139 411.272 202.031 408.597 202.031 405.809Z" fill="white"/>
<path d="M156.957 405.809C156.957 403.729 157.574 401.697 158.729 399.968C159.884 398.239 161.526 396.891 163.447 396.095C165.369 395.299 167.482 395.091 169.522 395.497C171.561 395.903 173.435 396.904 174.905 398.374C176.376 399.845 177.377 401.718 177.783 403.758C178.188 405.797 177.98 407.911 177.184 409.832C176.389 411.753 175.041 413.395 173.312 414.551C171.583 415.706 169.55 416.323 167.471 416.323C164.682 416.323 162.008 415.215 160.036 413.243C158.065 411.271 156.957 408.597 156.957 405.809Z" fill="white"/>
<path d="M420.111 272.337C420.111 272.337 421.726 265.601 418.768 260.457C415.81 255.313 413.375 258.841 411.224 259.91C409.074 260.98 405.035 257.534 403.419 259.649C401.804 261.764 403.692 263.415 402.885 264.757C402.077 266.1 396.422 264.484 395.614 268.321C394.806 272.159 399.107 272.087 397.491 273.964C395.875 275.842 392.109 276.34 393.998 279.904C395.887 283.468 399.107 282.601 399.107 283.944C399.107 285.286 395.614 287.983 397.764 290.668C399.915 293.353 402.885 291.476 403.704 292.83C404.524 294.184 405.581 297.938 407.197 298.77C408.813 299.602 412.852 298.497 416.618 291.773C420.384 285.049 420.111 272.337 420.111 272.337Z" fill="#263238" stroke="#263238" stroke-linecap="round" stroke-linejoin="round"/>
<path d="M456.783 325.001C455.916 326.866 448.657 331.844 448.657 331.844C448.649 331.024 448.824 330.213 449.168 329.468C449.691 328.672 450.059 327.9 450.356 327.425C450.442 326.127 450.015 324.847 449.168 323.861C448.182 322.768 447.398 325.512 446.97 327.342C446.542 329.171 443.679 331.951 443.81 333.282C444.052 334.845 444.373 336.396 444.772 337.927L436.635 344.52C434.08 346.647 426.762 350.46 426.762 350.46C425.949 347.652 424.863 344.931 423.519 342.334C420.67 336.834 417.525 331.492 414.098 326.332C411.235 330.323 413.492 335.836 415.108 342.619C416.724 349.403 423.495 363.421 423.495 363.421C427.443 362.196 431.132 360.255 434.377 357.695C440.412 353.157 448.431 340.754 448.431 340.754C448.431 340.754 450.807 339.697 453.742 338.687C456.676 337.677 456.248 336.822 456.724 333.935C457.199 331.048 459.658 327.116 459.515 325.619C459.373 324.122 457.65 323.136 456.783 325.001Z" fill="white" stroke="#263238" stroke-linecap="round" stroke-linejoin="round"/>
<path d="M409.61 291.713C409.61 291.713 408.018 301.656 406.676 306.765C405.333 311.873 403.682 311.6 403.682 311.6C400.277 309.86 396.476 309.041 392.657 309.224C387.002 309.759 380.54 315.948 383.236 329.955C385.933 343.961 394.807 357.409 394.807 357.409L390.234 374.362C390.234 374.362 385.814 388.618 382.322 401.84C378.829 415.063 373.946 434.926 371.784 438.965C369.622 443.005 361.543 448.469 355.081 460.801C348.618 473.132 339.637 496.31 339.637 496.31L342.013 499.007C342.013 499.007 370.275 467.501 377.546 459.969C384.816 452.437 396.661 432.776 399.88 421.205C401.81 414.268 404.786 407.666 408.707 401.627C408.707 401.627 412.806 425.517 410.655 432.241C408.505 438.965 404.715 450.548 405 458.888C405.286 467.228 410.691 498.959 410.691 498.959L415.538 499.221C415.538 499.221 420.385 476.34 424.412 455.075C428.44 433.81 430.614 424.662 430.614 402.803C430.614 380.944 423.343 355.699 421.727 352.194C420.112 348.689 419.839 347.893 419.839 347.893C419.839 347.893 423.605 343.046 423.605 338.734C423.605 334.421 418.769 326.854 418.769 326.854C418.769 326.854 420.92 322.553 419.031 319.049C418.055 317.075 416.468 315.471 414.504 314.475L416.346 305.054L409.61 291.713Z" fill="white" stroke="#263238" stroke-linecap="round" stroke-linejoin="round"/>
<path d="M392.681 365.286L390.234 374.351C390.234 374.351 385.814 388.607 382.322 401.829C378.829 415.051 373.946 434.915 371.784 438.954C369.622 442.993 361.543 448.458 355.081 460.789C348.618 473.121 339.637 496.299 339.637 496.299L342.013 498.996C342.013 498.996 370.275 467.49 377.546 459.958C384.816 452.426 396.661 432.765 399.88 421.193C401.81 414.256 404.786 407.654 408.707 401.615C408.707 401.615 412.806 425.506 410.655 432.23C408.505 438.954 404.715 450.537 405 458.877C405.286 467.217 410.691 498.96 410.691 498.96L415.538 499.221C415.538 499.221 420.385 476.34 424.412 455.075C428.44 433.81 430.614 424.662 430.614 402.803C430.614 388.464 427.466 372.616 424.852 362.411C407.864 366.189 398.169 366.248 392.681 365.286Z" fill="#263238" stroke="#263238" stroke-linecap="round" stroke-linejoin="round"/>
<path d="M409.812 401.616L418.913 390.08" stroke="white" stroke-width="0.75" stroke-linecap="round" stroke-linejoin="round"/>
<path d="M418.769 270.721C418.769 270.721 410.453 271.256 409.075 282.601C407.697 293.947 409.883 308.44 417.391 310.317C424.899 312.195 433.275 299.554 434.083 288.791C434.891 278.028 428.19 268.559 418.769 270.721Z" fill="white" stroke="#263238" stroke-linecap="round" stroke-linejoin="round"/>
<path d="M429.402 297.427C429.402 298.318 429.01 299.043 428.535 299.043C428.06 299.043 427.668 298.318 427.668 297.427C427.668 296.536 428.048 295.823 428.535 295.823C429.022 295.823 429.402 296.536 429.402 297.427Z" fill="#263238"/>
<path d="M422.582 294.338C422.582 295.217 422.202 295.942 421.727 295.942C421.251 295.942 420.859 295.217 420.859 294.338C420.859 293.459 421.24 292.723 421.727 292.723C422.214 292.723 422.582 293.435 422.582 294.338Z" fill="#263238"/>
<path d="M432.952 279.786C430.671 273.418 425.385 269.201 418.768 270.721C418.768 270.721 410.452 271.256 409.073 282.601C408.754 285.313 408.639 288.045 408.729 290.775L408.8 290.941C408.8 290.941 407.707 287.769 418.471 287.235C422.023 287.021 430.933 279.239 432.952 279.786Z" fill="#263238" stroke="#263238" stroke-linecap="round" stroke-linejoin="round"/>
<path d="M427.156 279.631C427.156 279.631 431.908 273.929 435.829 277.398C439.749 280.867 432.609 288.541 434.094 290.774C435.579 293.008 439.785 290.275 439.785 290.275C439.785 290.275 437.563 295.027 434.593 295.027C431.623 295.027 427.905 291.071 427.905 287.104C427.891 284.61 427.64 282.124 427.156 279.679" fill="#263238"/>
<path d="M427.156 279.631C427.156 279.631 431.908 273.929 435.829 277.398C439.749 280.867 432.609 288.541 434.094 290.774C435.579 293.008 439.785 290.275 439.785 290.275C439.785 290.275 437.563 295.027 434.593 295.027C431.623 295.027 427.905 291.071 427.905 287.104C427.891 284.61 427.64 282.124 427.156 279.679" stroke="#263238" stroke-linecap="round" stroke-linejoin="round"/>
<path d="M411.497 291.178C411.497 291.178 407.992 283.373 406.377 287.4C404.761 291.428 407.458 296.025 409.881 296.025" fill="white"/>
<path d="M411.497 291.178C411.497 291.178 407.992 283.373 406.377 287.4C404.761 291.428 407.458 296.025 409.881 296.025" stroke="#263238" stroke-linecap="round" stroke-linejoin="round"/>
<path d="M420.55 330.157C419.744 329.221 419.124 328.141 418.721 326.973C417.958 323.719 417.532 320.395 417.45 317.054L417.093 316.685C416.487 320.998 414.587 328.815 409.027 325.631C403.467 322.447 399.036 313.632 397.372 309.617C396.5 309.364 395.595 309.244 394.688 309.26C396.6 312.551 400.485 320.047 399.867 325.358C399.178 331.298 394.189 342.56 384.898 336.584C387.329 343.896 390.64 350.885 394.759 357.398L390.589 372.842C404.013 379.293 420.289 376.085 427.417 374.125C425.243 362.97 422.582 354.214 421.679 352.254C420.063 348.761 419.79 347.953 419.79 347.953C419.79 347.953 423.556 343.106 423.556 338.794C423.603 336.323 421.976 332.735 420.55 330.157Z" fill="#A8C8F1" stroke="#263238" stroke-linecap="round" stroke-linejoin="round"/>
<path d="M414.363 336.311C414.732 335.408 415.1 334.493 415.432 333.566" stroke="#263238" stroke-width="0.75" stroke-linecap="round" stroke-linejoin="round"/>
<path d="M399.762 361.033C405.018 354.208 409.515 346.83 413.174 339.031" stroke="#263238" stroke-width="0.75" stroke-linecap="round" stroke-linejoin="round"/>
<path d="M401.922 361.437C401.922 361.437 405.486 358.123 411.283 352.896" stroke="#263238" stroke-width="0.75" stroke-linecap="round" stroke-linejoin="round"/>
<path d="M407.148 360.059L417.888 352.622" stroke="#263238" stroke-width="0.75" stroke-linecap="round" stroke-linejoin="round"/>
<path d="M395.341 311.089C395.341 311.089 392.11 308.131 385.112 312.978C378.115 317.825 357.384 332.093 356.6 335.051C355.816 338.009 387.559 367.353 389.983 368.968C392.407 370.584 395.923 368.434 395.923 368.434C395.923 368.434 405.688 369.622 406.235 368.541C406.781 367.46 402.493 362.375 399.796 361.033C397.099 359.69 390.648 363.409 390.648 363.409C390.648 363.409 377.58 348.737 374.919 343.616C373.829 341.37 372.57 339.21 371.153 337.154L392.692 324.775" fill="white"/>
<path d="M395.341 311.089C395.341 311.089 392.11 308.131 385.112 312.978C378.115 317.825 357.384 332.093 356.6 335.051C355.816 338.009 387.559 367.353 389.983 368.968C392.407 370.584 395.923 368.434 395.923 368.434C395.923 368.434 405.688 369.622 406.235 368.541C406.781 367.46 402.493 362.375 399.796 361.033C397.099 359.69 390.648 363.409 390.648 363.409C390.648 363.409 377.58 348.737 374.919 343.616C373.829 341.37 372.57 339.21 371.153 337.154L392.692 324.775" stroke="#263238" stroke-linecap="round" stroke-linejoin="round"/>
<path d="M394.914 365.903L397.979 365.606L403.622 368.279" stroke="#263238" stroke-width="0.75" stroke-linecap="round" stroke-linejoin="round"/>
<path d="M395.008 363.825C395.008 363.825 397.978 362.934 399.463 363.825C400.948 364.716 404.809 366.795 404.809 366.795" stroke="#263238" stroke-width="0.75" stroke-linecap="round" stroke-linejoin="round"/>
<path d="M395.793 362.102C395.793 362.102 398.965 361.591 400.236 362.102C401.52 362.801 402.717 363.65 403.8 364.632" stroke="#263238" stroke-width="0.75" stroke-linecap="round" stroke-linejoin="round"/>
<path d="M389.152 326.973H395.615" stroke="#263238" stroke-linecap="round" stroke-linejoin="round"/>
<path d="M453.817 318.122L447.283 333.495C447.165 333.768 447.115 334.065 447.138 334.361C447.161 334.657 447.255 334.943 447.413 335.194L448.506 336.952C448.68 337.234 448.927 337.464 449.221 337.617C449.515 337.771 449.844 337.842 450.175 337.824C450.506 337.806 450.826 337.699 451.101 337.514C451.376 337.329 451.596 337.073 451.738 336.774L459.044 321.449C459.211 321.099 459.264 320.706 459.196 320.324C459.128 319.943 458.941 319.592 458.664 319.322L456.799 317.528C456.585 317.319 456.323 317.165 456.035 317.079C455.748 316.994 455.445 316.98 455.151 317.038C454.857 317.097 454.582 317.226 454.35 317.415C454.117 317.604 453.934 317.847 453.817 318.122Z" fill="#263238"/>
<path d="M445.25 340.041C445.865 338.481 446.932 337.14 448.315 336.192C449.921 335.426 451.617 334.867 453.364 334.529C453.364 334.529 455.158 328.268 455.989 329.23C456.821 330.193 456.488 335.016 456.488 335.016" fill="white"/>
<path d="M445.25 340.041C445.865 338.481 446.932 337.14 448.315 336.192C449.921 335.426 451.617 334.867 453.364 334.529C453.364 334.529 455.158 328.268 455.989 329.23C456.821 330.193 456.488 335.016 456.488 335.016" stroke="#263238" stroke-linecap="round" stroke-linejoin="round"/>
<path d="M459.209 327.151C458.917 326.858 458.525 326.686 458.111 326.668C457.697 326.651 457.292 326.789 456.976 327.056C455.883 328.054 454.208 330.882 452.426 332.39" stroke="#263238" stroke-linecap="round" stroke-linejoin="round"/>
<path d="M339.625 496.299C339.625 496.299 329.859 501.479 326.366 506.575C322.874 511.672 325.725 514.523 332.413 512.301C339.102 510.08 342.048 498.996 342.048 498.996L339.625 496.299Z" fill="white" stroke="#263238" stroke-linecap="round" stroke-linejoin="round"/>
<path d="M410.691 498.96C410.691 498.96 411.285 506.539 414.148 509.402C417.012 512.265 426.551 516.4 427.216 512.895C427.882 509.39 416.726 501.134 416.726 501.134L415.538 499.221L411.974 498.9L410.691 498.96Z" fill="white" stroke="#263238" stroke-linecap="round" stroke-linejoin="round"/>
<path d="M428.369 293.531C427.703 293.797 427.109 294.219 426.638 294.76C426.167 295.301 425.832 295.947 425.66 296.644C425.178 298.126 424.993 299.688 425.114 301.241L421.336 300.707" stroke="#263238" stroke-linecap="round" stroke-linejoin="round"/>
<path d="M417.273 301.657C417.541 302.418 418.017 303.087 418.647 303.589C419.278 304.092 420.037 304.406 420.837 304.497" stroke="#263238" stroke-linecap="round" stroke-linejoin="round"/>
<path d="M419.98 290.288C419.98 290.288 423.093 288.126 425.79 290.157" stroke="#263238" stroke-linecap="round" stroke-linejoin="round"/>
<path d="M428.367 293.53C428.367 293.53 432.288 291.915 432.288 294.885" stroke="#263238" stroke-linecap="round" stroke-linejoin="round"/>
<path d="M313.084 206.546H119.689C118.429 206.546 117.22 207.047 116.329 207.938C115.438 208.829 114.938 210.038 114.938 211.298V337.226L139.47 308.999H313.084C313.713 308.999 314.336 308.874 314.916 308.632C315.497 308.389 316.023 308.034 316.465 307.586C316.907 307.139 317.256 306.608 317.491 306.024C317.727 305.441 317.844 304.817 317.836 304.188V211.357C317.844 210.728 317.727 210.104 317.491 209.521C317.256 208.937 316.907 208.406 316.465 207.959C316.023 207.511 315.497 207.156 314.916 206.913C314.336 206.671 313.713 206.546 313.084 206.546Z" fill="#263238" stroke="#263238" stroke-miterlimit="10"/>
<path d="M185.672 259.65C185.672 257.567 185.055 255.532 183.898 253.801C182.741 252.07 181.096 250.72 179.172 249.924C177.248 249.128 175.131 248.92 173.089 249.327C171.047 249.734 169.171 250.738 167.7 252.211C166.228 253.684 165.227 255.561 164.822 257.604C164.417 259.646 164.627 261.763 165.426 263.686C166.224 265.609 167.575 267.252 169.308 268.407C171.04 269.562 173.076 270.178 175.159 270.175C176.54 270.175 177.908 269.903 179.185 269.374C180.461 268.845 181.621 268.069 182.597 267.092C183.574 266.114 184.348 264.954 184.876 263.677C185.403 262.4 185.674 261.031 185.672 259.65Z" fill="white" stroke="#263238" stroke-miterlimit="10"/>
<path d="M230.742 259.649C230.74 257.57 230.121 255.539 228.965 253.811C227.808 252.084 226.165 250.738 224.244 249.944C222.323 249.15 220.209 248.944 218.17 249.351C216.132 249.758 214.259 250.76 212.79 252.231C211.321 253.702 210.321 255.575 209.916 257.614C209.511 259.654 209.72 261.767 210.516 263.687C211.312 265.608 212.66 267.249 214.389 268.404C216.117 269.559 218.15 270.175 220.229 270.175C221.61 270.175 222.978 269.903 224.255 269.374C225.531 268.845 226.691 268.069 227.667 267.091C228.644 266.114 229.418 264.953 229.946 263.676C230.473 262.4 230.744 261.031 230.742 259.649Z" fill="white" stroke="#263238" stroke-miterlimit="10"/>
<path d="M275.829 259.65C275.829 257.568 275.211 255.533 274.055 253.802C272.898 252.071 271.254 250.722 269.331 249.925C267.408 249.129 265.291 248.92 263.25 249.326C261.208 249.732 259.332 250.735 257.86 252.207C256.388 253.679 255.386 255.554 254.98 257.596C254.573 259.638 254.782 261.754 255.579 263.678C256.375 265.601 257.724 267.245 259.455 268.401C261.186 269.558 263.221 270.175 265.303 270.175C266.685 270.175 268.054 269.903 269.331 269.374C270.608 268.845 271.768 268.07 272.746 267.092C273.723 266.115 274.499 264.955 275.027 263.678C275.556 262.401 275.829 261.032 275.829 259.65Z" fill="white" stroke="#263238" stroke-miterlimit="10"/>
<path d="M171.76 155.485L166.164 168.435C165.969 168.785 165.85 169.173 165.816 169.572C165.781 169.972 165.83 170.374 165.962 170.753C166.093 171.132 166.302 171.479 166.577 171.771C166.851 172.064 167.184 172.295 167.554 172.45L170.975 173.947C174.159 174.375 177.212 171.571 177.997 170.549L184.934 162.079L171.76 155.485Z" fill="white" stroke="#263238" stroke-linecap="round" stroke-linejoin="round"/>
<path d="M211.595 117.731L187.609 127.353V197.552H239.43V128.625L216.799 117.22L211.595 117.731Z" fill="#A8C8F1" stroke="#263238" stroke-linecap="round" stroke-linejoin="round"/>
<path d="M227.999 125.714C226.526 124.027 226.526 117.255 226.526 117.255L220.384 115.354L215.204 115.925L210.025 115.354L203.895 117.255C203.895 117.255 203.895 124.027 202.41 125.714C200.925 127.401 197.551 130.787 197.551 130.787C197.551 130.787 198.394 131.844 201.115 128.886C202.6 127.217 204.395 125.853 206.401 124.87C206.386 126.083 206.756 127.268 207.459 128.256C209.875 129.98 212.385 131.566 214.979 133.008V133.234L215.169 133.115L215.371 133.234V133.056C217.966 131.616 220.477 130.03 222.891 128.304C223.593 127.316 223.964 126.13 223.948 124.918C225.956 125.897 227.753 127.261 229.235 128.933C231.991 131.891 232.799 130.834 232.799 130.834C232.799 130.834 229.484 127.413 227.999 125.714Z" fill="white" stroke="#263238" stroke-linecap="round" stroke-linejoin="round"/>
<path d="M208.922 113.098V121.212L215.408 133.258L221.432 121.675V113.335L208.922 113.098Z" fill="white" stroke="#263238" stroke-linecap="round" stroke-linejoin="round"/>
<path d="M203.361 99.6618C203.361 99.6618 201.959 93.8525 200.581 96.6562C199.203 99.4599 203.361 105.222 203.361 105.222V99.6618Z" fill="white" stroke="#263238" stroke-linecap="round" stroke-linejoin="round"/>
<path d="M226.988 99.4352C226.988 99.4352 230.232 95.4911 230.695 98.0453C231.158 100.599 227.452 105.173 227.452 105.173L226.988 99.4352Z" fill="white" stroke="#263238" stroke-linecap="round" stroke-linejoin="round"/>
<path d="M215.406 117.268C212.211 117.268 209.147 115.999 206.888 113.74C204.629 111.48 203.359 108.416 203.359 105.222V81.1289H227.452V105.222C227.452 108.416 226.183 111.48 223.924 113.74C221.665 115.999 218.601 117.268 215.406 117.268Z" fill="white" stroke="#263238" stroke-linecap="round" stroke-linejoin="round"/>
<path d="M207.719 100.125C207.719 100.125 209.548 102.323 212.72 100.125Z" fill="white"/>
<path d="M207.719 100.125C207.719 100.125 209.548 102.323 212.72 100.125" stroke="#263238" stroke-linecap="round" stroke-linejoin="round"/>
<path d="M217.734 100.125C217.734 100.125 219.564 102.323 222.748 100.125Z" fill="white"/>
<path d="M217.734 100.125C217.734 100.125 219.564 102.323 222.748 100.125" stroke="#263238" stroke-linecap="round" stroke-linejoin="round"/>
<path d="M207.41 96.4891C207.41 96.4891 209.24 93.127 213.208 95.6693" stroke="#263238" stroke-linecap="round" stroke-linejoin="round"/>
<path d="M216.773 95.7769C216.773 95.7769 217.379 94.3512 220.135 94.3512C220.844 94.3055 221.547 94.5015 222.13 94.9072C222.712 95.3129 223.14 95.9043 223.343 96.5847" stroke="#263238" stroke-linecap="round" stroke-linejoin="round"/>
<path d="M213.207 106.659L215.143 107.776L216.866 106.766" stroke="#263238" stroke-linecap="round" stroke-linejoin="round"/>
<path d="M210.559 108.286C211.158 109.009 212.005 109.483 212.935 109.617" stroke="#263238" stroke-linecap="round" stroke-linejoin="round"/>
<path d="M226.525 89.2424L226.988 99.4355C226.988 99.4355 227.214 100.825 227.677 98.0455C228.14 95.2656 230.469 87.6149 229.994 85.2983C229.519 82.9817 226.287 82.9223 224.897 83.6826C223.507 84.4429 226.525 89.2424 226.525 89.2424Z" fill="#263238" stroke="#263238" stroke-linecap="round" stroke-linejoin="round"/>
<path d="M203.36 96.6558C203.36 96.6558 201.97 85.9638 201.269 80.4396C200.568 74.9154 207.993 74.4164 207.993 74.4164C207.993 74.4164 213.09 70.2346 222.82 69.0823C232.549 67.9299 237.183 71.4583 236.945 73.9531C236.707 76.4479 231.159 78.3487 231.159 78.3487C231.159 78.3487 237.872 79.0496 233.939 82.7562C230.007 86.4627 226.289 86.2251 226.289 86.2251C226.289 86.2251 229.769 87.8527 227.679 89.005C225.588 90.1574 210.773 85.7618 210.773 85.7618C210.773 85.7618 211.237 88.5417 209.146 89.2426C207.055 89.9436 206.366 89.706 206.14 90.8583C205.914 92.0107 205.903 98.9724 204.75 99.6614C203.598 100.35 203.36 96.6558 203.36 96.6558Z" fill="#263238" stroke="#263238" stroke-linecap="round" stroke-linejoin="round"/>
<path d="M187.475 127.65L168.871 158.063L185.598 164.906L187.475 155.271V127.65Z" fill="white" stroke="#263238" stroke-linecap="round" stroke-linejoin="round"/>
<path d="M258.577 156.495L263.602 165.536C263.797 165.886 263.916 166.274 263.951 166.673C263.986 167.073 263.936 167.475 263.805 167.854C263.674 168.233 263.464 168.58 263.19 168.873C262.915 169.165 262.582 169.396 262.212 169.551L255.084 172.533C254.496 172.777 253.843 172.817 253.23 172.647C252.616 172.477 252.077 172.107 251.699 171.595L245.414 163.089L258.577 156.495Z" fill="white" stroke="#263238" stroke-linecap="round" stroke-linejoin="round"/>
<path d="M239.43 128.625L260.6 157.006L244.134 164.61L239.43 156.555V128.625Z" fill="white" stroke="#263238" stroke-linecap="round" stroke-linejoin="round"/>
<path d="M165.713 168.542C166.366 166.475 167.198 164.978 174.504 161.83C181.81 158.682 192.609 155.438 195.698 152.183C196.22 151.126 205.689 141.349 205.689 141.349C205.689 141.349 209.051 140.778 209.669 140.576C211.236 140.463 212.811 140.595 214.337 140.968C215.205 141.277 215.288 141.764 214.931 141.978C213.978 142.222 213.01 142.4 212.033 142.513L211.736 142.667C212.974 143.676 214.08 144.838 215.026 146.124C215.133 146.457 215.395 146.493 214.729 146.718C214.064 146.944 211.95 145.435 211.95 145.435H210.001L212.472 146.944C212.472 146.944 214.848 149.237 214.029 149.748C213.209 150.259 212.959 150.235 212.841 149.748C212.722 149.261 211.094 148.227 211.094 148.227L207.768 147.871C208.821 148.496 209.836 149.182 210.809 149.926C211.282 150.447 211.715 151.003 212.104 151.589C212.104 151.589 211.807 152.551 210.738 151.922C209.669 151.292 207.922 150.164 207.922 150.164L206.485 149.902C204.993 151.576 203.407 153.163 201.733 154.654C200.974 155.081 200.145 155.371 199.285 155.51V155.605C195.43 160.448 190.957 164.765 185.98 168.447C178.424 173.817 172.912 176.05 170.381 175.575C167.851 175.1 165.047 170.609 165.713 168.542Z" fill="white" stroke="#263238" stroke-linecap="round" stroke-linejoin="round"/>
<path d="M210.025 145.411L205.914 144.698" stroke="#263238" stroke-width="0.75" stroke-linecap="round" stroke-linejoin="round"/>
<path d="M207.767 147.894L205.105 147.55" stroke="#263238" stroke-width="0.75" stroke-linecap="round" stroke-linejoin="round"/>
<path d="M211.773 142.643L207.223 142.536" stroke="#263238" stroke-width="0.75" stroke-linecap="round" stroke-linejoin="round"/>
<path d="M184.508 192.456H242.589V192.955C242.589 198.469 240.399 203.757 236.5 207.656C232.601 211.555 227.313 213.745 221.799 213.745H205.298C199.784 213.745 194.496 211.555 190.597 207.656C186.698 203.757 184.508 198.469 184.508 192.955V192.456Z" fill="#263238" stroke="#263238" stroke-linecap="round" stroke-linejoin="round"/>
<path d="M225.219 264.615C225.219 264.615 227.927 273.062 231.301 276.436C234.675 279.81 240.425 280.499 240.093 274.416C239.76 268.334 231.978 261.241 231.978 261.241C231.978 261.241 225.219 261.574 225.219 264.615Z" fill="white" stroke="#263238" stroke-linecap="round" stroke-linejoin="round"/>
<path d="M231.98 261.241C231.98 261.241 212.39 223.059 206.973 211.904C201.555 200.748 195.829 188.928 190.424 186.956C185.019 184.983 176.572 190.662 177.926 200.463C179.28 210.264 192.111 227.157 198.193 234.915C204.276 242.673 225.22 264.615 225.22 264.615C225.22 264.615 229.283 265.969 231.98 261.241Z" fill="#263238" stroke="#263238" stroke-linecap="round" stroke-linejoin="round"/>
<path d="M198.169 264.615C198.169 264.615 195.46 273.062 192.086 276.436C188.712 279.81 182.962 280.499 183.295 274.416C183.628 268.334 191.409 261.241 191.409 261.241C191.409 261.241 198.169 261.574 198.169 264.615Z" fill="white" stroke="#263238" stroke-linecap="round" stroke-linejoin="round"/>
<path d="M191.41 261.241C191.41 261.241 211 223.059 216.358 211.904C221.716 200.748 227.513 188.928 232.919 186.956C238.324 184.983 246.771 190.662 245.417 200.463C244.062 210.264 231.232 227.157 225.149 234.915C219.067 242.673 198.122 264.615 198.122 264.615C198.122 264.615 194.107 265.969 191.41 261.241Z" fill="#263238" stroke="#263238" stroke-linecap="round" stroke-linejoin="round"/>
<path d="M245.155 201.96C244.525 200.95 243.183 200.273 240.795 199.798C237.718 199.18 230.471 199.311 222.488 199.798C220.432 203.564 218.401 207.757 216.405 211.856C211 223.011 191.457 261.193 191.457 261.193C194.154 265.945 198.217 264.567 198.217 264.567C198.217 264.567 219.161 242.601 225.244 234.867C230.97 227.502 242.826 211.903 245.155 201.96Z" stroke="#263238" stroke-linecap="round" stroke-linejoin="round"/>
<path d="M210.039 143.831H218.854C219.534 143.831 220.187 144.101 220.668 144.583C221.149 145.064 221.42 145.717 221.42 146.397V166.914C221.42 167.516 221.181 168.093 220.755 168.518C220.33 168.944 219.752 169.183 219.151 169.183H209.742C209.14 169.183 208.563 168.944 208.137 168.518C207.712 168.093 207.473 167.516 207.473 166.914V146.385C207.476 145.707 207.748 145.057 208.228 144.578C208.709 144.1 209.36 143.831 210.039 143.831Z" fill="#263238"/>
<path d="M265.328 167.651C264.045 165.905 262.797 164.8 254.862 164.087C246.926 163.374 235.664 163.79 231.696 161.711C230.864 160.879 218.782 154.583 218.782 154.583C218.782 154.583 215.396 155.118 214.755 155.118C213.232 155.51 211.781 156.14 210.454 156.983C209.73 157.541 209.813 158.028 210.217 158.111C211.195 158.046 212.168 157.911 213.127 157.707H213.46C212.608 159.046 211.929 160.487 211.44 161.996C211.44 162.353 211.215 162.471 211.915 162.471C212.616 162.471 214.137 160.369 214.137 160.369L216.002 159.775L214.137 161.996C214.137 161.996 212.616 164.919 213.543 165.156C214.47 165.394 214.731 165.263 214.731 164.8C215.021 164.081 215.422 163.411 215.919 162.816L218.96 161.414C218.159 162.341 217.417 163.317 216.739 164.336C216.453 164.978 216.219 165.642 216.038 166.32C216.038 166.32 216.62 167.14 217.44 166.202C218.259 165.263 219.542 163.636 219.542 163.636L220.825 162.935C222.786 164.065 224.814 165.077 226.896 165.964C227.752 166.122 228.63 166.122 229.486 165.964V166.047C234.686 169.406 240.301 172.073 246.189 173.983C255.064 176.668 261.027 177.024 263.237 175.741C265.447 174.458 266.623 169.409 265.328 167.651Z" fill="white" stroke="#263238" stroke-linecap="round" stroke-linejoin="round"/>
<path d="M215.965 159.833L219.636 157.861" stroke="#263238" stroke-width="0.75" stroke-linecap="round" stroke-linejoin="round"/>
<path d="M218.887 161.473L221.298 160.297" stroke="#263238" stroke-width="0.75" stroke-linecap="round" stroke-linejoin="round"/>
<path d="M213.422 157.766L217.699 156.222" stroke="#263238" stroke-width="0.75" stroke-linecap="round" stroke-linejoin="round"/>
<path d="M205.521 208.97L193.309 210.158L208.361 232.171L204.797 242.626C207.969 246.19 211.628 250.158 214.966 253.745L218.34 251.369C218.34 251.369 223.234 258.236 228.165 264.437C229.79 263.865 231.131 262.685 231.907 261.147C231.907 261.147 212.317 222.964 206.899 211.809C206.507 210.93 206.02 209.944 205.521 208.97Z" stroke="#263238" stroke-linecap="round" stroke-linejoin="round"/>
<path opacity="0.2" d="M249.48 206.546H191.625L209.825 235.616C209.825 235.616 189.629 266.576 189.629 270.282C189.629 273.989 190.306 285.096 195.688 282.732C201.069 280.368 197.042 267.585 198.384 264.912C199.727 262.239 215.016 251.12 215.016 251.12C215.016 251.12 225.305 256.489 228.215 261.812C231.126 267.134 232.029 275.628 234.725 281.022C237.422 286.415 244.146 288.09 244.146 282.697C244.146 277.303 222.94 237.933 222.94 237.933C222.94 237.933 227.692 232.551 238.087 221.443C242.415 216.906 246.235 211.911 249.48 206.546Z" fill="#263238"/>
</svg>
