<svg xmlns="http://www.w3.org/2000/svg" width="49" height="49" viewBox="0 0 49 49" fill="none">
    <path
        d="M49 24.5C49 38.031 38.031 49 24.5 49C10.969 49 0 38.031 0 24.5C0 10.969 10.969 0 24.5 0C38.031 0 49 10.969 49 24.5Z"
        fill="black" />
    <path
        d="M25.421 46.2106C25.2157 46.1057 25.076 46.0402 24.9449 45.9616C21.6426 44.0571 18.3403 42.1613 15.0467 40.248C14.3226 39.8639 13.7476 39.2489 13.413 38.5008C13.3027 38.2226 13.2449 37.9264 13.2426 37.6271C13.2426 31.7825 13.0766 25.8331 13.0766 20.006C13.0766 19.6871 12.9674 18.962 13.6576 18.8091C13.2994 19.0668 13.3868 19.3507 13.4785 19.4643C13.9508 20.0479 14.5214 20.5446 15.1646 20.932C17.6719 22.3881 20.1807 23.8339 22.6909 25.2696C23.5209 25.7457 24.3508 26.2306 25.1852 26.698C25.2693 26.7453 25.3372 26.8169 25.38 26.9034C25.4229 26.9899 25.4387 27.0872 25.4254 27.1828C25.4254 32.844 25.4254 38.5037 25.4254 44.1619V46.2237L25.421 46.2106Z"
        fill="white" />
    <path
        d="M28.8496 46.3333C28.8496 46.1542 28.8147 46.0406 28.8147 45.9227C28.8147 43.0528 28.8147 40.1829 28.8147 37.313C28.8147 36.8762 28.6618 25.4709 28.3123 25.27C25.5866 23.712 22.8638 22.1438 20.1439 20.5655C19.2965 20.0806 18.8553 19.4035 19.4231 18.8532C19.8599 18.4163 27.8668 13.6114 31.2958 11.6413L36.0003 8.9418C36.2493 8.80202 36.2973 8.82822 36.2973 9.12089C36.2973 9.93337 36.2973 10.7415 36.2973 11.554C36.2973 17.8135 36.2973 35.2556 36.2973 41.5152C36.3115 41.6832 36.2739 41.8516 36.1896 41.9976C36.1053 42.1437 35.9782 42.2604 35.8256 42.332C33.6197 43.5944 31.4181 44.8787 29.2122 46.1498C29.1248 46.211 29.0156 46.2546 28.8496 46.3333Z"
        fill="white" />
    <path
        d="M13.5026 19.6226C13.3963 19.6194 13.2937 19.5823 13.21 19.5165C13.1263 19.4508 13.0658 19.36 13.0375 19.2574C13.0092 19.1548 13.0144 19.0459 13.0526 18.9465C13.0907 18.8472 13.1596 18.7626 13.2493 18.7053L34.3694 6.21672C34.4852 6.14894 34.6232 6.12997 34.7531 6.16397C34.8829 6.19796 34.9939 6.28214 35.0617 6.398C35.1295 6.51385 35.1485 6.65188 35.1145 6.78172C35.0805 6.91156 34.9963 7.02258 34.8804 7.09035L13.756 19.5789C13.6765 19.6145 13.5894 19.6295 13.5026 19.6226Z"
        fill="white" />
    <path
        d="M21.4492 18.9258L36.017 9.86621V40.6967L30.5568 43.9379L30.535 36.512C30.535 36.0228 30.321 24.3729 29.9278 24.0802L21.4492 18.9258Z"
        fill="white" />
</svg>