<svg width="147" height="87" viewBox="0 0 147 87" fill="none" xmlns="http://www.w3.org/2000/svg">
<path d="M37.36 86.92C12.52 86.92 0.88 67.12 0.88 43.6C0.88 20.08 12.52 0.159998 37.36 0.159998C62.2 0.159998 73.72 20.08 73.72 43.6C73.72 67.12 62.2 86.92 37.36 86.92ZM37.36 70.48C49.48 70.48 53.32 60.04 53.32 43.6C53.32 27.16 49.48 16.6 37.36 16.6C25.24 16.6 21.28 27.16 21.28 43.6C21.28 60.04 25.24 70.48 37.36 70.48ZM98.9697 2.07999H115.77V85H95.3697V28.96C90.6897 33.76 83.7297 33.76 77.8497 33.76V19.36C93.5697 19.36 98.9697 11.08 98.9697 2.07999ZM136.32 86.08C130.56 86.08 126.12 82.12 126.12 75.88C126.12 69.76 130.56 65.68 136.32 65.68C141.96 65.68 146.52 69.76 146.52 75.88C146.52 82.12 141.96 86.08 136.32 86.08Z" fill="#E6E6E6"/>
</svg>
