<svg width="553" height="388" viewBox="0 0 553 388" fill="none" xmlns="http://www.w3.org/2000/svg">
<g clip-path="url(#clip0_2082_17138)">
<path d="M436.997 387.295C434.247 387.294 431.511 386.916 428.864 386.174L318.97 356.829L319.292 355.676L429.187 385.021C431.729 385.733 434.356 386.096 436.997 386.097C449.929 386.097 461.4 378.621 464.89 366.202L543.119 87.8907L543.289 87.285C545.343 79.9105 544.385 72.0243 540.622 65.3537C536.86 58.6831 530.601 53.772 523.216 51.6963L346.573 2.28062C339.178 0.221822 331.267 1.17294 324.574 4.92539C317.881 8.67783 312.953 14.9252 310.871 22.2974L304.733 44.1373L303.577 43.8138L309.714 21.9739C311.883 14.2958 317.015 7.78913 323.985 3.88102C330.956 -0.0270829 339.196 -1.01748 346.897 1.12708L523.541 50.5427C531.137 52.6776 537.594 57.6946 541.528 64.5196C545.463 71.3446 546.563 79.4351 544.593 87.0592L544.599 87.0607L544.437 87.6374L466.047 366.525C462.411 379.459 450.465 387.295 436.997 387.295Z" fill="#2F2E41"/>
<path d="M311.601 50.3563L313.613 50.9194L319.803 52.6505L320.452 50.3384L318.134 49.6914L320.17 42.4494L325.063 38.2084L326.366 51.9976L322.763 50.9853L322.115 53.2975L331.362 55.8852L332.01 53.573L330.047 53.0279L328.161 35.5249L337.768 27.1926L340.464 27.9474L341.113 25.6352L331.86 23.0475L331.212 25.3597L334.262 26.2103L322.043 35.7884L325.429 23.7423L327.747 24.3893L328.396 22.0771L319.143 19.4894L318.494 21.8016L321.965 22.772L314.67 48.721L311.199 47.7506L311.109 48.0621L310.737 49.4039L311.601 50.3563Z" fill="#F9A826"/>
<path d="M326.486 72.2202C324.176 73.2185 321.921 74.3402 319.731 75.5806C319.329 75.8082 318.927 76.0418 318.53 76.2755V68.8657C318.533 66.2001 318.155 63.5478 317.408 60.9887C317.756 60.7731 318.11 60.5395 318.458 60.3059C318.777 60.0962 319.101 59.8806 319.419 59.6649C321.395 64.0517 323.76 68.2535 326.486 72.2202Z" fill="#F9A826"/>
<path d="M436.532 366.499L433.839 365.746L433.191 368.052L442.441 370.64L443.089 368.333L440.043 367.481L452.258 357.899L448.87 369.951L446.558 369.304L445.91 371.61L455.16 374.198L455.808 371.891L452.339 370.921L459.634 344.967L463.104 345.937L463.752 343.63L454.502 341.042L453.853 343.349L456.166 343.996L454.129 351.241L449.238 355.482L447.938 341.695L451.54 342.702L452.189 340.395L442.939 337.808L442.291 340.115L444.256 340.664L446.143 358.166L436.532 366.499Z" fill="#F9A826"/>
<path d="M447.813 321.471C452.142 319.618 456.261 317.309 460.098 314.583C462.154 318.93 464.517 323.125 467.17 327.138C462.869 329.046 458.756 331.352 454.885 334.025C452.906 329.639 450.54 325.438 447.813 321.471Z" fill="#F9A826"/>
<path d="M366.804 196.752C366.804 196.752 363.766 216.432 362.864 217.424C361.961 218.416 369.168 241.584 369.168 241.584L392.278 228.141C392.278 228.141 396.775 203.27 398.255 202.44C399.736 201.61 366.804 196.752 366.804 196.752Z" fill="#FFB8B8"/>
<path opacity="0.1" d="M366.804 196.752C366.804 196.752 363.766 216.432 362.864 217.424C361.961 218.416 369.168 241.584 369.168 241.584L392.278 228.141C392.278 228.141 396.775 203.27 398.255 202.44C399.736 201.61 366.804 196.752 366.804 196.752Z" fill="black"/>
<path d="M384.683 215.806C397.284 215.806 407.499 205.615 407.499 193.044C407.499 180.473 397.284 170.282 384.683 170.282C372.082 170.282 361.866 180.473 361.866 193.044C361.866 205.615 372.082 215.806 384.683 215.806Z" fill="#FFB8B8"/>
<path d="M374.794 228.226L372.805 226.426L363.868 213.736C363.868 213.736 362.842 213.063 361.87 216.524L360.897 219.984L352.5 223.234L333.921 302.644L383.641 316.553L404.116 237.052L394.499 226.896L393.434 221.996L378.587 228.043L374.794 228.226Z" fill="white"/>
<path d="M318.53 310.782L319.731 311.117L397.163 332.777L423.054 247.329C423.054 247.329 416.93 242.501 412.138 241.782C412.138 241.782 404.092 232.689 400.628 231.718C397.157 230.748 393.32 222.212 393.32 222.212C393.32 222.212 389.268 236.63 382.303 245.879C375.337 255.128 363.209 287.199 363.209 287.199L359.786 228.382L363.629 213.592C361.395 214.913 359.361 216.545 357.589 218.438C354.881 221.409 347.97 223.829 347.97 223.829C347.97 223.829 329.765 228.693 326.546 229.041C323.334 229.382 321.851 230.215 321.851 230.215L319.731 244.765L318.53 253.007V310.782Z" fill="#2F2E41"/>
<path d="M329.098 277.657C328.378 282.431 320.968 302.132 320.968 302.132L319.731 303.372L318.53 304.576V231.611C318.865 231.249 319.275 230.965 319.731 230.778C320.409 230.497 321.122 230.308 321.851 230.215L324.168 230.862C324.168 230.862 329.819 272.876 329.098 277.657Z" fill="#2F2E41"/>
<path d="M381.842 302.986C381.842 302.986 393.206 282.524 401.807 287.419C410.409 292.314 396.62 305.875 396.62 305.875L381.842 302.986Z" fill="#FFB8B8"/>
<path d="M346.668 295.012C346.668 295.012 324.861 288.289 324.374 290.02C323.888 291.75 317.917 301.9 319.651 302.385C321.386 302.87 334.845 306.013 334.683 306.59C334.521 307.167 341.134 310.261 341.134 310.261L346.668 295.012Z" fill="#FFB8B8"/>
<path d="M389.181 230.313L375.301 230.857L372.411 230.048L360.839 222.384L357.006 233.826L371.6 232.932L374.491 233.741L386.491 242.075L389.181 230.313Z" fill="#F9A826"/>
<path d="M351.885 316.382L349.753 320.911L319.131 312.525L318.53 310.782V301.18L319.731 301.647L320.968 302.132L351.885 316.382Z" fill="#2F2E41"/>
<path d="M353.027 296.791C353.027 296.791 345.835 293.535 345.673 294.112C345.511 294.688 335.861 311.274 338.173 311.921C340.486 312.568 348.671 316.724 348.671 316.724L353.027 296.791Z" fill="white"/>
<path d="M419.007 246.194L423.054 247.326C423.054 247.326 425.367 247.973 425.55 251.757C425.734 255.541 428.872 273.216 427.392 274.046C425.911 274.876 425.495 274.138 426.327 275.615C427.159 277.092 427.9 276.677 426.997 277.669C426.095 278.661 424.024 310.431 417.313 320.996C410.602 331.561 408.565 336.59 406.252 335.943L346.311 319.175C346.311 319.175 348.98 295.659 351.455 295.729C353.929 295.799 394.469 304.652 394.469 304.652C394.469 304.652 410.173 244.345 419.007 246.194Z" fill="#2F2E41"/>
<path d="M371.239 168.095L367.496 165.417C367.496 165.417 378.656 159.16 390.57 163.309L388.116 158.952C388.116 158.952 397.303 158.26 402.65 168.319C405.461 173.607 408.692 179.802 410.012 186.132L414.476 187.381L411.568 190.577L417.045 196.119L410.539 193.579C410.271 196.966 409.12 200.224 407.2 203.03L404.515 206.764C404.515 206.764 401.852 192.97 402.277 191.458L401.215 195.239C401.215 195.239 398.003 190.67 398.64 188.402L395.623 190.412L395.655 185.936L380.465 186.172L383.695 183.405L374.66 182.101L379.24 178.897C379.24 178.897 368.006 181.055 366.458 185.108C364.91 189.16 358.496 193.075 358.496 193.075L357.285 188.658C357.285 188.658 358.656 170.692 371.239 168.095Z" fill="#2F2E41"/>
<path d="M363.395 176.284L363.574 175.509C365.309 167.973 351.962 153.959 351.828 153.818L351.591 153.572L351.683 153.242C351.947 152.303 353.006 151.469 362.286 153.475C365.9 154.257 369.503 155.209 371.011 155.618C370.843 151.315 365.496 145.614 365.439 145.554L364.767 144.843L365.707 144.568C371.871 142.765 379.085 148.743 381.391 150.86L385.245 137.149L392.871 148.387C397.553 141.395 404.325 141.678 404.62 141.694L405.571 141.746L405.115 142.58C401.906 148.435 401.328 152.282 401.295 154.178C409.831 144.061 417.523 144.942 417.858 144.986L419.023 145.14L418.215 145.992C407.041 157.772 405.725 173.31 405.713 173.466L405.672 173.99L363.395 176.284ZM353.157 153.483C355.517 156.034 365.721 167.548 364.876 175.004L404.57 172.85C404.898 170.078 406.911 156.887 416.402 146.194C413.815 146.424 407.714 147.895 401.286 156.09L400.549 157.029L400.234 155.879C400.184 155.698 399.11 151.485 403.568 142.927C401.524 143.12 396.766 144.187 393.403 149.788L392.919 150.594L385.702 139.96L381.997 153.138L381.271 152.404C381.19 152.322 373.447 144.587 367.009 145.509C368.661 147.429 372.615 152.486 372.182 156.461L372.106 157.164L371.423 156.973C363.841 154.852 355.181 153.042 353.157 153.483Z" fill="#F9A826"/>
<path d="M420.849 141.831C420.439 141.716 420.073 141.482 419.795 141.16C419.518 140.837 419.343 140.44 419.293 140.018C419.242 139.596 419.318 139.168 419.511 138.789C419.703 138.41 420.005 138.097 420.376 137.889C420.747 137.681 421.172 137.587 421.597 137.62C422.021 137.652 422.427 137.81 422.762 138.073C423.097 138.335 423.346 138.691 423.478 139.095C423.611 139.499 423.62 139.933 423.505 140.342C423.35 140.89 422.983 141.355 422.486 141.634C421.988 141.913 421.399 141.984 420.849 141.831ZM421.688 138.847C421.507 138.796 421.314 138.8 421.135 138.858C420.956 138.917 420.798 139.027 420.682 139.175C420.565 139.322 420.496 139.501 420.481 139.689C420.466 139.876 420.508 140.064 420.6 140.228C420.693 140.391 420.832 140.524 421 140.609C421.168 140.695 421.357 140.728 421.544 140.706C421.732 140.683 421.908 140.606 422.051 140.484C422.194 140.361 422.298 140.2 422.348 140.019C422.416 139.776 422.385 139.516 422.261 139.296C422.138 139.077 421.931 138.915 421.688 138.847Z" fill="#F9A826"/>
<path d="M405.893 137.647C405.483 137.532 405.116 137.298 404.839 136.976C404.562 136.653 404.387 136.256 404.336 135.834C404.286 135.412 404.362 134.984 404.554 134.605C404.747 134.226 405.048 133.913 405.42 133.705C405.791 133.497 406.216 133.403 406.641 133.436C407.065 133.468 407.471 133.626 407.806 133.889C408.141 134.151 408.39 134.507 408.522 134.911C408.654 135.315 408.664 135.749 408.549 136.158C408.394 136.706 408.027 137.171 407.53 137.45C407.032 137.729 406.443 137.8 405.893 137.647ZM406.732 134.663C406.551 134.612 406.358 134.616 406.179 134.674C406 134.733 405.842 134.843 405.726 134.991C405.609 135.138 405.539 135.317 405.525 135.505C405.51 135.692 405.552 135.88 405.644 136.044C405.737 136.208 405.876 136.34 406.044 136.426C406.212 136.511 406.401 136.544 406.588 136.522C406.775 136.499 406.952 136.422 407.095 136.3C407.238 136.178 407.341 136.016 407.392 135.835C407.46 135.592 407.429 135.332 407.305 135.112C407.181 134.893 406.975 134.731 406.732 134.663Z" fill="#F9A826"/>
<path d="M383.159 135.31C382.748 135.196 382.382 134.962 382.104 134.639C381.827 134.317 381.652 133.919 381.602 133.497C381.551 133.075 381.627 132.648 381.82 132.269C382.012 131.89 382.314 131.577 382.685 131.369C383.056 131.16 383.481 131.067 383.906 131.099C384.331 131.132 384.736 131.29 385.071 131.552C385.406 131.815 385.655 132.171 385.787 132.575C385.92 132.979 385.929 133.413 385.814 133.822C385.659 134.37 385.293 134.835 384.795 135.114C384.297 135.393 383.709 135.464 383.159 135.31ZM383.997 132.326C383.816 132.276 383.623 132.28 383.444 132.338C383.265 132.396 383.107 132.506 382.991 132.654C382.874 132.802 382.805 132.981 382.79 133.168C382.776 133.356 382.817 133.543 382.909 133.707C383.002 133.871 383.141 134.004 383.309 134.089C383.477 134.174 383.666 134.208 383.853 134.185C384.041 134.163 384.217 134.086 384.36 133.964C384.503 133.841 384.607 133.679 384.657 133.498C384.725 133.256 384.694 132.996 384.57 132.776C384.447 132.556 384.24 132.395 383.997 132.326Z" fill="#F9A826"/>
<path d="M346.865 152.517C346.454 152.402 346.088 152.168 345.81 151.846C345.533 151.523 345.358 151.125 345.308 150.704C345.257 150.282 345.333 149.854 345.526 149.475C345.718 149.096 346.02 148.783 346.391 148.575C346.762 148.367 347.187 148.273 347.612 148.306C348.037 148.338 348.442 148.496 348.777 148.758C349.112 149.021 349.361 149.377 349.493 149.781C349.626 150.185 349.635 150.619 349.52 151.028C349.365 151.576 348.999 152.041 348.501 152.32C348.003 152.599 347.415 152.67 346.865 152.517ZM347.703 149.533C347.522 149.482 347.329 149.486 347.15 149.544C346.971 149.603 346.813 149.713 346.697 149.86C346.58 150.008 346.511 150.187 346.496 150.375C346.482 150.562 346.523 150.75 346.615 150.914C346.708 151.077 346.847 151.21 347.015 151.295C347.183 151.381 347.372 151.414 347.559 151.392C347.747 151.369 347.923 151.292 348.066 151.17C348.209 151.047 348.313 150.885 348.363 150.704C348.431 150.462 348.4 150.202 348.276 149.982C348.153 149.763 347.946 149.601 347.703 149.533Z" fill="#F9A826"/>
<path d="M360.899 142.763C360.489 142.648 360.122 142.415 359.845 142.092C359.567 141.769 359.393 141.372 359.342 140.95C359.291 140.528 359.367 140.1 359.56 139.721C359.753 139.343 360.054 139.029 360.425 138.821C360.796 138.613 361.221 138.519 361.646 138.552C362.071 138.584 362.476 138.742 362.811 139.005C363.146 139.267 363.395 139.623 363.528 140.027C363.66 140.431 363.669 140.865 363.554 141.274C363.399 141.822 363.033 142.287 362.535 142.566C362.037 142.845 361.449 142.916 360.899 142.763ZM361.738 139.779C361.556 139.728 361.364 139.732 361.184 139.79C361.005 139.849 360.848 139.959 360.731 140.107C360.615 140.254 360.545 140.433 360.53 140.621C360.516 140.808 360.557 140.996 360.65 141.16C360.742 141.324 360.881 141.457 361.049 141.542C361.217 141.627 361.407 141.66 361.594 141.638C361.781 141.615 361.957 141.538 362.1 141.416C362.243 141.294 362.347 141.132 362.398 140.951C362.466 140.708 362.434 140.448 362.31 140.229C362.187 140.009 361.981 139.847 361.738 139.779Z" fill="#F9A826"/>
<path d="M432.476 344.523L431.898 344.362L318.716 312.699L319.04 311.545L431.644 343.047L502.815 89.8479L344.116 45.4529L319.911 131.569L318.754 131.246L343.285 43.9757L343.862 44.1374L504.295 89.0182L504.132 89.5945L432.476 344.523Z" fill="#2F2E41"/>
<path d="M24.9985 367.704C32.4609 381.51 48.2989 387.437 48.2989 387.437C48.2989 387.437 52.0379 370.979 44.5755 357.172C37.113 343.366 21.275 337.439 21.275 337.439C21.275 337.439 17.536 353.897 24.9985 367.704Z" fill="#2F2E41"/>
<path d="M30.1277 363.161C43.6005 371.248 48.7893 387.31 48.7893 387.31C48.7893 387.31 32.1344 390.261 18.6616 382.174C5.1888 374.088 0 358.026 0 358.026C0 358.026 16.6549 355.075 30.1277 363.161Z" fill="#F9A826"/>
<path d="M318.458 60.3059C317.425 56.9106 315.783 53.7303 313.613 50.9194C312.84 49.9149 312.004 48.9605 311.109 48.0621C308.366 45.3075 305.104 43.1218 301.511 41.6311C297.917 40.1404 294.064 39.3741 290.172 39.3765H106.715C98.878 39.3844 91.3641 42.4938 85.8223 48.0224C80.2806 53.551 77.1638 61.0471 77.1558 68.8657V358.511C77.1638 366.329 80.2806 373.825 85.8223 379.354C91.3641 384.883 98.878 387.992 106.715 388H290.172C298.009 387.992 305.523 384.883 311.065 379.354C316.606 373.825 319.723 366.329 319.731 358.511V68.8657C319.734 65.9653 319.305 63.0805 318.458 60.3059ZM318.53 358.511C318.521 366.011 315.531 373.202 310.214 378.506C304.898 383.809 297.69 386.793 290.172 386.802H106.715C99.1968 386.793 91.989 383.809 86.6727 378.506C81.3564 373.202 78.3657 366.011 78.3567 358.511V68.8657C78.3657 61.3652 81.3564 54.1744 86.6727 48.8708C91.989 43.5671 99.1968 40.5835 106.715 40.5745H290.172C294.022 40.5728 297.831 41.355 301.367 42.8732C304.903 44.3914 308.092 46.6136 310.737 49.4039C311.031 49.7154 311.319 50.0329 311.601 50.3563C316.071 55.4918 318.531 62.0646 318.53 68.8657V358.511Z" fill="#2F2E41"/>
<path d="M106.422 85.9253C106.389 85.8472 106.348 85.7762 106.311 85.7011C107.665 83.0575 108.349 80.1228 108.301 77.1544C108.301 67.8688 102.485 61.3835 94.1569 61.3835C85.8291 61.3835 80.0126 67.8688 80.0126 77.1544C80.0126 86.44 85.8291 92.9252 94.1569 92.9252C96.1226 92.9649 98.0728 92.5707 99.8681 91.771C101.663 90.9712 103.259 89.7856 104.542 88.2989C107.208 92.6035 112.363 93.1714 112.601 93.1952L112.882 90.4424C112.688 90.4216 108.112 89.8874 106.422 85.9253ZM94.1569 90.1584C87.4617 90.1584 82.786 84.811 82.786 77.1544C82.786 69.4978 87.4617 64.1504 94.1569 64.1504C100.852 64.1504 105.528 69.4978 105.528 77.1544C105.555 79.3373 105.123 81.5016 104.261 83.5079C100.121 80.9989 92.4199 82.4981 91.3754 82.7177L91.9458 85.4254C94.7747 84.8345 100.403 84.3605 102.852 85.8938C101.847 87.2425 100.533 88.3327 99.0212 89.0743C97.509 89.816 95.8416 90.1876 94.1569 90.1584Z" fill="#F9A826"/>
<path d="M95.1688 99.5063C94.2662 98.6071 93.0427 98.1022 91.7671 98.1027C90.4915 98.1031 89.2683 98.6088 88.3663 99.5087C87.4643 100.409 86.9574 101.629 86.957 102.901C86.9565 104.174 87.4626 105.395 88.3639 106.295L95.1688 113.084L101.974 106.295C102.873 105.394 103.378 104.174 103.376 102.903C103.375 101.631 102.868 100.412 101.967 99.5131C101.066 98.614 99.8438 98.1084 98.5693 98.1071C97.2948 98.1058 96.0719 98.609 95.1688 99.5063Z" fill="#F9A826"/>
<path d="M290.465 343.307C290.498 343.385 290.539 343.456 290.576 343.531C289.222 346.174 288.539 349.109 288.586 352.077C288.586 361.363 294.402 367.848 302.73 367.848C311.058 367.848 316.875 361.363 316.875 352.077C316.875 342.792 311.058 336.307 302.73 336.307C300.764 336.267 298.814 336.661 297.019 337.461C295.224 338.261 293.628 339.446 292.345 340.933C289.679 336.628 284.524 336.06 284.287 336.037L284.005 338.789C284.199 338.81 288.775 339.344 290.465 343.307ZM302.73 339.073C309.425 339.073 314.101 344.421 314.101 352.077C314.101 359.734 309.425 365.081 302.73 365.081C296.035 365.081 291.359 359.734 291.359 352.077C291.332 349.895 291.764 347.73 292.626 345.724C296.766 348.233 304.467 346.734 305.512 346.514L304.941 343.806C302.112 344.397 296.485 344.871 294.035 343.338C295.041 341.989 296.354 340.899 297.866 340.157C299.378 339.416 301.045 339.044 302.73 339.073Z" fill="#F9A826"/>
<path d="M301.718 329.725C302.621 330.623 303.844 331.127 305.119 331.126C306.394 331.125 307.616 330.62 308.518 329.72C309.419 328.821 309.926 327.601 309.927 326.33C309.928 325.058 309.423 323.837 308.523 322.937L301.718 316.148L294.913 322.937C294.013 323.837 293.508 325.058 293.509 326.33C293.51 327.601 294.017 328.821 294.919 329.72C295.82 330.62 297.042 331.125 298.317 331.126C299.592 331.127 300.815 330.623 301.718 329.725Z" fill="#F9A826"/>
<path d="M213.242 203.931C205.067 190.152 188.895 189.509 188.895 189.509C188.895 189.509 173.136 187.499 163.027 208.485C153.604 228.046 140.599 246.933 160.933 251.512L164.606 240.107L166.88 252.361C169.776 252.568 172.68 252.618 175.58 252.509C197.356 251.808 218.094 252.714 217.426 244.919C216.539 234.556 221.107 217.19 213.242 203.931Z" fill="#2F2E41"/>
<path d="M183.086 250.879C183.125 252.43 183.113 254.066 182.341 255.412C180.809 258.082 177.071 258.481 174.822 260.585C172.457 262.798 172.189 266.388 172.076 269.621C171.958 273.001 171.858 276.491 173.095 279.64C173.852 281.374 174.809 283.015 175.947 284.528C177.32 286.503 178.706 288.468 180.104 290.425C180.851 291.527 181.683 292.569 182.593 293.542C185.098 296.087 188.533 297.495 191.963 298.501C194.179 299.15 196.572 299.656 198.771 298.95C200.226 298.384 201.567 297.561 202.73 296.522C204.365 295.226 206.026 293.904 207.211 292.189C209.058 289.517 209.569 286.172 209.951 282.949C211.083 273.418 211.523 263.819 211.269 254.225C211.315 253.18 211.128 252.137 210.719 251.174C209.58 248.955 206.53 248.482 204.923 246.573C203.549 244.942 203.493 242.614 203.505 240.483L203.535 235.058C203.583 234.601 203.491 234.14 203.271 233.737C203.071 233.519 202.831 233.343 202.563 233.219C202.296 233.094 202.006 233.023 201.711 233.011C198.331 232.451 194.905 232.223 191.481 232.328C188.705 232.413 183.378 232.181 180.978 233.723C178.799 235.123 181.527 238.99 182.032 241.163C182.71 244.358 183.064 247.613 183.086 250.879Z" fill="#A0616A"/>
<path d="M189.458 241.564C201.596 241.564 211.436 231.747 211.436 219.638C211.436 207.528 201.596 197.712 189.458 197.712C177.319 197.712 167.48 207.528 167.48 219.638C167.48 231.747 177.319 241.564 189.458 241.564Z" fill="#A0616A"/>
<path d="M180.408 273.947C179.01 271.874 177.859 269.645 176.98 267.305C176.194 264.936 175.988 262.287 176.92 259.971C174.545 258.596 171.321 259.71 169.591 261.837C167.862 263.965 167.332 266.817 167.18 269.552C167.028 272.287 167.189 275.062 166.593 277.736C165.273 283.652 160.374 288.515 160.01 294.565C159.652 300.516 163.743 305.701 165.755 311.315C166.975 314.814 167.485 318.52 167.255 322.218C167.19 323.411 167.115 324.772 167.959 325.62C168.398 326.003 168.918 326.282 169.48 326.438C179.191 329.846 189.681 330.141 199.972 330.401L216.971 330.831C217.999 330.953 219.04 330.779 219.972 330.329C221.497 329.397 221.701 327.306 221.727 325.521C221.951 310.153 221.295 294.787 220.64 279.43C220.403 273.865 220.161 268.266 218.978 262.822C218.677 261.435 218.183 259.894 216.9 259.282C215.814 258.764 214.526 259.099 213.397 259.515C208.128 261.47 203.574 264.967 200.332 269.548C196.845 274.5 195.129 280.441 191.716 285.431C189.239 289.052 187.806 285.896 186.156 283.229C184.24 280.135 182.324 277.04 180.408 273.947Z" fill="white"/>
<path d="M177.777 260.35C177.344 260.656 176.918 260.979 176.51 261.321C174.98 262.58 173.609 264.02 172.427 265.61C170.47 268.271 168.912 271.203 167.803 274.313C165.81 279.764 164.945 285.551 164.117 291.289C163.755 293.403 163.56 295.542 163.534 297.686C163.66 305.569 168.332 312.871 168.338 320.76C168.338 321.06 168.332 321.353 168.314 321.653C168.258 322.944 168.105 324.23 167.857 325.498C167.515 327.349 167.023 329.176 166.536 330.997C165.312 335.562 163.991 340.294 161.601 344.301C161.361 344.709 161.103 345.11 160.838 345.499H144.026C144.158 345.098 144.296 344.703 144.428 344.301C147.293 335.837 150.155 327.375 153.015 318.915C153.891 316.328 154.768 313.728 155.386 311.068C156.094 307.784 156.577 304.456 156.833 301.107C157.494 294.164 157.928 287.208 158.136 280.237C158.214 277.733 158.269 275.176 159.079 272.804C159.839 270.871 160.844 269.043 162.069 267.365C163.805 264.759 165.54 262.153 167.275 259.548C168.242 258.098 169.256 256.606 170.746 255.702C171.988 254.941 173.466 254.666 174.774 254.025C175.598 253.558 176.389 253.036 177.14 252.461C179.098 251.078 181.397 249.622 183.084 251.036C183.358 251.262 183.593 251.531 183.781 251.832C183.877 251.98 183.963 252.134 184.039 252.294C185.66 255.792 179.956 258.811 177.777 260.35Z" fill="#2F2E41"/>
<path d="M233.161 345.499H155.296C155.717 345.116 156.131 344.715 156.533 344.301C156.593 344.242 156.647 344.182 156.707 344.122C159.686 341.037 160.364 337.245 161.859 333.232C162.982 330.207 164.105 327.184 165.228 324.163C165.405 323.575 165.697 323.027 166.086 322.551C166.411 322.216 166.819 321.973 167.269 321.845C167.609 321.741 167.959 321.676 168.314 321.653C168.82 321.62 169.327 321.62 169.833 321.653C183.805 322.372 197.767 323.248 211.719 324.283C213.52 324.42 215.322 324.558 217.123 324.696C218.594 325.786 220.047 326.942 221.434 328.164C225.943 332.118 229.852 336.772 232.092 342.271C232.362 342.936 232.608 343.613 232.812 344.301C232.944 344.697 233.059 345.098 233.161 345.499Z" fill="#2F2E41"/>
<path d="M209.628 202.603L193.65 194.253L171.586 197.669L167.021 217.784L178.385 217.348L181.559 209.958V217.225L186.803 217.024L189.846 205.26L191.748 217.784L210.389 217.404L209.628 202.603Z" fill="#2F2E41"/>
<path d="M233.161 345.5H215.58C215.454 345.104 215.334 344.703 215.22 344.302C213.978 339.846 213.067 335.305 212.494 330.716C212.308 329.404 212.145 328.086 211.995 326.775C211.899 325.942 211.809 325.115 211.719 324.283C210.71 315.034 209.936 305.695 207.102 296.842C206.76 295.77 206.387 294.704 206.027 293.637C205.362 291.801 204.84 289.917 204.466 288.001C203.697 283.616 204.274 279.075 203.481 274.697C203.037 272.253 202.154 270.102 201.62 267.862C201.28 266.51 201.146 265.115 201.224 263.723C202.517 262.505 204.146 261.7 205.901 261.411C206.507 261.309 207.192 261.231 207.558 260.746C207.774 260.376 207.871 259.95 207.834 259.524C207.876 256.698 207.714 253.874 207.348 251.072C207.228 250.089 207.078 249.107 206.898 248.131C206.892 248.083 206.88 248.041 206.874 247.993C208.339 247.358 209.99 247.352 211.581 247.358C213.316 247.364 215.046 247.364 216.775 247.37C219.975 247.382 223.175 247.392 226.376 247.4C229.354 247.406 232.434 247.436 235.142 248.664C237.94 249.94 240.066 252.402 241.471 255.133C242.876 257.864 243.638 260.871 244.329 263.861C244.52 264.688 244.621 265.533 244.629 266.382C244.761 273.127 239.717 279.92 239.213 286.815C239.051 289.049 239.237 291.301 239.033 293.535C238.829 295.776 238.228 297.968 238.12 300.208C238.114 300.322 238.108 300.442 238.108 300.556C238.042 303.473 238.895 306.33 239.88 309.08C241.405 313.351 243.26 317.49 245.175 321.605C247.025 325.588 248.922 329.554 250.627 333.591C251.514 335.465 252.111 337.463 252.399 339.515C252.588 341.166 252.272 342.834 251.492 344.302C251.292 344.664 251.052 345.004 250.777 345.314L250.765 345.326C250.711 345.386 250.657 345.446 250.603 345.5H233.161Z" fill="#2F2E41"/>
<path d="M249.907 339.354C249.833 340.151 249.615 340.928 249.264 341.648C249.234 341.72 249.204 341.786 249.174 341.857C248.826 342.678 248.472 343.487 248.105 344.301C247.925 344.697 247.745 345.098 247.559 345.499H237.616C237.976 345.124 238.309 344.724 238.613 344.301C240.138 342.187 241.02 339.617 242.575 337.335C242.787 337.023 243.03 336.734 243.302 336.472C245.794 334.064 250.063 334.556 249.907 339.354Z" fill="#FFB8B8"/>
<path d="M256.379 345.499C256.507 345.106 256.613 344.706 256.698 344.301C256.77 343.984 256.83 343.672 256.878 343.355C257.196 341.264 257.19 339.126 257.688 337.071C258.391 334.13 260.498 330.65 258.763 328.176C260.113 327.9 261.386 327.331 262.492 326.511C263.525 325.612 264.125 324.055 263.501 322.833C262.882 321.629 261.207 320.832 261.435 319.496C261.549 319.073 261.749 318.677 262.024 318.334C262.934 316.901 263.405 315.234 263.378 313.538C263.352 311.842 262.829 310.19 261.873 308.786C261.327 308.007 260.655 307.325 260.156 306.51C259.611 305.514 259.194 304.453 258.913 303.353C257.18 297.779 254.624 292.494 251.33 287.671C250.6 286.743 250.033 285.698 249.655 284.58C249.433 283.369 249.389 282.132 249.522 280.908C249.643 276.068 247.829 271.342 245.217 267.269C245.025 266.969 244.827 266.676 244.629 266.382C242.107 262.674 238.979 259.422 235.863 256.193C234.578 256.792 233.443 257.182 232.776 258.427C232.449 259.13 232.248 259.884 232.182 260.656C231.329 266.586 230.591 272.552 230.014 278.512C229.726 281.525 229.432 284.562 229.774 287.569C230.116 290.576 231.143 293.589 233.185 295.824C234.464 297.225 236.085 298.268 237.472 299.561C237.694 299.771 237.91 299.987 238.12 300.208C239.12 301.271 240.007 302.433 240.768 303.677C244.096 309.039 245.638 315.315 245.175 321.605C245.091 322.739 244.941 323.867 244.725 324.983C244.461 326.582 243.921 328.122 243.128 329.536C242.497 330.572 241.669 331.477 241.098 332.549C240.528 333.621 240.258 334.957 240.822 336.029C241.669 336.028 242.508 336.178 243.302 336.472C245.171 337.192 246.796 338.428 247.985 340.036C248.424 340.615 248.821 341.224 249.174 341.857C249.62 342.647 250.017 343.464 250.363 344.301C250.507 344.631 250.645 344.972 250.777 345.314C250.808 345.373 250.832 345.435 250.849 345.499H256.379Z" fill="#2F2E41"/>
<path d="M207.289 241.284L194.557 246.824L191.569 247.118L177.996 244.175L178.595 256.224L191.865 250.099L194.852 249.804L209.068 253.216L207.289 241.284Z" fill="#F9A826"/>
<path d="M232.812 344.301C232.944 344.697 233.059 345.098 233.161 345.499H237.616C237.976 345.124 238.309 344.724 238.613 344.301H232.812ZM115.133 81.3363V345.499H281.153V81.3363H115.133ZM279.952 344.301H116.334V82.5343H279.952V344.301ZM232.812 344.301C232.944 344.697 233.059 345.098 233.161 345.499H237.616C237.976 345.124 238.309 344.724 238.613 344.301H232.812Z" fill="#2F2E41"/>
<path d="M169.683 196.905L169.786 196.39C169.817 196.237 172.755 180.921 165.184 166.569L164.636 165.531L165.8 165.697C166.134 165.745 173.779 166.968 179.26 179.008C179.741 177.173 180.226 173.314 178.721 166.812L178.507 165.886L179.437 166.093C179.726 166.157 186.323 167.708 188.939 175.701L199.323 166.935V181.175C202.116 179.758 210.68 175.945 216.127 179.341L216.958 179.859L216.118 180.363C216.047 180.405 209.356 184.454 208.029 188.552C209.592 188.565 213.32 188.618 217.01 188.839C226.489 189.407 227.283 190.495 227.283 191.471V191.813L226.988 191.987C226.82 192.086 210.176 201.984 209.807 209.707L209.769 210.502L169.683 196.905ZM207.266 189.746H206.557L206.674 189.048C207.332 185.104 212.508 181.3 214.619 179.897C208.67 177.275 199.121 182.636 199.021 182.694L198.122 183.205V169.519L188.295 177.814L188.047 176.907C186.325 170.609 182.032 168.299 180.117 167.563C182.093 177.004 179.918 180.771 179.821 180.932L179.206 181.955L178.751 180.852C174.78 171.23 169.303 168.17 166.875 167.251C173.119 180.104 171.488 193.347 171.053 196.105L208.69 208.871C209.894 201.464 222.835 193.126 225.798 191.305C223.969 190.336 215.141 189.746 207.266 189.746Z" fill="#F9A826"/>
<path d="M161.62 159.704C161.62 159.279 161.746 158.864 161.983 158.51C162.219 158.157 162.556 157.881 162.949 157.719C163.343 157.556 163.776 157.514 164.194 157.597C164.611 157.679 164.995 157.884 165.296 158.185C165.598 158.485 165.803 158.868 165.886 159.285C165.969 159.702 165.926 160.134 165.763 160.526C165.6 160.919 165.324 161.254 164.97 161.49C164.616 161.726 164.199 161.852 163.773 161.852C163.202 161.852 162.655 161.625 162.251 161.223C161.847 160.82 161.62 160.274 161.62 159.704ZM162.821 159.704C162.821 159.892 162.876 160.076 162.981 160.232C163.086 160.388 163.235 160.51 163.409 160.582C163.583 160.654 163.775 160.673 163.959 160.636C164.144 160.6 164.314 160.509 164.447 160.376C164.58 160.243 164.671 160.074 164.708 159.889C164.745 159.705 164.726 159.514 164.654 159.34C164.582 159.166 164.46 159.018 164.303 158.914C164.146 158.809 163.962 158.753 163.773 158.753C163.521 158.754 163.279 158.854 163.1 159.032C162.921 159.21 162.821 159.452 162.821 159.704Z" fill="#F9A826"/>
<path d="M177.153 159.704C177.153 159.279 177.279 158.864 177.516 158.51C177.752 158.157 178.089 157.881 178.482 157.719C178.876 157.556 179.309 157.514 179.727 157.597C180.144 157.679 180.528 157.884 180.829 158.185C181.131 158.485 181.336 158.868 181.419 159.285C181.502 159.702 181.459 160.134 181.296 160.526C181.133 160.919 180.857 161.254 180.503 161.49C180.149 161.726 179.732 161.852 179.306 161.852C178.735 161.852 178.188 161.625 177.784 161.223C177.38 160.82 177.153 160.274 177.153 159.704ZM178.354 159.704C178.354 159.892 178.409 160.076 178.514 160.232C178.619 160.388 178.768 160.51 178.942 160.582C179.116 160.654 179.307 160.673 179.492 160.636C179.677 160.6 179.847 160.509 179.98 160.376C180.113 160.243 180.204 160.074 180.241 159.889C180.278 159.705 180.259 159.514 180.187 159.34C180.115 159.166 179.992 159.018 179.836 158.914C179.679 158.809 179.495 158.753 179.306 158.753C179.054 158.754 178.812 158.854 178.633 159.032C178.454 159.21 178.354 159.452 178.354 159.704Z" fill="#F9A826"/>
<path d="M199.675 163.578C199.675 163.153 199.802 162.738 200.038 162.384C200.275 162.031 200.611 161.756 201.005 161.593C201.399 161.43 201.832 161.388 202.249 161.471C202.667 161.554 203.051 161.758 203.352 162.059C203.653 162.359 203.858 162.742 203.942 163.159C204.025 163.576 203.982 164.008 203.819 164.4C203.656 164.793 203.38 165.128 203.026 165.365C202.672 165.601 202.255 165.727 201.829 165.727C201.258 165.726 200.711 165.499 200.307 165.097C199.903 164.694 199.676 164.148 199.675 163.578ZM200.876 163.578C200.876 163.766 200.932 163.95 201.037 164.106C201.142 164.262 201.29 164.384 201.465 164.456C201.639 164.528 201.83 164.547 202.015 164.51C202.2 164.474 202.37 164.383 202.503 164.25C202.636 164.117 202.727 163.948 202.764 163.763C202.8 163.579 202.782 163.388 202.71 163.214C202.637 163.041 202.515 162.892 202.359 162.788C202.202 162.683 202.018 162.627 201.829 162.627C201.577 162.628 201.334 162.728 201.156 162.906C200.977 163.084 200.877 163.326 200.876 163.578Z" fill="#F9A826"/>
<path d="M229.965 189.921C229.965 189.496 230.091 189.081 230.328 188.728C230.564 188.374 230.901 188.099 231.294 187.936C231.688 187.774 232.121 187.731 232.539 187.814C232.957 187.897 233.34 188.102 233.641 188.402C233.943 188.703 234.148 189.085 234.231 189.502C234.314 189.919 234.271 190.351 234.108 190.744C233.945 191.136 233.669 191.472 233.315 191.708C232.961 191.944 232.545 192.07 232.119 192.07C231.548 192.069 231 191.843 230.596 191.44C230.193 191.037 229.965 190.491 229.965 189.921ZM231.166 189.921C231.166 190.109 231.222 190.293 231.326 190.449C231.431 190.606 231.58 190.728 231.754 190.8C231.928 190.871 232.12 190.89 232.304 190.854C232.489 190.817 232.659 190.726 232.792 190.593C232.926 190.461 233.016 190.291 233.053 190.107C233.09 189.922 233.071 189.731 232.999 189.558C232.927 189.384 232.805 189.235 232.648 189.131C232.491 189.026 232.307 188.971 232.119 188.971C231.866 188.971 231.624 189.071 231.445 189.249C231.267 189.428 231.166 189.669 231.166 189.921Z" fill="#F9A826"/>
<path d="M219.092 176.75C219.092 176.325 219.218 175.909 219.455 175.556C219.691 175.202 220.028 174.927 220.421 174.764C220.815 174.602 221.248 174.559 221.666 174.642C222.084 174.725 222.467 174.93 222.769 175.23C223.07 175.531 223.275 175.913 223.358 176.33C223.441 176.747 223.398 177.179 223.235 177.572C223.072 177.964 222.796 178.3 222.442 178.536C222.088 178.772 221.671 178.898 221.245 178.898C220.674 178.898 220.127 178.671 219.723 178.268C219.319 177.865 219.092 177.319 219.092 176.75ZM220.293 176.75C220.293 176.938 220.348 177.121 220.453 177.278C220.558 177.434 220.707 177.556 220.881 177.628C221.055 177.7 221.247 177.719 221.431 177.682C221.616 177.646 221.786 177.555 221.919 177.422C222.053 177.289 222.143 177.12 222.18 176.935C222.217 176.751 222.198 176.56 222.126 176.386C222.054 176.212 221.932 176.064 221.775 175.959C221.618 175.855 221.434 175.799 221.245 175.799C220.993 175.799 220.751 175.9 220.572 176.078C220.393 176.256 220.293 176.498 220.293 176.75Z" fill="#F9A826"/>
<path d="M553 386.532H7.20521V387.73H553V386.532Z" fill="#3F3D56"/>
</g>
<defs>
<clipPath id="clip0_2082_17138">
<rect width="553" height="388" fill="white"/>
</clipPath>
</defs>
</svg>
