<svg width="415" height="394" viewBox="0 0 415 394" fill="none" xmlns="http://www.w3.org/2000/svg">
<path d="M383.252 270.289H71.291C69.4557 270.302 67.6374 269.938 65.9489 269.219C64.2605 268.499 62.7381 267.44 61.4763 266.107C60.2146 264.775 59.2405 263.196 58.6146 261.471C57.9888 259.746 57.7245 257.91 57.8382 256.078L69.4791 18.049C69.6948 14.2402 71.3476 10.655 74.1039 8.01735C76.8602 5.37975 80.5147 3.88622 84.3293 3.83834H396.29C398.126 3.82332 399.945 4.18653 401.634 4.90533C403.323 5.62413 404.847 6.68311 406.109 8.0163C407.371 9.3495 408.345 10.9283 408.97 12.6544C409.595 14.3805 409.858 16.2169 409.743 18.049L398.102 256.078C397.883 259.886 396.23 263.47 393.474 266.107C390.718 268.744 387.065 270.238 383.252 270.289Z" fill="#6695FF"/>
<path opacity="0.7" d="M383.252 270.289H71.291C69.4557 270.302 67.6374 269.938 65.9489 269.219C64.2605 268.499 62.7381 267.44 61.4763 266.107C60.2146 264.775 59.2405 263.196 58.6146 261.471C57.9888 259.746 57.7245 257.91 57.8382 256.078L69.4791 18.049C69.6948 14.2402 71.3476 10.655 74.1039 8.01735C76.8602 5.37975 80.5147 3.88622 84.3293 3.83834H396.29C398.126 3.82332 399.945 4.18653 401.634 4.90533C403.323 5.62413 404.847 6.68311 406.109 8.0163C407.371 9.3495 408.345 10.9283 408.97 12.6544C409.595 14.3805 409.858 16.2169 409.743 18.049L398.102 256.078C397.883 259.886 396.23 263.47 393.474 266.107C390.718 268.744 387.065 270.238 383.252 270.289Z" fill="white"/>
<path d="M408.368 6.40835C406.707 4.56774 404.633 3.14728 402.316 2.26356L402.743 1.15039C405.224 2.11326 407.449 3.63722 409.244 5.60307L408.368 6.40835Z" fill="#6695FF"/>
<path d="M396.444 0H371.504V1.18423H396.444V0Z" fill="#6695FF"/>
<path d="M396.291 3.90691H84.3307C80.516 3.9548 76.8615 5.44833 74.1052 8.08594C71.3489 10.7235 69.6961 14.3087 69.4805 18.1176H409.768C409.883 16.2834 409.62 14.4451 408.993 12.7174C408.366 10.9896 407.39 9.40969 406.126 8.07614C404.861 6.7426 403.335 5.6841 401.643 4.96675C399.951 4.24941 398.129 3.88862 396.291 3.90691Z" fill="#6695FF"/>
<path d="M67.3599 254.23L78.1837 34.1181C78.2857 32.3437 79.0579 30.6742 80.344 29.4475C81.6301 28.2207 83.3342 27.5283 85.1115 27.5102H393.188C394.044 27.5004 394.892 27.6672 395.681 28.0001C396.469 28.3329 397.181 28.8247 397.771 29.4447C398.361 30.0648 398.817 30.7998 399.11 31.6038C399.404 32.4079 399.528 33.2638 399.476 34.1181L388.711 254.242C388.609 256.02 387.836 257.692 386.548 258.921C385.259 260.15 383.552 260.844 381.772 260.862H73.6482C72.7907 260.87 71.9407 260.701 71.1513 260.367C70.3618 260.032 69.6499 259.538 69.0599 258.915C68.4698 258.293 68.0144 257.556 67.7219 256.75C67.4294 255.944 67.3062 255.086 67.3599 254.23Z" fill="white"/>
<path opacity="0.3" d="M111.081 102.967H96.8706C96.5629 102.971 96.2577 102.911 95.9739 102.793C95.6901 102.674 95.4337 102.498 95.2206 102.276C95.0075 102.054 94.8422 101.79 94.7349 101.502C94.6276 101.213 94.5807 100.906 94.5969 100.599L95.7811 75.7301C95.823 75.0912 96.1051 74.4918 96.5709 74.0525C97.0366 73.6131 97.6514 73.3663 98.2917 73.3617H112.502C112.811 73.3564 113.118 73.4146 113.403 73.5329C113.688 73.6511 113.946 73.8268 114.16 74.0489C114.375 74.2711 114.541 74.535 114.649 74.8242C114.757 75.1134 114.804 75.4218 114.788 75.7301L113.604 100.599C113.562 101.24 113.278 101.841 112.81 102.281C112.341 102.72 111.724 102.966 111.081 102.967Z" fill="#6695FF"/>
<path opacity="0.3" d="M139.526 102.969H125.315C125.007 102.971 124.702 102.91 124.419 102.791C124.135 102.671 123.879 102.496 123.665 102.274C123.451 102.053 123.285 101.79 123.175 101.503C123.066 101.215 123.016 100.908 123.029 100.601L124.462 71.2318C124.51 70.5928 124.795 69.9949 125.262 69.5564C125.729 69.1178 126.344 68.8705 126.985 68.8633H141.195C141.503 68.8615 141.808 68.9221 142.092 69.0415C142.375 69.1609 142.632 69.3367 142.845 69.5581C143.059 69.7796 143.226 70.0421 143.335 70.3298C143.444 70.6174 143.494 70.9243 143.481 71.2318L142.048 100.601C142.001 101.24 141.715 101.837 141.248 102.276C140.781 102.715 140.166 102.962 139.526 102.969Z" fill="#6695FF"/>
<path opacity="0.3" d="M167.971 102.97H153.76C153.452 102.972 153.148 102.911 152.864 102.792C152.58 102.672 152.324 102.496 152.11 102.275C151.897 102.054 151.73 101.791 151.621 101.503C151.512 101.216 151.462 100.909 151.475 100.601L153.061 68.1654C153.109 67.5264 153.394 66.9285 153.861 66.49C154.329 66.0514 154.943 65.8041 155.584 65.7969H169.795C170.102 65.795 170.407 65.8557 170.691 65.9751C170.974 66.0945 171.231 66.2703 171.445 66.4917C171.658 66.7132 171.825 66.9757 171.934 67.2634C172.043 67.551 172.093 67.8579 172.08 68.1654L170.553 100.566C170.513 101.221 170.223 101.836 169.742 102.284C169.262 102.731 168.628 102.977 167.971 102.97Z" fill="#6695FF"/>
<path opacity="0.3" d="M196.428 102.969H182.218C181.91 102.971 181.606 102.911 181.323 102.791C181.04 102.672 180.784 102.496 180.572 102.274C180.359 102.052 180.193 101.79 180.086 101.502C179.978 101.215 179.929 100.908 179.944 100.601L181.661 65.3822C181.708 64.7432 181.994 64.1453 182.461 63.7067C182.928 63.2682 183.543 63.0209 184.183 63.0137H198.394C198.702 63.0118 199.007 63.0725 199.29 63.1919C199.574 63.3113 199.83 63.4871 200.044 63.7085C200.258 63.93 200.424 64.1925 200.534 64.4802C200.643 64.7678 200.693 65.0747 200.68 65.3822L198.974 100.566C198.941 101.217 198.658 101.83 198.183 102.278C197.709 102.726 197.081 102.973 196.428 102.969Z" fill="#6695FF"/>
<path d="M224.873 102.97H210.663C210.355 102.972 210.05 102.911 209.766 102.792C209.483 102.673 209.226 102.497 209.013 102.275C208.799 102.054 208.632 101.791 208.523 101.504C208.414 101.216 208.364 100.909 208.377 100.602L210.627 54.6419C210.672 54.002 210.956 53.4025 211.424 52.9634C211.892 52.5243 212.508 52.2779 213.149 52.2735H227.36C227.668 52.2716 227.973 52.3322 228.256 52.4516C228.54 52.5711 228.796 52.7468 229.01 52.9683C229.224 53.1897 229.39 53.4522 229.5 53.7399C229.609 54.0276 229.658 54.3345 229.646 54.6419L227.396 100.566C227.357 101.211 227.075 101.818 226.607 102.264C226.139 102.71 225.52 102.962 224.873 102.97Z" fill="#6695FF"/>
<path d="M221.167 47.3341L222.517 45.1788C222.591 45.0623 222.633 44.9279 222.637 44.7897C222.642 44.6514 222.609 44.5146 222.543 44.3934C222.476 44.2722 222.378 44.1712 222.259 44.1011C222.14 44.0309 222.004 43.9941 221.865 43.9946H219.367C219.226 43.9897 219.087 44.0233 218.965 44.0917C218.842 44.1601 218.741 44.2608 218.671 44.3827C218.602 44.5047 218.567 44.6433 218.571 44.7836C218.574 44.9239 218.616 45.0606 218.692 45.1788L219.876 47.3341C219.944 47.4443 220.039 47.5353 220.152 47.5984C220.265 47.6616 220.392 47.6947 220.521 47.6947C220.651 47.6947 220.778 47.6616 220.891 47.5984C221.004 47.5353 221.099 47.4443 221.167 47.3341Z" fill="#263238"/>
<path opacity="0.3" d="M253.319 102.969H239.108C238.8 102.971 238.495 102.91 238.212 102.791C237.928 102.671 237.672 102.495 237.458 102.274C237.244 102.053 237.078 101.79 236.968 101.502C236.859 101.215 236.809 100.908 236.822 100.6L238.717 61.888C238.764 61.2491 239.05 60.6512 239.517 60.2126C239.984 59.774 240.599 59.5267 241.239 59.5196H255.45C255.758 59.5177 256.063 59.5783 256.346 59.6978C256.63 59.8172 256.886 59.9929 257.1 60.2144C257.314 60.4358 257.48 60.6983 257.59 60.986C257.699 61.2737 257.749 61.5806 257.736 61.888L255.817 100.565C255.781 101.207 255.504 101.812 255.04 102.258C254.577 102.704 253.962 102.958 253.319 102.969Z" fill="#6695FF"/>
<path opacity="0.1" d="M254.561 110.69H94.9156C94.814 110.692 94.7132 110.673 94.6195 110.634C94.5258 110.595 94.4412 110.537 94.3711 110.463C94.301 110.39 94.2468 110.302 94.2122 110.207C94.1775 110.112 94.1629 110.01 94.1695 109.909C94.1844 109.698 94.2779 109.501 94.4314 109.356C94.585 109.211 94.7874 109.13 94.9985 109.127H254.632C254.734 109.125 254.834 109.144 254.928 109.184C255.022 109.223 255.106 109.281 255.177 109.354C255.247 109.428 255.301 109.515 255.336 109.61C255.37 109.706 255.385 109.807 255.378 109.909C255.369 110.119 255.279 110.318 255.127 110.464C254.974 110.609 254.772 110.69 254.561 110.69Z" fill="#263238"/>
<path opacity="0.1" d="M265.931 249.149L276.21 39.1856C276.219 38.9846 276.305 38.7948 276.451 38.6558C276.596 38.5168 276.79 38.4394 276.991 38.4396H277.062C277.159 38.4377 277.255 38.456 277.345 38.4933C277.434 38.5306 277.515 38.5861 277.582 38.6563C277.649 38.7264 277.7 38.8097 277.733 38.9009C277.766 38.992 277.779 39.089 277.773 39.1856L267.506 249.149C267.494 249.35 267.407 249.54 267.262 249.68C267.118 249.82 266.925 249.901 266.724 249.907H266.641C266.544 249.905 266.449 249.884 266.36 249.845C266.271 249.806 266.191 249.749 266.125 249.679C266.059 249.608 266.007 249.525 265.974 249.434C265.941 249.342 265.926 249.246 265.931 249.149Z" fill="#263238"/>
<path d="M318.638 78.2895C317.557 83.9778 318.566 89.8652 321.48 94.8687L314.446 99.2503C310.59 92.6015 309.25 84.7894 310.668 77.2355C312.129 69.5022 316.143 62.4828 322.067 57.3017C327.991 52.1206 335.482 49.0776 343.341 48.6602V56.7366C337.4 57.029 331.731 59.3149 327.249 63.2255C322.767 67.136 319.733 72.4429 318.638 78.2895Z" fill="#6695FF"/>
<path opacity="0.3" d="M374.24 69.004L366.614 72.0829C365.152 68.06 362.61 64.5174 359.268 61.8435C355.926 59.1697 351.912 57.4679 347.666 56.9248C346.238 56.7285 344.795 56.6611 343.355 56.7235V48.6471C349.995 48.3389 356.56 50.1432 362.11 53.8009C367.659 57.4585 371.906 62.7812 374.24 69.004Z" fill="#6695FF"/>
<path d="M375.587 85.9159C372.318 103.845 354.981 116.623 337.171 114.243C332.491 113.64 328.011 111.976 324.072 109.378C320.133 106.779 316.841 103.315 314.445 99.2502L321.48 94.916C323.282 97.9885 325.765 100.607 328.738 102.569C331.71 104.532 335.094 105.787 338.627 106.237C345.261 107.018 351.943 105.252 357.325 101.295C362.706 97.3379 366.385 91.4858 367.617 84.9211C368.419 80.6492 368.059 76.2404 366.575 72.1551L374.201 69.0762C376.146 74.4677 376.624 80.279 375.587 85.9159Z" fill="#263238"/>
<path d="M318.441 53.9195C318.36 53.9209 318.279 53.9059 318.204 53.8754C318.128 53.8449 318.06 53.7995 318.003 53.7419L312.757 48.2116H294.733C294.576 48.2116 294.425 48.1492 294.314 48.0382C294.203 47.9271 294.141 47.7765 294.141 47.6195C294.141 47.4624 294.203 47.3118 294.314 47.2008C294.425 47.0897 294.576 47.0273 294.733 47.0273H313.005C313.086 47.027 313.165 47.0437 313.239 47.0763C313.312 47.109 313.378 47.1569 313.432 47.2168L318.867 52.9248C318.951 53.0067 319.008 53.1119 319.031 53.2267C319.054 53.3416 319.041 53.4606 318.995 53.5682C318.949 53.6758 318.871 53.767 318.772 53.8297C318.673 53.8924 318.558 53.9237 318.441 53.9195Z" fill="#263238"/>
<path opacity="0.3" d="M352.725 147.519C347.777 144.457 341.884 143.3 336.146 144.263L335.27 136.269C342.857 135.037 350.634 136.566 357.19 140.58C370.441 148.798 375.45 165.78 369.032 180.642L361.63 177.753C366.45 166.751 362.933 153.843 352.725 147.519Z" fill="#6695FF"/>
<path d="M336.664 201.768L337.209 193.68C341.646 193.723 346.022 192.642 349.928 190.535C353.833 188.429 357.142 185.368 359.543 181.636C360.352 180.404 361.053 179.104 361.639 177.752L369.041 180.641C368.266 182.438 367.339 184.166 366.27 185.805C363.079 190.743 358.692 194.796 353.516 197.587C348.341 200.378 342.544 201.816 336.664 201.768Z" fill="#263238"/>
<path d="M320.489 197.068C305.45 187.748 301.376 167.32 311.454 151.83C314.121 147.712 317.624 144.199 321.734 141.518C325.844 138.838 330.471 137.05 335.316 136.27L336.192 144.263C332.535 144.847 329.041 146.193 325.938 148.215C322.835 150.237 320.192 152.889 318.18 155.999C310.53 167.77 313.585 183.058 325.001 190.14C328.671 192.415 332.893 193.643 337.211 193.693L336.666 201.781C330.946 201.703 325.355 200.074 320.489 197.068Z" fill="#6695FF"/>
<path d="M314.167 141.183C314.006 141.179 313.853 141.11 313.741 140.994L308.483 135.464H290.459C290.302 135.464 290.152 135.401 290.041 135.29C289.93 135.179 289.867 135.028 289.867 134.871C289.867 134.714 289.93 134.564 290.041 134.453C290.152 134.342 290.302 134.279 290.459 134.279H308.744C308.905 134.284 309.058 134.352 309.17 134.469L314.594 140.177C314.649 140.232 314.693 140.297 314.723 140.369C314.753 140.442 314.769 140.519 314.769 140.597C314.769 140.675 314.753 140.753 314.723 140.825C314.693 140.897 314.649 140.963 314.594 141.018C314.477 141.123 314.325 141.183 314.167 141.183Z" fill="#263238"/>
<path d="M298.521 231.186H292.529C291.719 231.199 290.943 231.517 290.357 232.077C289.771 232.637 289.418 233.397 289.367 234.205L289.071 240.209C289.048 240.6 289.106 240.991 289.241 241.358C289.376 241.725 289.584 242.061 289.854 242.344C290.124 242.627 290.449 242.852 290.81 243.004C291.17 243.157 291.558 243.233 291.949 243.229H297.941C298.753 243.219 299.532 242.902 300.12 242.342C300.709 241.782 301.064 241.02 301.115 240.209L301.411 234.205C301.432 233.814 301.373 233.423 301.237 233.056C301.1 232.689 300.891 232.353 300.62 232.07C300.349 231.787 300.023 231.563 299.662 231.411C299.301 231.258 298.913 231.182 298.521 231.186Z" fill="#6695FF"/>
<path d="M332.127 231.185H326.135C325.315 231.196 324.53 231.52 323.94 232.09C323.35 232.66 323 233.433 322.961 234.252L322.677 240.256C322.654 240.646 322.711 241.036 322.845 241.402C322.979 241.769 323.187 242.104 323.456 242.387C323.724 242.67 324.048 242.895 324.407 243.048C324.766 243.201 325.152 243.278 325.543 243.276H331.606C332.416 243.263 333.192 242.944 333.778 242.385C334.364 241.825 334.717 241.065 334.768 240.256L335.064 234.252C335.094 233.853 335.04 233.452 334.904 233.074C334.769 232.697 334.556 232.353 334.279 232.064C334.002 231.774 333.667 231.547 333.297 231.395C332.926 231.244 332.527 231.172 332.127 231.185Z" fill="#263238"/>
<path opacity="0.3" d="M365.752 231.186H359.748C358.938 231.199 358.162 231.517 357.576 232.077C356.99 232.637 356.637 233.397 356.586 234.205L356.29 240.209C356.267 240.599 356.325 240.989 356.459 241.355C356.593 241.722 356.8 242.057 357.069 242.34C357.338 242.623 357.661 242.848 358.02 243.001C358.379 243.154 358.766 243.231 359.156 243.229H365.16C365.977 243.218 366.759 242.896 367.346 242.328C367.934 241.76 368.283 240.99 368.322 240.174L368.618 234.17C368.635 233.783 368.574 233.397 368.438 233.035C368.302 232.673 368.093 232.342 367.825 232.063C367.557 231.784 367.235 231.562 366.879 231.411C366.522 231.26 366.139 231.184 365.752 231.186Z" fill="#6695FF"/>
<path d="M109.562 156.021L109.493 157.392H104.312C104.394 156.873 104.587 156.383 104.89 155.921C105.194 155.455 105.779 154.838 106.645 154.071C107.342 153.451 107.772 153.031 107.934 152.811C108.153 152.506 108.269 152.205 108.284 151.907C108.301 151.578 108.224 151.325 108.054 151.15C107.887 150.972 107.648 150.882 107.336 150.882C107.027 150.882 106.777 150.975 106.586 151.161C106.394 151.346 106.273 151.655 106.224 152.085L104.758 151.938C104.886 151.126 105.191 150.543 105.671 150.189C106.152 149.835 106.74 149.658 107.434 149.658C108.195 149.658 108.783 149.863 109.197 150.273C109.611 150.683 109.803 151.192 109.773 151.802C109.755 152.149 109.676 152.48 109.534 152.795C109.395 153.106 109.183 153.434 108.896 153.777C108.705 154.005 108.366 154.332 107.878 154.76C107.391 155.187 107.08 155.471 106.947 155.611C106.817 155.751 106.71 155.887 106.627 156.021H109.562ZM110.618 155.411L112.099 155.259C112.124 155.592 112.235 155.856 112.432 156.052C112.63 156.245 112.863 156.341 113.133 156.341C113.442 156.341 113.71 156.217 113.936 155.968C114.162 155.716 114.288 155.338 114.314 154.833C114.337 154.36 114.248 154.007 114.046 153.772C113.847 153.534 113.578 153.415 113.238 153.415C112.813 153.415 112.423 153.602 112.068 153.977L110.877 153.803L111.835 149.795H115.744L115.675 151.177H112.887L112.59 152.485C112.928 152.32 113.268 152.238 113.612 152.238C114.268 152.238 114.812 152.476 115.244 152.952C115.676 153.429 115.873 154.047 115.835 154.807C115.803 155.441 115.591 156.007 115.198 156.504C114.662 157.183 113.949 157.523 113.059 157.523C112.347 157.523 111.776 157.332 111.346 156.951C110.916 156.569 110.674 156.056 110.618 155.411ZM116.81 157.392L116.884 155.916H118.362L118.289 157.392H116.81ZM119.613 155.411L121.094 155.259C121.119 155.592 121.231 155.856 121.428 156.052C121.625 156.245 121.859 156.341 122.129 156.341C122.437 156.341 122.705 156.217 122.931 155.968C123.158 155.716 123.284 155.338 123.309 154.833C123.332 154.36 123.243 154.007 123.041 153.772C122.842 153.534 122.573 153.415 122.233 153.415C121.809 153.415 121.419 153.602 121.063 153.977L119.873 153.803L120.831 149.795H124.739L124.67 151.177H121.882L121.585 152.485C121.923 152.32 122.264 152.238 122.607 152.238C123.263 152.238 123.807 152.476 124.239 152.952C124.671 153.429 124.868 154.047 124.83 154.807C124.799 155.441 124.586 156.007 124.193 156.504C123.658 157.183 122.945 157.523 122.054 157.523C121.342 157.523 120.771 157.332 120.341 156.951C119.911 156.569 119.669 156.056 119.613 155.411ZM128.389 157.392L128.466 155.842H125.31L125.374 154.55L128.965 149.658H130.206L129.962 154.544H130.919L130.854 155.842H129.897L129.819 157.392H128.389ZM128.531 154.544L128.663 151.912L126.758 154.544H128.531ZM131.534 153.527C131.557 153.068 131.675 152.727 131.887 152.505C132.101 152.284 132.381 152.173 132.727 152.173C133.085 152.173 133.358 152.284 133.548 152.505C133.74 152.725 133.825 153.065 133.802 153.527C133.779 153.987 133.66 154.328 133.446 154.55C133.234 154.771 132.955 154.882 132.609 154.882C132.252 154.882 131.977 154.772 131.785 154.553C131.595 154.331 131.511 153.989 131.534 153.527ZM132.302 153.52C132.286 153.854 132.313 154.078 132.384 154.193C132.439 154.277 132.517 154.319 132.62 154.319C132.725 154.319 132.809 154.277 132.871 154.193C132.952 154.078 133.001 153.854 133.017 153.52C133.034 153.187 133.008 152.964 132.939 152.852C132.884 152.766 132.805 152.722 132.7 152.722C132.597 152.722 132.514 152.764 132.452 152.848C132.369 152.963 132.319 153.187 132.302 153.52ZM133.206 157.588H132.477L135.485 152.173H136.193L133.206 157.588ZM134.865 156.24C134.888 155.78 135.005 155.44 135.217 155.218C135.432 154.996 135.714 154.886 136.065 154.886C136.417 154.886 136.689 154.996 136.879 155.218C137.071 155.44 137.155 155.78 137.132 156.24C137.109 156.702 136.991 157.044 136.776 157.266C136.564 157.487 136.285 157.598 135.94 157.598C135.582 157.598 135.307 157.487 135.115 157.266C134.925 157.044 134.842 156.702 134.865 156.24ZM135.633 156.237C135.616 156.57 135.643 156.793 135.715 156.905C135.769 156.992 135.847 157.035 135.95 157.035C136.055 157.035 136.138 156.993 136.198 156.909C136.281 156.794 136.331 156.57 136.348 156.237C136.364 155.903 136.338 155.679 136.269 155.565C136.215 155.481 136.135 155.439 136.03 155.439C135.925 155.439 135.842 155.481 135.782 155.565C135.699 155.679 135.649 155.903 135.633 156.237Z" fill="#263238"/>
<path d="M156.044 178.345H155.902C155.825 178.328 155.753 178.296 155.69 178.251C155.626 178.206 155.573 178.149 155.532 178.082C155.491 178.016 155.464 177.942 155.452 177.865C155.44 177.788 155.444 177.71 155.463 177.634C159.466 160.806 167.957 143.564 177.964 143.007C184.655 142.628 188.468 148.218 192.885 154.672C196.082 159.326 199.694 164.596 204.988 168.575C208.635 171.31 212.354 172.021 216.048 170.695C224.279 167.722 232.154 154.329 236.607 135.748C236.625 135.67 236.659 135.597 236.706 135.532C236.753 135.468 236.812 135.413 236.88 135.371C236.949 135.329 237.024 135.301 237.103 135.289C237.182 135.276 237.263 135.279 237.341 135.298C237.419 135.317 237.492 135.351 237.557 135.398C237.621 135.445 237.676 135.504 237.718 135.572C237.76 135.64 237.788 135.716 237.8 135.795C237.813 135.874 237.809 135.955 237.791 136.032C233.184 155.276 225.214 168.658 216.475 171.808C212.377 173.276 208.28 172.506 204.301 169.522C198.853 165.437 195.182 160.048 191.938 155.311C187.532 148.893 184.074 143.836 178.058 144.156C168.715 144.677 160.603 161.469 156.742 177.871C156.728 177.948 156.699 178.022 156.656 178.088C156.613 178.154 156.557 178.21 156.492 178.254C156.427 178.298 156.354 178.329 156.277 178.345C156.2 178.36 156.121 178.36 156.044 178.345Z" fill="#6695FF"/>
<path opacity="0.1" d="M242.792 186.54H99.3228C98.0969 186.548 96.8824 186.305 95.754 185.826C94.6256 185.347 93.6073 184.642 92.7618 183.755C91.9163 182.867 91.2616 181.816 90.8381 180.665C90.4145 179.515 90.231 178.29 90.299 177.066L92.395 135.287C92.5361 132.746 93.6371 130.355 95.4752 128.596C97.3133 126.837 99.7512 125.842 102.295 125.813H245.705C246.931 125.804 248.145 126.047 249.274 126.526C250.402 127.005 251.42 127.71 252.266 128.598C253.111 129.486 253.766 130.537 254.19 131.687C254.613 132.838 254.797 134.063 254.729 135.287L252.692 177.054C252.554 179.597 251.454 181.991 249.616 183.753C247.777 185.514 245.338 186.511 242.792 186.54ZM102.236 127.032C100.005 127.058 97.8661 127.927 96.2493 129.465C94.6325 131.003 93.6575 133.095 93.5201 135.322L91.4832 177.09C91.413 178.158 91.5643 179.23 91.9275 180.238C92.2907 181.245 92.8581 182.167 93.594 182.945C94.3299 183.723 95.2186 184.341 96.2044 184.76C97.1901 185.179 98.2518 185.39 99.3228 185.379H242.792C245.023 185.354 247.162 184.485 248.778 182.947C250.395 181.409 251.37 179.317 251.508 177.09L253.556 135.322C253.623 134.253 253.469 133.182 253.104 132.175C252.738 131.168 252.17 130.247 251.433 129.47C250.697 128.692 249.808 128.074 248.823 127.655C247.837 127.236 246.776 127.024 245.705 127.032H102.236Z" fill="#263238"/>
<path opacity="0.1" d="M130.359 137.689H107.172C106.819 137.69 106.469 137.618 106.145 137.479C105.821 137.34 105.528 137.136 105.286 136.88C105.043 136.624 104.855 136.321 104.733 135.99C104.612 135.659 104.559 135.306 104.578 134.954C104.617 134.233 104.929 133.554 105.45 133.055C105.971 132.556 106.663 132.274 107.385 132.266H130.56C130.914 132.264 131.264 132.334 131.59 132.472C131.916 132.611 132.21 132.814 132.454 133.07C132.698 133.327 132.887 133.63 133.009 133.962C133.132 134.294 133.185 134.648 133.165 135.001C133.124 135.721 132.811 136.398 132.29 136.897C131.77 137.396 131.08 137.679 130.359 137.689ZM107.385 133.45C106.969 133.458 106.572 133.622 106.271 133.909C105.971 134.197 105.789 134.586 105.762 135.001C105.748 135.195 105.774 135.391 105.839 135.574C105.904 135.758 106.007 135.926 106.141 136.067C106.276 136.204 106.436 136.314 106.613 136.389C106.789 136.464 106.979 136.504 107.172 136.505H130.359C130.774 136.494 131.17 136.33 131.469 136.043C131.769 135.756 131.952 135.368 131.981 134.954C131.993 134.759 131.965 134.563 131.898 134.38C131.831 134.196 131.726 134.029 131.59 133.888C131.459 133.747 131.299 133.635 131.122 133.559C130.944 133.484 130.753 133.447 130.56 133.45H107.385Z" fill="#263238"/>
<path d="M109.328 172.908H103.312L103.016 178.924H109.031L109.328 172.908Z" fill="#6695FF"/>
<path opacity="0.3" d="M115.925 249.849H103.656C103.125 249.853 102.6 249.748 102.111 249.541C101.623 249.334 101.182 249.029 100.816 248.645C100.449 248.261 100.166 247.806 99.9822 247.309C99.7986 246.811 99.7189 246.281 99.748 245.751L100.352 233.471C100.418 232.37 100.897 231.334 101.695 230.572C102.492 229.81 103.548 229.377 104.651 229.361H116.931C117.462 229.357 117.989 229.462 118.477 229.67C118.966 229.878 119.407 230.184 119.772 230.569C120.138 230.955 120.42 231.411 120.601 231.91C120.783 232.41 120.86 232.941 120.827 233.471L120.235 245.751C120.164 246.851 119.68 247.884 118.881 248.643C118.083 249.403 117.027 249.833 115.925 249.849Z" fill="#6695FF"/>
<path opacity="0.1" d="M162.996 243.146H131.341C130.881 243.15 130.425 243.06 130.002 242.881C129.578 242.701 129.196 242.437 128.878 242.104C128.561 241.771 128.315 241.376 128.156 240.945C127.997 240.513 127.929 240.053 127.955 239.594C128 238.644 128.406 237.747 129.091 237.086C129.775 236.426 130.686 236.052 131.638 236.041H163.28C163.74 236.039 164.196 236.13 164.619 236.31C165.043 236.49 165.425 236.754 165.743 237.087C166.061 237.419 166.308 237.813 166.469 238.244C166.63 238.675 166.701 239.134 166.679 239.594C166.634 240.544 166.227 241.441 165.542 242.101C164.858 242.761 163.947 243.135 162.996 243.146ZM131.638 237.225C130.999 237.235 130.387 237.484 129.923 237.922C129.458 238.361 129.174 238.957 129.127 239.594C129.113 239.894 129.159 240.195 129.263 240.478C129.367 240.76 129.526 241.019 129.731 241.24C129.94 241.456 130.19 241.627 130.467 241.743C130.744 241.859 131.041 241.917 131.341 241.915H162.996C163.635 241.91 164.248 241.663 164.712 241.223C165.176 240.784 165.456 240.184 165.495 239.546C165.516 239.245 165.473 238.942 165.369 238.659C165.264 238.375 165.102 238.117 164.891 237.9C164.684 237.681 164.434 237.507 164.157 237.389C163.88 237.271 163.581 237.211 163.28 237.213L131.638 237.225Z" fill="#263238"/>
<path d="M110.159 243.144C110.081 243.141 110.005 243.123 109.934 243.09C109.863 243.058 109.8 243.011 109.747 242.954C109.694 242.897 109.653 242.83 109.626 242.757C109.599 242.684 109.587 242.606 109.59 242.529L109.851 237.282C109.85 237.204 109.867 237.126 109.898 237.055C109.93 236.983 109.976 236.919 110.034 236.866C110.092 236.814 110.161 236.774 110.235 236.75C110.31 236.726 110.389 236.717 110.467 236.726C110.544 236.729 110.621 236.747 110.692 236.78C110.762 236.812 110.826 236.859 110.879 236.916C110.931 236.973 110.972 237.04 110.999 237.113C111.026 237.186 111.038 237.264 111.035 237.342L110.775 242.588C110.765 242.743 110.696 242.888 110.581 242.992C110.465 243.096 110.314 243.151 110.159 243.144Z" fill="#6695FF"/>
<path d="M107.898 239.676C107.737 239.671 107.584 239.603 107.472 239.486C107.417 239.431 107.372 239.366 107.342 239.294C107.312 239.222 107.297 239.144 107.297 239.066C107.297 238.988 107.312 238.91 107.342 238.838C107.372 238.766 107.417 238.701 107.472 238.646L110.006 236.277C110.121 236.168 110.274 236.109 110.433 236.111C110.589 236.122 110.737 236.189 110.847 236.301L113.144 238.669C113.253 238.784 113.311 238.937 113.307 239.095C113.302 239.252 113.235 239.402 113.121 239.51C113.006 239.618 112.853 239.677 112.695 239.672C112.538 239.668 112.388 239.601 112.28 239.486L110.397 237.497L108.289 239.51C108.182 239.608 108.044 239.667 107.898 239.676Z" fill="#6695FF"/>
<path d="M103.97 211.306L104.08 209.105C103.402 208.909 102.912 208.613 102.609 208.217C102.31 207.818 102.175 207.335 102.203 206.767C102.232 206.193 102.436 205.711 102.817 205.322C103.201 204.93 103.697 204.704 104.303 204.645L104.329 204.124H105.092L105.066 204.645C105.62 204.711 106.054 204.902 106.368 205.217C106.682 205.529 106.871 205.948 106.936 206.473L105.597 206.646C105.537 206.233 105.34 205.953 105.008 205.806L104.905 207.86C105.735 208.088 106.294 208.384 106.581 208.748C106.868 209.109 106.997 209.573 106.969 210.14C106.937 210.774 106.717 211.308 106.31 211.742C105.906 212.177 105.36 212.443 104.671 212.541L104.622 213.524H103.859L103.907 212.567C103.304 212.494 102.822 212.268 102.462 211.89C102.103 211.511 101.887 210.977 101.817 210.287L103.197 210.14C103.239 210.42 103.332 210.662 103.476 210.865C103.62 211.068 103.785 211.215 103.97 211.306ZM104.246 205.79C104.035 205.86 103.864 205.979 103.733 206.147C103.602 206.315 103.531 206.501 103.521 206.704C103.512 206.89 103.559 207.063 103.664 207.224C103.768 207.382 103.932 207.51 104.155 207.608L104.246 205.79ZM104.729 211.38C104.994 211.331 105.214 211.21 105.389 211.017C105.563 210.821 105.657 210.592 105.67 210.329C105.682 210.095 105.622 209.893 105.49 209.725C105.362 209.553 105.142 209.422 104.831 209.331L104.729 211.38ZM107.845 210.403L109.284 210.229C109.311 210.594 109.42 210.872 109.61 211.065C109.801 211.257 110.038 211.354 110.322 211.354C110.627 211.354 110.889 211.238 111.107 211.007C111.329 210.776 111.45 210.464 111.47 210.072C111.488 209.701 111.403 209.406 111.214 209.189C111.025 208.972 110.787 208.863 110.499 208.863C110.31 208.863 110.082 208.9 109.815 208.974L110.038 207.771C110.437 207.781 110.747 207.695 110.966 207.513C111.186 207.328 111.304 207.082 111.319 206.778C111.332 206.518 111.265 206.312 111.118 206.158C110.972 206.004 110.77 205.927 110.514 205.927C110.262 205.927 110.042 206.014 109.854 206.189C109.667 206.364 109.545 206.62 109.49 206.956L108.139 206.725C108.257 206.259 108.417 205.888 108.621 205.611C108.828 205.331 109.105 205.112 109.453 204.955C109.805 204.793 110.193 204.713 110.617 204.713C111.343 204.713 111.914 204.944 112.329 205.406C112.671 205.785 112.83 206.212 112.807 206.688C112.773 207.364 112.376 207.904 111.616 208.307C112.053 208.401 112.395 208.613 112.641 208.942C112.891 209.271 113.005 209.669 112.982 210.135C112.948 210.811 112.672 211.387 112.153 211.863C111.635 212.34 111.008 212.578 110.271 212.578C109.573 212.578 109.005 212.378 108.565 211.979C108.126 211.576 107.886 211.051 107.845 210.403ZM118.852 211.075L118.784 212.447H113.602C113.684 211.928 113.877 211.438 114.181 210.975C114.485 210.51 115.07 209.893 115.936 209.126C116.633 208.506 117.063 208.086 117.224 207.865C117.443 207.56 117.56 207.259 117.575 206.962C117.591 206.632 117.514 206.38 117.344 206.205C117.178 206.026 116.939 205.937 116.626 205.937C116.318 205.937 116.068 206.03 115.876 206.216C115.684 206.401 115.564 206.709 115.514 207.14L114.049 206.993C114.177 206.18 114.481 205.597 114.962 205.244C115.443 204.89 116.03 204.713 116.724 204.713C117.485 204.713 118.073 204.918 118.487 205.328C118.902 205.737 119.094 206.247 119.063 206.856C119.046 207.203 118.966 207.534 118.824 207.849C118.686 208.161 118.473 208.489 118.186 208.832C117.996 209.06 117.657 209.387 117.169 209.814C116.681 210.242 116.371 210.525 116.237 210.665C116.108 210.806 116.001 210.942 115.917 211.075H118.852ZM119.838 210.403L121.278 210.229C121.305 210.594 121.414 210.872 121.604 211.065C121.794 211.257 122.032 211.354 122.316 211.354C122.621 211.354 122.882 211.238 123.101 211.007C123.323 210.776 123.444 210.464 123.463 210.072C123.482 209.701 123.397 209.406 123.208 209.189C123.019 208.972 122.78 208.863 122.493 208.863C122.303 208.863 122.075 208.9 121.809 208.974L122.032 207.771C122.431 207.781 122.74 207.695 122.96 207.513C123.18 207.328 123.297 207.082 123.312 206.778C123.325 206.518 123.259 206.312 123.112 206.158C122.965 206.004 122.764 205.927 122.508 205.927C122.256 205.927 122.035 206.014 121.848 206.189C121.66 206.364 121.539 206.62 121.483 206.956L120.132 206.725C120.25 206.259 120.411 205.888 120.614 205.611C120.821 205.331 121.099 205.112 121.447 204.955C121.798 204.793 122.186 204.713 122.611 204.713C123.337 204.713 123.907 204.944 124.323 205.406C124.665 205.785 124.824 206.212 124.8 206.688C124.766 207.364 124.37 207.904 123.609 208.307C124.047 208.401 124.388 208.613 124.635 208.942C124.885 209.271 124.998 209.669 124.975 210.135C124.941 210.811 124.665 211.387 124.147 211.863C123.629 212.34 123.001 212.578 122.265 212.578C121.567 212.578 120.998 212.378 120.559 211.979C120.12 211.576 119.879 211.051 119.838 210.403ZM126.138 210.97H127.616L127.563 212.026C127.542 212.454 127.488 212.79 127.402 213.035C127.316 213.284 127.165 213.506 126.948 213.702C126.735 213.898 126.468 214.052 126.147 214.165L125.888 213.555C126.191 213.457 126.41 213.322 126.544 213.151C126.679 212.979 126.758 212.744 126.78 212.447H126.064L126.138 210.97ZM131.669 204.713C132.416 204.713 132.987 204.979 133.381 205.511C133.851 206.142 134.049 207.187 133.976 208.648C133.903 210.105 133.599 211.152 133.062 211.79C132.618 212.315 132.023 212.578 131.276 212.578C130.525 212.578 129.935 212.291 129.504 211.716C129.074 211.138 128.895 210.11 128.969 208.632C129.042 207.182 129.346 206.138 129.883 205.501C130.327 204.976 130.922 204.713 131.669 204.713ZM131.608 205.937C131.429 205.937 131.267 205.995 131.121 206.11C130.975 206.223 130.856 206.426 130.764 206.72C130.643 207.102 130.56 207.744 130.515 208.648C130.47 209.552 130.484 210.173 130.559 210.513C130.633 210.849 130.736 211.074 130.867 211.186C131.001 211.298 131.158 211.354 131.337 211.354C131.516 211.354 131.678 211.298 131.824 211.186C131.97 211.07 132.089 210.865 132.181 210.571C132.302 210.193 132.385 209.552 132.43 208.648C132.475 207.744 132.46 207.124 132.386 206.788C132.312 206.448 132.207 206.223 132.073 206.11C131.942 205.995 131.787 205.937 131.608 205.937ZM135.092 206.221L135.16 204.85H140.216L140.162 205.921C139.724 206.331 139.27 206.92 138.801 207.687C138.331 208.454 137.961 209.27 137.689 210.135C137.422 210.996 137.273 211.767 137.242 212.447H135.817C135.895 211.382 136.168 210.296 136.637 209.189C137.11 208.082 137.715 207.093 138.453 206.221H135.092ZM142.253 208.291C141.879 208.13 141.611 207.909 141.45 207.629C141.292 207.345 141.222 207.035 141.238 206.699C141.267 206.124 141.491 205.65 141.909 205.275C142.331 204.9 142.912 204.713 143.652 204.713C144.385 204.713 144.944 204.9 145.328 205.275C145.717 205.65 145.896 206.124 145.868 206.699C145.85 207.056 145.741 207.375 145.541 207.655C145.341 207.932 145.069 208.144 144.725 208.291C145.145 208.462 145.456 208.713 145.661 209.042C145.869 209.371 145.962 209.751 145.941 210.182C145.905 210.893 145.648 211.471 145.17 211.916C144.695 212.361 144.081 212.583 143.327 212.583C142.626 212.583 142.051 212.399 141.603 212.031C141.074 211.597 140.829 211.002 140.866 210.245C140.887 209.828 141.01 209.447 141.234 209.1C141.458 208.75 141.798 208.48 142.253 208.291ZM142.632 206.804C142.618 207.098 142.689 207.328 142.845 207.492C143.005 207.657 143.224 207.739 143.501 207.739C143.781 207.739 144.01 207.657 144.187 207.492C144.363 207.324 144.459 207.093 144.474 206.799C144.488 206.522 144.414 206.301 144.254 206.137C144.098 205.969 143.883 205.885 143.609 205.885C143.325 205.885 143.095 205.969 142.918 206.137C142.742 206.305 142.646 206.527 142.632 206.804ZM142.331 210.103C142.31 210.51 142.398 210.827 142.593 211.054C142.792 211.282 143.048 211.396 143.36 211.396C143.665 211.396 143.923 211.287 144.134 211.07C144.345 210.849 144.461 210.532 144.481 210.119C144.499 209.758 144.412 209.469 144.22 209.252C144.027 209.032 143.775 208.921 143.463 208.921C143.102 208.921 142.825 209.046 142.634 209.294C142.446 209.543 142.345 209.813 142.331 210.103ZM147.09 212.447L147.164 210.97H148.642L148.568 212.447H147.09ZM152.658 204.713C153.405 204.713 153.976 204.979 154.37 205.511C154.84 206.142 155.038 207.187 154.965 208.648C154.892 210.105 154.587 211.152 154.051 211.79C153.607 212.315 153.012 212.578 152.265 212.578C151.514 212.578 150.924 212.291 150.493 211.716C150.062 211.138 149.884 210.11 149.958 208.632C150.031 207.182 150.335 206.138 150.872 205.501C151.316 204.976 151.911 204.713 152.658 204.713ZM152.597 205.937C152.418 205.937 152.255 205.995 152.109 206.11C151.964 206.223 151.845 206.426 151.753 206.72C151.632 207.102 151.549 207.744 151.504 208.648C151.459 209.552 151.473 210.173 151.547 210.513C151.622 210.849 151.724 211.074 151.856 211.186C151.99 211.298 152.147 211.354 152.326 211.354C152.505 211.354 152.667 211.298 152.813 211.186C152.959 211.07 153.078 210.865 153.17 210.571C153.291 210.193 153.373 209.552 153.419 208.648C153.464 207.744 153.449 207.124 153.375 206.788C153.301 206.448 153.196 206.223 153.062 206.11C152.931 205.995 152.776 205.937 152.597 205.937ZM158.655 204.713C159.402 204.713 159.972 204.979 160.367 205.511C160.837 206.142 161.035 207.187 160.962 208.648C160.889 210.105 160.584 211.152 160.047 211.79C159.604 212.315 159.009 212.578 158.262 212.578C157.511 212.578 156.92 212.291 156.49 211.716C156.059 211.138 155.881 210.11 155.955 208.632C156.027 207.182 156.332 206.138 156.869 205.501C157.313 204.976 157.908 204.713 158.655 204.713ZM158.594 205.937C158.415 205.937 158.252 205.995 158.106 206.11C157.96 206.223 157.841 206.426 157.75 206.72C157.629 207.102 157.546 207.744 157.501 208.648C157.455 209.552 157.47 210.173 157.544 210.513C157.619 210.849 157.721 211.074 157.852 211.186C157.987 211.298 158.144 211.354 158.323 211.354C158.502 211.354 158.664 211.298 158.81 211.186C158.956 211.07 159.075 210.865 159.167 210.571C159.287 210.193 159.37 209.552 159.415 208.648C159.461 207.744 159.446 207.124 159.372 206.788C159.297 206.448 159.193 206.223 159.058 206.11C158.927 205.995 158.772 205.937 158.594 205.937Z" fill="#263238"/>
<path opacity="0.4" d="M196.877 229.361H184.608C183.504 229.377 182.447 229.809 181.648 230.571C180.849 231.333 180.366 232.369 180.298 233.471L179.706 245.751C179.675 246.28 179.753 246.81 179.935 247.308C180.118 247.806 180.4 248.261 180.765 248.645C181.131 249.029 181.571 249.334 182.059 249.541C182.547 249.748 183.072 249.853 183.602 249.849H195.882C196.983 249.833 198.038 249.402 198.835 248.642C199.632 247.883 200.113 246.85 200.181 245.751L200.785 233.471C200.816 232.94 200.737 232.409 200.554 231.909C200.372 231.41 200.088 230.954 199.722 230.569C199.356 230.184 198.914 229.878 198.425 229.67C197.935 229.462 197.409 229.357 196.877 229.361Z" fill="#263238"/>
<path opacity="0.1" d="M242.944 243.146H211.301C210.841 243.149 210.385 243.057 209.962 242.877C209.538 242.697 209.156 242.433 208.838 242.101C208.52 241.768 208.273 241.375 208.112 240.944C207.951 240.513 207.88 240.053 207.902 239.594C207.948 238.644 208.354 237.747 209.039 237.086C209.723 236.426 210.634 236.052 211.585 236.041H243.24C243.699 236.041 244.154 236.133 244.577 236.314C245 236.494 245.381 236.758 245.699 237.09C246.017 237.422 246.264 237.815 246.425 238.246C246.587 238.676 246.659 239.135 246.639 239.594C246.59 240.545 246.181 241.442 245.495 242.102C244.808 242.762 243.896 243.136 242.944 243.146ZM211.585 237.225C210.948 237.236 210.338 237.485 209.875 237.923C209.412 238.362 209.131 238.958 209.087 239.594C209.073 239.894 209.119 240.195 209.223 240.478C209.326 240.76 209.485 241.019 209.691 241.24C209.899 241.456 210.149 241.628 210.426 241.744C210.703 241.86 211.001 241.918 211.301 241.915H242.944C243.584 241.91 244.199 241.663 244.665 241.224C245.13 240.785 245.412 240.185 245.454 239.546C245.477 239.242 245.437 238.937 245.336 238.65C245.235 238.362 245.075 238.099 244.867 237.876C244.659 237.653 244.407 237.477 244.127 237.356C243.846 237.236 243.545 237.175 243.24 237.178L211.585 237.225Z" fill="#263238"/>
<path d="M190.128 242.542C190.05 242.539 189.973 242.52 189.903 242.488C189.832 242.455 189.768 242.409 189.716 242.352C189.663 242.294 189.622 242.227 189.595 242.154C189.568 242.081 189.556 242.004 189.559 241.926L189.82 236.68C189.819 236.601 189.835 236.523 189.867 236.451C189.898 236.378 189.945 236.314 190.002 236.26C190.06 236.207 190.129 236.166 190.203 236.14C190.278 236.115 190.357 236.105 190.435 236.111C190.594 236.121 190.742 236.191 190.848 236.309C190.954 236.426 191.01 236.581 191.004 236.739L190.743 241.973C190.74 242.051 190.722 242.127 190.689 242.198C190.657 242.269 190.61 242.332 190.553 242.385C190.496 242.438 190.429 242.479 190.356 242.506C190.283 242.533 190.205 242.545 190.128 242.542Z" fill="white"/>
<path d="M190.106 243.146C189.95 243.14 189.803 243.077 189.691 242.969L187.394 240.6C187.338 240.545 187.294 240.48 187.264 240.408C187.234 240.335 187.219 240.258 187.219 240.18C187.219 240.102 187.234 240.024 187.264 239.952C187.294 239.88 187.338 239.814 187.394 239.759C187.449 239.704 187.514 239.66 187.587 239.63C187.659 239.6 187.736 239.584 187.814 239.584C187.892 239.584 187.97 239.6 188.042 239.63C188.114 239.66 188.18 239.704 188.235 239.759L190.118 241.749L192.226 239.736C192.281 239.68 192.346 239.636 192.418 239.606C192.49 239.576 192.568 239.561 192.646 239.561C192.724 239.561 192.802 239.576 192.874 239.606C192.946 239.636 193.011 239.68 193.066 239.736C193.121 239.79 193.165 239.854 193.195 239.925C193.225 239.997 193.241 240.073 193.241 240.15C193.241 240.227 193.225 240.304 193.195 240.375C193.165 240.446 193.121 240.511 193.066 240.565L190.532 242.992C190.414 243.095 190.262 243.15 190.106 243.146Z" fill="white"/>
<path d="M33.3156 36.4856C28.5787 42.6554 27.7024 51.1581 27.9747 55.5043C28.3063 60.8925 21.2602 61.1412 23.2378 70.5202C24.9313 78.644 19.9931 81.1783 20.1115 87.5376C20.372 102.281 33.5998 106.639 58.2672 102.281C82.9346 97.9232 68.12 75.3992 71.4121 66.5294C74.7043 57.6595 72.099 36.8645 65.491 37.8001C66.2134 22.1446 42.8249 24.1815 33.3156 36.4856Z" fill="#263238"/>
<path d="M41.6539 102.802C41.4881 105.798 41.1683 108.498 40.7775 111.329C40.3868 114.159 39.8775 116.906 39.2499 119.677C38.6223 122.448 37.9117 125.243 37.0354 127.967C36.1423 130.799 35.0623 133.568 33.8024 136.257L33.5301 136.849C32.8972 138.224 31.7613 139.305 30.356 139.869C28.9508 140.433 27.3829 140.437 25.9747 139.88C24.3538 139.213 22.7723 138.454 21.2378 137.607C19.7339 136.801 18.3483 135.901 16.9509 135.025C15.5535 134.149 14.239 133.166 12.9364 132.171C11.6337 131.176 10.3785 130.158 9.13503 128.997C8.61332 128.445 8.27816 127.744 8.1769 126.991C8.07563 126.238 8.21338 125.473 8.57068 124.803C8.92799 124.133 9.48679 123.592 10.1682 123.256C10.8495 122.921 11.619 122.808 12.368 122.934H12.4864C14.0022 123.277 15.5298 123.727 17.022 124.118L21.4628 125.421L25.7852 126.688C27.1826 127.091 28.58 127.434 29.8235 127.706L21.9839 131.33C22.7536 129.128 23.3813 126.771 23.9734 124.355C24.5655 121.939 25.0037 119.441 25.4418 116.93C25.88 114.419 26.2471 111.873 26.626 109.315C27.005 106.758 27.2655 104.129 27.5379 101.748V101.618C27.6949 99.7335 28.5941 97.9886 30.0377 96.7672C31.4813 95.5457 33.3509 94.9477 35.2354 95.1047C37.1198 95.2618 38.8647 96.161 40.0862 97.6045C41.3077 99.0481 41.9057 100.918 41.7486 102.802H41.6539Z" fill="#B55B52"/>
<path d="M8.19917 118.848L5.28598 117.818C4.92851 117.691 4.54942 117.637 4.17087 117.659C3.79232 117.681 3.42189 117.778 3.08121 117.944C2.74054 118.111 2.43645 118.343 2.18672 118.629C1.93699 118.914 1.74661 119.246 1.62672 119.606L0.513551 122.934C0.299144 123.576 0.320893 124.273 0.574889 124.9C0.828885 125.528 1.29845 126.044 1.89909 126.356L5.54651 128.274C5.54651 128.274 11.4676 132.822 14.44 130.039L16.0624 125.302L11.669 121.027C10.6816 120.061 9.49839 119.318 8.19917 118.848Z" fill="#B55B52"/>
<path d="M40.2125 86.5078C31.4848 88.1539 29.6374 91.7184 23.207 104.97C25.1492 113.686 41.7165 121.348 41.7165 121.348C41.7165 121.348 54.6009 97.7816 40.2125 86.5078Z" fill="#263238"/>
<path d="M55.1921 385.488C60.6632 378.193 61.1132 376.18 64.5593 372.343C66.4522 370.144 68.5987 368.176 70.9541 366.481C73.2515 364.622 71.8778 361.934 69.7699 360.797C68.1238 359.921 66.312 359.139 64.3225 357.979L55.2987 365.344C56.1869 369.525 54.3276 378.241 50.5618 384.043C47.8025 388.2 53.0013 388.401 55.1921 385.488Z" fill="#263238"/>
<path d="M28.5461 152.859C28.5461 152.859 20.1381 211.857 13.8736 252.109C12.5974 259.94 13.3643 267.967 16.0999 275.415C26.8172 303.967 54.5991 366.044 54.5991 366.044C55.8781 367.299 63.5637 359.992 64.3098 357.979C64.3098 357.979 54.7057 279.524 39.7726 261.938C70.2427 199.08 69.769 152.859 69.769 152.859H28.5461Z" fill="#959CAA"/>
<g opacity="0.2">
<path d="M69.743 154.613L47.2427 156.188C47.2427 156.188 42.8848 220.989 41.9492 257.321C66.9245 203.865 69.4825 163.329 69.743 154.613Z" fill="black"/>
<path d="M41.8173 264.758C41.5094 283.386 40.5738 307.627 38.7383 330.02C44.4344 343.13 49.5621 354.723 52.3687 361.023C55.0687 353.219 58.0767 343.9 60.7886 334.023C57.0109 311.227 50.3911 278.353 41.8173 264.758Z" fill="black"/>
</g>
<path d="M50.6191 362.976C51.306 363.983 52.502 365.795 53.331 367.168C53.4053 367.276 53.5007 367.368 53.6115 367.439C53.7223 367.509 53.8462 367.556 53.9757 367.577C54.1052 367.598 54.2376 367.593 54.3649 367.561C54.4922 367.529 54.6118 367.472 54.7165 367.393C58.5099 364.686 62.0745 361.672 65.3746 358.381C65.5324 358.233 65.6427 358.042 65.6912 357.831C65.7397 357.62 65.7243 357.399 65.6469 357.197L63.8351 353.076C63.7678 352.943 63.6708 352.827 63.5515 352.738C63.4322 352.648 63.2939 352.587 63.1474 352.56C63.0008 352.532 62.8498 352.539 62.7062 352.579C62.5626 352.619 62.4302 352.692 62.3193 352.792L50.9507 361.567C50.7303 361.719 50.5743 361.947 50.513 362.208C50.4517 362.468 50.4896 362.742 50.6191 362.976Z" fill="#959CAA"/>
<path opacity="0.3" d="M50.6191 362.976C51.306 363.983 52.502 365.795 53.331 367.168C53.4053 367.276 53.5007 367.368 53.6115 367.439C53.7223 367.509 53.8462 367.556 53.9757 367.577C54.1052 367.598 54.2376 367.593 54.3649 367.561C54.4922 367.529 54.6118 367.472 54.7165 367.393C58.5099 364.686 62.0745 361.672 65.3746 358.381C65.5324 358.233 65.6427 358.042 65.6912 357.831C65.7397 357.62 65.7243 357.399 65.6469 357.197L63.8351 353.076C63.7678 352.943 63.6708 352.827 63.5515 352.738C63.4322 352.648 63.2939 352.587 63.1474 352.56C63.0008 352.532 62.8498 352.539 62.7062 352.579C62.5626 352.619 62.4302 352.692 62.3193 352.792L50.9507 361.567C50.7303 361.719 50.5743 361.947 50.513 362.208C50.4517 362.468 50.4896 362.742 50.6191 362.976Z" fill="white"/>
<path d="M23.795 388.402C32.3924 390.107 35.7083 390.64 40.611 391.445C44.8031 392.12 45.5847 392.819 48.9005 393.411C51.6953 393.896 52.6901 391.339 53.0927 388.236C53.3059 386.685 53.6848 382.86 54.123 380.373L40.8004 379.662C37.6267 382.552 29.1595 383.499 24.0555 383.215C19.212 382.836 20.3726 387.715 23.795 388.402Z" fill="#263238"/>
<path d="M40.9065 152.859C40.9065 152.859 45.3237 228.65 46.1408 262.992C46.9816 299.052 46.2947 355.362 39.7578 379.354C41.546 380.539 49.8356 380.539 54.158 379.283C54.158 379.283 81.0755 302.901 70.9385 264.591C91.3427 180.203 79.228 160.273 75.8293 152.895L40.9065 152.859Z" fill="#959CAA"/>
<path d="M40.8962 374.416C40.35 376.036 39.6972 377.618 38.9422 379.153C38.8679 379.263 38.8212 379.39 38.8061 379.522C38.791 379.654 38.808 379.788 38.8557 379.912C38.9033 380.037 38.9801 380.148 39.0797 380.236C39.1793 380.324 39.2987 380.387 39.4278 380.42C44.0344 381.604 51.4003 381.166 53.7569 380.976C53.9851 380.954 54.2038 380.873 54.3923 380.743C54.5809 380.612 54.7331 380.436 54.8345 380.23L56.9543 375.801C57.0317 375.68 57.0755 375.54 57.0813 375.396C57.0871 375.252 57.0547 375.109 56.9874 374.981C56.92 374.854 56.8201 374.746 56.6978 374.67C56.5756 374.593 56.4352 374.551 56.2911 374.546L42.1989 373.528C41.9164 373.522 41.6393 373.605 41.4059 373.764C41.1725 373.923 40.9944 374.151 40.8962 374.416Z" fill="#959CAA"/>
<path opacity="0.3" d="M40.8962 374.416C40.35 376.036 39.6972 377.618 38.9422 379.153C38.8679 379.263 38.8212 379.39 38.8061 379.522C38.791 379.654 38.808 379.788 38.8557 379.912C38.9033 380.037 38.9801 380.148 39.0797 380.236C39.1793 380.324 39.2987 380.387 39.4278 380.42C44.0344 381.604 51.4003 381.166 53.7569 380.976C53.9851 380.954 54.2038 380.873 54.3923 380.743C54.5809 380.612 54.7331 380.436 54.8345 380.23L56.9543 375.801C57.0317 375.68 57.0755 375.54 57.0813 375.396C57.0871 375.252 57.0547 375.109 56.9874 374.981C56.92 374.854 56.8201 374.746 56.6978 374.67C56.5756 374.593 56.4352 374.551 56.2911 374.546L42.1989 373.528C41.9164 373.522 41.6393 373.605 41.4059 373.764C41.1725 373.923 40.9944 374.151 40.8962 374.416Z" fill="white"/>
<path d="M75.4964 85.8792C73.6135 85.6897 71.6359 85.5239 69.5753 85.4292C62.4277 84.9194 55.2529 84.9194 48.1053 85.4292C45.7368 85.6423 43.3684 85.9384 40.9999 86.2581C36.9171 86.8533 33.1688 88.8513 30.3986 91.909C27.6283 94.9666 26.0088 98.8933 25.8182 103.015C25.6761 107.669 26.6827 114.691 27.6537 125.764C28.9327 140.2 25.4155 147.542 28.4945 152.859C34.5222 158.591 62.1976 155.725 75.7807 152.859C79.8662 147.601 71.8727 133.911 84.8755 100.208C87.5282 93.47 82.5071 86.5897 75.4964 85.8792Z" fill="#263238"/>
<path d="M47.3965 96.9523C47.1478 97.8405 46.6386 98.4563 46.2123 98.3497C45.786 98.2431 45.7031 97.4378 45.9518 96.5615C46.2005 95.6852 46.7215 95.0576 47.136 95.1641C47.5505 95.2707 47.6571 96.076 47.3965 96.9523Z" fill="white"/>
<path d="M45.6666 104.259C45.5481 105.17 45.1337 105.869 44.731 105.81C44.3284 105.751 44.1034 104.993 44.21 104.081C44.3165 103.169 44.7429 102.482 45.1337 102.53C45.5245 102.577 45.7731 103.347 45.6666 104.259Z" fill="white"/>
<path d="M65.0539 61.9941C64.8408 69.0995 63.9289 80.8233 68.4171 85.43C68.4171 85.43 61.8684 84.4471 47.9774 93.0445C43.951 87.2655 46.9353 85.43 46.9353 85.43C48.0012 85.2747 49.016 84.8721 49.8985 84.2545C50.7811 83.6369 51.5068 82.8213 52.0178 81.873C52.5288 80.9247 52.8108 79.8701 52.8412 78.7933C52.8717 77.7165 52.6498 76.6476 52.1932 75.672L65.0539 61.9941Z" fill="#B55B52"/>
<path d="M50.9531 91.3164C55.5361 91.9678 56.969 98.8718 56.969 98.8718C56.969 98.8718 67.9586 91.1033 71.4402 85.6203C70.0576 84.8438 68.7176 83.9938 67.4257 83.0742C67.4257 83.0742 53.5703 88.6756 50.9531 91.3164Z" fill="white"/>
<path d="M46.5456 90.5693C46.5456 90.5693 42.91 91.3627 41.0863 96.4193C40.0442 86.3416 44.8166 85.406 44.8166 85.406C46.08 84.7105 47.5538 84.4999 48.9614 84.8139C47.9513 85.3415 47.1571 86.2053 46.716 87.2561C46.275 88.3069 46.2147 89.4787 46.5456 90.5693Z" fill="white"/>
<path opacity="0.2" d="M57.0112 71.3725L55.1993 72.4738L52.1914 75.6712C52.9711 77.2981 53.0733 79.1678 52.4756 80.87C55.9099 79.5436 59.3678 76.8554 60.2797 73.9541C60.4164 73.523 60.4186 73.0606 60.286 72.6283C60.1534 72.1959 59.8923 71.8142 59.5375 71.534C59.1826 71.2537 58.7508 71.0881 58.2995 71.0592C57.8482 71.0304 57.3989 71.1397 57.0112 71.3725Z" fill="black"/>
<path d="M62.7931 45.2378C66.0971 56.0971 67.7195 60.6327 64.5576 68.3065C59.8207 79.8764 46.1547 82.1856 39.7717 72.6881C34.0401 64.1262 29.5992 47.8194 38.0901 39.2219C39.8485 37.3134 42.0858 35.9107 44.5697 35.1594C47.0535 34.4081 49.6932 34.3357 52.2145 34.9497C54.7358 35.5637 57.0467 36.8417 58.907 38.6509C60.7673 40.4601 62.1091 42.7345 62.7931 45.2378Z" fill="#B55B52"/>
<path opacity="0.4" d="M51.248 38.8548C48.465 46.268 55.0612 55.4932 64.4995 54.7826C68.8929 46.3865 66.2284 39.968 63.8837 37.3508C61.5389 34.7337 54.4335 34.2837 51.248 38.8548Z" fill="#263238"/>
<path d="M63.8227 38.7825C62.5555 47.7708 33.3762 42.2049 31.7893 51.2168C31.7183 39.4456 44.875 23.7191 63.8227 38.7825Z" fill="#263238"/>
<path d="M48.4625 56.3219C48.7704 57.222 48.5809 58.1457 48.0243 58.3825C47.4678 58.6193 46.7572 58.0864 46.4375 57.1983C46.1177 56.3101 46.3191 55.3746 46.8756 55.1259C47.4322 54.8772 48.1428 55.4338 48.4625 56.3219Z" fill="#263238"/>
<path d="M37.521 59.7452C37.8407 60.6452 37.6513 61.5689 37.0947 61.8057C36.5381 62.0426 35.8275 61.5097 35.5078 60.6215C35.1881 59.7333 35.3894 58.7978 35.946 58.561C36.5026 58.3241 37.2131 58.8452 37.521 59.7452Z" fill="#263238"/>
<path d="M36.2072 58.4883L33.9453 58.7488C33.9453 58.7488 35.5559 59.9804 36.2072 58.4883Z" fill="#263238"/>
<path d="M40.5887 59.2344C40.5514 61.6169 40.2092 63.9849 39.5703 66.2805C40.1315 66.4173 40.7164 66.4243 41.2807 66.3012C41.8449 66.1781 42.3738 65.928 42.8269 65.57L40.5887 59.2344Z" fill="#A02724"/>
<path d="M45.6705 68.5316C45.1841 68.7334 44.6808 68.8919 44.1666 69.0053C44.1322 69.014 44.0963 69.0152 44.0614 69.0088C44.0265 69.0025 43.9934 68.9888 43.9642 68.9686C43.9351 68.9484 43.9105 68.9222 43.8923 68.8918C43.8741 68.8614 43.8627 68.8274 43.8587 68.7921C43.8478 68.7187 43.8649 68.6439 43.9065 68.5825C43.9482 68.5211 44.0114 68.4775 44.0837 68.4605C45.243 68.2054 46.3302 67.6931 47.2649 66.9613C48.1996 66.2295 48.9579 65.2971 49.4837 64.2328C49.4921 64.194 49.5088 64.1574 49.5328 64.1257C49.5567 64.094 49.5874 64.0679 49.6225 64.0493C49.6576 64.0307 49.6964 64.02 49.7361 64.0179C49.7757 64.0159 49.8154 64.0226 49.8522 64.0375C49.8891 64.0524 49.9222 64.0752 49.9493 64.1043C49.9764 64.1333 49.9968 64.168 50.0091 64.2058C50.0214 64.2436 50.0252 64.2836 50.0204 64.3231C50.0156 64.3625 50.0022 64.4005 49.9811 64.4342C49.1005 66.2861 47.5647 67.746 45.6705 68.5316Z" fill="#263238"/>
<path d="M69.6949 54.5692C69.7592 55.657 69.5942 56.7462 69.2107 57.7662C68.8271 58.7862 68.2336 59.7143 67.4686 60.4903C65.5027 62.314 63.1106 60.2179 62.4711 57.1863C61.9027 54.4626 62.2343 50.2231 64.8396 49.6073C67.4449 48.9915 69.6238 51.6441 69.6949 54.5692Z" fill="#B55B52"/>
<path d="M48.2378 51.1451C48.1678 51.1591 48.0956 51.1579 48.0262 51.1416C47.9567 51.1252 47.8916 51.0941 47.8352 51.0504C47.3066 50.6283 46.6812 50.3445 46.0154 50.2246C45.3497 50.1047 44.6646 50.1524 44.022 50.3635C43.9571 50.3915 43.8869 50.4053 43.8163 50.4041C43.7456 50.4028 43.676 50.3865 43.6122 50.3563C43.5483 50.326 43.4916 50.2825 43.4459 50.2286C43.4001 50.1747 43.3664 50.1117 43.347 50.0438C43.303 49.9006 43.3137 49.7462 43.3772 49.6105C43.4407 49.4748 43.5523 49.3676 43.6904 49.3096C44.4981 49.0327 45.3623 48.9625 46.2042 49.1052C47.0461 49.2479 47.8388 49.5991 48.5102 50.1267C48.6254 50.2216 48.6987 50.358 48.7142 50.5064C48.7297 50.6549 48.6862 50.8035 48.5931 50.9201C48.5034 51.033 48.3782 51.1123 48.2378 51.1451Z" fill="#263238"/>
<path d="M32.5349 56.7236C32.4058 56.7763 32.2613 56.7763 32.1323 56.7236C32.0651 56.6975 32.0039 56.6583 31.952 56.6084C31.9001 56.5584 31.8587 56.4987 31.8301 56.4326C31.8014 56.3665 31.7862 56.2954 31.7852 56.2234C31.7842 56.1514 31.7975 56.0799 31.8244 56.0131C32.1093 55.1631 32.5835 54.3889 33.2112 53.7488C33.8389 53.1088 34.6038 52.6197 35.4481 52.3183C35.5174 52.301 35.5896 52.2981 35.6601 52.3098C35.7306 52.3216 35.7979 52.3477 35.8579 52.3866C35.9179 52.4254 35.9692 52.4762 36.0087 52.5358C36.0483 52.5954 36.0751 52.6624 36.0876 52.7328C36.1145 52.8782 36.0872 53.0284 36.0108 53.155C35.9345 53.2816 35.8143 53.3757 35.6731 53.4196C35.0045 53.6595 34.4002 54.0503 33.9073 54.5617C33.4144 55.0732 33.046 55.6914 32.8309 56.3684C32.808 56.4444 32.7699 56.5151 32.719 56.5761C32.6682 56.6371 32.6055 56.6873 32.5349 56.7236Z" fill="#263238"/>
<path d="M47.133 55.0781L44.8711 55.3268C44.8711 55.3268 46.5172 56.6176 47.133 55.0781Z" fill="#263238"/>
<path d="M82.6746 110.879C82.6746 111.506 82.6746 111.802 82.6746 112.229V113.413C82.6746 114.171 82.568 114.917 82.4851 115.663C82.3253 117.143 82.0882 118.613 81.7746 120.068C81.1571 123.036 80.2159 125.927 78.968 128.689C77.6843 131.582 76.0022 134.281 73.9705 136.707C71.8875 139.214 69.4071 141.362 66.6283 143.066L66.202 143.327C65.8317 143.545 65.4333 143.713 65.0178 143.824C63.0061 144.404 60.8714 144.404 58.8598 143.824C57.5265 143.448 56.2396 142.923 55.0229 142.261C53.0582 141.158 51.2094 139.861 49.5044 138.388C47.9345 137.038 46.4475 135.595 45.0517 134.066C43.6707 132.563 42.3777 130.981 41.1793 129.329C40.6544 128.667 40.3825 127.84 40.4124 126.996C40.4422 126.152 40.7719 125.346 41.3422 124.723C41.9126 124.1 42.6862 123.7 43.5245 123.596C44.3627 123.492 45.2107 123.689 45.9162 124.154L46.0465 124.237L50.7834 127.02C52.3584 127.92 53.9334 128.808 55.5203 129.578C56.9328 130.311 58.402 130.928 59.9138 131.425C60.4199 131.606 60.9515 131.706 61.4888 131.721C61.8322 131.721 61.8085 131.508 60.9914 131.721L59.4401 132.479C60.8989 131.318 62.1796 129.95 63.2414 128.417C63.7968 127.635 64.2917 126.811 64.7217 125.954C65.1955 125.078 65.6109 124.172 65.9652 123.242C66.7108 121.298 67.2854 119.293 67.6823 117.25C67.8955 116.208 68.0494 115.154 68.1915 114.1C68.2507 113.567 68.3099 113.046 68.3573 112.525L68.452 111.21V110.583C68.5054 108.698 69.3052 106.912 70.6755 105.617C72.0458 104.323 73.8742 103.625 75.7587 103.679C77.6432 103.732 79.4292 104.532 80.724 105.902C82.0188 107.272 82.7161 109.101 82.6627 110.985L82.6746 110.879Z" fill="#B55B52"/>
<path d="M38.3139 134.991H12.6636C11.5221 135.009 10.4066 134.649 9.49026 133.968C8.57388 133.288 7.90772 132.323 7.59508 131.225L4.45688 114.954C4.05424 112.894 5.64111 111.224 8.08062 111.224H33.7191C34.8569 111.2 35.9708 111.553 36.8874 112.227C37.804 112.902 38.472 113.861 38.7876 114.954L41.9376 131.225C42.3284 133.321 40.706 134.991 38.3139 134.991Z" fill="#959CAA"/>
<path d="M37.5244 133.937H12.6557C11.7819 133.957 10.9251 133.693 10.214 133.185C9.50296 132.677 8.97596 131.951 8.7122 131.118L5.64505 115.285C5.58814 115.015 5.59265 114.735 5.65824 114.466C5.72382 114.198 5.84881 113.947 6.024 113.734C6.29906 113.438 6.63572 113.206 7.01018 113.055C7.38464 112.903 7.78778 112.836 8.19113 112.857H33.0599C33.9313 112.84 34.7852 113.104 35.4953 113.609C36.2054 114.115 36.7342 114.835 37.0033 115.664L40.0587 131.497C40.1207 131.767 40.1199 132.047 40.0562 132.316C39.9925 132.585 39.8678 132.835 39.6915 133.048C39.4166 133.345 39.0802 133.578 38.706 133.732C38.3317 133.885 37.9285 133.955 37.5244 133.937ZM8.13192 113.153C7.77174 113.133 7.41147 113.192 7.07611 113.325C6.74074 113.457 6.43831 113.662 6.18979 113.923C6.04349 114.105 5.9399 114.318 5.88661 114.545C5.83333 114.773 5.83172 115.01 5.8819 115.238L8.93719 131.059C9.19544 131.817 9.69034 132.473 10.3491 132.929C11.0078 133.385 11.7956 133.618 12.5965 133.593H37.4652C37.8248 133.614 38.1845 133.555 38.5184 133.42C38.8523 133.285 39.1519 133.077 39.3955 132.812C39.5459 132.634 39.6531 132.424 39.7086 132.198C39.7641 131.972 39.7664 131.736 39.7152 131.509L36.7428 115.723C36.493 114.959 36.0029 114.296 35.3457 113.833C34.6884 113.37 33.8991 113.132 33.0954 113.153H8.13192Z" fill="white"/>
<path d="M38.8582 119.477L35.8502 118.719C35.4823 118.628 35.0999 118.61 34.7252 118.668C34.3506 118.726 33.9913 118.859 33.6682 119.057C33.3452 119.255 33.065 119.516 32.8439 119.824C32.6228 120.132 32.4652 120.481 32.3804 120.851L31.5989 124.273C31.4483 124.932 31.5372 125.622 31.8497 126.221C32.1622 126.82 32.6778 127.288 33.3041 127.541L37.1173 129.105C37.1173 129.105 43.5003 133.048 46.153 130.005L47.3372 125.126L42.6003 121.289C41.5025 120.415 40.2243 119.796 38.8582 119.477Z" fill="#B55B52"/>
<path d="M75.9363 85.9395C86.322 86.5553 89.5194 97.3909 86.0614 117.096C84.3798 124.498 63.6322 114.385 63.6322 114.385C63.6322 114.385 62.9098 93.329 75.9363 85.9395Z" fill="#263238"/>
<path d="M372.6 287.58C368.822 263.896 379.172 232.834 392.293 235.119C403.165 237.014 374.85 280.345 372.6 287.58Z" fill="#A6ABB7"/>
<path d="M368.464 299.66C380.804 282.122 373.201 246.074 360.175 245.257C347.148 244.44 367.398 290.838 368.464 299.66Z" fill="#263238"/>
<path d="M369.077 309.927C367.668 272.031 390.749 252.977 401.051 257.501C411.65 262.167 377.142 288.954 369.077 309.927Z" fill="#A6ABB7"/>
<path d="M365.976 333.527C378.316 306.847 367.741 265.15 348.118 269.662C331.847 273.404 363.063 322.301 365.976 333.527Z" fill="#A6ABB7"/>
<path d="M366.817 341.509C365.455 315.93 357.698 283.316 341.759 286.336C326.553 289.178 362.08 319.139 366.817 341.509Z" fill="#263238"/>
<path d="M362.91 354.027C366.818 316.285 399.124 295.218 398.792 309.535C398.449 324.824 373.77 334.783 362.91 354.027Z" fill="#A6ABB7"/>
<path d="M366.048 346.034C370.584 332.534 359.926 314.202 348.735 318.122C339.462 321.379 363.135 341.108 366.048 346.034Z" fill="#A6ABB7"/>
<path d="M366.344 340.989C361.465 312.047 386.405 262.238 408.905 272.943C430.766 283.353 377.002 307.736 366.344 340.989Z" fill="#263238"/>
<path d="M377.475 384.677H355.922C354.041 384.681 352.208 384.08 350.694 382.962C349.18 381.845 348.066 380.271 347.515 378.472C344.697 369.86 343.407 360.823 343.701 351.767C343.852 348.912 344.248 346.075 344.886 343.288C345.009 342.731 345.317 342.233 345.76 341.873C346.203 341.514 346.755 341.316 347.325 341.311H386.132C386.702 341.314 387.253 341.512 387.694 341.872C388.136 342.232 388.441 342.731 388.56 343.288C389.197 346.075 389.593 348.912 389.744 351.767C390.037 360.822 388.751 369.858 385.943 378.472C385.385 380.278 384.261 381.858 382.736 382.975C381.211 384.093 379.366 384.69 377.475 384.677Z" fill="#A6ABB7"/>
<path opacity="0.5" d="M389.671 351.767H343.699C343.85 348.912 344.246 346.075 344.883 343.288C345.007 342.731 345.315 342.233 345.758 341.873C346.201 341.514 346.753 341.316 347.323 341.311H386.13C386.699 341.314 387.251 341.512 387.692 341.872C388.134 342.232 388.439 342.731 388.558 343.288C389.171 346.077 389.543 348.914 389.671 351.767Z" fill="white"/>
</svg>
