<svg width="144" height="119" viewBox="0 0 144 119" fill="none" xmlns="http://www.w3.org/2000/svg">
<circle cx="69.5" cy="59.5" r="59.5" fill="black"/>
<path d="M70.2744 105.539C69.8044 105.299 69.4844 105.149 69.1844 104.969C61.6244 100.609 54.0644 96.2686 46.5244 91.8886C44.8669 91.0092 43.5506 89.6014 42.7844 87.8886C42.5319 87.2518 42.3997 86.5736 42.3944 85.8886C42.3944 72.5086 42.0144 58.8886 42.0144 45.5486C42.0144 44.8186 41.7644 43.1586 43.3444 42.8086C42.5244 43.3986 42.7244 44.0486 42.9344 44.3086C44.0158 45.6447 45.3221 46.7817 46.7944 47.6686C52.5344 51.0019 58.2778 54.3119 64.0244 57.5986C65.9244 58.6886 67.8244 59.7986 69.7344 60.8686C69.927 60.977 70.0825 61.1408 70.1806 61.3388C70.2787 61.5368 70.3149 61.7597 70.2844 61.9786C70.2844 74.9386 70.2844 87.8953 70.2844 100.849V105.569L70.2744 105.539Z" fill="white"/>
<path d="M79.336 105.539C79.336 105.129 79.256 104.869 79.256 104.599C79.256 98.0285 79.256 91.4585 79.256 84.8885C79.256 83.8885 78.906 57.7785 78.106 57.3185C71.866 53.7519 65.6327 50.1619 59.406 46.5485C57.466 45.4385 56.456 43.8885 57.756 42.6285C58.756 41.6285 77.086 30.6285 84.936 26.1185L95.706 19.9385C96.276 19.6185 96.386 19.6785 96.386 20.3485C96.386 22.2085 96.386 24.0585 96.386 25.9185C96.386 40.2485 96.386 80.1785 96.386 94.5085C96.4185 94.8932 96.3325 95.2787 96.1394 95.613C95.9463 95.9473 95.6555 96.2145 95.306 96.3785C90.256 99.2685 85.216 102.209 80.166 105.119C79.966 105.259 79.716 105.359 79.336 105.539Z" fill="white"/>
<path d="M43.8169 44.8485C43.5734 44.8413 43.3386 44.7562 43.147 44.6057C42.9553 44.4553 42.8169 44.2474 42.7521 44.0126C42.6872 43.7777 42.6993 43.5283 42.7866 43.3008C42.8738 43.0733 43.0316 42.8798 43.2369 42.7485L91.5869 14.1585C91.8521 14.0034 92.1681 13.96 92.4654 14.0378C92.7626 14.1156 93.0168 14.3083 93.1719 14.5735C93.3271 14.8388 93.3705 15.1548 93.2927 15.452C93.2149 15.7492 93.0221 16.0034 92.7569 16.1585L44.3969 44.7485C44.215 44.8299 44.0156 44.8643 43.8169 44.8485Z" fill="white"/>
<path d="M61.1875 43.4885L94.5375 22.7485V93.3285L82.0375 100.749L81.9875 83.7485C81.9875 82.6285 81.4975 55.9585 80.5975 55.2885L61.1875 43.4885Z" fill="white"/>
<rect y="20" width="49" height="15" rx="4" fill="#FF8D8D"/>
<path d="M6.71911 31V24.4545H7.70668V30.1499H10.6726V31H6.71911ZM12.6861 31H11.6378L13.9933 24.4545H15.1342L17.4897 31H16.4414L14.5909 25.6435H14.5398L12.6861 31ZM12.8619 28.4368H16.2624V29.2678H12.8619V28.4368ZM19.154 31L17.3387 24.4545H18.3774L19.6526 29.5234H19.7133L21.0397 24.4545H22.0688L23.3952 29.5266H23.4559L24.7279 24.4545H25.7698L23.9513 31H22.9573L21.5798 26.0973H21.5287L20.1512 31H19.154ZM26.1653 24.4545H27.2871L28.997 27.43H29.0673L30.7772 24.4545H31.899L29.5243 28.4304V31H28.54V28.4304L26.1653 24.4545ZM32.8314 31V24.4545H36.9351V25.3047H33.819V27.299H36.721V28.146H33.819V30.1499H36.9735V31H32.8314ZM38.2543 31V24.4545H40.5874C41.0945 24.4545 41.5153 24.5419 41.8498 24.7166C42.1864 24.8913 42.4379 25.1332 42.604 25.4421C42.7702 25.7489 42.8533 26.1037 42.8533 26.5064C42.8533 26.907 42.7692 27.2596 42.6009 27.5643C42.4347 27.8668 42.1832 28.1023 41.8466 28.2706C41.5121 28.4389 41.0913 28.5231 40.5842 28.5231H38.8168V27.6729H40.4947C40.8143 27.6729 41.0742 27.6271 41.2745 27.5355C41.4769 27.4439 41.625 27.3107 41.7188 27.136C41.8125 26.9613 41.8594 26.7514 41.8594 26.5064C41.8594 26.2592 41.8114 26.0451 41.7156 25.864C41.6218 25.6829 41.4737 25.5444 41.2713 25.4485C41.071 25.3505 40.8079 25.3015 40.4819 25.3015H39.2418V31H38.2543ZM41.4854 28.0469L43.1026 31H41.9776L40.3924 28.0469H41.4854Z" fill="white"/>
<rect x="101" y="77" width="43" height="15" rx="4" fill="#FF8D8D"/>
<path d="M112.156 83.5831H111.158C111.12 83.37 111.049 83.1825 110.944 83.0206C110.84 82.8587 110.712 82.7212 110.561 82.6083C110.409 82.4954 110.24 82.4102 110.053 82.3526C109.867 82.2951 109.67 82.2663 109.461 82.2663C109.084 82.2663 108.746 82.3612 108.448 82.5508C108.152 82.7404 107.918 83.0185 107.745 83.3849C107.575 83.7514 107.489 84.1989 107.489 84.7273C107.489 85.2599 107.575 85.7095 107.745 86.076C107.918 86.4425 108.153 86.7195 108.451 86.907C108.75 87.0945 109.085 87.1882 109.458 87.1882C109.665 87.1882 109.861 87.1605 110.046 87.1051C110.234 87.0476 110.403 86.9634 110.554 86.8526C110.706 86.7418 110.833 86.6065 110.938 86.4467C111.044 86.2848 111.118 86.0994 111.158 85.8906L112.156 85.8938C112.102 86.2156 111.999 86.5117 111.846 86.7823C111.694 87.0508 111.499 87.283 111.261 87.479C111.024 87.6729 110.754 87.8232 110.449 87.9297C110.144 88.0362 109.812 88.0895 109.452 88.0895C108.885 88.0895 108.38 87.9553 107.937 87.6868C107.494 87.4162 107.144 87.0295 106.888 86.5266C106.635 86.0238 106.508 85.424 106.508 84.7273C106.508 84.0284 106.636 83.4286 106.892 82.9279C107.147 82.4251 107.497 82.0394 107.94 81.771C108.383 81.5004 108.887 81.3651 109.452 81.3651C109.799 81.3651 110.123 81.4151 110.423 81.5153C110.726 81.6133 110.998 81.7582 111.238 81.9499C111.479 82.1396 111.678 82.3718 111.836 82.6467C111.994 82.9194 112.1 83.2315 112.156 83.5831ZM113.337 88V81.4545H114.325V87.1499H117.291V88H113.337ZM119.405 81.4545V88H118.417V81.4545H119.405ZM120.843 88V81.4545H124.947V82.3047H121.831V84.299H124.733V85.146H121.831V87.1499H124.985V88H120.843ZM131.549 81.4545V88H130.641L127.314 83.1996H127.254V88H126.266V81.4545H127.18L130.51 86.2614H130.571V81.4545H131.549ZM132.667 82.3047V81.4545H137.733V82.3047H135.69V88H134.706V82.3047H132.667Z" fill="white"/>
</svg>
