<svg xmlns="http://www.w3.org/2000/svg" viewBox="0 0 120.04 120.04"><defs><style>.cls-1{fill:#fff;}</style></defs><g id="Layer_2" data-name="Layer 2"><g id="Layer_1-2" data-name="Layer 1"><rect width="120.04" height="120.04" rx="12"/><path class="cls-1" d="M61.09,105.79c-.47-.24-.79-.39-1.09-.57-7.56-4.36-15.12-8.7-22.66-13.08a8.42,8.42,0,0,1-3.74-4,5.54,5.54,0,0,1-.39-2c0-13.38-.38-27-.38-40.34,0-.73-.25-2.39,1.33-2.74-.82.59-.62,1.24-.41,1.5a14.77,14.77,0,0,0,3.86,3.36q8.61,5,17.23,9.93c1.9,1.09,3.8,2.2,5.71,3.27a1.1,1.1,0,0,1,.55,1.11q0,19.44,0,38.87v4.72Z"/><path class="cls-1" d="M70.15,105.79c0-.41-.08-.67-.08-.94,0-6.57,0-13.14,0-19.71,0-1-.35-27.11-1.15-27.57Q59.56,52.22,50.22,46.8c-1.94-1.11-2.95-2.66-1.65-3.92,1-1,19.33-12,27.18-16.51l10.77-6.18c.57-.32.68-.26.68.41,0,1.86,0,3.71,0,5.57,0,14.33,0,54.26,0,68.59a1.89,1.89,0,0,1-1.08,1.87c-5.05,2.89-10.09,5.83-15.14,8.74C70.78,105.51,70.53,105.61,70.15,105.79Z"/><path class="cls-1" d="M34.63,45.1A1.14,1.14,0,0,1,34.05,43L82.4,14.41a1.14,1.14,0,1,1,1.17,2L35.21,45A1.19,1.19,0,0,1,34.63,45.1Z"/><path class="cls-1" d="M52,43.74,85.35,23V93.58L72.85,101,72.8,84c0-1.12-.49-27.79-1.39-28.46Z"/></g></g></svg>