<?xml version="1.0" encoding="utf-8"?>
<!-- Generator: Adobe Illustrator 27.8.1, SVG Export Plug-In . SVG Version: 6.00 Build 0)  -->
<svg version="1.1" id="Layer_1" xmlns="http://www.w3.org/2000/svg" xmlns:xlink="http://www.w3.org/1999/xlink" x="0px" y="0px"
	 viewBox="0 0 595.3 124.2" style="enable-background:new 0 0 595.3 124.2;" xml:space="preserve">
<style type="text/css">
	.st0{fill:#212121;}
	.st1{fill:#F37802;}
	.st2{fill:#0027B3;}
	.st3{fill:none;}
</style>
<g>
	<g>
		<path class="st0" d="M130.5,87.9V27h7.2v54.7h30.8v6.2H130.5z"/>
		<path class="st0" d="M193.3,88.6c-3.9,0-7.2-0.9-10.1-2.7c-2.9-1.8-5.1-4.4-6.7-7.7c-1.6-3.3-2.4-7.3-2.4-12
			c0-4.7,0.8-8.8,2.4-12.1c1.6-3.3,3.8-5.9,6.7-7.7c2.9-1.8,6.2-2.7,10.1-2.7c3.9,0,7.3,1,10.2,3c2.9,2,4.7,4.7,5.7,8.1h-1l1-10.3
			h6.7c-0.2,1.7-0.3,3.4-0.5,5.1c-0.1,1.7-0.2,3.4-0.2,5v33.3h-7V77.7h1c-0.9,3.4-2.8,6.1-5.7,8C200.5,87.7,197.1,88.6,193.3,88.6z
			 M194.7,82.9c4.1,0,7.4-1.4,9.8-4.3s3.6-7,3.6-12.5c0-5.5-1.2-9.7-3.6-12.6c-2.4-2.9-5.7-4.3-9.8-4.3c-4.1,0-7.4,1.4-9.8,4.3
			c-2.4,2.9-3.7,7-3.7,12.6c0,5.5,1.2,9.6,3.7,12.5C187.4,81.5,190.6,82.9,194.7,82.9z"/>
		<path class="st0" d="M239.8,87.9l-16.1-43.4h7.4l13.4,38.2h-2.2l13.8-38.2h6l13.6,38.2h-2.2l13.5-38.2h7.1L278,87.9h-6.7l-14-38.8
			h3.5l-14.1,38.8H239.8z"/>
		<path class="st0" d="M302.6,107.5l-1.6-5.8c2.7-0.6,5-1.4,6.8-2.2c1.8-0.8,3.3-1.9,4.5-3.3c1.2-1.4,2.2-3.1,3.1-5.2l2.2-5.1
			l-0.2,2.9l-18.9-44.3h7.6l15.6,38.1h-2.2L335,44.5h7.3l-20,47c-1.2,2.8-2.4,5.1-3.8,7c-1.4,1.9-2.9,3.4-4.4,4.6
			c-1.6,1.2-3.3,2.1-5.2,2.8C306.9,106.5,304.9,107.1,302.6,107.5z"/>
		<path class="st0" d="M365.9,88.6c-3.9,0-7.2-0.9-10.1-2.7c-2.9-1.8-5.1-4.4-6.7-7.7c-1.6-3.3-2.4-7.3-2.4-12
			c0-4.7,0.8-8.8,2.4-12.1c1.6-3.3,3.8-5.9,6.7-7.7c2.9-1.8,6.2-2.7,10.1-2.7c3.9,0,7.3,1,10.2,3c2.9,2,4.7,4.7,5.7,8.1h-1l1-10.3
			h6.7c-0.2,1.7-0.3,3.4-0.5,5.1c-0.1,1.7-0.2,3.4-0.2,5v33.3h-7V77.7h1c-0.9,3.4-2.8,6.1-5.7,8C373,87.7,369.7,88.6,365.9,88.6z
			 M367.2,82.9c4.1,0,7.4-1.4,9.8-4.3s3.6-7,3.6-12.5c0-5.5-1.2-9.7-3.6-12.6c-2.4-2.9-5.7-4.3-9.8-4.3c-4.1,0-7.4,1.4-9.8,4.3
			c-2.4,2.9-3.7,7-3.7,12.6c0,5.5,1.2,9.6,3.7,12.5C359.9,81.5,363.2,82.9,367.2,82.9z"/>
		<path class="st0" d="M401.2,87.9V54.5c0-1.6-0.1-3.3-0.2-5c-0.1-1.7-0.3-3.4-0.5-5.1h6.7l0.9,9.5h-1c1.3-3.3,3.3-5.9,6.1-7.6
			c2.8-1.8,6-2.6,9.7-2.6c5.1,0,9,1.4,11.6,4.1c2.6,2.7,3.9,7,3.9,12.9v27.1h-7V61.2c0-4.1-0.8-7.1-2.5-8.9
			c-1.6-1.9-4.2-2.8-7.6-2.8c-4,0-7.2,1.2-9.6,3.7c-2.4,2.5-3.5,5.8-3.5,9.9v24.8H401.2z"/>
		<path class="st0" d="M467.2,88.6c-4.3,0-7.5-1.2-9.8-3.7c-2.2-2.4-3.4-6.1-3.4-11.1V49.9h-8.5v-5.4h8.5V32.7l7-2v13.8h12.4v5.4
			h-12.4v23.2c0,3.5,0.6,5.9,1.8,7.4c1.2,1.5,3,2.2,5.3,2.2c1.1,0,2.1-0.1,2.9-0.3c0.9-0.2,1.6-0.4,2.3-0.7v5.9
			c-0.8,0.3-1.8,0.6-2.9,0.8C469.4,88.5,468.3,88.6,467.2,88.6z"/>
		<path class="st0" d="M481.9,87.9V54.9c0-1.7,0-3.5-0.1-5.3c-0.1-1.8-0.2-3.5-0.4-5.2h6.7L489,55l-1.2,0.1c0.6-2.6,1.6-4.7,3-6.4
			c1.4-1.7,3.1-2.9,5.1-3.8c2-0.8,4-1.3,6.1-1.3c0.9,0,1.6,0,2.3,0.1c0.7,0.1,1.3,0.2,1.9,0.4l-0.1,6.2c-0.9-0.3-1.7-0.5-2.4-0.6
			c-0.7-0.1-1.5-0.1-2.5-0.1c-2.5,0-4.7,0.6-6.6,1.8c-1.9,1.2-3.3,2.8-4.2,4.7c-1,1.9-1.4,3.9-1.4,6v25.6H481.9z"/>
		<path class="st0" d="M529.5,88.6c-3.9,0-7.2-0.9-10.1-2.7c-2.9-1.8-5.1-4.4-6.7-7.7c-1.6-3.3-2.4-7.3-2.4-12
			c0-4.7,0.8-8.8,2.4-12.1c1.6-3.3,3.8-5.9,6.7-7.7c2.9-1.8,6.2-2.7,10.1-2.7c3.9,0,7.3,1,10.2,3c2.9,2,4.7,4.7,5.7,8.1h-1l1-10.3
			h6.7c-0.2,1.7-0.3,3.4-0.5,5.1c-0.1,1.7-0.2,3.4-0.2,5v33.3h-7V77.7h1c-0.9,3.4-2.8,6.1-5.7,8C536.6,87.7,533.3,88.6,529.5,88.6z
			 M530.9,82.9c4.1,0,7.4-1.4,9.8-4.3s3.6-7,3.6-12.5c0-5.5-1.2-9.7-3.6-12.6c-2.4-2.9-5.7-4.3-9.8-4.3c-4.1,0-7.4,1.4-9.8,4.3
			c-2.4,2.9-3.7,7-3.7,12.6c0,5.5,1.2,9.6,3.7,12.5C523.5,81.5,526.8,82.9,530.9,82.9z"/>
	</g>
	<g>
		<g>
			<g>
				<g>
					<path class="st1" d="M111.6,96.8L111.6,96.8c0,1.1-0.6,2-1.4,2.4c-3,1.7-9.3,3.9-14.1,5.5c-0.1,0.1-0.3,0.1-0.4,0.2
						c-0.4,0.1-0.8,0.2-1.2,0.2c-2.5,0-4.6-2.1-4.6-4.6V58.9c0-0.6-0.3-1.2-0.9-1.5c-5.9-3.3-10.1-5.5-16.2-9
						c-0.2-0.1-0.3-0.2-0.5-0.3c0,0,0,0,0,0c-0.7-0.5-1.2-1.3-1.2-2.3c0-0.9,0.5-1.8,1.2-2.3c0.1-0.1,0.2-0.1,0.2-0.2
						c6.6-4,35.1-20.2,38.4-22.1c0.6-0.3,0.7-0.3,0.7,0.4c0,1.9,0,3.8,0,5.7C111.6,41.9,111.6,82,111.6,96.8z"/>
				</g>
			</g>
		</g>
		<g>
			<path class="st2" d="M111.7,14C111.7,14,111.7,14,111.7,14c-0.1-0.2-0.1-0.4-0.3-0.6c-0.3-0.4-0.7-0.6-1.2-0.6
				c-0.2,0-0.4,0-0.6,0.1c0,0,0,0,0,0l-0.2,0.1c0,0,0,0,0,0S55.5,43.5,54.7,44.2c-0.6,0.5-0.8,1.2-0.8,1.8v0.3c0,0,0,0.7,0,1.1
				c0,0.3,0,0.5,0,0.7c0,4.1,0.1,32.5,0,40.2c0,0.5,0,0.9,0.2,1.3c0.2,0.8,0.7,1.6,1.4,2.1c8.6,4.8,18.7,10.1,24.2,12.9
				c0,0,0.1,0.1,0.1,0.1c0.4,0.2,0.8,0.3,1.2,0.3c1.5,0,2.7-1.2,2.8-2.6c0,0-0.1-25.2,0-38.4c0-0.5-0.1-0.9-0.6-1.1
				c-1.9-1.1-3.9-2.2-5.8-3.3c-2.9-1.6-7.9-4.5-12.5-7.1c-1.7-1-3.4-1.9-4.8-2.8c-0.4-0.2-0.8-0.4-1.1-0.7c-0.7-0.4-1.1-1.1-1.2-1.9
				c0-0.1,0-0.1,0-0.2c0-0.1,0-0.2,0-0.3c0-0.1,0-0.1,0-0.2c0-0.1,0-0.1,0-0.2c0.2-0.6,0.5-1,1.1-1.4c0.4-0.2,0.8-0.4,1.2-0.7
				c0.6-0.3,1.2-0.7,1.8-1c13.7-7.7,44.4-25,48.8-27.5c0.3-0.2,0.5-0.3,0.5-0.3c0.3-0.3,0.5-0.7,0.5-1.1
				C111.7,14.2,111.7,14.1,111.7,14z"/>
		</g>
	</g>
</g>
</svg>
