<svg width="404" height="1024" viewBox="0 0 404 1024" fill="none" xmlns="http://www.w3.org/2000/svg">
<g clip-path="url(#clip0_968_7795)">
<rect width="404" height="1024" fill="url(#paint0_linear_968_7795)"/>
<g opacity="0.21">
<path d="M431.983 1038.34C431.983 1048.96 426.441 1057.64 419.053 1061.51C391.347 1077.91 333.163 1099.15 288.832 1114.59C287.909 1115.56 286.062 1115.56 285.138 1116.52C281.444 1117.49 277.75 1118.45 274.056 1118.45C250.967 1118.45 231.572 1098.18 231.572 1074.05V672.517C231.572 666.726 228.802 660.934 223.26 658.039C168.771 626.186 129.982 604.951 73.645 571.168C71.7979 570.203 70.8743 569.237 69.0272 568.272C62.5624 563.446 57.9446 555.724 57.9446 546.072C57.9446 537.385 62.5624 528.698 69.0272 523.871C69.9508 522.906 70.8743 522.906 70.8743 521.941C131.829 483.332 395.041 326.964 425.518 308.625C431.059 305.729 431.983 305.729 431.983 312.486C431.983 330.825 431.983 349.164 431.983 367.504C431.983 508.428 431.983 895.486 431.983 1038.34Z" fill="#F37802"/>
<path d="M432.906 239.128C431.983 237.198 431.983 235.267 430.136 233.337C427.365 229.476 423.671 227.545 419.053 227.545C417.206 227.545 415.359 227.545 413.512 228.511L411.665 229.476C411.665 229.476 -86.1294 523.872 -93.5178 530.628C-99.0592 535.454 -100.906 542.211 -100.906 548.002V550.898C-100.906 550.898 -100.906 557.655 -100.906 561.516C-100.906 564.411 -100.906 566.342 -100.906 568.272C-100.906 607.847 -99.9827 881.973 -100.906 956.296C-100.906 961.122 -100.906 964.983 -99.0592 968.844C-97.2121 976.565 -92.5943 984.287 -86.1294 989.113C-6.70405 1035.44 86.5746 1086.6 137.37 1113.63L138.293 1114.59C141.988 1116.52 145.682 1117.49 149.376 1117.49C163.229 1117.49 174.312 1105.91 175.236 1092.39C175.236 1092.39 174.312 849.155 175.236 721.744C175.236 716.918 174.312 713.057 169.694 711.127C152.147 700.509 133.676 689.892 116.128 679.274C89.3453 663.83 43.1677 635.839 0.684369 610.743C-15.016 601.09 -30.7164 592.403 -43.6461 583.716C-47.3403 581.786 -51.0345 579.855 -53.8052 576.959C-60.27 573.098 -63.9642 566.342 -64.8878 558.62C-64.8878 557.655 -64.8878 557.655 -64.8878 556.69C-64.8878 555.724 -64.8878 554.759 -64.8878 553.794C-64.8878 552.829 -64.8878 552.829 -64.8878 551.863C-64.8878 550.898 -64.8878 550.898 -64.8878 549.933C-63.0407 544.142 -60.27 540.281 -54.7287 536.42C-51.0345 534.489 -47.3403 532.559 -43.6461 529.663C-38.1048 526.767 -32.5635 522.906 -27.0222 520.011C99.5043 445.688 383.034 278.703 423.671 254.572C426.441 252.641 428.288 251.676 428.288 251.676C431.059 248.781 432.906 244.92 432.906 241.059C432.906 241.059 432.906 240.093 432.906 239.128Z" fill="#0027B3"/>
</g>
</g>
<defs>
<linearGradient id="paint0_linear_968_7795" x1="55.0909" y1="-98" x2="955.575" y2="1417.94" gradientUnits="userSpaceOnUse">
<stop stop-color="#0027B3"/>
<stop offset="1" stop-color="#0B0500"/>
</linearGradient>
<clipPath id="clip0_968_7795">
<rect width="404" height="1024" fill="white"/>
</clipPath>
</defs>
</svg>
