<svg width="27" height="23" viewBox="0 0 27 23" fill="none" xmlns="http://www.w3.org/2000/svg">
<path d="M27 2.70588C26.0062 3.17941 24.935 3.49059 23.825 3.63941C24.9608 2.92235 25.8384 1.78588 26.2514 0.419412C25.1802 1.09588 23.9928 1.56941 22.7409 1.84C21.7213 0.676471 20.2887 0 18.6625 0C15.6295 0 13.1515 2.59765 13.1515 5.80412C13.1515 6.26412 13.2032 6.71059 13.2935 7.13C8.69885 6.88647 4.60755 4.57294 1.88432 1.06882C1.40679 1.92118 1.13576 2.92235 1.13576 3.97765C1.13576 5.99353 2.10373 7.77941 3.60086 8.79412C2.68451 8.79412 1.8327 8.52353 1.08413 8.11765V8.15823C1.08413 10.9724 2.99426 13.3265 5.5239 13.8541C4.71174 14.0871 3.85911 14.1195 3.03298 13.9488C3.38353 15.1022 4.07005 16.1114 4.99605 16.8346C5.92206 17.5577 7.04097 17.9585 8.19551 17.9806C6.23843 19.6047 3.81252 20.4826 1.31644 20.47C0.877629 20.47 0.438815 20.4429 0 20.3888C2.4522 22.0394 5.36903 23 8.49235 23C18.6625 23 24.251 14.1518 24.251 6.48059C24.251 6.22353 24.251 5.98 24.2381 5.72294C25.3222 4.91118 26.2514 3.88294 27 2.70588Z" fill="#1877F2"/>
</svg>
